<svg xmlns="http://www.w3.org/2000/svg" xmlns:xlink="http://www.w3.org/1999/xlink" width="800" zoomAndPan="magnify" viewBox="0 0 600 449.999984" height="600" preserveAspectRatio="xMidYMid meet" version="1.0"><defs><clipPath id="b711648370"><path d="M 484 251 L 575.917969 251 L 575.917969 313 L 484 313 Z M 484 251 " clip-rule="nonzero"/></clipPath><clipPath id="598619c44b"><path d="M 407 1.363281 L 533 1.363281 L 533 107 L 407 107 Z M 407 1.363281 " clip-rule="nonzero"/></clipPath></defs><path fill="#ff2f51" d="M 311.820312 32.652344 C 311.34375 29.578125 309.65625 26.824219 307.148438 24.988281 C 304.640625 23.152344 301.503906 22.390625 298.425781 22.867188 C 279.6875 25.78125 242.929688 31.496094 224.1875 34.410156 C 221.109375 34.890625 218.359375 36.566406 216.515625 39.078125 C 214.683594 41.589844 213.921875 44.726562 214.402344 47.800781 C 216.644531 62.238281 220.457031 86.757812 222.703125 101.195312 C 223.179688 104.269531 224.859375 107.027344 227.367188 108.859375 C 229.882812 110.695312 233.011719 111.460938 236.089844 110.980469 C 254.835938 108.066406 291.59375 102.351562 310.332031 99.4375 C 313.410156 98.960938 316.167969 97.277344 318 94.769531 C 319.832031 92.257812 320.601562 89.121094 320.125 86.046875 C 317.878906 71.609375 314.066406 47.089844 311.820312 32.652344 Z M 311.820312 32.652344 " fill-opacity="1" fill-rule="evenodd"/><path fill="#f0f0f0" d="M 290.597656 57.457031 L 249.132812 86.699219 L 242.210938 42.191406 Z M 290.597656 57.457031 " fill-opacity="1" fill-rule="evenodd"/><path fill="#ccff00" d="M 234.230469 98.621094 L 308.355469 87.09375 L 309.03125 91.433594 L 234.90625 102.960938 Z M 234.230469 98.621094 " fill-opacity="1" fill-rule="evenodd"/><path fill="#ff8a00" d="M 353.972656 347.949219 L 443.671875 366.261719 L 431.890625 423.964844 L 342.191406 405.652344 Z M 353.972656 347.949219 " fill-opacity="1" fill-rule="evenodd"/><path fill="#ffc200" d="M 390.578125 397.476562 L 443.683594 366.28125 L 353.976562 347.96875 Z M 390.578125 397.476562 " fill-opacity="1" fill-rule="evenodd"/><g clip-path="url(#b711648370)"><path fill="#2de1ef" d="M 484.175781 312.65625 C 484.175781 312.65625 486.152344 293.941406 487.742188 278.917969 C 488.914062 267.859375 496.402344 259.09375 506.382812 257.097656 L 534.058594 251.574219 C 544.03125 249.582031 554.316406 254.800781 559.644531 264.558594 C 566.878906 277.820312 575.894531 294.339844 575.894531 294.339844 Z M 484.175781 312.65625 " fill-opacity="1" fill-rule="evenodd"/></g><path fill="#00bae2" d="M 539.894531 233.785156 C 540.046875 234.535156 540.15625 235.289062 540.234375 236.050781 C 540.308594 236.808594 540.347656 237.574219 540.347656 238.335938 C 540.347656 239.101562 540.3125 239.863281 540.238281 240.625 C 540.164062 241.382812 540.050781 242.140625 539.902344 242.890625 C 539.753906 243.640625 539.570312 244.378906 539.347656 245.109375 C 539.125 245.84375 538.871094 246.5625 538.578125 247.265625 C 538.285156 247.972656 537.960938 248.664062 537.601562 249.339844 C 537.242188 250.011719 536.847656 250.667969 536.425781 251.304688 C 536 251.9375 535.546875 252.550781 535.0625 253.144531 C 534.578125 253.734375 534.066406 254.300781 533.523438 254.839844 C 532.984375 255.382812 532.421875 255.894531 531.828125 256.378906 C 531.238281 256.867188 530.625 257.320312 529.992188 257.746094 C 529.355469 258.171875 528.703125 258.5625 528.027344 258.925781 C 527.355469 259.285156 526.664062 259.613281 525.960938 259.90625 C 525.253906 260.199219 524.535156 260.457031 523.804688 260.679688 C 523.074219 260.902344 522.332031 261.085938 521.582031 261.238281 C 520.832031 261.386719 520.078125 261.5 519.316406 261.574219 C 518.558594 261.648438 517.796875 261.6875 517.03125 261.6875 C 516.265625 261.6875 515.503906 261.652344 514.742188 261.578125 C 513.984375 261.503906 513.226562 261.390625 512.476562 261.242188 C 511.730469 261.09375 510.988281 260.910156 510.257812 260.6875 C 509.523438 260.46875 508.804688 260.210938 508.101562 259.917969 C 507.394531 259.625 506.703125 259.300781 506.03125 258.941406 C 505.355469 258.582031 504.699219 258.191406 504.0625 257.765625 C 503.429688 257.339844 502.816406 256.886719 502.222656 256.402344 C 501.632812 255.917969 501.066406 255.40625 500.527344 254.867188 C 499.984375 254.324219 499.472656 253.761719 498.988281 253.171875 C 498.503906 252.582031 498.046875 251.96875 497.621094 251.332031 C 497.195312 250.695312 496.804688 250.042969 496.441406 249.371094 C 496.082031 248.695312 495.753906 248.003906 495.460938 247.300781 C 495.167969 246.59375 494.910156 245.875 494.691406 245.144531 C 494.46875 244.414062 494.28125 243.671875 494.132812 242.921875 C 493.980469 242.175781 493.871094 241.417969 493.792969 240.660156 C 493.71875 239.898438 493.679688 239.136719 493.679688 238.371094 C 493.679688 237.605469 493.714844 236.84375 493.789062 236.085938 C 493.863281 235.324219 493.976562 234.570312 494.125 233.820312 C 494.273438 233.070312 494.457031 232.328125 494.679688 231.597656 C 494.902344 230.867188 495.15625 230.148438 495.449219 229.441406 C 495.742188 228.734375 496.066406 228.042969 496.425781 227.371094 C 496.785156 226.695312 497.179688 226.039062 497.601562 225.40625 C 498.027344 224.769531 498.480469 224.15625 498.964844 223.566406 C 499.449219 222.972656 499.960938 222.40625 500.5 221.867188 C 501.042969 221.324219 501.605469 220.8125 502.195312 220.328125 C 502.789062 219.84375 503.398438 219.386719 504.035156 218.960938 C 504.671875 218.539062 505.324219 218.144531 506 217.785156 C 506.671875 217.421875 507.363281 217.097656 508.066406 216.804688 C 508.773438 216.511719 509.492188 216.253906 510.222656 216.03125 C 510.953125 215.808594 511.695312 215.621094 512.445312 215.472656 C 513.195312 215.320312 513.949219 215.210938 514.710938 215.132812 C 515.46875 215.058594 516.230469 215.019531 516.996094 215.019531 C 517.761719 215.019531 518.523438 215.054688 519.285156 215.128906 C 520.042969 215.203125 520.800781 215.316406 521.546875 215.464844 C 522.296875 215.613281 523.039062 215.796875 523.769531 216.019531 C 524.5 216.242188 525.21875 216.496094 525.925781 216.789062 C 526.632812 217.082031 527.324219 217.40625 527.996094 217.765625 C 528.671875 218.125 529.328125 218.519531 529.960938 218.941406 C 530.597656 219.367188 531.210938 219.820312 531.804688 220.304688 C 532.394531 220.789062 532.960938 221.300781 533.5 221.84375 C 534.042969 222.382812 534.554688 222.945312 535.039062 223.539062 C 535.523438 224.128906 535.980469 224.742188 536.40625 225.375 C 536.828125 226.011719 537.222656 226.664062 537.582031 227.339844 C 537.945312 228.011719 538.269531 228.703125 538.5625 229.410156 C 538.859375 230.113281 539.113281 230.832031 539.335938 231.5625 C 539.558594 232.296875 539.746094 233.035156 539.894531 233.785156 Z M 539.894531 233.785156 " fill-opacity="1" fill-rule="nonzero"/><g clip-path="url(#598619c44b)"><path fill="#f0f0f0" d="M 434.089844 1.28125 L 532.226562 39.183594 L 506.085938 106.867188 L 407.949219 68.960938 Z M 434.089844 1.28125 " fill-opacity="1" fill-rule="evenodd"/></g><path fill="#ffed00" d="M 439.472656 11.160156 L 521.59375 42.878906 L 500.710938 96.945312 L 418.589844 65.226562 Z M 439.472656 11.160156 " fill-opacity="1" fill-rule="evenodd"/><path fill="#00ad85" d="M 467.917969 70.164062 L 498.265625 58.03125 L 505.441406 84.65625 L 500.6875 96.957031 L 459.628906 81.097656 " fill-opacity="1" fill-rule="evenodd"/><path fill="#00d4a3" d="M 425.066406 48.417969 L 469.839844 34.441406 L 479.367188 88.722656 L 418.570312 65.238281 Z M 425.066406 48.417969 " fill-opacity="1" fill-rule="evenodd"/><path fill="#00d4c9" d="M 47.046875 226.355469 C 34.3125 210.558594 44.339844 181.308594 69.433594 161.074219 C 94.523438 140.839844 125.234375 137.234375 137.972656 153.03125 C 145.5 162.363281 145.320312 176.941406 137.496094 192.09375 L 158.949219 206.953125 L 126.578125 207.832031 C 123.257812 211.578125 119.5625 215.101562 115.585938 218.308594 C 90.496094 238.542969 59.785156 242.148438 47.046875 226.355469 Z M 47.046875 226.355469 " fill-opacity="1" fill-rule="evenodd"/><path fill="#c1ffef" d="M 65.042969 205.472656 C 67.90625 203.167969 72.097656 203.617188 74.390625 206.472656 C 76.6875 209.328125 76.246094 213.515625 73.402344 215.816406 C 70.539062 218.121094 66.347656 217.671875 64.054688 214.816406 C 61.738281 211.960938 62.199219 207.773438 65.042969 205.472656 Z M 89.40625 185.835938 C 92.246094 183.53125 96.4375 183.980469 98.753906 186.835938 C 101.050781 189.691406 100.585938 193.878906 97.742188 196.179688 C 94.878906 198.484375 90.710938 198.035156 88.394531 195.179688 C 86.097656 192.324219 86.542969 188.136719 89.40625 185.835938 Z M 113.746094 166.195312 C 116.609375 163.894531 120.800781 164.34375 123.09375 167.199219 C 125.390625 170.050781 124.949219 174.242188 122.085938 176.542969 C 119.242188 178.84375 115.050781 178.398438 112.757812 175.542969 C 110.441406 172.6875 110.902344 168.5 113.746094 166.195312 Z M 113.746094 166.195312 " fill-opacity="1" fill-rule="evenodd"/><path fill="#b33bff" d="M 169.351562 404.222656 C 170.234375 405.410156 171.980469 405.730469 173.601562 405 C 175.589844 404.113281 178.390625 402.855469 181.136719 401.628906 C 186.707031 399.132812 192.71875 399.8125 196.394531 403.363281 C 197.554688 404.484375 198.78125 405.667969 199.964844 406.8125 C 204.105469 410.8125 204.308594 417.507812 200.453125 423.105469 C 199.257812 424.839844 198.035156 426.617188 196.910156 428.25 C 193.277344 433.53125 186.804688 436.550781 180.960938 435.703125 C 171.035156 434.242188 155.304688 427.476562 136.953125 403.386719 L 136.941406 403.394531 L 135.761719 401.804688 L 135.773438 401.796875 C 118 377.277344 116.0625 360.269531 117.523438 350.335938 C 118.398438 344.496094 123.160156 339.175781 129.261719 337.214844 C 131.15625 336.613281 133.203125 335.949219 135.210938 335.304688 C 141.683594 333.230469 148.03125 335.351562 150.667969 340.472656 C 151.429688 341.945312 152.207031 343.457031 152.945312 344.894531 C 155.28125 349.429688 154.199219 355.382812 150.207031 360.003906 C 148.234375 362.273438 146.222656 364.59375 144.800781 366.238281 C 143.628906 367.582031 143.4375 369.34375 144.320312 370.53125 Z M 169.351562 404.222656 " fill-opacity="1" fill-rule="evenodd"/><path fill="#ffd600" d="M 291.203125 201.886719 L 375.324219 116.199219 L 430.222656 261.003906 L 310.4375 252.621094 Z M 291.203125 201.886719 " fill-opacity="1" fill-rule="evenodd"/><path fill="#2d9aef" d="M 294.71875 185.433594 L 196.75 222.578125 C 182.429688 228.007812 175.226562 244.015625 180.65625 258.328125 C 183.746094 266.488281 187.164062 275.496094 190.257812 283.65625 C 195.683594 297.972656 211.6875 305.179688 226.007812 299.75 C 262.328125 285.980469 323.976562 262.605469 323.976562 262.605469 Z M 294.71875 185.433594 " fill-opacity="1" fill-rule="evenodd"/><path fill="#98d2ff" d="M 201.566406 210.691406 L 240.203125 196.042969 L 276.125 290.792969 L 237.488281 305.441406 Z M 201.566406 210.691406 " fill-opacity="1" fill-rule="evenodd"/><path fill="#3287ca" d="M 289.546875 351.832031 C 290.632812 354.703125 290.539062 357.886719 289.277344 360.683594 C 288.019531 363.484375 285.699219 365.664062 282.828125 366.753906 C 282.828125 366.753906 282.824219 366.753906 282.824219 366.757812 C 279.953125 367.84375 276.769531 367.75 273.96875 366.488281 C 271.171875 365.230469 268.988281 362.910156 267.902344 360.039062 C 260.570312 340.699219 245.980469 302.21875 245.980469 302.21875 L 267.625 294.011719 Z M 289.546875 351.832031 " fill-opacity="1" fill-rule="evenodd"/><path fill="#c0c0c0" d="M 431.398438 211.535156 L 453.507812 221.207031 L 456.898438 213.449219 L 434.789062 203.777344 Z M 434.074219 186.402344 L 455.464844 178.136719 L 452.414062 170.238281 L 431.019531 178.5 Z M 419.964844 165.410156 L 429.839844 143.378906 L 422.113281 139.914062 L 412.238281 161.945312 Z M 419.964844 165.410156 " fill-opacity="1" fill-rule="evenodd"/></svg>