<svg xmlns="http://www.w3.org/2000/svg" xmlns:xlink="http://www.w3.org/1999/xlink" width="800" zoomAndPan="magnify" viewBox="0 0 600 449.999984" height="600" preserveAspectRatio="xMidYMid meet" version="1.0"><defs><clipPath id="84540d509f"><path d="M 72 21 L 501 21 L 501 449.667969 L 72 449.667969 Z M 72 21 " clip-rule="nonzero"/></clipPath></defs><path fill="#52a7d7" d="M 358.925781 282.933594 C 363.402344 258.511719 398.984375 259.308594 396.691406 282.933594 C 392.269531 292.820312 386.390625 301.890625 379.320312 309.875 L 368.070312 301.378906 L 372.011719 317.347656 C 364.027344 324.753906 354.949219 330.9375 345.023438 335.523438 C 323.15625 328.15625 325.328125 285.65625 358.925781 282.933594 Z M 358.925781 282.933594 " fill-opacity="1" fill-rule="nonzero"/><path fill="#52a7d7" d="M 301.246094 282.933594 C 333.355469 290.210938 335.523438 336.398438 301.246094 345.273438 C 285.609375 345.273438 270.792969 341.773438 257.46875 335.558594 C 234.53125 326.316406 218.800781 291.511719 243.566406 282.933594 C 245.921875 253.238281 295.605469 253.996094 301.246094 282.933594 Z M 301.246094 282.933594 " fill-opacity="1" fill-rule="nonzero"/><path fill="#52a7d7" d="M 239.996094 238.394531 C 233.992188 214.421875 196.589844 216.046875 196.285156 240.703125 C 196.589844 255.753906 199.957031 270.023438 205.804688 282.933594 C 213.269531 299.753906 239.996094 305.769531 243.566406 282.933594 C 272.496094 280.777344 268.046875 242.609375 239.996094 238.394531 Z M 239.996094 238.394531 " fill-opacity="1" fill-rule="nonzero"/><path fill="#52a7d7" d="M 301.246094 238.394531 C 306.851562 206.179688 354.4375 201.410156 362.496094 238.394531 C 393.488281 242.902344 391.609375 280.125 358.925781 282.933594 C 350.820312 314.101562 303.523438 312.65625 301.246094 282.933594 C 267.183594 274.054688 273.058594 238.394531 301.246094 238.394531 Z M 301.246094 238.394531 " fill-opacity="1" fill-rule="nonzero"/><path fill="#52a7d7" d="M 406.242188 238.394531 C 399.5625 262.417969 368.320312 259.671875 362.496094 238.394531 C 330.863281 235.222656 330.714844 188.398438 357.328125 184.988281 L 392.167969 184.988281 C 401.109375 200.683594 406.242188 218.925781 406.242188 238.394531 Z M 406.242188 238.394531 " fill-opacity="1" fill-rule="nonzero"/><path fill="#52a7d7" d="M 344.992188 141.265625 C 364.921875 150.777344 374.574219 180.59375 357.328125 184.988281 C 353.136719 216.445312 305.691406 212.414062 301.246094 184.988281 C 268.808594 177.664062 270.328125 137.222656 301.246094 131.550781 C 316.847656 131.550781 331.667969 135.015625 344.992188 141.230469 Z M 344.992188 141.265625 " fill-opacity="1" fill-rule="nonzero"/><path fill="#52a7d7" d="M 301.246094 184.988281 C 331.871094 188.617188 331.992188 238.394531 301.246094 238.394531 L 239.996094 238.394531 C 210.992188 229.925781 219.78125 187.097656 245.195312 184.988281 C 252.785156 155.015625 298.097656 156.195312 301.246094 184.988281 Z M 301.246094 184.988281 " fill-opacity="1" fill-rule="nonzero"/><path fill="#52a7d7" d="M 257.5 141.265625 C 275.210938 139.5 286.621094 175.796875 245.195312 184.988281 C 239.519531 213.445312 202.53125 209.433594 210.324219 184.988281 C 215.933594 175.066406 223.070312 166.167969 231.429688 158.625 L 236.394531 164.808594 L 236.460938 154.34375 C 242.917969 149.179688 249.957031 144.765625 257.5 141.265625 Z M 257.5 141.265625 " fill-opacity="1" fill-rule="nonzero"/><path fill="#f97732" d="M 486.628906 55.109375 C 474.765625 36.730469 454.097656 24.535156 430.578125 24.535156 C 407.058594 24.535156 386.355469 36.730469 374.496094 55.109375 C 367.765625 65.503906 363.855469 77.871094 363.855469 91.1875 C 363.855469 108.785156 370.722656 124.71875 381.835938 136.609375 L 371.605469 159.101562 L 367.355469 168.410156 L 376.464844 163.855469 L 401.71875 151.253906 C 410.457031 155.433594 420.210938 157.878906 430.578125 157.878906 C 467.390625 157.878906 497.265625 128.015625 497.265625 91.1875 C 497.265625 77.871094 493.355469 65.503906 486.628906 55.109375 Z M 486.628906 55.109375 " fill-opacity="1" fill-rule="nonzero"/><path fill="#f9b132" d="M 461.472656 321.492188 C 456.070312 318.46875 450.121094 316.191406 443.765625 314.765625 C 426.703125 310.925781 409.742188 314.121094 395.773438 322.308594 L 379.320312 309.875 L 368.070312 301.378906 L 372.011719 317.347656 L 377.246094 338.410156 C 371.265625 345.953125 366.8125 354.921875 364.570312 364.945312 C 356.546875 400.683594 379.050781 436.117188 414.773438 444.132812 C 431.292969 447.835938 447.742188 445.019531 461.472656 437.375 C 477.414062 428.539062 489.6875 413.152344 494.003906 393.921875 C 500.5625 364.535156 486.558594 335.351562 461.472656 321.492188 Z M 461.472656 321.492188 " fill-opacity="1" fill-rule="nonzero"/><path fill="#ae2c36" d="M 260.21875 365.554688 C 254.613281 351.082031 243.871094 340.144531 230.886719 333.890625 L 231.738281 318.503906 L 232.621094 303.113281 L 224.835938 311.671875 L 209.847656 328.21875 C 201.28125 327.574219 192.480469 328.695312 183.949219 331.988281 C 168.347656 338.035156 156.824219 349.996094 150.910156 364.296875 C 145.265625 377.851562 144.65625 393.480469 150.398438 408.226562 C 159.132812 430.613281 180.039062 444.679688 202.574219 445.730469 L 208.011719 445.730469 C 214.230469 445.460938 220.519531 444.167969 226.671875 441.789062 C 238.773438 437.066406 248.425781 428.8125 254.917969 418.65625 C 264.707031 403.367188 267.324219 383.765625 260.21875 365.554688 Z M 260.21875 365.554688 " fill-opacity="1" fill-rule="nonzero"/><path fill="#8bcb8f" d="M 238.570312 39.582031 C 211.886719 27.355469 180.308594 39.007812 168.039062 65.675781 C 166.613281 68.765625 165.523438 71.925781 164.742188 75.121094 C 158.691406 99.410156 170.554688 125.332031 194.144531 136.167969 C 201.65625 139.601562 209.507812 141.09375 217.257812 140.960938 L 231.429688 158.625 L 236.394531 164.808594 L 236.460938 154.34375 L 236.53125 136.984375 C 245.433594 133.316406 253.355469 127.300781 259.269531 119.214844 C 261.34375 116.429688 263.144531 113.375 264.671875 110.078125 C 276.910156 83.410156 265.25 51.847656 238.570312 39.582031 Z M 238.570312 39.582031 " fill-opacity="1" fill-rule="nonzero"/><path fill="#f4999a" d="M 211.75 236.863281 L 205.597656 238.394531 L 205.566406 238.394531 L 196.285156 240.703125 L 188.976562 242.539062 L 181.023438 244.507812 C 177.828125 251.8125 173.003906 258.574219 166.511719 264.113281 C 143.429688 283.816406 108.695312 281.097656 88.980469 258.03125 C 69.46875 235.269531 71.917969 201.125 94.214844 181.320312 C 94.484375 181.046875 94.757812 180.777344 95.0625 180.539062 C 116.238281 162.464844 147.171875 163.246094 167.394531 181.320312 C 169.230469 182.949219 170.964844 184.714844 172.59375 186.617188 C 182.011719 197.625 186.257812 211.285156 185.648438 224.703125 L 188.976562 226.265625 L 196.589844 229.796875 Z M 211.75 236.863281 " fill-opacity="1" fill-rule="nonzero"/><path fill="#c2e6f9" d="M 392.167969 184.988281 L 357.328125 184.988281 C 353.828125 167.117188 349.136719 152.304688 344.992188 141.265625 C 354.746094 145.816406 363.71875 151.863281 371.605469 159.101562 L 367.355469 168.410156 L 376.464844 163.855469 C 382.515625 170.175781 387.820312 177.277344 392.167969 184.988281 Z M 392.167969 184.988281 " fill-opacity="1" fill-rule="nonzero"/><path fill="#c2e6f9" d="M 362.496094 238.394531 L 301.246094 238.394531 L 301.246094 184.988281 L 357.328125 184.988281 C 360.386719 200.582031 362.496094 218.519531 362.496094 238.394531 Z M 362.496094 238.394531 " fill-opacity="1" fill-rule="nonzero"/><path fill="#c2e6f9" d="M 301.246094 131.550781 L 301.246094 184.988281 L 245.195312 184.988281 C 248.664062 167.117188 253.386719 152.304688 257.5 141.265625 C 270.824219 135.015625 285.644531 131.550781 301.246094 131.550781 Z M 301.246094 131.550781 " fill-opacity="1" fill-rule="nonzero"/><path fill="#c2e6f9" d="M 210.324219 184.988281 L 245.195312 184.988281 C 242.105469 200.582031 240.011719 220.386719 239.996094 238.394531 L 205.597656 238.394531 L 211.75 236.863281 L 196.589844 229.796875 C 197.847656 213.558594 202.710938 198.375 210.324219 184.988281 Z M 210.324219 184.988281 " fill-opacity="1" fill-rule="nonzero"/><path fill="#c2e6f9" d="M 243.566406 282.933594 C 247.132812 304.84375 252.707031 322.714844 257.46875 335.558594 C 248.050781 331.140625 239.382812 325.398438 231.738281 318.503906 L 232.621094 303.113281 L 224.835938 311.671875 C 217.054688 303.25 210.59375 293.566406 205.804688 282.933594 Z M 243.566406 282.933594 " fill-opacity="1" fill-rule="nonzero"/><path fill="#c2e6f9" d="M 301.246094 238.394531 L 301.246094 282.933594 L 243.566406 282.933594 C 241.390625 269.511719 239.996094 254.597656 239.996094 238.394531 Z M 301.246094 238.394531 " fill-opacity="1" fill-rule="nonzero"/><path fill="#c2e6f9" d="M 301.246094 282.933594 L 358.925781 282.933594 C 355.359375 304.8125 349.785156 322.679688 345.023438 335.523438 C 331.703125 341.773438 316.882812 345.273438 301.246094 345.273438 Z M 301.246094 282.933594 " fill-opacity="1" fill-rule="nonzero"/><path fill="#c2e6f9" d="M 362.496094 238.394531 L 406.242188 238.394531 C 406.242188 254.292969 402.84375 269.378906 396.691406 282.933594 L 358.925781 282.933594 C 361.101562 269.511719 362.496094 254.597656 362.496094 238.394531 Z M 362.496094 238.394531 " fill-opacity="1" fill-rule="nonzero"/><path fill="#ef9d26" d="M 377.246094 338.410156 C 371.265625 345.953125 366.8125 354.921875 364.570312 364.945312 C 356.546875 400.683594 379.050781 436.117188 414.773438 444.132812 C 431.292969 447.835938 447.742188 445.019531 461.472656 437.375 C 390.105469 436.789062 363.296875 402.855469 377.246094 338.410156 Z M 377.246094 338.410156 " fill-opacity="1" fill-rule="nonzero"/><path fill="#80bc82" d="M 164.742188 75.121094 C 158.691406 99.410156 170.554688 125.332031 194.144531 136.167969 C 201.65625 139.601562 209.507812 141.09375 217.257812 140.960938 L 231.429688 158.625 L 236.394531 164.808594 L 236.460938 154.34375 L 236.53125 136.984375 C 245.433594 133.316406 253.355469 127.300781 259.269531 119.214844 C 201.292969 142.03125 175.054688 119.859375 164.742188 75.121094 Z M 164.742188 75.121094 " fill-opacity="1" fill-rule="nonzero"/><path fill="#e0868b" d="M 94.214844 181.320312 C 71.917969 201.125 69.46875 235.269531 88.980469 258.03125 C 108.695312 281.097656 143.429688 283.816406 166.511719 264.113281 C 96.433594 273.015625 81.1875 238.390625 94.214844 181.320312 Z M 94.214844 181.320312 " fill-opacity="1" fill-rule="nonzero"/><path fill="#8e2130" d="M 150.910156 364.296875 C 145.265625 377.851562 144.65625 393.480469 150.398438 408.226562 C 159.132812 430.613281 180.039062 444.679688 202.574219 445.730469 L 208.011719 445.730469 C 214.230469 445.460938 220.519531 444.167969 226.671875 441.789062 C 238.773438 437.066406 248.425781 428.8125 254.917969 418.65625 C 207.191406 443.558594 150.496094 423.609375 150.910156 364.296875 Z M 150.910156 364.296875 " fill-opacity="1" fill-rule="nonzero"/><path fill="#e0641b" d="M 374.496094 55.109375 C 367.765625 65.503906 363.855469 77.871094 363.855469 91.1875 C 363.855469 108.785156 370.722656 124.71875 381.835938 136.609375 L 371.605469 159.101562 L 367.355469 168.410156 L 376.464844 163.855469 L 401.71875 151.253906 C 410.457031 155.433594 420.210938 157.878906 430.578125 157.878906 C 385.824219 134.800781 365.785156 101.121094 374.496094 55.109375 Z M 374.496094 55.109375 " fill-opacity="1" fill-rule="nonzero"/><g clip-path="url(#84540d509f)"><path fill="#3a322b" d="M 444.511719 311.433594 C 428.027344 307.746094 410.90625 310.167969 396.042969 318.246094 L 384.214844 309.316406 C 400.632812 289.433594 409.644531 264.402344 409.628906 238.402344 C 409.613281 211.039062 399.828125 185.113281 382.003906 164.882812 L 401.753906 155.011719 C 410.917969 159.164062 420.601562 161.265625 430.5625 161.265625 C 469.21875 161.265625 500.664062 129.832031 500.664062 91.195312 C 500.664062 52.570312 469.21875 21.136719 430.5625 21.136719 C 391.910156 21.136719 360.464844 52.570312 360.464844 91.203125 C 360.464844 108.179688 366.609375 124.4375 377.8125 137.238281 L 370.410156 153.519531 C 350.988281 137.128906 326.613281 128.152344 301.253906 128.152344 C 279.019531 128.152344 257.960938 134.894531 239.878906 147.601562 L 239.910156 139.214844 C 252.253906 133.574219 262.085938 123.804688 267.746094 111.492188 C 274.058594 97.769531 274.644531 82.414062 269.402344 68.25 C 264.15625 54.089844 253.707031 42.816406 239.980469 36.507812 C 226.25 30.199219 210.878906 29.609375 196.71875 34.855469 C 182.546875 40.097656 171.269531 50.539062 164.957031 64.261719 C 158.644531 77.984375 158.058594 93.339844 163.304688 107.5 C 168.550781 121.664062 179 132.933594 192.722656 139.242188 C 199.933594 142.554688 207.632812 144.273438 215.621094 144.355469 L 226.816406 158.300781 C 208.425781 175.972656 196.800781 199.28125 193.703125 224.695312 L 189.105469 222.550781 C 189.179688 208.523438 184.269531 195.054688 175.160156 184.402344 C 154.246094 159.9375 117.316406 157.046875 92.839844 177.949219 C 68.367188 198.855469 65.46875 235.769531 86.390625 260.226562 C 96.519531 272.078125 110.664062 279.273438 126.210938 280.492188 C 127.769531 280.617188 129.320312 280.679688 130.867188 280.679688 C 144.75 280.679688 158.039062 275.792969 168.707031 266.683594 C 174.929688 261.371094 180.113281 254.574219 183.449219 247.398438 L 193.074219 245.007812 C 194.515625 269.71875 204.066406 293.117188 220.265625 311.644531 L 208.457031 324.691406 C 199.511719 324.265625 190.875 325.65625 182.71875 328.832031 C 150.707031 341.285156 134.78125 377.457031 147.21875 409.457031 C 153.246094 424.964844 164.960938 437.199219 180.203125 443.898438 C 188.238281 447.4375 196.753906 449.210938 205.285156 449.210938 C 212.917969 449.210938 220.566406 447.789062 227.890625 444.941406 C 243.40625 438.914062 255.640625 427.203125 262.347656 411.972656 C 269.054688 396.746094 269.425781 379.816406 263.390625 364.3125 C 257.960938 350.34375 247.707031 338.886719 234.394531 331.832031 L 234.761719 325.460938 C 253.707031 340.457031 276.988281 348.65625 301.082031 348.65625 C 301.140625 348.65625 301.199219 348.65625 301.257812 348.65625 C 326.464844 348.617188 350.679688 339.734375 370.066406 323.558594 L 373.554688 337.625 C 367.542969 345.597656 363.402344 354.527344 361.234375 364.199219 C 357.164062 382.363281 360.414062 401.027344 370.386719 416.746094 C 380.359375 432.46875 395.855469 443.367188 414.03125 447.433594 C 419.144531 448.578125 424.292969 449.140625 429.402344 449.140625 C 442.472656 449.140625 455.296875 445.449219 466.605469 438.285156 C 482.335938 428.316406 493.234375 412.824219 497.304688 394.660156 C 501.375 376.496094 498.121094 357.832031 488.152344 342.113281 C 478.183594 326.398438 462.683594 315.5 444.511719 311.433594 Z M 402.75 234.996094 L 365.804688 234.996094 C 365.578125 219.421875 364.105469 203.761719 361.335938 188.371094 L 390.167969 188.371094 C 397.878906 202.550781 402.214844 218.453125 402.75 234.996094 Z M 359.003906 234.996094 L 304.652344 234.996094 L 304.652344 188.375 L 354.414062 188.375 C 357.246094 203.75 358.777344 219.417969 359.003906 234.996094 Z M 304.652344 181.582031 L 304.652344 135.023438 C 317.734375 135.464844 330.480469 138.445312 342.265625 143.742188 C 346.738281 155.941406 350.320312 168.636719 353.035156 181.582031 Z M 297.855469 181.582031 L 249.382812 181.582031 C 252.097656 168.742188 255.703125 156.085938 260.261719 143.679688 C 272.019531 138.382812 284.710938 135.523438 297.855469 135.089844 Z M 297.855469 188.375 L 297.855469 234.996094 L 243.484375 234.996094 C 243.675781 219.273438 245.167969 203.699219 248 188.371094 L 297.855469 188.371094 Z M 297.855469 241.792969 L 297.855469 279.535156 L 246.503906 279.535156 C 244.640625 267.160156 243.632812 254.609375 243.484375 241.792969 Z M 297.855469 286.328125 L 297.855469 341.796875 C 284.792969 341.371094 272.042969 338.390625 260.242188 333.082031 C 254.570312 317.597656 250.351562 302.082031 247.566406 286.328125 Z M 304.652344 286.328125 L 354.902344 286.328125 C 352.101562 302.101562 347.878906 317.699219 342.292969 333.03125 C 330.5 338.335938 317.746094 341.320312 304.652344 341.785156 Z M 304.652344 279.535156 L 304.652344 241.792969 L 359.023438 241.792969 C 358.894531 254.433594 357.863281 267.027344 355.964844 279.53125 L 304.652344 279.53125 Z M 365.820312 241.792969 L 402.757812 241.792969 C 402.347656 254.890625 399.519531 267.679688 394.46875 279.53125 L 362.847656 279.53125 C 364.699219 267.027344 365.695312 254.433594 365.820312 241.792969 Z M 384.3125 134.300781 C 373.316406 122.519531 367.257812 107.214844 367.257812 91.203125 C 367.261719 56.3125 395.65625 27.929688 430.5625 27.929688 C 465.472656 27.929688 493.867188 56.3125 493.867188 91.203125 C 493.867188 126.09375 465.472656 154.476562 430.5625 154.476562 C 421.082031 154.476562 411.867188 152.355469 403.179688 148.183594 C 402.234375 147.722656 401.125 147.734375 400.183594 148.203125 L 374.4375 161.070312 L 384.917969 138.023438 C 385.488281 136.773438 385.25 135.304688 384.3125 134.300781 Z M 365.007812 170.84375 C 365.65625 171.46875 366.507812 171.796875 367.367188 171.796875 C 367.882812 171.796875 368.40625 171.679688 368.886719 171.441406 L 375.679688 168.042969 C 379.558594 172.292969 383.066406 176.8125 386.152344 181.578125 L 359.964844 181.578125 C 357.640625 170.21875 354.652344 159.046875 351.003906 148.207031 C 356.824219 151.539062 362.332031 155.480469 367.464844 159.976562 L 364.273438 166.992188 C 363.679688 168.304688 363.972656 169.847656 365.007812 170.84375 Z M 217.253906 137.5625 C 217.234375 137.5625 217.214844 137.5625 217.191406 137.5625 C 209.542969 137.714844 202.34375 136.1875 195.570312 133.074219 C 170.632812 121.613281 159.671875 92.023438 171.136719 67.101562 C 176.691406 55.03125 186.617188 45.839844 199.082031 41.226562 C 211.550781 36.613281 225.070312 37.128906 237.140625 42.683594 C 249.222656 48.230469 258.414062 58.148438 263.027344 70.613281 C 267.640625 83.074219 267.125 96.582031 261.574219 108.65625 C 256.3125 120.085938 246.957031 129.035156 235.230469 133.84375 C 233.960938 134.363281 233.128906 135.597656 233.125 136.972656 L 233.050781 155.199219 L 219.910156 138.832031 C 219.257812 138.027344 218.285156 137.5625 217.253906 137.5625 Z M 231.085938 163.621094 L 233.753906 166.9375 C 234.410156 167.757812 235.394531 168.210938 236.402344 168.210938 C 236.777344 168.210938 237.160156 168.148438 237.527344 168.019531 C 238.882812 167.542969 239.796875 166.265625 239.804688 164.828125 L 239.839844 156.054688 C 243.574219 153.15625 247.460938 150.546875 251.476562 148.234375 C 247.773438 159.1875 244.765625 170.316406 242.445312 181.585938 L 216.351562 181.585938 C 220.546875 175.105469 225.472656 169.078125 231.085938 163.621094 Z M 212.296875 188.375 L 241.066406 188.375 C 238.304688 203.707031 236.875 219.285156 236.6875 235 L 214.550781 235 C 214.214844 234.496094 213.761719 234.066406 213.1875 233.796875 L 200.230469 227.746094 C 201.632812 213.769531 205.75 200.421875 212.296875 188.375 Z M 180.203125 241.210938 C 179.160156 241.46875 178.308594 242.199219 177.890625 243.183594 C 175.050781 249.882812 170.097656 256.5625 164.292969 261.519531 C 142.667969 279.992188 110.039062 277.4375 91.558594 255.820312 C 73.078125 234.207031 75.636719 201.589844 97.261719 183.117188 C 118.890625 164.644531 151.519531 167.199219 169.996094 188.816406 C 178.476562 198.738281 182.832031 211.421875 182.261719 224.542969 C 182.199219 225.914062 182.976562 227.1875 184.21875 227.769531 L 201.613281 235.890625 Z M 206.039062 241.792969 L 236.683594 241.792969 C 236.828125 254.601562 237.804688 267.152344 239.621094 279.53125 L 208.050781 279.53125 C 203.210938 268.160156 200.394531 255.921875 199.8125 243.335938 Z M 257.0625 366.777344 C 262.4375 380.589844 262.105469 395.675781 256.136719 409.246094 C 250.160156 422.808594 239.253906 433.238281 225.433594 438.617188 C 211.613281 443.984375 196.523438 443.65625 182.945312 437.691406 C 169.367188 431.71875 158.933594 420.824219 153.5625 407.003906 C 142.484375 378.488281 156.671875 346.265625 185.191406 335.167969 C 191.601562 332.675781 198.355469 331.417969 205.332031 331.417969 C 206.761719 331.417969 208.199219 331.46875 209.644531 331.574219 C 210.6875 331.648438 211.710938 331.242188 212.410156 330.46875 L 227.140625 314.1875 C 227.144531 314.183594 227.148438 314.183594 227.152344 314.179688 C 227.160156 314.175781 227.160156 314.160156 227.171875 314.152344 L 228.703125 312.460938 L 227.484375 333.667969 C 227.40625 335.035156 228.15625 336.320312 229.394531 336.917969 C 242.152344 343.101562 251.976562 353.707031 257.0625 366.777344 Z M 233.960938 299.902344 C 232.632812 299.351562 231.09375 299.6875 230.128906 300.757812 L 224.863281 306.578125 C 219.503906 300.351562 214.925781 293.558594 211.210938 286.328125 L 240.6875 286.328125 C 243.140625 300.570312 246.753906 314.621094 251.496094 328.617188 C 245.761719 325.332031 240.316406 321.460938 235.25 317.042969 L 236.039062 303.234375 C 236.125 301.792969 235.289062 300.460938 233.960938 299.902344 Z M 351.019531 328.574219 C 355.703125 314.671875 359.3125 300.566406 361.777344 286.328125 L 391.261719 286.328125 C 387.820312 293.027344 383.648438 299.363281 378.785156 305.214844 L 370.117188 298.667969 C 368.972656 297.800781 367.398438 297.75 366.199219 298.542969 C 364.996094 299.335938 364.425781 300.800781 364.769531 302.195312 L 368.230469 316.15625 C 362.882812 320.921875 357.121094 325.082031 351.019531 328.574219 Z M 490.675781 393.183594 C 483.09375 427.023438 449.367188 448.390625 415.519531 440.816406 C 399.121094 437.144531 385.128906 427.304688 376.128906 413.121094 C 367.128906 398.929688 364.191406 382.089844 367.867188 365.699219 C 369.929688 356.484375 373.984375 348.015625 379.914062 340.519531 C 380.566406 339.699219 380.800781 338.613281 380.546875 337.597656 L 373.679688 309.875 L 393.730469 325.019531 C 394.816406 325.84375 396.308594 325.9375 397.496094 325.234375 C 411.316406 317.140625 427.488281 314.597656 443.023438 318.066406 C 459.429688 321.738281 473.414062 331.578125 482.417969 345.761719 C 491.417969 359.945312 494.347656 376.789062 490.675781 393.183594 Z M 490.675781 393.183594 " fill-opacity="1" fill-rule="nonzero"/></g><path fill="#3a322b" d="M 418.589844 94.734375 C 419.804688 94.734375 420.953125 94.488281 422.03125 94.097656 L 422.03125 115.269531 C 422.03125 117.144531 423.550781 118.667969 425.433594 118.667969 C 427.3125 118.667969 428.832031 117.144531 428.832031 115.269531 L 428.832031 86.207031 C 428.832031 83.367188 431.140625 81.058594 433.984375 81.058594 C 436.824219 81.058594 439.140625 83.367188 439.140625 86.207031 L 439.140625 115.269531 C 439.140625 117.144531 440.660156 118.667969 442.539062 118.667969 C 444.417969 118.667969 445.9375 117.144531 445.9375 115.269531 L 445.9375 86.207031 C 445.9375 79.625 440.578125 74.261719 433.984375 74.261719 C 430.882812 74.261719 428.082031 75.480469 425.957031 77.417969 C 424.09375 75.484375 421.488281 74.261719 418.59375 74.261719 C 412.945312 74.261719 408.351562 78.855469 408.351562 84.5 C 408.351562 90.140625 412.945312 94.734375 418.589844 94.734375 Z M 418.589844 81.0625 C 420.488281 81.0625 422.03125 82.605469 422.03125 84.503906 C 422.03125 86.402344 420.488281 87.945312 418.589844 87.945312 C 416.691406 87.945312 415.144531 86.402344 415.144531 84.503906 C 415.144531 82.605469 416.691406 81.0625 418.589844 81.0625 Z M 418.589844 81.0625 " fill-opacity="1" fill-rule="nonzero"/><path fill="#3a322b" d="M 388.089844 81.046875 C 389.324219 80.941406 390.40625 80.175781 390.90625 79.042969 L 398.082031 62.902344 L 398.082031 108.433594 C 398.082031 114.078125 402.679688 118.667969 408.324219 118.667969 C 413.96875 118.667969 418.566406 114.078125 418.566406 108.433594 C 418.566406 102.789062 413.96875 98.199219 408.324219 98.199219 C 407.109375 98.199219 405.960938 98.445312 404.882812 98.835938 L 404.882812 46.890625 C 404.882812 45.289062 403.757812 43.902344 402.1875 43.570312 C 400.59375 43.230469 399.023438 44.046875 398.375 45.511719 L 387.203125 70.640625 L 383.789062 65.523438 C 382.746094 63.964844 380.640625 63.535156 379.074219 64.582031 C 377.507812 65.621094 377.085938 67.730469 378.132812 69.292969 L 384.972656 79.554688 C 385.664062 80.578125 386.871094 81.164062 388.089844 81.046875 Z M 408.328125 104.992188 C 410.226562 104.992188 411.769531 106.535156 411.769531 108.433594 C 411.769531 110.332031 410.226562 111.875 408.328125 111.875 C 406.429688 111.875 404.882812 110.332031 404.882812 108.433594 C 404.882812 106.535156 406.429688 104.992188 408.328125 104.992188 Z M 408.328125 104.992188 " fill-opacity="1" fill-rule="nonzero"/><path fill="#3a322b" d="M 449.671875 96.09375 C 450.507812 98.042969 451.625 99.609375 452.789062 100.839844 C 452.320312 101.265625 451.886719 101.734375 451.496094 102.242188 C 449.542969 104.800781 448.914062 108.0625 449.773438 111.199219 C 450.976562 115.59375 455.144531 118.667969 459.914062 118.667969 L 469.972656 118.667969 C 475.578125 118.667969 480.136719 114.109375 480.136719 108.507812 L 480.136719 77.664062 C 480.136719 75.789062 478.617188 74.265625 476.738281 74.265625 C 474.859375 74.265625 473.339844 75.789062 473.339844 77.664062 L 473.339844 108.507812 C 473.339844 110.363281 471.832031 111.875 469.972656 111.875 L 459.914062 111.875 C 458.226562 111.875 456.722656 110.835938 456.328125 109.410156 C 455.925781 107.9375 456.511719 106.875 456.894531 106.367188 C 457.5625 105.496094 458.5625 104.996094 459.636719 104.996094 C 461.25 104.996094 462.640625 103.863281 462.964844 102.285156 C 463.289062 100.707031 462.464844 99.117188 460.980469 98.480469 C 460.21875 98.148438 457.835938 96.855469 456.351562 94.152344 C 457.390625 94.503906 458.480469 94.738281 459.636719 94.738281 C 465.28125 94.738281 469.875 90.144531 469.875 84.503906 C 469.875 78.859375 465.28125 74.265625 459.636719 74.265625 C 454.28125 74.265625 449.925781 78.410156 449.484375 83.648438 C 448.738281 85.59375 447.3125 90.59375 449.671875 96.09375 Z M 459.636719 81.0625 C 461.535156 81.0625 463.078125 82.605469 463.078125 84.503906 C 463.078125 86.402344 461.535156 87.945312 459.636719 87.945312 C 457.738281 87.945312 456.199219 86.40625 456.195312 84.511719 C 456.195312 84.507812 456.195312 84.503906 456.195312 84.503906 C 456.195312 82.605469 457.738281 81.0625 459.636719 81.0625 Z M 459.636719 81.0625 " fill-opacity="1" fill-rule="nonzero"/><path fill="#3a322b" d="M 209.234375 85.453125 L 192.195312 87.144531 L 190.503906 70.089844 L 207.546875 68.394531 C 209.414062 68.210938 210.777344 66.546875 210.59375 64.679688 C 210.410156 62.8125 208.722656 61.445312 206.875 61.636719 L 186.449219 63.660156 C 185.550781 63.75 184.726562 64.191406 184.15625 64.886719 C 183.582031 65.582031 183.3125 66.480469 183.398438 67.375 L 188.132812 115.003906 C 188.304688 116.757812 189.785156 118.066406 191.511719 118.066406 C 191.621094 118.066406 191.734375 118.0625 191.851562 118.046875 C 193.71875 117.859375 195.082031 116.199219 194.894531 114.332031 L 192.867188 93.898438 L 209.90625 92.207031 C 211.773438 92.019531 213.136719 90.359375 212.949219 88.492188 C 212.769531 86.632812 211.074219 85.265625 209.234375 85.453125 Z M 209.234375 85.453125 " fill-opacity="1" fill-rule="nonzero"/><path fill="#3a322b" d="M 233.53125 89.726562 L 242.871094 110.660156 C 243.4375 111.921875 244.675781 112.671875 245.980469 112.671875 C 246.441406 112.671875 246.910156 112.578125 247.359375 112.378906 C 249.074219 111.613281 249.84375 109.605469 249.078125 107.894531 L 239.742188 86.96875 C 240.707031 86.238281 241.617188 85.429688 242.40625 84.472656 C 245.011719 81.300781 246.214844 77.300781 245.8125 73.21875 C 245.40625 69.132812 243.4375 65.453125 240.257812 62.851562 C 237.082031 60.25 233.101562 59.035156 228.996094 59.449219 L 220.488281 60.292969 C 218.617188 60.480469 217.253906 62.140625 217.441406 64.011719 L 219.792969 87.71875 C 219.796875 87.753906 219.800781 87.792969 219.804688 87.824219 C 219.804688 87.863281 219.808594 87.898438 219.816406 87.929688 L 222.167969 111.640625 C 222.34375 113.394531 223.820312 114.703125 225.546875 114.703125 C 225.660156 114.703125 225.773438 114.699219 225.886719 114.683594 C 227.757812 114.496094 229.121094 112.835938 228.933594 110.96875 L 226.902344 90.535156 L 232.03125 90.023438 C 232.546875 89.96875 233.03125 89.824219 233.53125 89.726562 Z M 226.234375 83.769531 L 224.542969 66.714844 L 229.671875 66.207031 C 231.933594 65.988281 234.175781 66.648438 235.953125 68.105469 C 237.722656 69.554688 238.824219 71.609375 239.046875 73.890625 C 239.273438 76.167969 238.597656 78.394531 237.148438 80.164062 C 235.695312 81.933594 233.640625 83.035156 231.363281 83.257812 Z M 226.234375 83.769531 " fill-opacity="1" fill-rule="nonzero"/><path fill="#3a322b" d="M 124.257812 204.167969 C 126.136719 204.167969 127.65625 202.644531 127.65625 200.769531 C 127.65625 198.894531 126.136719 197.371094 124.257812 197.371094 L 102.695312 197.371094 C 100.816406 197.371094 99.296875 198.894531 99.296875 200.769531 L 99.296875 243.878906 C 99.296875 245.757812 100.816406 247.273438 102.695312 247.273438 L 124.261719 247.273438 C 126.140625 247.273438 127.660156 245.757812 127.660156 243.878906 C 127.660156 242 126.140625 240.480469 124.261719 240.480469 L 106.09375 240.480469 L 106.09375 225.71875 L 124.261719 225.71875 C 126.140625 225.71875 127.660156 224.195312 127.660156 222.320312 C 127.660156 220.445312 126.140625 218.925781 124.261719 218.925781 L 106.09375 218.925781 L 106.09375 204.167969 Z M 124.257812 204.167969 " fill-opacity="1" fill-rule="nonzero"/><path fill="#3a322b" d="M 161.226562 197.371094 C 159.34375 197.371094 157.824219 198.894531 157.824219 200.769531 L 157.824219 231.082031 L 139.53125 199.082031 C 138.765625 197.746094 137.199219 197.082031 135.707031 197.488281 C 134.214844 197.882812 133.179688 199.230469 133.179688 200.769531 L 133.179688 243.878906 C 133.179688 245.757812 134.699219 247.273438 136.578125 247.273438 C 138.457031 247.273438 139.976562 245.757812 139.976562 243.878906 L 139.976562 213.558594 L 158.273438 245.558594 C 158.890625 246.636719 160.027344 247.269531 161.226562 247.269531 C 161.515625 247.269531 161.804688 247.234375 162.097656 247.160156 C 163.585938 246.765625 164.625 245.414062 164.625 243.875 L 164.625 200.769531 C 164.625 198.890625 163.105469 197.371094 161.226562 197.371094 Z M 161.226562 197.371094 " fill-opacity="1" fill-rule="nonzero"/><path fill="#3a322b" d="M 198.46875 367.769531 L 184.761719 367.769531 L 184.761719 354.070312 C 184.761719 352.195312 183.242188 350.675781 181.363281 350.675781 C 179.484375 350.675781 177.964844 352.195312 177.964844 354.070312 L 177.964844 367.769531 L 164.265625 367.769531 C 162.382812 367.769531 160.863281 369.289062 160.863281 371.167969 L 160.863281 388.257812 C 160.863281 390.136719 162.382812 391.65625 164.265625 391.65625 L 177.964844 391.65625 L 177.964844 415.609375 C 177.964844 417.488281 179.484375 419.007812 181.363281 419.007812 C 183.242188 419.007812 184.761719 417.488281 184.761719 415.609375 L 184.761719 391.65625 L 198.46875 391.65625 C 200.347656 391.65625 201.867188 390.136719 201.867188 388.257812 L 201.867188 371.167969 C 201.867188 369.289062 200.347656 367.769531 198.46875 367.769531 Z M 167.664062 384.863281 L 167.664062 374.566406 L 177.964844 374.566406 L 177.964844 384.863281 Z M 195.070312 384.863281 L 184.761719 384.863281 L 184.761719 374.566406 L 195.070312 374.566406 Z M 195.070312 384.863281 " fill-opacity="1" fill-rule="nonzero"/><path fill="#3a322b" d="M 208.753906 371.167969 C 208.753906 373.046875 210.273438 374.566406 212.152344 374.566406 L 215.617188 374.566406 C 215.734375 380.914062 216.910156 387.089844 219.257812 392.945312 C 220.835938 396.878906 222.808594 400.289062 224.933594 403.300781 C 220.910156 407.867188 216.683594 410.953125 213.800781 412.707031 C 212.195312 413.683594 211.691406 415.773438 212.664062 417.378906 C 213.304688 418.425781 214.425781 419.003906 215.570312 419.003906 C 216.171875 419.003906 216.78125 418.84375 217.339844 418.507812 C 220.433594 416.625 224.902344 413.390625 229.253906 408.65625 C 233.601562 413.390625 238.074219 416.625 241.167969 418.507812 C 241.71875 418.84375 242.332031 419.003906 242.933594 419.003906 C 244.082031 419.003906 245.199219 418.421875 245.839844 417.375 C 246.816406 415.769531 246.304688 413.679688 244.699219 412.707031 C 241.820312 410.957031 237.59375 407.871094 233.574219 403.304688 C 235.699219 400.289062 237.671875 396.878906 239.253906 392.945312 C 241.597656 387.089844 242.769531 380.914062 242.890625 374.566406 L 246.355469 374.566406 C 248.234375 374.566406 249.753906 373.046875 249.753906 371.167969 C 249.753906 369.289062 248.234375 367.769531 246.355469 367.769531 L 212.152344 367.769531 C 210.273438 367.769531 208.753906 369.289062 208.753906 371.167969 Z M 232.945312 390.417969 C 231.890625 393.039062 230.617188 395.375 229.253906 397.527344 C 227.894531 395.375 226.621094 393.042969 225.566406 390.417969 C 223.546875 385.371094 222.523438 380.046875 222.402344 374.566406 L 236.105469 374.566406 C 235.984375 380.046875 234.964844 385.371094 232.945312 390.417969 Z M 232.945312 390.417969 " fill-opacity="1" fill-rule="nonzero"/><path fill="#3a322b" d="M 220.011719 351.671875 C 218.679688 353 218.679688 355.144531 220.011719 356.472656 L 226.851562 363.3125 C 227.515625 363.976562 228.386719 364.308594 229.253906 364.308594 C 230.125 364.308594 230.996094 363.976562 231.660156 363.3125 C 232.988281 361.984375 232.988281 359.835938 231.660156 358.507812 L 224.816406 351.671875 C 223.492188 350.34375 221.339844 350.34375 220.011719 351.671875 Z M 220.011719 351.671875 " fill-opacity="1" fill-rule="nonzero"/><path fill="#3a322b" d="M 394.519531 393.777344 C 403.304688 393.777344 410.453125 386.632812 410.453125 377.851562 C 410.453125 369.066406 403.304688 361.921875 394.519531 361.921875 C 385.730469 361.921875 378.582031 369.070312 378.582031 377.851562 C 378.582031 386.628906 385.730469 393.777344 394.519531 393.777344 Z M 394.519531 368.71875 C 399.550781 368.71875 403.65625 372.816406 403.65625 377.851562 C 403.65625 382.882812 399.554688 386.980469 394.519531 386.980469 C 389.480469 386.980469 385.382812 382.882812 385.382812 377.851562 C 385.382812 372.816406 389.480469 368.71875 394.519531 368.71875 Z M 394.519531 368.71875 " fill-opacity="1" fill-rule="nonzero"/><path fill="#3a322b" d="M 381.980469 359.320312 L 407.054688 359.320312 C 408.933594 359.320312 410.453125 357.800781 410.453125 355.921875 C 410.453125 354.046875 408.933594 352.527344 407.054688 352.527344 L 397.917969 352.527344 L 397.917969 343.394531 C 397.917969 341.515625 396.398438 339.996094 394.519531 339.996094 C 392.636719 339.996094 391.117188 341.515625 391.117188 343.394531 L 391.117188 352.527344 L 381.980469 352.527344 C 380.101562 352.527344 378.582031 354.046875 378.582031 355.921875 C 378.582031 357.800781 380.101562 359.320312 381.980469 359.320312 Z M 381.980469 359.320312 " fill-opacity="1" fill-rule="nonzero"/><path fill="#3a322b" d="M 408.660156 408.109375 L 387.148438 408.109375 L 387.148438 399.054688 C 387.148438 397.175781 385.628906 395.660156 383.75 395.660156 C 381.871094 395.660156 380.351562 397.175781 380.351562 399.054688 L 380.351562 411.507812 C 380.351562 413.386719 381.871094 414.902344 383.75 414.902344 L 408.660156 414.902344 C 410.539062 414.902344 412.058594 413.386719 412.058594 411.507812 C 412.058594 409.628906 410.539062 408.109375 408.660156 408.109375 Z M 408.660156 408.109375 " fill-opacity="1" fill-rule="nonzero"/><path fill="#3a322b" d="M 430.472656 371.726562 L 421.335938 371.726562 L 421.335938 350.066406 C 421.335938 348.1875 419.816406 346.667969 417.9375 346.667969 C 416.058594 346.667969 414.539062 348.1875 414.539062 350.066406 L 414.539062 397.050781 C 414.539062 398.929688 416.058594 400.449219 417.9375 400.449219 C 419.816406 400.449219 421.335938 398.929688 421.335938 397.050781 L 421.335938 378.523438 L 430.472656 378.523438 C 432.351562 378.523438 433.871094 377.003906 433.871094 375.125 C 433.871094 373.246094 432.351562 371.726562 430.472656 371.726562 Z M 430.472656 371.726562 " fill-opacity="1" fill-rule="nonzero"/><path fill="#3a322b" d="M 472.859375 346.261719 L 444.65625 346.261719 C 442.777344 346.261719 441.257812 347.78125 441.257812 349.660156 C 441.257812 351.539062 442.777344 353.054688 444.65625 353.054688 L 469.460938 353.054688 L 469.460938 365.316406 C 469.460938 367.195312 470.980469 368.714844 472.859375 368.714844 C 474.742188 368.714844 476.261719 367.195312 476.261719 365.316406 L 476.261719 349.660156 C 476.261719 347.78125 474.742188 346.261719 472.859375 346.261719 Z M 472.859375 346.261719 " fill-opacity="1" fill-rule="nonzero"/><path fill="#3a322b" d="M 472.859375 371.320312 L 444.65625 371.320312 C 442.777344 371.320312 441.257812 372.839844 441.257812 374.71875 C 441.257812 376.597656 442.777344 378.113281 444.65625 378.113281 L 472.859375 378.113281 C 474.742188 378.113281 476.261719 376.597656 476.261719 374.71875 C 476.261719 372.839844 474.742188 371.320312 472.859375 371.320312 Z M 472.859375 371.320312 " fill-opacity="1" fill-rule="nonzero"/><path fill="#3a322b" d="M 472.859375 380.71875 L 444.65625 380.71875 C 442.777344 380.71875 441.257812 382.234375 441.257812 384.113281 C 441.257812 385.992188 442.777344 387.511719 444.65625 387.511719 L 469.460938 387.511719 L 469.460938 393.246094 L 444.65625 393.246094 C 442.777344 393.246094 441.257812 394.765625 441.257812 396.644531 L 441.257812 409.171875 C 441.257812 411.050781 442.777344 412.570312 444.65625 412.570312 L 472.859375 412.570312 C 474.742188 412.570312 476.261719 411.050781 476.261719 409.171875 C 476.261719 407.292969 474.742188 405.777344 472.859375 405.777344 L 448.054688 405.777344 L 448.054688 400.042969 L 472.859375 400.042969 C 474.742188 400.042969 476.261719 398.523438 476.261719 396.644531 L 476.261719 384.113281 C 476.261719 382.234375 474.742188 380.71875 472.859375 380.71875 Z M 472.859375 380.71875 " fill-opacity="1" fill-rule="nonzero"/></svg>