<svg xmlns="http://www.w3.org/2000/svg" xmlns:xlink="http://www.w3.org/1999/xlink" width="800" zoomAndPan="magnify" viewBox="0 0 600 449.999984" height="600" preserveAspectRatio="xMidYMid meet" version="1.0"><defs><clipPath id="06916d6184"><path d="M 33.042969 7.726562 L 561 7.726562 L 561 450 L 33.042969 450 Z M 33.042969 7.726562 " clip-rule="nonzero"/></clipPath></defs><path fill="#ffc729" d="M 382.082031 152.390625 L 382.082031 211.960938 L 381.582031 215.28125 C 369.160156 213.054688 356.46875 211.960938 343.714844 211.960938 C 338.632812 211.960938 333.515625 212.125 328.433594 212.558594 L 328.335938 211.960938 C 330.128906 203.714844 331.058594 195.207031 331.058594 186.429688 C 331.058594 120.648438 277.742188 67.296875 212.007812 67.296875 C 146.269531 67.296875 92.953125 120.648438 92.953125 186.429688 C 92.953125 229.742188 116.074219 267.605469 150.621094 288.445312 L 88.203125 303.171875 L 67.707031 282.660156 L 80.53125 264.644531 C 73.121094 252.214844 67.441406 238.585938 63.789062 224.125 L 41.929688 220.46875 L 41.929688 152.390625 L 63.789062 148.734375 C 67.441406 134.277344 73.121094 120.648438 80.53125 108.214844 L 67.707031 90.199219 L 115.839844 42.03125 L 133.84375 54.863281 C 146.269531 47.449219 159.886719 41.765625 174.335938 38.109375 L 177.992188 16.238281 L 246.019531 16.238281 L 249.675781 38.109375 C 264.125 41.765625 277.742188 47.449219 290.167969 54.863281 L 308.171875 42.03125 L 356.304688 90.199219 L 343.480469 108.214844 C 350.890625 120.648438 356.570312 134.277344 360.222656 148.734375 L 382.082031 152.390625 " fill-opacity="1" fill-rule="nonzero"/><path fill="#fcd770" d="M 331.058594 186.429688 C 331.058594 195.207031 330.128906 203.714844 328.335938 211.960938 L 328.433594 212.558594 C 315.578125 213.386719 302.988281 215.449219 290.765625 218.671875 C 294.75 208.734375 297.042969 197.832031 297.042969 186.429688 C 297.042969 139.460938 258.941406 101.335938 212.007812 101.335938 C 191.609375 101.335938 172.875 108.546875 158.160156 120.582031 L 146.199219 132.546875 C 134.210938 147.304688 126.96875 165.988281 126.96875 186.429688 C 126.96875 228.214844 157.0625 262.917969 196.691406 270.097656 C 194.898438 271.691406 193.136719 273.386719 191.445312 275.082031 L 186.496094 280.035156 L 150.621094 288.445312 C 116.074219 267.605469 92.953125 229.742188 92.953125 186.429688 C 92.953125 120.648438 146.269531 67.296875 212.007812 67.296875 C 277.742188 67.296875 331.058594 120.648438 331.058594 186.429688 " fill-opacity="1" fill-rule="nonzero"/><path fill="#e6e9ed" d="M 552.15625 365.132812 L 552.15625 382.152344 C 552.15625 391.523438 544.515625 399.171875 535.148438 399.171875 L 458.617188 399.171875 L 457.851562 399.070312 C 458.351562 396.34375 458.617188 393.554688 458.617188 390.660156 C 458.617188 381.289062 456.15625 372.609375 451.738281 365.132812 L 552.15625 365.132812 " fill-opacity="1" fill-rule="nonzero"/><path fill="#aab2bd" d="M 552.15625 305.566406 L 552.15625 365.132812 L 492.628906 365.132812 L 492.628906 344.789062 C 492.628906 341.398438 493.660156 338.074219 495.519531 335.347656 L 526.644531 288.546875 L 535.148438 288.546875 C 544.515625 288.546875 552.15625 296.222656 552.15625 305.566406 " fill-opacity="1" fill-rule="nonzero"/><path fill="#ff826e" d="M 526.644531 288.546875 L 495.519531 335.347656 C 493.660156 338.074219 492.628906 341.398438 492.628906 344.789062 L 492.628906 365.132812 L 451.738281 365.132812 C 442.96875 349.90625 426.460938 339.601562 407.59375 339.601562 L 407.59375 272.023438 C 429.78125 267.96875 451.738281 262.417969 473.230469 255.273438 C 477.417969 258.429688 481.503906 261.71875 485.488281 265.242188 L 492.628906 271.527344 L 509.636719 271.527344 C 514.320312 271.527344 518.574219 273.386719 521.628906 276.546875 C 524.785156 279.605469 526.644531 283.859375 526.644531 288.546875 " fill-opacity="1" fill-rule="nonzero"/><path fill="#838f9b" d="M 451.738281 365.132812 C 456.15625 372.609375 458.617188 381.289062 458.617188 390.660156 C 458.617188 393.554688 458.351562 396.34375 457.851562 399.070312 C 453.867188 423.269531 432.839844 441.71875 407.59375 441.71875 C 382.347656 441.71875 361.320312 423.269531 357.335938 399.070312 C 356.835938 396.34375 356.570312 393.554688 356.570312 390.660156 C 356.570312 381.289062 359.027344 372.609375 363.445312 365.132812 C 372.214844 349.90625 388.726562 339.601562 407.59375 339.601562 C 426.460938 339.601562 442.96875 349.90625 451.738281 365.132812 " fill-opacity="1" fill-rule="nonzero"/><path fill="#69d6f4" d="M 407.59375 272.023438 C 378.160156 277.308594 348.332031 280.035156 318.402344 280.035156 L 254.523438 280.035156 C 263.890625 280.035156 271.53125 272.355469 271.53125 263.015625 C 271.53125 258.328125 269.671875 254.074219 266.515625 251.015625 C 263.460938 247.859375 259.207031 245.996094 254.523438 245.996094 C 243.796875 245.996094 233.265625 248.390625 223.730469 252.878906 C 214.828125 257.066406 206.65625 263.117188 200.015625 270.695312 C 198.917969 270.496094 197.820312 270.328125 196.691406 270.097656 C 215.757812 252.214844 237.617188 238.1875 261.335938 228.378906 C 270.835938 224.457031 280.734375 221.167969 290.765625 218.671875 C 302.988281 215.449219 315.578125 213.386719 328.433594 212.558594 C 333.515625 212.125 338.632812 211.960938 343.714844 211.960938 C 356.46875 211.960938 369.160156 213.054688 381.582031 215.28125 C 414.734375 221.234375 446.191406 234.929688 473.230469 255.273438 C 451.738281 262.417969 429.78125 267.96875 407.59375 272.023438 " fill-opacity="1" fill-rule="nonzero"/><path fill="#ccd1d9" d="M 407.59375 373.640625 C 416.960938 373.640625 424.601562 381.289062 424.601562 390.660156 C 424.601562 400.035156 416.960938 407.679688 407.59375 407.679688 C 398.226562 407.679688 390.585938 400.035156 390.585938 390.660156 C 390.585938 381.289062 398.226562 373.640625 407.59375 373.640625 " fill-opacity="1" fill-rule="nonzero"/><path fill="#fc6e51" d="M 407.59375 272.023438 L 407.59375 339.601562 C 388.726562 339.601562 372.214844 349.90625 363.445312 365.132812 L 205.128906 365.132812 C 199.085938 354.660156 189.484375 346.582031 177.992188 342.5625 L 177.992188 323.347656 C 177.992188 307.195312 183.339844 291.503906 193.304688 278.738281 L 195 280.035156 L 318.402344 280.035156 C 348.332031 280.035156 378.160156 277.308594 407.59375 272.023438 " fill-opacity="1" fill-rule="nonzero"/><path fill="#e6e9ed" d="M 205.128906 365.132812 L 363.445312 365.132812 C 359.027344 372.609375 356.570312 381.289062 356.570312 390.660156 C 356.570312 393.554688 356.835938 396.34375 357.335938 399.070312 L 356.570312 399.171875 L 212.007812 399.171875 L 211.242188 399.070312 C 211.738281 396.34375 212.007812 393.554688 212.007812 390.660156 C 212.007812 381.289062 209.546875 372.609375 205.128906 365.132812 " fill-opacity="1" fill-rule="nonzero"/><path fill="#e6e9ed" d="M 200.015625 270.695312 C 206.65625 263.117188 214.828125 257.066406 223.730469 252.878906 C 233.265625 248.390625 243.796875 245.996094 254.523438 245.996094 C 259.207031 245.996094 263.460938 247.859375 266.515625 251.015625 C 269.671875 254.074219 271.53125 258.328125 271.53125 263.015625 C 271.53125 272.355469 263.890625 280.035156 254.523438 280.035156 L 195 280.035156 L 193.304688 278.738281 C 193.800781 278.074219 194.300781 277.476562 194.832031 276.8125 L 198.75 272.125 C 199.152344 271.625 199.582031 271.09375 200.015625 270.695312 " fill-opacity="1" fill-rule="nonzero"/><path fill="#838f9b" d="M 205.128906 365.132812 C 209.546875 372.609375 212.007812 381.289062 212.007812 390.660156 C 212.007812 393.554688 211.738281 396.34375 211.242188 399.070312 C 207.253906 423.269531 186.230469 441.71875 160.984375 441.71875 C 135.738281 441.71875 114.710938 423.269531 110.722656 399.070312 C 110.226562 396.34375 109.960938 393.554688 109.960938 390.660156 C 109.960938 381.289062 112.417969 372.609375 116.835938 365.132812 C 125.605469 349.90625 142.117188 339.601562 160.984375 339.601562 C 166.929688 339.601562 172.644531 340.632812 177.992188 342.5625 C 189.484375 346.582031 199.085938 354.660156 205.128906 365.132812 " fill-opacity="1" fill-rule="nonzero"/><path fill="#ff826e" d="M 150.621094 288.445312 L 186.496094 280.035156 L 191.445312 275.082031 C 193.136719 273.386719 194.898438 271.691406 196.691406 270.097656 C 197.820312 270.328125 198.917969 270.496094 200.015625 270.695312 C 199.582031 271.09375 199.152344 271.625 198.75 272.125 L 194.832031 276.8125 C 194.300781 277.476562 193.800781 278.074219 193.304688 278.738281 C 183.339844 291.503906 177.992188 307.195312 177.992188 323.347656 L 177.992188 342.5625 C 172.644531 340.632812 166.929688 339.601562 160.984375 339.601562 C 142.117188 339.601562 125.605469 349.90625 116.835938 365.132812 L 41.929688 365.132812 L 41.929688 327.535156 C 41.929688 319.691406 47.378906 312.777344 55.019531 311.015625 L 88.203125 303.171875 L 150.621094 288.445312 " fill-opacity="1" fill-rule="nonzero"/><path fill="#ccd1d9" d="M 160.984375 373.640625 C 170.351562 373.640625 177.992188 381.289062 177.992188 390.660156 C 177.992188 400.035156 170.351562 407.679688 160.984375 407.679688 C 151.617188 407.679688 143.976562 400.035156 143.976562 390.660156 C 143.976562 381.289062 151.617188 373.640625 160.984375 373.640625 " fill-opacity="1" fill-rule="nonzero"/><path fill="#e6e9ed" d="M 41.929688 365.132812 L 116.835938 365.132812 C 112.417969 372.609375 109.960938 381.289062 109.960938 390.660156 C 109.960938 393.554688 110.226562 396.34375 110.722656 399.070312 L 109.960938 399.171875 L 58.9375 399.171875 C 49.570312 399.171875 41.929688 391.523438 41.929688 382.152344 L 41.929688 365.132812 " fill-opacity="1" fill-rule="nonzero"/><path fill="#000000" d="M 407.59375 399.171875 C 402.910156 399.171875 399.089844 395.347656 399.089844 390.660156 C 399.089844 385.972656 402.910156 382.152344 407.59375 382.152344 C 412.277344 382.152344 416.097656 385.972656 416.097656 390.660156 C 416.097656 395.347656 412.277344 399.171875 407.59375 399.171875 Z M 407.59375 365.132812 C 393.507812 365.132812 382.082031 376.566406 382.082031 390.660156 C 382.082031 404.753906 393.507812 416.191406 407.59375 416.191406 C 421.675781 416.191406 433.105469 404.753906 433.105469 390.660156 C 433.105469 376.566406 421.675781 365.132812 407.59375 365.132812 " fill-opacity="1" fill-rule="nonzero"/><path fill="#000000" d="M 160.984375 399.171875 C 156.300781 399.171875 152.480469 395.347656 152.480469 390.660156 C 152.480469 385.972656 156.300781 382.152344 160.984375 382.152344 C 165.667969 382.152344 169.488281 385.972656 169.488281 390.660156 C 169.488281 395.347656 165.667969 399.171875 160.984375 399.171875 Z M 160.984375 365.132812 C 146.898438 365.132812 135.472656 376.566406 135.472656 390.660156 C 135.472656 404.753906 146.898438 416.191406 160.984375 416.191406 C 175.066406 416.191406 186.496094 404.753906 186.496094 390.660156 C 186.496094 376.566406 175.066406 365.132812 160.984375 365.132812 " fill-opacity="1" fill-rule="nonzero"/><g clip-path="url(#06916d6184)"><path fill="#000000" d="M 535.148438 390.660156 L 467.121094 390.660156 C 467.121094 384.84375 466.1875 379.125 464.5625 373.640625 L 543.652344 373.640625 L 543.652344 382.152344 C 543.652344 386.839844 539.832031 390.660156 535.148438 390.660156 Z M 449.449219 397.707031 C 446.058594 418.285156 428.453125 433.210938 407.59375 433.210938 C 386.730469 433.210938 369.125 418.285156 365.707031 397.507812 C 365.273438 395.347656 365.074219 393.019531 365.074219 390.660156 C 365.074219 383.015625 367 375.867188 370.820312 369.386719 C 378.359375 356.257812 392.445312 348.113281 407.59375 348.113281 C 422.742188 348.113281 436.824219 356.257812 444.363281 369.386719 L 444.398438 369.453125 C 448.183594 375.867188 450.113281 383.015625 450.113281 390.660156 C 450.113281 393.019531 449.914062 395.347656 449.449219 397.707031 Z M 220.507812 390.660156 C 220.507812 384.84375 219.578125 379.125 217.953125 373.640625 L 350.625 373.640625 C 348.996094 379.125 348.066406 384.84375 348.066406 390.660156 Z M 202.835938 397.707031 C 199.449219 418.285156 181.84375 433.210938 160.984375 433.210938 C 140.121094 433.210938 122.515625 418.285156 119.09375 397.507812 C 118.664062 395.347656 118.464844 393.019531 118.464844 390.660156 C 118.464844 383.015625 120.390625 375.867188 124.210938 369.386719 C 131.75 356.257812 145.835938 348.113281 160.984375 348.113281 C 165.867188 348.113281 170.617188 348.945312 175.199219 350.605469 C 184.667969 353.929688 192.671875 360.578125 197.753906 369.386719 L 197.789062 369.453125 C 201.574219 375.867188 203.503906 383.015625 203.503906 390.660156 C 203.503906 393.019531 203.304688 395.347656 202.835938 397.707031 Z M 58.9375 390.660156 C 54.253906 390.660156 50.433594 386.839844 50.433594 382.152344 L 50.433594 373.640625 L 104.015625 373.640625 C 102.386719 379.125 101.457031 384.84375 101.457031 390.660156 Z M 56.976562 319.292969 L 176.164062 291.203125 C 171.8125 301.308594 169.488281 312.28125 169.488281 323.347656 L 169.488281 331.824219 C 166.695312 331.425781 163.875 331.09375 160.984375 331.09375 C 141.484375 331.09375 123.3125 340.832031 112.320312 356.621094 L 50.433594 356.621094 L 50.433594 327.535156 C 50.433594 323.648438 53.191406 320.191406 56.976562 319.292969 Z M 78.800781 281.765625 L 90.695312 265.042969 L 87.835938 260.292969 C 80.761719 248.390625 75.445312 235.527344 72.027344 222.03125 L 70.664062 216.644531 L 50.433594 213.253906 L 50.433594 159.605469 L 70.664062 156.214844 L 72.027344 150.828125 C 75.445312 137.332031 80.761719 124.46875 87.835938 112.570312 L 90.695312 107.816406 L 78.800781 91.097656 L 116.769531 53.136719 L 133.445312 65.035156 L 138.195312 62.175781 C 150.085938 55.097656 162.941406 49.777344 176.429688 46.355469 L 181.8125 44.992188 L 185.199219 24.746094 L 238.8125 24.746094 L 242.199219 44.992188 L 247.582031 46.355469 C 261.070312 49.777344 273.925781 55.097656 285.816406 62.175781 L 290.566406 65.035156 L 307.273438 53.136719 L 345.210938 91.097656 L 333.316406 107.816406 L 336.175781 112.570312 C 343.25 124.46875 348.566406 137.332031 351.984375 150.828125 L 353.347656 156.214844 L 373.578125 159.605469 L 373.578125 205.644531 C 363.746094 204.3125 353.746094 203.449219 343.714844 203.449219 C 341.820312 203.449219 340.0625 203.515625 338.300781 203.550781 C 339.0625 197.863281 339.5625 192.148438 339.5625 186.429688 C 339.5625 116.027344 282.328125 58.785156 212.007812 58.785156 C 141.683594 58.785156 84.449219 116.027344 84.449219 186.429688 C 84.449219 224.988281 101.390625 260.425781 130.457031 284.492188 L 90.859375 293.832031 Z M 227.386719 260.589844 C 235.789062 256.601562 245.15625 254.507812 254.523438 254.507812 C 256.785156 254.507812 258.875 255.371094 260.570312 257.101562 C 262.164062 258.664062 263.027344 260.757812 263.027344 263.015625 C 263.027344 267.703125 259.207031 271.527344 254.523438 271.527344 L 211.042969 271.527344 C 215.859375 267.105469 221.40625 263.347656 227.386719 260.589844 Z M 380.054688 223.660156 C 406.199219 228.347656 431.378906 238.253906 453.867188 252.347656 C 438.351562 256.867188 422.339844 260.65625 406.097656 263.648438 C 376.964844 268.867188 347.46875 271.527344 318.402344 271.527344 L 278.476562 271.527344 C 279.40625 268.832031 280.035156 266.007812 280.035156 263.015625 C 280.035156 256.136719 277.34375 249.6875 272.59375 245.101562 C 269.207031 241.609375 264.988281 239.28125 260.339844 238.21875 C 261.765625 237.585938 263.128906 236.824219 264.554688 236.257812 C 274.058594 232.335938 283.558594 229.210938 292.925781 226.917969 C 304.585938 223.824219 316.707031 221.863281 329.132812 221.035156 C 333.648438 220.667969 338.433594 220.46875 343.714844 220.46875 C 355.972656 220.46875 368.195312 221.53125 380.054688 223.660156 Z M 152.347656 279.339844 C 120.492188 258.863281 101.457031 224.425781 101.457031 186.429688 C 101.457031 125.433594 151.050781 75.804688 212.007812 75.804688 C 272.960938 75.804688 322.554688 125.433594 322.554688 186.429688 C 322.554688 192.613281 321.890625 198.796875 320.859375 204.84375 C 314.882812 205.445312 308.9375 206.273438 303.089844 207.371094 C 304.652344 200.492188 305.546875 193.511719 305.546875 186.429688 C 305.546875 134.808594 263.59375 92.824219 212.007812 92.824219 C 190.546875 92.824219 169.519531 100.335938 152.8125 113.964844 L 163.539062 127.160156 C 177.425781 115.828125 194.199219 109.84375 212.007812 109.84375 C 254.191406 109.84375 288.539062 144.179688 288.539062 186.429688 C 288.539062 195.074219 287.011719 203.582031 284.1875 211.726562 C 275.585938 214.054688 266.847656 216.910156 258.078125 220.5 C 234.628906 230.207031 213.269531 243.871094 194.398438 260.824219 C 160.054688 252.8125 135.472656 222.195312 135.472656 186.429688 C 135.472656 168.613281 141.449219 151.828125 152.777344 137.933594 L 139.589844 127.195312 C 125.972656 143.914062 118.464844 164.957031 118.464844 186.429688 C 118.464844 225.554688 142.546875 259.691406 177.492188 273.421875 Z M 358.929688 356.621094 L 209.515625 356.621094 C 203.601562 348.179688 195.695312 341.464844 186.496094 337.144531 L 186.496094 323.347656 C 186.496094 311.050781 190.082031 298.917969 196.792969 288.546875 L 318.402344 288.546875 C 345.144531 288.546875 372.214844 286.253906 399.089844 281.964844 L 399.089844 331.757812 C 382.878906 334.117188 368.296875 343.160156 358.929688 356.621094 Z M 479.875 271.625 L 489.410156 280.035156 L 509.636719 280.035156 C 511.898438 280.035156 513.988281 280.898438 515.683594 282.628906 C 516.746094 283.660156 517.511719 284.957031 517.875 286.386719 L 488.511719 330.527344 C 485.65625 334.71875 484.128906 339.636719 484.128906 344.789062 L 484.128906 356.621094 L 456.257812 356.621094 C 446.855469 343.125 432.273438 334.117188 416.097656 331.757812 L 416.097656 279.003906 C 435.03125 275.25 453.566406 270.496094 471.4375 264.746094 C 474.261719 267.003906 477.117188 269.234375 479.875 271.625 Z M 543.652344 305.566406 L 543.652344 356.621094 L 501.132812 356.621094 L 501.132812 344.789062 C 501.132812 343.125 501.632812 341.464844 502.597656 340.070312 L 531.195312 297.054688 L 535.148438 297.054688 C 539.832031 297.054688 543.652344 300.878906 543.652344 305.566406 Z M 535.148438 280.035156 L 533.621094 280.035156 C 532.359375 276.480469 530.433594 273.253906 527.707031 270.628906 C 522.957031 265.710938 516.546875 263.015625 509.636719 263.015625 L 495.851562 263.015625 L 491.070312 258.828125 C 486.984375 255.238281 482.699219 251.75 478.347656 248.457031 C 452.4375 229.011719 422.242188 215.316406 390.585938 208.46875 L 390.585938 145.179688 L 367 141.257812 C 363.710938 129.921875 359.226562 119.019531 353.546875 108.714844 L 367.433594 89.269531 L 309.101562 30.898438 L 289.667969 44.792969 C 279.371094 39.109375 268.476562 34.621094 257.148438 31.328125 L 253.230469 7.726562 L 170.78125 7.726562 L 166.863281 31.328125 C 155.535156 34.621094 144.640625 39.109375 134.34375 44.792969 L 114.910156 30.898438 L 56.578125 89.269531 L 70.464844 108.714844 C 64.785156 119.019531 60.300781 129.921875 57.011719 141.257812 L 33.425781 145.179688 L 33.425781 227.683594 L 57.011719 231.605469 C 60.300781 242.9375 64.785156 253.84375 70.464844 264.148438 L 56.578125 283.59375 L 71.394531 298.417969 L 53.089844 302.707031 C 41.699219 305.367188 33.425781 315.804688 33.425781 327.535156 L 33.425781 382.152344 C 33.425781 396.246094 44.851562 407.679688 58.9375 407.679688 L 104.046875 407.679688 C 111.421875 432.710938 134.277344 450.226562 160.984375 450.226562 C 187.757812 450.226562 210.644531 432.644531 217.953125 407.679688 L 350.65625 407.679688 C 358.03125 432.710938 380.886719 450.226562 407.59375 450.226562 C 434.367188 450.226562 457.253906 432.644531 464.5625 407.679688 L 535.148438 407.679688 C 549.234375 407.679688 560.660156 396.246094 560.660156 382.152344 L 560.660156 305.566406 C 560.660156 291.472656 549.234375 280.035156 535.148438 280.035156 " fill-opacity="1" fill-rule="nonzero"/></g><path fill="#000000" d="M 331.058594 322.585938 L 365.074219 322.585938 L 365.074219 305.566406 L 331.058594 305.566406 L 331.058594 322.585938 " fill-opacity="1" fill-rule="nonzero"/><path fill="#000000" d="M 543.652344 177.921875 L 543.652344 194.941406 L 560.660156 194.941406 L 560.660156 177.921875 L 543.652344 177.921875 " fill-opacity="1" fill-rule="nonzero"/><path fill="#000000" d="M 526.644531 177.921875 L 450.113281 177.921875 L 450.113281 194.941406 L 526.644531 194.941406 L 526.644531 177.921875 " fill-opacity="1" fill-rule="nonzero"/><path fill="#000000" d="M 526.644531 143.882812 L 509.636719 143.882812 L 509.636719 160.902344 L 526.644531 160.902344 L 526.644531 143.882812 " fill-opacity="1" fill-rule="nonzero"/><path fill="#000000" d="M 492.628906 143.882812 L 416.097656 143.882812 L 416.097656 160.902344 L 492.628906 160.902344 L 492.628906 143.882812 " fill-opacity="1" fill-rule="nonzero"/><path fill="#000000" d="M 492.628906 109.84375 L 475.625 109.84375 L 475.625 126.863281 L 492.628906 126.863281 L 492.628906 109.84375 " fill-opacity="1" fill-rule="nonzero"/><path fill="#000000" d="M 458.617188 109.84375 L 382.082031 109.84375 L 382.082031 126.863281 L 458.617188 126.863281 L 458.617188 109.84375 " fill-opacity="1" fill-rule="nonzero"/></svg>