<svg xmlns="http://www.w3.org/2000/svg" xmlns:xlink="http://www.w3.org/1999/xlink" width="800" zoomAndPan="magnify" viewBox="0 0 600 449.999984" height="600" preserveAspectRatio="xMidYMid meet" version="1.0"><defs><clipPath id="815364db83"><path d="M 165 17 L 440 17 L 440 432 L 165 432 Z M 165 17 " clip-rule="nonzero"/></clipPath><clipPath id="7519bd3aab"><path d="M 195.042969 462.8125 L 62.226562 120.152344 L 404.886719 -12.664062 L 537.703125 329.996094 Z M 195.042969 462.8125 " clip-rule="nonzero"/></clipPath><clipPath id="56a2150470"><path d="M 195.042969 462.8125 L 62.226562 120.152344 L 404.886719 -12.664062 L 537.703125 329.996094 Z M 195.042969 462.8125 " clip-rule="nonzero"/></clipPath><clipPath id="120d6b1269"><path d="M 195.042969 462.8125 L 62.226562 120.152344 L 404.886719 -12.664062 L 537.703125 329.996094 Z M 195.042969 462.8125 " clip-rule="nonzero"/></clipPath></defs><g clip-path="url(#815364db83)"><g clip-path="url(#7519bd3aab)"><g clip-path="url(#56a2150470)"><g clip-path="url(#120d6b1269)"><path fill="#29abe2" d="M 315.332031 32.160156 L 285.210938 100.40625 C 284.894531 101.128906 284.613281 101.863281 284.367188 102.609375 C 284.121094 103.355469 283.914062 104.113281 283.742188 104.882812 C 283.570312 105.652344 283.4375 106.425781 283.34375 107.207031 C 283.246094 107.988281 283.191406 108.769531 283.171875 109.558594 C 283.15625 110.34375 283.175781 111.128906 283.234375 111.914062 C 283.292969 112.699219 283.390625 113.480469 283.527344 114.253906 C 283.664062 115.03125 283.835938 115.796875 284.046875 116.554688 C 284.257812 117.3125 284.503906 118.058594 284.789062 118.792969 C 285.074219 119.527344 285.394531 120.242188 285.75 120.945312 C 286.105469 121.648438 286.492188 122.332031 286.914062 122.996094 C 287.335938 123.660156 287.789062 124.300781 288.277344 124.921875 C 288.761719 125.539062 289.273438 126.136719 289.820312 126.703125 C 290.363281 127.273438 290.933594 127.8125 291.527344 128.328125 C 292.125 128.839844 292.746094 129.324219 293.390625 129.773438 C 294.035156 130.226562 294.699219 130.644531 295.382812 131.03125 C 296.070312 131.417969 296.773438 131.773438 297.492188 132.089844 L 330.460938 146.640625 C 330.460938 146.640625 337.890625 189.316406 318.488281 233.273438 C 299.089844 277.234375 262.554688 300.507812 262.554688 300.507812 L 229.582031 285.953125 C 228.863281 285.636719 228.128906 285.355469 227.382812 285.109375 C 226.632812 284.863281 225.875 284.65625 225.109375 284.484375 C 224.339844 284.3125 223.566406 284.179688 222.785156 284.085938 C 222.003906 283.988281 221.21875 283.933594 220.433594 283.914062 C 219.644531 283.898438 218.859375 283.917969 218.074219 283.976562 C 217.292969 284.035156 216.511719 284.132812 215.738281 284.269531 C 214.960938 284.40625 214.195312 284.578125 213.4375 284.789062 C 212.679688 285 211.933594 285.25 211.199219 285.53125 C 210.464844 285.816406 209.746094 286.136719 209.046875 286.492188 C 208.34375 286.847656 207.660156 287.234375 206.996094 287.65625 C 206.332031 288.078125 205.691406 288.53125 205.070312 289.019531 C 204.449219 289.503906 203.855469 290.015625 203.289062 290.5625 C 202.71875 291.105469 202.175781 291.675781 201.664062 292.269531 C 201.152344 292.867188 200.667969 293.488281 200.214844 294.132812 C 199.765625 294.777344 199.34375 295.441406 198.957031 296.125 C 198.570312 296.8125 198.21875 297.515625 197.902344 298.234375 L 167.78125 366.484375 C 167.484375 367.15625 167.222656 367.835938 166.988281 368.527344 C 166.753906 369.222656 166.554688 369.925781 166.386719 370.636719 C 166.214844 371.347656 166.078125 372.066406 165.976562 372.789062 C 165.875 373.515625 165.804688 374.242188 165.765625 374.972656 C 165.730469 375.703125 165.726562 376.433594 165.753906 377.164062 C 165.785156 377.894531 165.847656 378.621094 165.945312 379.347656 C 166.039062 380.070312 166.167969 380.792969 166.332031 381.503906 C 166.492188 382.21875 166.6875 382.921875 166.914062 383.617188 C 167.140625 384.3125 167.398438 384.996094 167.6875 385.667969 C 167.972656 386.339844 168.292969 387 168.640625 387.640625 C 168.992188 388.285156 169.367188 388.910156 169.773438 389.519531 C 170.179688 390.125 170.613281 390.714844 171.070312 391.285156 C 171.53125 391.851562 172.015625 392.398438 172.523438 392.925781 C 173.035156 393.449219 173.566406 393.949219 174.121094 394.425781 C 174.679688 394.902344 175.253906 395.351562 175.851562 395.773438 C 176.445312 396.199219 177.058594 396.59375 177.691406 396.960938 L 221.230469 422.253906 C 223.863281 423.792969 226.59375 425.136719 229.421875 426.289062 C 232.25 427.4375 235.144531 428.382812 238.105469 429.117188 C 241.070312 429.855469 244.066406 430.375 247.105469 430.683594 C 250.140625 430.992188 253.183594 431.082031 256.234375 430.953125 C 259.285156 430.828125 262.308594 430.484375 265.308594 429.921875 C 268.3125 429.363281 271.257812 428.59375 274.144531 427.609375 C 277.035156 426.628906 279.84375 425.449219 282.5625 424.066406 C 285.285156 422.683594 287.894531 421.117188 290.390625 419.359375 C 323.351562 396.082031 371.507812 351.171875 406.414062 272.078125 C 441.320312 192.988281 442.042969 127.144531 437.03125 87.105469 C 436.644531 84.078125 436.042969 81.09375 435.230469 78.148438 C 434.417969 75.207031 433.398438 72.339844 432.175781 69.542969 C 430.953125 66.746094 429.539062 64.050781 427.929688 61.457031 C 426.320312 58.859375 424.535156 56.394531 422.574219 54.054688 C 420.613281 51.714844 418.496094 49.527344 416.222656 47.492188 C 413.949219 45.457031 411.542969 43.589844 409 41.898438 C 406.460938 40.207031 403.8125 38.703125 401.058594 37.390625 C 398.300781 36.074219 395.46875 34.964844 392.554688 34.054688 L 344.527344 18.9375 C 343.828125 18.71875 343.121094 18.53125 342.40625 18.375 C 341.691406 18.222656 340.972656 18.097656 340.246094 18.011719 C 339.519531 17.921875 338.792969 17.863281 338.0625 17.84375 C 337.332031 17.820312 336.601562 17.828125 335.871094 17.875 C 335.140625 17.917969 334.414062 17.996094 333.691406 18.105469 C 332.96875 18.214844 332.25 18.359375 331.539062 18.535156 C 330.832031 18.710938 330.128906 18.917969 329.441406 19.15625 C 328.75 19.398438 328.070312 19.667969 327.402344 19.96875 C 326.738281 20.273438 326.085938 20.601562 325.449219 20.964844 C 324.8125 21.324219 324.195312 21.714844 323.597656 22.132812 C 322.996094 22.550781 322.414062 22.996094 321.855469 23.464844 C 321.296875 23.933594 320.757812 24.429688 320.242188 24.949219 C 319.730469 25.46875 319.238281 26.011719 318.773438 26.578125 C 318.308594 27.140625 317.871094 27.726562 317.457031 28.328125 C 317.046875 28.933594 316.664062 29.554688 316.308594 30.195312 C 315.953125 30.835938 315.628906 31.488281 315.332031 32.160156 Z M 315.332031 32.160156 " fill-opacity="1" fill-rule="nonzero"/></g></g></g></g></svg>