<svg xmlns="http://www.w3.org/2000/svg" xmlns:xlink="http://www.w3.org/1999/xlink" width="800" zoomAndPan="magnify" viewBox="0 0 600 449.999984" height="600" preserveAspectRatio="xMidYMid meet" version="1.0"><defs><clipPath id="8475d4b30b"><path d="M 53 353.171875 L 239 353.171875 L 239 373.328125 L 53 373.328125 Z M 53 353.171875 " clip-rule="nonzero"/></clipPath><clipPath id="87d8bef88c"><path d="M 451.378906 143.105469 L 546.960938 143.105469 L 546.960938 371 L 451.378906 371 Z M 451.378906 143.105469 " clip-rule="nonzero"/></clipPath></defs><path fill="#fbf88b" d="M 331.144531 345.164062 L 319.539062 345.164062 C 316.246094 345.164062 313.550781 342.464844 313.550781 339.171875 L 313.550781 280.363281 C 313.550781 277.070312 316.246094 274.371094 319.539062 274.371094 L 331.144531 274.371094 C 334.4375 274.371094 337.136719 277.070312 337.136719 280.363281 L 337.136719 339.171875 C 337.136719 342.464844 334.4375 345.164062 331.144531 345.164062 " fill-opacity="1" fill-rule="nonzero"/><path fill="#3a1e16" d="M 331.144531 348.347656 C 324.210938 348.347656 312.902344 350.410156 310.640625 341.386719 C 309.4375 336.578125 310.367188 330.632812 310.367188 325.757812 C 310.367188 311.257812 310.105469 296.738281 310.367188 282.242188 C 310.484375 275.820312 313.667969 271.425781 320.5 271.1875 C 327.242188 270.960938 337.894531 269.554688 340.046875 278.148438 C 340.992188 281.914062 340.320312 286.542969 340.320312 290.351562 C 340.320312 298.566406 340.320312 306.78125 340.320312 314.992188 C 340.320312 321.96875 340.320312 328.941406 340.320312 335.914062 C 340.320312 342.273438 338.398438 347.5 331.144531 348.347656 C 327.074219 348.820312 327.125 342.445312 331.144531 341.980469 C 335.621094 341.464844 333.953125 331.652344 333.953125 329.183594 C 333.953125 322.015625 333.953125 314.839844 333.953125 307.671875 C 333.953125 301.246094 333.953125 294.828125 333.953125 288.402344 C 333.953125 285.195312 334.953125 281.265625 332.546875 278.957031 C 330.230469 276.730469 326.996094 277.554688 323.824219 277.554688 C 321.140625 277.554688 317.820312 276.714844 316.734375 280.425781 C 315.953125 283.09375 316.734375 287.203125 316.734375 289.949219 C 316.734375 303.027344 316.734375 316.109375 316.734375 329.183594 C 316.734375 332.0625 315.9375 336.273438 316.734375 339.074219 C 318.105469 343.921875 327.535156 341.980469 331.144531 341.980469 C 335.25 341.980469 335.242188 348.347656 331.144531 348.347656 " fill-opacity="1" fill-rule="nonzero"/><path fill="#fbf88b" d="M 325.390625 315.238281 L 324.410156 315.238281 C 294.40625 315.238281 269.472656 338.046875 266.105469 367.195312 L 383.695312 367.195312 C 380.328125 338.046875 355.394531 315.238281 325.390625 315.238281 Z M 500.617188 300.375 L 151.5 300.375 C 144.496094 300.375 138.765625 294.648438 138.765625 287.644531 L 138.765625 77.625 C 138.765625 70.625 144.496094 64.894531 151.5 64.894531 L 500.617188 64.894531 C 507.621094 64.894531 513.351562 70.625 513.351562 77.625 L 513.351562 287.644531 C 513.351562 294.648438 507.621094 300.375 500.617188 300.375 " fill-opacity="1" fill-rule="nonzero"/><path fill="#71cdee" d="M 477.679688 277.625 L 174.4375 277.625 C 167.433594 277.625 161.703125 271.894531 161.703125 264.894531 L 161.703125 98.933594 C 161.703125 91.929688 167.433594 86.203125 174.4375 86.203125 L 477.679688 86.203125 C 484.683594 86.203125 490.414062 91.929688 490.414062 98.933594 L 490.414062 264.894531 C 490.414062 271.894531 484.683594 277.625 477.679688 277.625 " fill-opacity="1" fill-rule="nonzero"/><path fill="#3a1e16" d="M 295.855469 183.125 C 297.871094 165.890625 311.074219 151.4375 328.519531 150.539062 C 326.8125 148.875 325.101562 147.203125 323.390625 145.539062 C 320.457031 142.667969 324.960938 138.171875 327.898438 141.035156 C 331.503906 144.554688 335.109375 148.078125 338.71875 151.601562 C 339.851562 152.703125 339.871094 154.046875 339.308594 155.117188 C 339.175781 155.453125 338.992188 155.785156 338.71875 156.097656 C 335.335938 159.964844 331.957031 163.832031 328.582031 167.695312 C 325.878906 170.789062 321.394531 166.269531 324.078125 163.195312 C 325.914062 161.09375 327.75 158.992188 329.585938 156.894531 C 315.285156 157.398438 303.894531 168.828125 302.222656 183.125 C 301.75 187.15625 295.378906 187.1875 295.855469 183.125 Z M 343.394531 217.027344 C 327.453125 223.089844 309.378906 216.664062 300.066406 202.746094 C 299.367188 205.097656 298.667969 207.449219 297.964844 209.800781 C 296.800781 213.722656 290.660156 212.046875 291.828125 208.109375 C 293.265625 203.28125 294.703125 198.449219 296.144531 193.617188 C 296.453125 192.566406 297.125 191.929688 297.914062 191.617188 C 298.511719 191.316406 299.230469 191.195312 300.058594 191.390625 C 305.054688 192.582031 310.050781 193.773438 315.042969 194.964844 C 319.035156 195.914062 317.335938 202.054688 313.347656 201.105469 C 310.6875 200.46875 308.027344 199.832031 305.367188 199.199219 C 313.273438 210.988281 328.1875 216.027344 341.703125 210.890625 C 345.542969 209.425781 347.1875 215.585938 343.394531 217.027344 Z M 368.625 206.171875 C 363.738281 207.410156 358.851562 208.652344 353.96875 209.890625 C 352.246094 210.328125 350.574219 209.335938 350.050781 207.667969 C 348.511719 202.769531 346.980469 197.867188 345.441406 192.972656 C 344.214844 189.042969 350.363281 187.382812 351.585938 191.277344 C 352.421875 193.957031 353.257812 196.632812 354.101562 199.304688 C 361.335938 186.714844 358.890625 170.4375 346.1875 162.082031 C 342.777344 159.839844 345.96875 154.328125 349.398438 156.585938 C 364.613281 166.589844 368.652344 186.320312 360.035156 201.785156 C 362.332031 201.199219 364.632812 200.621094 366.933594 200.035156 C 370.910156 199.023438 372.59375 205.164062 368.625 206.171875 Z M 487.230469 142.117188 C 487.230469 181.492188 487.230469 220.867188 487.230469 260.242188 C 487.230469 266.84375 486.285156 273.972656 477.679688 274.441406 C 454.558594 274.441406 431.433594 274.441406 408.316406 274.441406 C 362.878906 274.441406 317.4375 274.441406 272.003906 274.441406 C 240.851562 274.441406 209.699219 274.441406 178.542969 274.441406 C 174.839844 274.441406 171.261719 274.738281 168.167969 272.082031 C 164.128906 268.609375 164.886719 263.132812 164.886719 258.386719 C 164.886719 240.746094 164.886719 223.097656 164.886719 205.457031 C 164.886719 189.765625 164.886719 174.074219 164.886719 158.378906 C 175.253906 157.621094 185.617188 156.859375 195.984375 156.097656 C 193.890625 162.535156 191.792969 168.972656 189.695312 175.410156 C 189.0625 177.363281 192.132812 178.199219 192.765625 176.253906 C 195.101562 169.089844 197.429688 161.929688 199.761719 154.761719 C 200.066406 153.832031 199.238281 152.679688 198.230469 152.753906 C 188.839844 153.441406 179.457031 154.128906 170.074219 154.816406 C 175.066406 151.554688 180.066406 148.289062 185.066406 145.023438 C 187.105469 143.6875 187.808594 143.359375 188.289062 140.992188 C 189.058594 137.175781 189.253906 133.167969 189.730469 129.304688 C 189.820312 128.59375 189.171875 127.964844 188.5625 127.765625 C 186.492188 127.089844 184.417969 126.414062 182.347656 125.746094 C 184.519531 120.304688 186.691406 114.867188 188.867188 109.425781 C 197.386719 115.488281 205.910156 121.546875 214.429688 127.605469 C 215.175781 135.34375 215.917969 143.078125 216.664062 150.816406 C 216.769531 151.894531 217.980469 152.964844 219.0625 152.191406 C 223.261719 149.183594 227.457031 146.175781 231.65625 143.167969 C 231.09375 147.5625 230.277344 152.871094 232.613281 155.855469 C 236.871094 161.285156 242.132812 166.144531 246.820312 171.210938 C 248.210938 172.714844 250.457031 170.460938 249.070312 168.960938 C 244.601562 164.128906 240.132812 159.300781 235.664062 154.46875 C 235.046875 153.800781 234.585938 152.925781 234.460938 152.953125 C 234.449219 151.949219 234.664062 150.773438 234.703125 149.902344 C 234.863281 146.542969 235.019531 143.191406 235.175781 139.835938 C 235.230469 138.699219 233.757812 137.761719 232.785156 138.464844 C 228.378906 141.617188 223.972656 144.769531 219.570312 147.929688 C 218.933594 141.300781 218.292969 134.675781 217.65625 128.046875 C 226.164062 126.609375 234.875 125.558594 243.25 123.570312 C 246.082031 122.898438 246.199219 121.132812 247.289062 118.449219 C 248.53125 115.375 249.773438 112.304688 251.019531 109.234375 C 252.867188 113.585938 254.71875 117.933594 256.566406 122.285156 C 256.917969 123.097656 258.070312 123.214844 258.75 122.855469 C 263.386719 120.386719 268.023438 117.914062 272.667969 115.445312 C 274.472656 114.480469 272.871094 111.734375 271.058594 112.695312 C 266.945312 114.886719 262.832031 117.078125 258.71875 119.265625 C 256.597656 114.28125 254.480469 109.296875 252.355469 104.308594 C 251.75 102.894531 249.890625 103.601562 249.445312 104.691406 C 247.878906 108.5625 246.308594 112.4375 244.742188 116.308594 C 244.199219 117.636719 243.566406 118.976562 243.0625 120.335938 C 242.511719 120.289062 241.414062 120.671875 240.992188 120.746094 C 234.199219 121.929688 227.410156 123.117188 220.617188 124.304688 C 222.136719 122.785156 223.660156 121.261719 225.183594 119.738281 C 227.714844 117.207031 232.308594 114.085938 234.027344 110.894531 C 235.359375 108.429688 234.097656 104.035156 233.898438 101.367188 C 233.605469 97.375 233.3125 93.382812 233.011719 89.386719 C 276.460938 89.386719 319.910156 89.386719 363.355469 89.386719 C 398.226562 89.386719 433.097656 89.386719 467.96875 89.386719 C 476.414062 89.386719 486.980469 88.179688 487.230469 100.1875 C 487.519531 114.152344 487.230469 128.152344 487.230469 142.117188 Z M 164.886719 99.367188 C 165.355469 87.410156 177.808594 89.386719 186.054688 89.386719 C 200.636719 89.386719 215.21875 89.386719 229.800781 89.386719 C 229.808594 89.386719 229.820312 89.386719 229.828125 89.386719 C 230.097656 93.039062 230.371094 96.683594 230.640625 100.335938 C 230.816406 102.726562 230.832031 105.195312 231.171875 107.570312 C 231.246094 108.066406 231.300781 108.636719 231.304688 109.164062 C 226.859375 114.761719 220.933594 119.640625 215.773438 124.667969 C 206.832031 118.308594 197.890625 111.953125 188.945312 105.589844 C 188.023438 104.9375 186.949219 105.683594 186.605469 106.542969 C 183.976562 113.132812 181.34375 119.71875 178.710938 126.308594 C 178.382812 127.132812 179.078125 128.023438 179.820312 128.265625 C 182.019531 128.980469 184.210938 129.695312 186.402344 130.40625 C 185.984375 133.582031 185.476562 136.769531 185.234375 139.949219 C 185.207031 140.332031 185.164062 140.730469 185.117188 141.125 C 184.066406 141.511719 182.738281 142.746094 181.894531 143.296875 C 176.222656 147 170.558594 150.707031 164.886719 154.40625 C 164.886719 148.917969 164.886719 143.429688 164.886719 137.941406 C 164.886719 125.117188 164.382812 112.179688 164.886719 99.367188 Z M 493.59375 182.441406 C 493.59375 160.816406 493.59375 139.195312 493.59375 117.570312 C 493.59375 105.175781 496.742188 84.734375 479.0625 83.09375 C 471.890625 82.433594 464.429688 83.019531 457.238281 83.019531 C 439.710938 83.019531 422.183594 83.019531 404.65625 83.019531 C 357.800781 83.019531 310.953125 83.019531 264.097656 83.019531 C 234.683594 83.019531 205.242188 82.679688 175.828125 83.019531 C 167.992188 83.113281 160.820312 87.277344 158.929688 95.367188 C 158.082031 98.988281 158.523438 103.15625 158.523438 106.839844 C 158.523438 125.726562 158.523438 144.621094 158.523438 163.511719 C 158.523438 186.664062 158.523438 209.820312 158.523438 232.972656 C 158.523438 240.898438 158.523438 248.820312 158.523438 256.746094 C 158.523438 260.5 158.066406 264.761719 158.929688 268.460938 C 162.121094 282.117188 175.613281 280.808594 186.277344 280.808594 C 201.632812 280.808594 216.988281 280.808594 232.339844 280.808594 C 278.578125 280.808594 324.808594 280.808594 371.039062 280.808594 C 404.832031 280.808594 438.625 280.808594 472.417969 280.808594 C 474.171875 280.808594 475.925781 280.808594 477.679688 280.808594 C 477.9375 280.808594 478.175781 280.78125 478.402344 280.734375 C 487.855469 279.878906 493.511719 272.597656 493.59375 263.308594 C 493.644531 257.855469 493.59375 252.402344 493.59375 246.949219 C 493.59375 225.449219 493.59375 203.945312 493.59375 182.441406 " fill-opacity="1" fill-rule="nonzero"/><path fill="#3a1e16" d="M 280.863281 364.011719 C 277.175781 364.011719 273.492188 364.011719 269.800781 364.011719 C 274.730469 337.84375 298.066406 318.414062 324.898438 318.421875 C 351.738281 318.433594 375.074219 337.835938 379.996094 364.011719 C 346.953125 364.011719 313.90625 364.011719 280.863281 364.011719 Z M 344.859375 315.214844 C 322.101562 307.546875 295.992188 314.007812 279.519531 331.453125 C 270.183594 341.34375 264.640625 353.765625 262.921875 367.195312 C 262.703125 368.902344 264.558594 370.378906 266.105469 370.378906 C 300.382812 370.378906 334.660156 370.378906 368.933594 370.378906 C 373.855469 370.378906 378.773438 370.378906 383.695312 370.378906 C 384.238281 370.378906 384.703125 370.257812 385.105469 370.066406 C 386.234375 369.722656 387.082031 368.773438 386.878906 367.195312 C 383.824219 343.34375 367.820312 322.953125 344.859375 315.214844 Z M 510.167969 142.714844 C 510.167969 189.089844 510.167969 235.464844 510.167969 281.839844 C 510.167969 288.714844 510.007812 296.683594 500.617188 297.195312 C 472.519531 297.195312 444.421875 297.195312 416.324219 297.195312 C 362.484375 297.195312 308.652344 297.195312 254.816406 297.195312 C 220.953125 297.195312 187.035156 297.738281 153.171875 297.195312 C 146.902344 297.09375 142.15625 293.667969 141.949219 286.875 C 141.796875 281.859375 141.949219 276.8125 141.949219 271.792969 C 141.949219 248.929688 141.949219 226.066406 141.949219 203.199219 C 141.949219 176.433594 141.949219 149.667969 141.949219 122.902344 C 141.949219 108.070312 141.460938 93.148438 141.949219 78.324219 C 142.367188 65.515625 156.902344 68.078125 165.699219 68.078125 C 183.417969 68.078125 201.144531 68.078125 218.867188 68.078125 C 272.023438 68.078125 325.183594 68.078125 378.339844 68.078125 C 417.035156 68.078125 455.738281 68.078125 494.433594 68.078125 C 496.476562 68.078125 498.578125 67.929688 500.617188 68.078125 C 510.269531 68.761719 510.167969 76.933594 510.167969 84.011719 C 510.167969 103.582031 510.167969 123.144531 510.167969 142.714844 Z M 513.996094 69.058594 C 507.675781 59.125 492.691406 61.710938 482.589844 61.710938 C 463.226562 61.710938 443.863281 61.710938 424.496094 61.710938 C 369.246094 61.710938 313.996094 61.710938 258.742188 61.710938 C 223.558594 61.710938 188.355469 61.390625 153.171875 61.710938 C 143.714844 61.796875 136.003906 67.65625 135.582031 77.625 C 135.429688 81.246094 135.582031 84.90625 135.582031 88.527344 C 135.582031 110.625 135.582031 132.726562 135.582031 154.824219 C 135.582031 198.746094 134.914062 242.726562 135.582031 286.644531 C 135.726562 296.027344 142.125 303.207031 151.707031 303.558594 C 154.710938 303.671875 157.742188 303.558594 160.746094 303.558594 C 177.328125 303.558594 193.90625 303.558594 210.484375 303.558594 C 264.738281 303.558594 318.984375 303.558594 373.234375 303.558594 C 413.582031 303.558594 453.929688 303.558594 494.28125 303.558594 C 496.390625 303.558594 498.503906 303.558594 500.617188 303.558594 C 500.878906 303.558594 501.117188 303.535156 501.347656 303.488281 C 511.527344 302.574219 516.53125 294.515625 516.53125 284.917969 C 516.53125 278.179688 516.53125 271.445312 516.53125 264.707031 C 516.53125 239.644531 516.53125 214.585938 516.53125 189.523438 C 516.53125 163.097656 516.53125 136.667969 516.53125 110.242188 C 516.53125 101.769531 516.53125 93.296875 516.53125 84.828125 C 516.53125 79.398438 517.066406 73.886719 513.996094 69.058594 " fill-opacity="1" fill-rule="nonzero"/><path fill="#e77bc3" d="M 230.066406 355.277344 L 62.277344 355.277344 C 55.273438 355.277344 49.546875 349.542969 49.546875 342.542969 L 49.546875 253.515625 C 49.546875 246.511719 55.273438 240.785156 62.277344 240.785156 L 230.066406 240.785156 C 237.066406 240.785156 242.796875 246.511719 242.796875 253.515625 L 242.796875 342.542969 C 242.796875 349.542969 237.066406 355.277344 230.066406 355.277344 " fill-opacity="1" fill-rule="nonzero"/><path fill="#71cdee" d="M 235.324219 363.449219 C 235.324219 359.796875 232.335938 356.808594 228.6875 356.808594 L 188.050781 356.808594 C 184.398438 356.808594 181.414062 359.796875 181.414062 363.449219 C 181.414062 367.09375 184.398438 370.082031 188.050781 370.082031 L 228.6875 370.082031 C 232.335938 370.082031 235.324219 367.09375 235.324219 363.449219 Z M 103.773438 370.082031 L 63.136719 370.082031 C 59.484375 370.082031 56.5 367.09375 56.5 363.449219 C 56.5 359.796875 59.484375 356.808594 63.136719 356.808594 L 103.773438 356.808594 C 107.425781 356.808594 110.414062 359.796875 110.414062 363.449219 C 110.414062 367.09375 107.425781 370.082031 103.773438 370.082031 " fill-opacity="1" fill-rule="nonzero"/><g clip-path="url(#8475d4b30b)"><path fill="#3a1e16" d="M 228.6875 366.902344 C 220.867188 366.902344 213.046875 366.902344 205.226562 366.902344 C 200.777344 366.902344 196.332031 366.902344 191.878906 366.902344 C 190.761719 366.902344 189.476562 367.074219 188.363281 366.902344 C 183.863281 366.191406 183.199219 360.960938 188.050781 359.992188 C 190.375 359.527344 193.269531 359.992188 195.621094 359.992188 C 200.570312 359.992188 205.515625 359.992188 210.46875 359.992188 C 215.265625 359.992188 220.058594 359.992188 224.855469 359.992188 C 225.980469 359.992188 227.261719 359.816406 228.371094 359.992188 C 232.574219 360.65625 233.832031 366.378906 228.6875 366.902344 C 224.648438 367.3125 224.605469 373.679688 228.6875 373.265625 C 241.882812 371.921875 240.9375 354.050781 227.832031 353.625 C 218.003906 353.3125 208.109375 353.625 198.273438 353.625 C 190.707031 353.625 178.230469 352.195312 178.230469 363.449219 C 178.230469 374.828125 191.109375 373.265625 198.742188 373.265625 C 208.722656 373.265625 218.703125 373.265625 228.6875 373.265625 C 232.785156 373.265625 232.789062 366.902344 228.6875 366.902344 Z M 103.773438 373.265625 C 93.792969 373.265625 83.8125 373.265625 73.828125 373.265625 C 66.195312 373.265625 53.316406 374.828125 53.316406 363.449219 C 53.316406 352.195312 65.792969 353.625 73.363281 353.625 C 83.195312 353.625 93.085938 353.3125 102.917969 353.625 C 116.023438 354.050781 116.96875 371.921875 103.773438 373.265625 C 99.695312 373.679688 99.734375 367.3125 103.773438 366.902344 C 108.921875 366.378906 107.660156 360.65625 103.457031 359.992188 C 102.347656 359.816406 101.0625 359.992188 99.941406 359.992188 C 95.148438 359.992188 90.351562 359.992188 85.550781 359.992188 C 80.605469 359.992188 75.65625 359.992188 70.707031 359.992188 C 68.351562 359.992188 65.457031 359.527344 63.136719 359.992188 C 58.285156 360.960938 58.949219 366.191406 63.449219 366.902344 C 64.5625 367.074219 65.847656 366.902344 66.964844 366.902344 C 71.414062 366.902344 75.863281 366.902344 80.3125 366.902344 C 88.132812 366.902344 95.949219 366.902344 103.773438 366.902344 C 107.875 366.902344 107.871094 373.265625 103.773438 373.265625 " fill-opacity="1" fill-rule="nonzero"/></g><path fill="#fbf88b" d="M 217.332031 274.371094 L 167.121094 274.371094 C 161.558594 274.371094 157.007812 269.820312 157.007812 264.257812 C 157.007812 258.699219 161.558594 254.148438 167.121094 254.148438 L 217.332031 254.148438 C 222.894531 254.148438 227.445312 258.699219 227.445312 264.257812 C 227.445312 269.820312 222.894531 274.371094 217.332031 274.371094 " fill-opacity="1" fill-rule="nonzero"/><path fill="#71cdee" d="M 216.496094 283.976562 C 209.605469 283.976562 204.023438 289.5625 204.023438 296.449219 C 204.023438 303.335938 209.605469 308.921875 216.496094 308.921875 C 223.382812 308.921875 228.972656 303.335938 228.972656 296.449219 C 228.972656 289.5625 223.382812 283.976562 216.496094 283.976562 Z M 198.640625 313.789062 C 198.640625 322.425781 191.636719 329.429688 182.992188 329.429688 C 174.351562 329.429688 167.347656 322.425781 167.347656 313.789062 C 167.347656 305.148438 174.351562 298.144531 182.992188 298.144531 C 191.636719 298.144531 198.640625 305.148438 198.640625 313.789062 " fill-opacity="1" fill-rule="nonzero"/><path fill="#3a1e16" d="M 226.320312 296.449219 C 226.320312 291.035156 221.914062 286.628906 216.496094 286.628906 C 211.082031 286.628906 206.675781 291.035156 206.675781 296.449219 C 206.675781 301.863281 211.082031 306.269531 216.496094 306.269531 C 221.914062 306.269531 226.320312 301.863281 226.320312 296.449219 Z M 231.625 296.449219 C 231.625 304.789062 224.835938 311.574219 216.496094 311.574219 C 208.15625 311.574219 201.371094 304.789062 201.371094 296.449219 C 201.371094 288.109375 208.15625 281.324219 216.496094 281.324219 C 224.835938 281.324219 231.625 288.109375 231.625 296.449219 Z M 195.988281 313.789062 C 195.988281 306.621094 190.160156 300.796875 182.992188 300.796875 C 175.832031 300.796875 170 306.621094 170 313.789062 C 170 320.949219 175.832031 326.777344 182.992188 326.777344 C 190.160156 326.777344 195.988281 320.949219 195.988281 313.789062 Z M 201.292969 313.789062 C 201.292969 323.875 193.082031 332.082031 182.992188 332.082031 C 172.902344 332.082031 164.691406 323.875 164.691406 313.789062 C 164.691406 303.695312 172.902344 295.492188 182.992188 295.492188 C 193.082031 295.492188 201.292969 303.695312 201.292969 313.789062 Z M 167.121094 271.71875 L 175.179688 271.71875 L 175.179688 265.660156 C 175.179688 264.617188 176.035156 263.761719 177.078125 263.761719 C 178.121094 263.761719 178.972656 264.617188 178.972656 265.660156 L 178.972656 271.71875 L 190.328125 271.71875 L 190.328125 263.085938 C 190.328125 262.042969 191.183594 261.1875 192.226562 261.1875 C 193.269531 261.1875 194.121094 262.042969 194.121094 263.085938 L 194.121094 271.71875 L 205.5 271.71875 L 205.5 265.660156 C 205.5 264.617188 206.351562 263.761719 207.398438 263.761719 C 208.441406 263.761719 209.296875 264.617188 209.296875 265.660156 L 209.296875 271.71875 L 217.332031 271.71875 C 221.445312 271.71875 224.792969 268.375 224.792969 264.257812 C 224.792969 260.148438 221.445312 256.800781 217.332031 256.800781 L 167.121094 256.800781 C 163.007812 256.800781 159.660156 260.148438 159.660156 264.257812 C 159.660156 268.375 163.007812 271.71875 167.121094 271.71875 Z M 167.121094 277.023438 C 160.085938 277.023438 154.355469 271.300781 154.355469 264.257812 C 154.355469 257.222656 160.085938 251.496094 167.121094 251.496094 L 217.332031 251.496094 C 224.371094 251.496094 230.097656 257.222656 230.097656 264.257812 C 230.097656 271.300781 224.371094 277.023438 217.332031 277.023438 Z M 150.777344 297.082031 C 150.777344 320.792969 131.550781 340.015625 107.839844 340.015625 C 84.121094 340.015625 64.898438 320.792969 64.898438 297.082031 C 64.898438 273.367188 84.121094 254.148438 107.839844 254.148438 C 131.550781 254.148438 150.777344 273.367188 150.777344 297.082031 " fill-opacity="1" fill-rule="nonzero"/><path fill="#3a1e16" d="M 239.617188 341.097656 C 239.492188 346.925781 236.445312 351.746094 230.066406 352.09375 C 191.75 352.09375 153.4375 352.09375 115.121094 352.09375 C 98.070312 352.09375 81 352.347656 63.953125 352.09375 C 60.8125 352.042969 57.980469 351.703125 55.546875 349.273438 C 52.707031 346.433594 52.726562 343.101562 52.726562 339.492188 C 52.726562 329.6875 52.726562 319.882812 52.726562 310.082031 C 52.726562 297.402344 52.726562 284.71875 52.726562 272.039062 C 52.726562 265.914062 52.3125 259.628906 52.726562 253.515625 C 53.378906 243.863281 61.617188 243.96875 68.699219 243.96875 C 76.933594 243.96875 85.171875 243.96875 93.410156 243.96875 C 137.433594 243.96875 181.453125 243.96875 225.476562 243.96875 C 232.277344 243.96875 239.273438 245.136719 239.617188 253.921875 C 239.910156 261.457031 239.617188 269.058594 239.617188 276.597656 C 239.617188 298.082031 240.070312 319.617188 239.617188 341.097656 Z M 245.980469 302.789062 C 245.980469 290.109375 245.980469 277.429688 245.980469 264.753906 C 245.980469 256.335938 247.324219 246.890625 239.824219 240.996094 C 234.761719 237.023438 228.71875 237.601562 222.738281 237.601562 C 213.511719 237.601562 204.285156 237.601562 195.058594 237.601562 C 168.410156 237.601562 141.765625 237.601562 115.121094 237.601562 C 102.730469 237.601562 90.332031 237.460938 77.9375 237.484375 C 83.484375 220.085938 89.027344 202.683594 94.574219 185.285156 C 95.042969 185.355469 95.519531 185.402344 96.007812 185.402344 C 101.292969 185.402344 105.578125 181.117188 105.578125 175.832031 C 105.578125 170.542969 101.292969 166.257812 96.007812 166.257812 C 90.71875 166.257812 86.433594 170.542969 86.433594 175.832031 C 86.433594 179.507812 88.511719 182.695312 91.550781 184.300781 C 85.894531 202.03125 80.246094 219.765625 74.59375 237.496094 C 70.773438 237.511719 66.957031 237.539062 63.140625 237.601562 C 53.105469 237.765625 46.476562 244.933594 46.363281 254.8125 C 46.25 264.351562 46.363281 273.898438 46.363281 283.433594 C 46.363281 296.667969 46.363281 309.902344 46.363281 323.136719 C 46.363281 330.179688 45.542969 337.765625 46.546875 344.769531 C 48.011719 354.890625 56.824219 358.457031 65.800781 358.457031 C 73.5 358.457031 81.195312 358.457031 88.890625 358.457031 C 134.882812 358.457031 180.875 358.457031 226.867188 358.457031 C 227.929688 358.457031 229 358.457031 230.066406 358.457031 C 238.226562 358.015625 245.125 352.335938 245.90625 343.925781 C 246.113281 341.667969 245.980469 339.34375 245.980469 337.082031 C 245.980469 325.652344 245.980469 314.222656 245.980469 302.789062 " fill-opacity="1" fill-rule="nonzero"/><path fill="#e77bc3" d="M 540.53125 204.757812 C 540.53125 206.441406 539.9375 207.988281 538.953125 209.214844 L 538.957031 209.214844 L 538.9375 209.238281 C 538.847656 209.347656 538.753906 209.445312 538.660156 209.550781 L 517.59375 233.378906 L 517.59375 350.863281 C 517.59375 353.832031 515.160156 356.269531 512.183594 356.269531 L 486.335938 356.269531 C 483.367188 356.269531 480.933594 353.832031 480.933594 350.863281 L 480.933594 233.320312 L 460.3125 209.996094 C 458.894531 208.691406 457.996094 206.828125 457.996094 204.757812 L 457.996094 153.652344 C 457.996094 149.726562 461.203125 146.519531 465.128906 146.519531 L 533.398438 146.519531 C 537.324219 146.519531 540.53125 149.726562 540.53125 153.652344 L 540.53125 204.757812 " fill-opacity="1" fill-rule="nonzero"/><g clip-path="url(#87d8bef88c)"><path fill="#3a1e16" d="M 521.121094 224.59375 C 518.414062 227.65625 515.277344 230.082031 514.5625 233.898438 L 483.980469 233.898438 C 483.296875 229.972656 479.9375 227.402344 477.214844 224.324219 C 473.816406 220.480469 470.421875 216.632812 467.023438 212.792969 C 465.035156 210.539062 461.75 207.820312 461.179688 204.6875 C 460.785156 202.53125 461.179688 199.914062 461.179688 197.734375 C 461.179688 193.777344 461.179688 189.820312 461.179688 185.867188 L 537.347656 185.867188 C 537.347656 189.566406 537.347656 193.265625 537.347656 196.96875 C 537.347656 200.238281 538.078125 204.402344 536.328125 207.390625 C 531.257812 213.121094 526.191406 218.859375 521.121094 224.59375 Z M 511.703125 353.085938 C 507.605469 353.734375 502.886719 353.085938 498.738281 353.085938 C 495.128906 353.085938 490.210938 353.980469 486.691406 353.085938 C 482.589844 352.046875 484.117188 344.824219 484.117188 341.457031 C 484.117188 333.054688 484.117188 324.648438 484.117188 316.246094 C 484.117188 296.445312 484.117188 276.636719 484.117188 256.832031 L 514.324219 256.832031 C 514.347656 265.964844 514.410156 275.101562 514.410156 284.226562 C 514.410156 303.40625 514.410156 322.585938 514.410156 341.761719 C 514.410156 344.949219 515.921875 352.417969 511.703125 353.085938 Z M 477.75 233.480469 C 477.660156 233.558594 477.605469 233.773438 477.570312 234.0625 C 477.527344 233.847656 477.5625 233.640625 477.75 233.480469 Z M 465.65625 149.703125 C 468.003906 149.386719 470.625 149.703125 472.992188 149.703125 C 491.925781 149.703125 510.859375 149.703125 529.796875 149.703125 C 532.875 149.703125 536.886719 149.117188 537.347656 153.652344 C 537.347656 156.742188 537.347656 159.835938 537.347656 162.929688 L 461.179688 162.929688 C 461.179688 160.546875 461.179688 158.167969 461.179688 155.789062 C 461.179688 152.691406 461.832031 150.207031 465.65625 149.703125 Z M 543.714844 163.507812 C 543.714844 160.460938 543.714844 157.417969 543.714844 154.375 C 543.738281 154.148438 543.738281 153.910156 543.714844 153.652344 C 543.714844 153.347656 543.671875 153.082031 543.613281 152.824219 C 542.175781 143.234375 533.699219 143.335938 525.886719 143.335938 C 515.261719 143.335938 504.632812 143.335938 494.003906 143.335938 C 485.058594 143.335938 476.101562 143.222656 467.15625 143.335938 C 459.019531 143.441406 454.8125 148.304688 454.8125 156.265625 C 454.8125 158.679688 454.8125 161.089844 454.8125 163.507812 C 452.902344 164.425781 451.566406 166.367188 451.566406 168.617188 L 451.566406 180.175781 C 451.566406 182.425781 452.902344 184.367188 454.8125 185.285156 C 454.8125 185.679688 454.8125 186.074219 454.8125 186.460938 C 454.8125 191.132812 454.8125 195.804688 454.8125 200.46875 C 454.8125 203.414062 454.519531 206.550781 455.875 209.273438 C 457.390625 212.316406 460.578125 215.09375 462.808594 217.621094 C 466.515625 221.8125 470.226562 226.011719 473.9375 230.207031 C 475.117188 231.539062 476.242188 233.097656 477.554688 234.316406 C 477.554688 234.324219 477.554688 234.332031 477.554688 234.339844 C 475.503906 235.207031 474.058594 237.234375 474.058594 239.589844 L 474.058594 251.144531 C 474.058594 253.550781 475.574219 255.605469 477.695312 256.433594 C 477.550781 287.332031 477.15625 318.253906 477.75 349.125 C 477.796875 351.546875 477.929688 353.75 479.421875 355.835938 C 481.246094 358.382812 483.730469 359.148438 486.410156 359.371094 C 486.410156 359.421875 486.394531 359.464844 486.394531 359.519531 L 486.394531 367.375 C 486.394531 369.164062 487.859375 370.625 489.644531 370.625 L 508.882812 370.625 C 510.667969 370.625 512.132812 369.164062 512.132812 367.375 L 512.132812 359.519531 C 512.132812 359.472656 512.117188 359.433594 512.117188 359.390625 C 514.578125 359.1875 516.886719 358.511719 518.679688 356.382812 C 521.769531 352.71875 520.777344 346.527344 520.777344 342.058594 C 520.777344 332.808594 520.777344 323.558594 520.777344 314.304688 C 520.777344 295.023438 520.777344 275.734375 520.777344 256.449219 C 522.925781 255.632812 524.46875 253.570312 524.46875 251.144531 L 524.46875 239.589844 C 524.46875 237.257812 523.046875 235.25 521.035156 234.371094 C 522.253906 233.222656 523.316406 231.703125 524.398438 230.480469 C 528.183594 226.199219 531.96875 221.914062 535.757812 217.632812 C 537.574219 215.574219 539.390625 213.519531 541.207031 211.464844 C 541.402344 211.246094 541.550781 211.011719 541.675781 210.777344 C 541.683594 210.792969 541.691406 210.804688 541.703125 210.820312 C 544.003906 207.21875 543.714844 203.5625 543.714844 199.503906 C 543.714844 194.765625 543.714844 190.027344 543.714844 185.285156 C 545.625 184.367188 546.960938 182.425781 546.960938 180.175781 L 546.960938 168.617188 C 546.960938 166.367188 545.625 164.425781 543.714844 163.507812 " fill-opacity="1" fill-rule="nonzero"/></g><path fill="#71cdee" d="M 500.222656 291.4375 L 498.304688 291.4375 C 495.675781 291.4375 493.527344 289.289062 493.527344 286.664062 L 493.527344 268.582031 C 493.527344 265.957031 495.675781 263.808594 498.304688 263.808594 L 500.222656 263.808594 C 502.847656 263.808594 504.996094 265.957031 504.996094 268.582031 L 504.996094 286.664062 C 504.996094 289.289062 502.847656 291.4375 500.222656 291.4375 " fill-opacity="1" fill-rule="nonzero"/><path fill="#3a1e16" d="M 498.304688 266.460938 C 497.136719 266.460938 496.183594 267.414062 496.183594 268.582031 L 496.183594 286.664062 C 496.183594 287.832031 497.136719 288.785156 498.304688 288.785156 L 500.222656 288.785156 C 501.390625 288.785156 502.34375 287.832031 502.34375 286.664062 L 502.34375 268.582031 C 502.34375 267.414062 501.390625 266.460938 500.222656 266.460938 Z M 500.222656 294.089844 L 498.304688 294.089844 C 494.207031 294.089844 490.875 290.757812 490.875 286.664062 L 490.875 268.582031 C 490.875 264.488281 494.207031 261.15625 498.304688 261.15625 L 500.222656 261.15625 C 504.316406 261.15625 507.652344 264.488281 507.652344 268.582031 L 507.652344 286.664062 C 507.652344 290.757812 504.316406 294.089844 500.222656 294.089844 " fill-opacity="1" fill-rule="nonzero"/><path fill="#fbf88b" d="M 450.386719 231.710938 L 450.386719 355.773438 C 450.386719 362.773438 444.65625 368.503906 437.652344 368.503906 L 381.574219 368.503906 C 374.570312 368.503906 368.839844 362.773438 368.839844 355.773438 L 368.839844 231.710938 C 368.839844 224.707031 374.570312 218.976562 381.574219 218.976562 L 437.652344 218.976562 C 444.65625 218.976562 450.386719 224.707031 450.386719 231.710938 " fill-opacity="1" fill-rule="nonzero"/><path fill="#3a1e16" d="M 417.199219 355.082031 C 418.511719 355.082031 419.582031 356.148438 419.582031 357.464844 C 419.582031 358.777344 418.511719 359.847656 417.199219 359.847656 L 402.027344 359.847656 C 400.714844 359.847656 399.644531 358.777344 399.644531 357.464844 C 399.644531 356.148438 400.714844 355.082031 402.027344 355.082031 Z M 422.765625 357.464844 C 422.765625 354.398438 420.269531 351.898438 417.199219 351.898438 L 402.027344 351.898438 C 398.960938 351.898438 396.460938 354.398438 396.460938 357.464844 C 396.460938 360.535156 398.960938 363.03125 402.027344 363.03125 L 417.199219 363.03125 C 420.269531 363.03125 422.765625 360.535156 422.765625 357.464844 Z M 432.820312 229.980469 L 386.40625 229.980469 C 381.84375 229.980469 378.132812 233.695312 378.132812 238.257812 L 378.132812 341.550781 C 378.132812 346.113281 381.84375 349.820312 386.40625 349.820312 L 432.820312 349.820312 C 437.382812 349.820312 441.097656 346.113281 441.097656 341.550781 L 441.097656 238.257812 C 441.097656 233.695312 437.382812 229.980469 432.820312 229.980469 Z M 437.652344 371.6875 C 436.03125 371.6875 434.410156 371.6875 432.789062 371.6875 C 416.1875 371.6875 399.570312 371.875 382.964844 371.6875 C 373.554688 371.578125 366.066406 365.539062 365.65625 355.765625 C 365.523438 352.585938 365.65625 349.371094 365.65625 346.1875 C 365.65625 311.222656 365.65625 276.261719 365.65625 241.296875 C 365.65625 238.113281 365.523438 234.902344 365.65625 231.722656 C 366.058594 222.082031 373.4375 215.914062 382.785156 215.796875 C 399.449219 215.585938 416.125 215.796875 432.789062 215.796875 C 440.363281 215.796875 447.652344 216.769531 451.691406 224.273438 C 453.894531 228.367188 453.570312 232.820312 453.570312 237.277344 C 453.570312 253.457031 453.570312 269.648438 453.570312 285.828125 C 453.570312 304.429688 453.570312 323.027344 453.570312 341.628906 C 453.570312 346.09375 453.648438 350.5625 453.570312 355.027344 C 453.402344 364.285156 446.96875 371.183594 437.652344 371.6875 C 433.554688 371.90625 433.578125 365.542969 437.652344 365.320312 C 443.160156 365.023438 446.96875 360.976562 447.203125 355.527344 C 447.648438 345.140625 447.203125 334.628906 447.203125 324.230469 C 447.203125 306.144531 447.203125 288.0625 447.203125 269.972656 C 447.203125 257.734375 447.429688 245.46875 447.203125 233.230469 C 447.082031 226.761719 443.324219 222.339844 436.59375 222.160156 C 430.039062 221.988281 423.457031 222.160156 416.898438 222.160156 C 408.046875 222.160156 399.1875 222.160156 390.335938 222.160156 C 384.128906 222.160156 376.15625 220.878906 372.945312 227.722656 C 371.5 230.804688 372.023438 234.921875 372.023438 238.253906 C 372.023438 244.476562 372.023438 250.699219 372.023438 256.921875 C 372.023438 288.664062 372.023438 320.40625 372.023438 352.144531 C 372.023438 358.546875 373.753906 364.800781 381.574219 365.320312 C 386.324219 365.636719 391.199219 365.320312 395.960938 365.320312 C 409.855469 365.320312 423.753906 365.320312 437.652344 365.320312 C 441.753906 365.320312 441.746094 371.6875 437.652344 371.6875 " fill-opacity="1" fill-rule="nonzero"/></svg>