<svg xmlns="http://www.w3.org/2000/svg" xmlns:xlink="http://www.w3.org/1999/xlink" width="800" zoomAndPan="magnify" viewBox="0 0 600 449.999984" height="600" preserveAspectRatio="xMidYMid meet" version="1.0"><defs><clipPath id="82ab4f2d15"><path d="M 322 355 L 435 355 L 435 449.894531 L 322 449.894531 Z M 322 355 " clip-rule="nonzero"/></clipPath><clipPath id="891446f12e"><path d="M 165 355 L 277 355 L 277 449.894531 L 165 449.894531 Z M 165 355 " clip-rule="nonzero"/></clipPath><clipPath id="5adfccffce"><path d="M 171 44.894531 L 296 44.894531 L 296 170 L 171 170 Z M 171 44.894531 " clip-rule="nonzero"/></clipPath></defs><path stroke-linecap="round" transform="matrix(0.906869, 0, 0, 0.907461, 108.615442, 44.895889)" fill-opacity="1" fill="#faceb4" fill-rule="nonzero" stroke-linejoin="round" d="M 335.001657 176.999004 L 335.001657 133.199785 C 335.001657 125.998203 328.299337 120.699251 321.299805 122.300559 L 319.098722 122.799891 C 306.400495 125.800192 297.39802 137.099745 297.39802 150.198617 L 297.39802 270.301026 L 335.100727 270.301026 Z M 335.001657 176.999004 " stroke="#000000" stroke-width="8.748" stroke-opacity="1" stroke-miterlimit="10"/><path stroke-linecap="round" transform="matrix(0.906869, 0, 0, 0.907461, 108.615442, 44.895889)" fill-opacity="1" fill="#faceb4" fill-rule="nonzero" stroke-linejoin="round" d="M 359.799382 135.700752 L 359.799382 91.901533 C 359.799382 84.699952 353.101369 79.400999 346.101837 80.998003 L 343.900754 81.50164 C 331.198219 84.50194 322.200052 95.801493 322.200052 108.900365 L 322.200052 228.99847 L 359.898452 228.99847 Z M 359.799382 135.700752 " stroke="#000000" stroke-width="8.748" stroke-opacity="1" stroke-miterlimit="10"/><path fill="#faceb4" d="M 464.832031 160.507812 L 464.832031 120.757812 C 464.832031 114.226562 458.757812 109.417969 452.410156 110.867188 L 450.414062 111.320312 C 438.898438 114.042969 430.734375 124.296875 430.734375 136.1875 L 430.734375 245.171875 L 464.925781 245.171875 Z M 464.832031 160.507812 " fill-opacity="1" fill-rule="nonzero"/><path stroke-linecap="round" transform="matrix(0.906869, 0, 0, 0.907461, 108.615442, 44.895889)" fill="none" stroke-linejoin="round" d="M 362.900713 81.200319 C 357.998887 86.30126 355.100004 93.20152 355.100004 100.601113 L 355.100004 220.699217 L 392.798404 220.699217 L 392.798404 83.597976 " stroke="#000000" stroke-width="8.748" stroke-opacity="1" stroke-miterlimit="10"/><path stroke-linecap="round" transform="matrix(0.906869, 0, 0, 0.907461, 108.615442, 44.895889)" fill="none" stroke-linejoin="round" d="M 379.001789 72.802061 L 376.800706 73.301393 " stroke="#000000" stroke-width="8.748" stroke-opacity="1" stroke-miterlimit="10"/><path stroke-linecap="round" transform="matrix(0.906869, 0, 0, 0.907461, 108.615442, 44.895889)" fill="none" stroke-linejoin="round" d="M 369.499656 94.600512 C 371.300151 90.498236 375.000211 87.299925 379.600518 86.098944 " stroke="#ffffff" stroke-width="6.561" stroke-opacity="0.4" stroke-miterlimit="10"/><path stroke-linecap="round" transform="matrix(0.906869, 0, 0, 0.907461, 108.615442, 44.895889)" fill-opacity="1" fill="#faceb4" fill-rule="nonzero" stroke-linejoin="round" d="M 347.101155 403.700318 L 347.101155 302.099044 C 347.101155 302.099044 408.300751 258.39883 413.499788 232.201086 C 417.699507 211.297989 417.397988 129.39883 417.100778 101.802094 C 417.001707 95.900499 411.600223 91.501206 405.798149 92.697883 C 394.499829 95.099845 386.199461 104.600078 385.299214 116.101947 L 378.898411 210.101313 L 345.899389 238.498703 L 320.300487 218.800892 L 282.201499 250.400899 C 268.702095 261.601446 256.800737 278.199951 256.800737 295.698116 L 256.800737 403.498002 L 347.101155 403.498002 Z M 347.101155 403.700318 " stroke="#000000" stroke-width="8.748" stroke-opacity="1" stroke-miterlimit="10"/><path stroke-linecap="round" transform="matrix(0.906869, 0, 0, 0.907461, 108.615442, 44.895889)" fill="none" stroke-linejoin="round" d="M 267.900917 392.702087 L 267.900917 306.498336 " stroke="#000000" stroke-width="13.122" stroke-opacity="0.149" stroke-miterlimit="10"/><path fill="#faceb4" d="M 389.472656 251.980469 L 416.496094 223.664062 C 419.582031 220.488281 422.210938 216.859375 424.296875 212.957031 L 430.371094 201.707031 C 434.363281 194.171875 443.613281 191.179688 451.320312 194.808594 C 457.851562 197.894531 461.476562 204.972656 460.207031 212.140625 C 458.9375 219.21875 456.582031 228.382812 452.136719 237.460938 C 442.886719 256.152344 420.035156 275.753906 420.035156 275.753906 Z M 389.472656 251.980469 " fill-opacity="1" fill-rule="nonzero"/><path stroke-linecap="round" transform="matrix(0.906869, 0, 0, 0.907461, 108.615442, 44.895889)" fill="none" stroke-linejoin="round" d="M 309.699966 228.20212 L 339.498587 196.998136 C 342.901436 193.498503 345.800319 189.499538 348.100473 185.199251 L 354.798486 172.802027 C 359.200653 164.49847 369.400586 161.201153 377.899094 165.200118 C 385.101073 168.600746 389.098344 176.400666 387.698438 184.299591 C 386.298531 192.099511 383.701167 202.198083 378.799341 212.201954 C 368.599408 232.799424 343.401095 254.399865 343.401095 254.399865 " stroke="#000000" stroke-width="8.748" stroke-opacity="1" stroke-miterlimit="10"/><path fill="#60cdf5" d="M 326.808594 359.695312 L 430.644531 359.695312 L 430.644531 445.902344 L 326.808594 445.902344 Z M 326.808594 359.695312 " fill-opacity="1" fill-rule="nonzero"/><g clip-path="url(#82ab4f2d15)"><path stroke-linecap="round" transform="matrix(0.906869, 0, 0, 0.907461, 108.615442, 44.895889)" fill="none" stroke-linejoin="round" d="M 240.600591 346.901233 L 355.100004 346.901233 L 355.100004 441.899264 L 240.600591 441.899264 Z M 240.600591 346.901233 " stroke="#000000" stroke-width="8.748" stroke-opacity="1" stroke-miterlimit="10"/></g><path stroke-linecap="round" transform="matrix(0.906869, 0, 0, 0.907461, 108.615442, 44.895889)" fill="none" stroke-linejoin="round" d="M 305.302106 431.000038 L 271.101319 431.000038 " stroke="#000000" stroke-width="13.122" stroke-opacity="0.149" stroke-miterlimit="10"/><path stroke-linecap="round" transform="matrix(0.906869, 0, 0, 0.907461, 108.615442, 44.895889)" fill="none" stroke-linejoin="round" d="M 302.497986 360.09911 L 319.59838 360.09911 " stroke="#ffffff" stroke-width="6.561" stroke-opacity="0.4" stroke-miterlimit="10"/><path stroke-linecap="round" transform="matrix(0.906869, 0, 0, 0.907461, 108.615442, 44.895889)" fill-opacity="1" fill="#faceb4" fill-rule="nonzero" stroke-linejoin="round" d="M 86.701353 176.999004 L 86.701353 133.199785 C 86.701353 125.998203 93.399366 120.699251 100.398898 122.300559 L 102.599981 122.799891 C 115.298208 125.800192 124.300683 137.099745 124.300683 150.198617 L 124.300683 270.301026 L 86.597975 270.301026 L 86.597975 176.999004 Z M 86.701353 176.999004 " stroke="#000000" stroke-width="8.748" stroke-opacity="1" stroke-miterlimit="10"/><path stroke-linecap="round" transform="matrix(0.906869, 0, 0, 0.907461, 108.615442, 44.895889)" fill-opacity="1" fill="#faceb4" fill-rule="nonzero" stroke-linejoin="round" d="M 61.998391 140.100045 L 61.998391 92.000539 C 61.998391 84.798957 68.700712 79.500005 75.700243 81.101313 L 77.901327 81.600646 C 90.599554 84.600946 99.602028 95.900499 99.602028 108.999371 L 99.602028 229.10178 L 61.899321 229.10178 L 61.899321 140.100045 Z M 61.998391 140.100045 " stroke="#000000" stroke-width="8.748" stroke-opacity="1" stroke-miterlimit="10"/><path stroke-linecap="round" transform="matrix(0.906869, 0, 0, 0.907461, 108.615442, 44.895889)" fill-opacity="1" fill="#faceb4" fill-rule="nonzero" stroke-linejoin="round" d="M 28.900299 127.4015 L 28.900299 83.597976 C 28.900299 76.400699 35.598312 71.101747 42.602151 72.69875 L 44.798927 73.198083 C 57.501461 76.198383 66.499628 87.497936 66.499628 100.601113 L 66.499628 220.699217 L 28.900299 220.699217 Z M 28.900299 127.4015 " stroke="#000000" stroke-width="8.748" stroke-opacity="1" stroke-miterlimit="10"/><path stroke-linecap="round" transform="matrix(0.906869, 0, 0, 0.907461, 108.615442, 44.895889)" fill-opacity="1" fill="#faceb4" fill-rule="nonzero" stroke-linejoin="round" d="M 74.601855 403.700318 L 74.601855 302.099044 C 74.601855 302.099044 13.397952 258.39883 8.198915 232.201086 C 3.999196 211.4013 4.201644 129.502141 4.498855 101.901099 C 4.597925 95.999504 9.99941 91.600212 15.801483 92.801193 C 27.099804 95.19885 35.400171 104.699084 36.300419 116.200953 L 42.701221 210.200318 L 75.700243 238.602014 L 101.299145 218.899898 L 139.398134 250.499905 C 152.901845 261.700452 164.798895 278.298957 164.798895 295.801426 L 164.798895 403.601313 L 74.601855 403.601313 Z M 74.601855 403.700318 " stroke="#000000" stroke-width="8.748" stroke-opacity="1" stroke-miterlimit="10"/><path stroke-linecap="round" transform="matrix(0.906869, 0, 0, 0.907461, 108.615442, 44.895889)" fill="none" stroke-linejoin="round" d="M 132.200462 392.702087 L 85.499587 392.702087 L 85.499587 296.49877 L 80.89928 293.201453 C 72.099253 286.899531 61.80025 278.79829 52.199047 270.20202 " stroke="#000000" stroke-width="13.122" stroke-opacity="0.149" stroke-miterlimit="10"/><path fill="#faceb4" d="M 210.183594 251.980469 L 183.160156 223.664062 C 180.078125 220.488281 177.445312 216.859375 175.359375 212.957031 L 169.285156 201.707031 C 165.292969 194.171875 156.042969 191.179688 148.335938 194.808594 C 141.808594 197.894531 138.179688 204.972656 139.449219 212.140625 C 140.71875 219.21875 143.078125 228.382812 147.519531 237.460938 C 156.769531 256.152344 179.625 275.753906 179.625 275.753906 Z M 210.183594 251.980469 " fill-opacity="1" fill-rule="nonzero"/><path stroke-linecap="round" transform="matrix(0.906869, 0, 0, 0.907461, 108.615442, 44.895889)" fill="none" stroke-linejoin="round" d="M 111.998737 228.20212 L 82.200116 196.998136 C 78.801574 193.498503 75.898384 189.499538 73.59823 185.199251 L 66.900217 172.802027 C 62.49805 164.49847 52.298117 161.201153 43.799609 165.200118 C 36.601937 168.600746 32.600359 176.400666 34.000265 184.299591 C 35.400171 192.099511 38.001843 202.198083 42.899362 212.201954 C 53.099294 232.799424 78.301915 254.399865 78.301915 254.399865 " stroke="#000000" stroke-width="8.748" stroke-opacity="1" stroke-miterlimit="10"/><path fill="#60cdf5" d="M 169.011719 359.785156 L 272.847656 359.785156 L 272.847656 445.992188 L 169.011719 445.992188 Z M 169.011719 359.785156 " fill-opacity="1" fill-rule="nonzero"/><g clip-path="url(#891446f12e)"><path stroke-linecap="round" transform="matrix(0.906869, 0, 0, 0.907461, 108.615442, 44.895889)" fill="none" stroke-linejoin="round" d="M 66.598699 347.000238 L 181.098112 347.000238 L 181.098112 441.998269 L 66.598699 441.998269 Z M 66.598699 347.000238 " stroke="#000000" stroke-width="8.748" stroke-opacity="1" stroke-miterlimit="10"/></g><path stroke-linecap="round" transform="matrix(0.906869, 0, 0, 0.907461, 108.615442, 44.895889)" fill="none" stroke-linejoin="round" d="M 132.200462 360.09911 L 140.199311 360.09911 " stroke="#ffffff" stroke-width="6.561" stroke-opacity="0.4" stroke-miterlimit="10"/><path stroke-linecap="round" transform="matrix(0.906869, 0, 0, 0.907461, 108.615442, 44.895889)" fill="none" stroke-linejoin="round" d="M 153.500574 360.09911 L 167.999296 360.09911 L 167.999296 366.500038 " stroke="#ffffff" stroke-width="6.561" stroke-opacity="0.4" stroke-miterlimit="10"/><path stroke-linecap="round" transform="matrix(0.906869, 0, 0, 0.907461, 108.615442, 44.895889)" fill="none" stroke-linejoin="round" d="M 145.002066 431.000038 L 77.500738 431.000038 L 77.500738 397.902033 " stroke="#000000" stroke-width="13.122" stroke-opacity="0.149" stroke-miterlimit="10"/><path fill="#ffea00" d="M 291.347656 106.964844 C 291.347656 108.867188 291.257812 110.765625 291.070312 112.660156 C 290.882812 114.550781 290.605469 116.429688 290.234375 118.296875 C 289.863281 120.164062 289.402344 122.003906 288.851562 123.824219 C 288.296875 125.644531 287.660156 127.433594 286.929688 129.191406 C 286.203125 130.949219 285.390625 132.667969 284.496094 134.34375 C 283.601562 136.019531 282.625 137.652344 281.566406 139.230469 C 280.511719 140.8125 279.382812 142.339844 278.175781 143.808594 C 276.96875 145.28125 275.695312 146.6875 274.351562 148.035156 C 273.007812 149.378906 271.597656 150.652344 270.128906 151.859375 C 268.660156 153.066406 267.136719 154.199219 265.554688 155.257812 C 263.972656 156.3125 262.347656 157.289062 260.667969 158.1875 C 258.992188 159.082031 257.277344 159.894531 255.519531 160.621094 C 253.765625 161.351562 251.976562 161.992188 250.15625 162.542969 C 248.339844 163.09375 246.496094 163.558594 244.632812 163.929688 C 242.769531 164.300781 240.890625 164.578125 239 164.765625 C 237.105469 164.949219 235.210938 165.042969 233.308594 165.042969 C 231.410156 165.042969 229.511719 164.949219 227.621094 164.765625 C 225.730469 164.578125 223.851562 164.300781 221.988281 163.929688 C 220.121094 163.558594 218.28125 163.09375 216.460938 162.542969 C 214.644531 161.992188 212.855469 161.351562 211.097656 160.621094 C 209.34375 159.894531 207.625 159.082031 205.949219 158.1875 C 204.273438 157.289062 202.644531 156.3125 201.066406 155.257812 C 199.484375 154.199219 197.960938 153.066406 196.488281 151.859375 C 195.019531 150.652344 193.613281 149.378906 192.269531 148.035156 C 190.925781 146.6875 189.652344 145.28125 188.445312 143.808594 C 187.238281 142.339844 186.109375 140.8125 185.050781 139.230469 C 183.996094 137.652344 183.019531 136.019531 182.125 134.34375 C 181.226562 132.667969 180.414062 130.949219 179.6875 129.191406 C 178.960938 127.433594 178.320312 125.644531 177.769531 123.824219 C 177.21875 122.003906 176.757812 120.164062 176.386719 118.296875 C 176.015625 116.429688 175.734375 114.550781 175.550781 112.660156 C 175.363281 110.765625 175.269531 108.867188 175.269531 106.964844 C 175.269531 105.0625 175.363281 103.167969 175.550781 101.273438 C 175.734375 99.378906 176.015625 97.5 176.386719 95.636719 C 176.757812 93.769531 177.21875 91.925781 177.769531 90.105469 C 178.320312 88.285156 178.960938 86.5 179.6875 84.742188 C 180.414062 82.984375 181.226562 81.265625 182.125 79.589844 C 183.019531 77.910156 183.996094 76.28125 185.050781 74.699219 C 186.109375 73.117188 187.238281 71.59375 188.445312 70.121094 C 189.652344 68.652344 190.925781 67.246094 192.269531 65.898438 C 193.613281 64.554688 195.019531 63.277344 196.488281 62.070312 C 197.960938 60.863281 199.484375 59.734375 201.066406 58.675781 C 202.644531 57.621094 204.273438 56.644531 205.949219 55.746094 C 207.625 54.851562 209.34375 54.039062 211.097656 53.308594 C 212.855469 52.582031 214.644531 51.941406 216.460938 51.390625 C 218.28125 50.835938 220.121094 50.375 221.988281 50.003906 C 223.851562 49.632812 225.730469 49.355469 227.621094 49.167969 C 229.511719 48.980469 231.410156 48.890625 233.308594 48.890625 C 235.210938 48.890625 237.105469 48.980469 239 49.167969 C 240.890625 49.355469 242.769531 49.632812 244.632812 50.003906 C 246.496094 50.375 248.339844 50.835938 250.15625 51.390625 C 251.976562 51.941406 253.765625 52.582031 255.519531 53.308594 C 257.277344 54.039062 258.992188 54.851562 260.667969 55.746094 C 262.347656 56.644531 263.972656 57.621094 265.554688 58.675781 C 267.136719 59.734375 268.660156 60.863281 270.128906 62.070312 C 271.597656 63.277344 273.007812 64.554688 274.351562 65.898438 C 275.695312 67.246094 276.96875 68.652344 278.175781 70.121094 C 279.382812 71.59375 280.511719 73.117188 281.566406 74.699219 C 282.625 76.28125 283.601562 77.910156 284.496094 79.589844 C 285.390625 81.265625 286.203125 82.984375 286.929688 84.742188 C 287.660156 86.5 288.296875 88.285156 288.851562 90.105469 C 289.402344 91.925781 289.863281 93.769531 290.234375 95.636719 C 290.605469 97.5 290.882812 99.378906 291.070312 101.273438 C 291.257812 103.167969 291.347656 105.0625 291.347656 106.964844 Z M 291.347656 106.964844 " fill-opacity="1" fill-rule="nonzero"/><g clip-path="url(#5adfccffce)"><path stroke-linecap="round" transform="matrix(0.906869, 0, 0, 0.907461, 108.615442, 44.895889)" fill="none" stroke-linejoin="round" d="M 197.698847 46.402 C 200.201449 53.297956 201.601355 60.701854 201.601355 68.398463 C 201.601355 103.799424 172.901122 132.399131 137.601946 132.399131 C 102.298463 132.399131 73.59823 103.700419 73.59823 68.398463 C 73.59823 33.100813 102.298463 4.402101 137.601946 4.402101 C 153.802093 4.402101 168.498955 10.398397 179.801583 20.199952 " stroke="#000000" stroke-width="8.748" stroke-opacity="1" stroke-miterlimit="10"/></g><path stroke-linecap="round" transform="matrix(0.906869, 0, 0, 0.907461, 108.615442, 44.895889)" fill="none" stroke-linejoin="round" d="M 189.799068 31.301493 C 190.298727 31.998837 190.798386 32.700486 191.198974 33.402134 " stroke="#000000" stroke-width="8.748" stroke-opacity="1" stroke-miterlimit="10"/><path stroke-linecap="round" transform="matrix(0.906869, 0, 0, 0.907461, 108.615442, 44.895889)" fill="none" stroke-linejoin="round" d="M 150.997973 119.700586 C 146.699184 120.798256 142.197946 121.400899 137.498569 121.400899 C 117.70174 121.400899 100.497968 110.600679 91.301661 94.501507 " stroke="#000000" stroke-width="13.122" stroke-opacity="0.149" stroke-miterlimit="10"/><path stroke-linecap="round" transform="matrix(0.906869, 0, 0, 0.907461, 108.615442, 44.895889)" fill="none" stroke-linejoin="round" d="M 154.400822 20.298957 C 156.201317 20.9016 157.898434 21.69795 159.599859 22.498604 " stroke="#ffffff" stroke-width="6.561" stroke-opacity="0.4" stroke-miterlimit="10"/><path stroke-linecap="round" transform="matrix(0.906869, 0, 0, 0.907461, 108.615442, 44.895889)" fill="none" stroke-linejoin="round" d="M 169.700721 28.899531 C 173.499851 31.998837 176.898393 35.700786 179.698206 39.798757 " stroke="#ffffff" stroke-width="6.561" stroke-opacity="0.4" stroke-miterlimit="10"/><path fill="#000000" d="M 233.582031 140.269531 C 232.3125 140.269531 231.222656 139.816406 230.40625 138.910156 C 229.589844 138 229.230469 136.640625 229.230469 134.554688 L 229.230469 128.292969 C 227.414062 127.835938 225.511719 127.203125 223.605469 126.386719 C 222.519531 127.292969 221.429688 127.65625 220.523438 127.65625 C 219.164062 127.65625 218.074219 127.203125 217.257812 126.296875 C 216.441406 125.386719 216.078125 124.027344 216.078125 121.9375 L 216.078125 117.039062 C 216.078125 115.042969 216.441406 113.589844 217.257812 112.683594 C 218.074219 111.777344 219.164062 111.320312 220.433594 111.320312 C 221.429688 111.320312 222.335938 111.59375 223.0625 112.140625 C 223.789062 112.683594 224.332031 113.589844 224.605469 114.679688 C 224.875 115.679688 225.238281 116.402344 225.691406 116.859375 C 226.417969 117.675781 227.507812 118.21875 229.046875 118.761719 C 230.589844 119.308594 232.132812 119.578125 233.761719 119.578125 C 236.574219 119.578125 238.933594 118.855469 240.746094 117.402344 C 241.925781 116.496094 242.558594 115.316406 242.558594 113.863281 C 242.558594 112.683594 242.195312 111.777344 241.382812 110.960938 C 240.566406 110.234375 238.839844 109.597656 236.121094 109.054688 L 230.226562 107.875 C 225.964844 107.058594 222.882812 105.515625 220.886719 103.246094 C 218.890625 100.976562 217.894531 98.34375 217.894531 95.167969 C 217.894531 91.992188 218.980469 89.269531 221.15625 86.820312 C 223.242188 84.460938 225.964844 83.007812 229.410156 82.285156 L 229.410156 80.558594 C 229.410156 78.5625 229.773438 77.203125 230.589844 76.292969 C 231.40625 75.386719 232.492188 74.933594 233.761719 74.933594 C 235.03125 74.933594 236.121094 75.386719 236.9375 76.292969 C 237.753906 77.203125 238.117188 78.5625 238.117188 80.558594 L 238.117188 82.285156 C 239.75 82.554688 241.382812 83.007812 242.921875 83.734375 C 243.285156 83.554688 243.648438 83.371094 244.011719 83.28125 C 244.375 83.191406 244.828125 83.101562 245.191406 83.101562 C 246.460938 83.101562 247.546875 83.554688 248.363281 84.460938 C 249.179688 85.367188 249.542969 86.730469 249.542969 88.816406 L 249.542969 91.628906 C 249.542969 93.625 249.179688 95.078125 248.363281 95.984375 C 247.546875 96.894531 246.460938 97.347656 245.191406 97.347656 C 244.011719 97.347656 243.011719 96.984375 242.195312 96.167969 C 241.472656 95.441406 240.925781 94.351562 240.835938 93.082031 C 239.113281 91.8125 236.9375 91.085938 234.398438 91.085938 C 231.585938 91.085938 229.589844 91.539062 228.320312 92.539062 C 227.050781 93.445312 226.507812 94.441406 226.507812 95.621094 C 226.507812 96.441406 226.871094 97.164062 227.597656 97.890625 C 228.320312 98.617188 229.953125 99.253906 232.492188 99.707031 L 237.664062 100.796875 C 242.105469 101.703125 245.371094 103.0625 247.277344 104.878906 C 249.90625 107.238281 251.175781 110.324219 251.175781 114.136719 C 251.175781 117.492188 249.996094 120.488281 247.636719 123.117188 C 245.371094 125.660156 242.105469 127.382812 238.027344 128.199219 L 238.027344 134.460938 C 238.027344 136.457031 237.664062 137.910156 236.847656 138.816406 C 235.941406 139.816406 234.851562 140.269531 233.582031 140.269531 Z M 233.582031 140.269531 " fill-opacity="1" fill-rule="nonzero"/><path stroke-linecap="round" transform="matrix(0.906869, 0, 0, 0.907461, 108.615442, 44.895889)" fill-opacity="1" fill="#ffea00" fill-rule="nonzero" stroke-linejoin="round" d="M 312.999437 173.998703 C 312.999437 176.09504 312.89606 178.187071 312.693612 180.274798 C 312.486856 182.35822 312.181031 184.428729 311.771827 186.486324 C 311.362624 188.539614 310.85435 190.571381 310.242699 192.577321 C 309.635355 194.58326 308.928941 196.554763 308.127764 198.491829 C 307.326586 200.428896 306.430646 202.322916 305.444251 204.169586 C 304.453548 206.016255 303.376697 207.815575 302.213698 209.55463 C 301.050699 211.297989 299.801552 212.981085 298.470564 214.599611 C 297.143883 216.222442 295.735362 217.772095 294.253615 219.252875 C 292.771868 220.737959 291.221203 222.141255 289.601619 223.471374 C 287.982035 224.801493 286.29784 226.049825 284.557649 227.212064 C 282.81315 228.378609 281.016963 229.454757 279.169086 230.444813 C 277.32121 231.430564 275.43026 232.325919 273.491928 233.126573 C 271.553596 233.931532 269.585112 234.637485 267.577862 235.244432 C 265.570612 235.85138 263.541825 236.359321 261.487193 236.768258 C 259.428254 237.177194 257.3607 237.487124 255.271609 237.693745 C 253.186825 237.896061 251.097734 237.999371 249.000029 237.999371 C 246.902323 237.999371 244.813232 237.896061 242.728448 237.693745 C 240.639358 237.487124 238.571804 237.177194 236.512864 236.768258 C 234.458233 236.359321 232.429445 235.85138 230.422195 235.244432 C 228.414945 234.637485 226.446461 233.931532 224.50813 233.126573 C 222.569798 232.325919 220.678847 231.430564 218.830971 230.444813 C 216.983095 229.454757 215.186907 228.378609 213.442409 227.212064 C 211.702217 226.049825 210.018022 224.801493 208.398439 223.471374 C 206.778855 222.141255 205.228189 220.737959 203.746442 219.252875 C 202.264695 217.772095 200.856174 216.222442 199.529494 214.599611 C 198.198506 212.981085 196.949359 211.297989 195.78636 209.55463 C 194.623361 207.815575 193.546509 206.016255 192.555807 204.169586 C 191.569411 202.322916 190.673471 200.428896 189.872294 198.491829 C 189.071117 196.554763 188.364702 194.58326 187.757359 192.577321 C 187.145707 190.571381 186.637433 188.539614 186.22823 186.486324 C 185.819027 184.428729 185.513201 182.35822 185.306446 180.274798 C 185.103998 178.187071 185.00062 176.09504 185.00062 173.998703 C 185.00062 171.902367 185.103998 169.81464 185.306446 167.726914 C 185.513201 165.639187 185.819027 163.568678 186.22823 161.515388 C 186.637433 159.457793 187.145707 157.426026 187.757359 155.420086 C 188.364702 153.414147 189.071117 151.442644 189.872294 149.509882 C 190.673471 147.572816 191.569411 145.678796 192.555807 143.832126 C 193.546509 141.981151 194.623361 140.186137 195.78636 138.442777 C 196.949359 136.699418 198.198506 135.020627 199.529494 133.397796 C 200.856174 131.779269 202.264695 130.225312 203.746442 128.744532 C 205.228189 127.263753 206.778855 125.856151 208.398439 124.526033 C 210.018022 123.195914 211.702217 121.951887 213.442409 120.785343 C 215.186907 119.623103 216.983095 118.546955 218.830971 117.556899 C 220.678847 116.566843 222.569798 115.675792 224.50813 114.870834 C 226.446461 114.07018 228.414945 113.364227 230.422195 112.757279 C 232.429445 112.146027 234.458233 111.638086 236.512864 111.229149 C 238.571804 110.820213 240.639358 110.514587 242.728448 110.307967 C 244.813232 110.101346 246.902323 109.998036 249.000029 109.998036 C 251.097734 109.998036 253.186825 110.101346 255.271609 110.307967 C 257.3607 110.514587 259.428254 110.820213 261.487193 111.229149 C 263.541825 111.638086 265.570612 112.146027 267.577862 112.757279 C 269.585112 113.364227 271.553596 114.07018 273.491928 114.870834 C 275.43026 115.675792 277.32121 116.566843 279.169086 117.556899 C 281.016963 118.546955 282.81315 119.623103 284.557649 120.785343 C 286.29784 121.951887 287.982035 123.195914 289.601619 124.526033 C 291.221203 125.856151 292.771868 127.263753 294.253615 128.744532 C 295.735362 130.225312 297.143883 131.779269 298.470564 133.397796 C 299.801552 135.020627 301.050699 136.699418 302.213698 138.442777 C 303.376697 140.186137 304.453548 141.981151 305.444251 143.832126 C 306.430646 145.678796 307.326586 147.572816 308.127764 149.509882 C 308.928941 151.442644 309.635355 153.414147 310.242699 155.420086 C 310.85435 157.426026 311.362624 159.457793 311.771827 161.515388 C 312.181031 163.568678 312.486856 165.639187 312.693612 167.726914 C 312.89606 169.81464 312.999437 171.902367 312.999437 173.998703 Z M 312.999437 173.998703 " stroke="#000000" stroke-width="8.748" stroke-opacity="1" stroke-miterlimit="10"/><path stroke-linecap="round" transform="matrix(0.906869, 0, 0, 0.907461, 108.615442, 44.895889)" fill="none" stroke-linejoin="round" d="M 256.998878 226.501807 C 254.401513 226.902134 251.700771 227.100145 249.000029 227.100145 C 238.399507 227.100145 228.501093 224.000839 220.200726 218.598577 " stroke="#000000" stroke-width="13.122" stroke-opacity="0.149" stroke-miterlimit="10"/><path fill="#000000" d="M 334.699219 236.097656 C 333.429688 236.097656 332.339844 235.644531 331.523438 234.738281 C 330.707031 233.828125 330.34375 232.46875 330.34375 230.382812 L 330.34375 224.121094 C 328.53125 223.664062 326.625 223.03125 324.722656 222.214844 C 323.632812 223.121094 322.546875 223.484375 321.640625 223.484375 C 320.277344 223.484375 319.191406 223.03125 318.375 222.125 C 317.558594 221.214844 317.195312 219.855469 317.195312 217.765625 L 317.195312 212.867188 C 317.195312 210.871094 317.558594 209.417969 318.375 208.511719 C 319.191406 207.605469 320.277344 207.148438 321.546875 207.148438 C 322.546875 207.148438 323.453125 207.421875 324.179688 207.964844 C 324.902344 208.511719 325.449219 209.417969 325.71875 210.507812 C 325.992188 211.503906 326.355469 212.230469 326.808594 212.683594 C 327.535156 213.503906 328.621094 214.046875 330.164062 214.589844 C 331.707031 215.136719 333.246094 215.40625 334.878906 215.40625 C 337.691406 215.40625 340.046875 214.683594 341.863281 213.230469 C 343.039062 212.324219 343.675781 211.144531 343.675781 209.691406 C 343.675781 208.511719 343.3125 207.605469 342.496094 206.785156 C 341.679688 206.0625 339.957031 205.425781 337.238281 204.882812 L 331.34375 203.703125 C 327.082031 202.886719 323.996094 201.34375 322 199.074219 C 320.007812 196.804688 319.007812 194.171875 319.007812 190.996094 C 319.007812 187.820312 320.097656 185.097656 322.273438 182.648438 C 324.359375 180.289062 327.082031 178.835938 330.527344 178.109375 L 330.527344 176.386719 C 330.527344 174.390625 330.890625 173.03125 331.707031 172.121094 C 332.519531 171.214844 333.609375 170.761719 334.878906 170.761719 C 336.148438 170.761719 337.238281 171.214844 338.054688 172.121094 C 338.871094 173.03125 339.230469 174.390625 339.230469 176.386719 L 339.230469 178.109375 C 340.863281 178.382812 342.496094 178.835938 344.039062 179.5625 C 344.402344 179.382812 344.765625 179.199219 345.125 179.109375 C 345.488281 179.019531 345.941406 178.929688 346.304688 178.929688 C 347.574219 178.929688 348.664062 179.382812 349.480469 180.289062 C 350.296875 181.195312 350.660156 182.558594 350.660156 184.644531 L 350.660156 187.1875 C 350.660156 189.183594 350.296875 190.632812 349.480469 191.542969 C 348.664062 192.449219 347.574219 192.902344 346.304688 192.902344 C 345.125 192.902344 344.128906 192.539062 343.3125 191.722656 C 342.585938 190.996094 342.042969 189.90625 341.953125 188.636719 C 340.230469 187.367188 338.054688 186.640625 335.515625 186.640625 C 332.703125 186.640625 330.707031 187.09375 329.4375 188.09375 C 328.167969 189 327.625 190 327.625 191.179688 C 327.625 191.996094 327.988281 192.722656 328.710938 193.449219 C 329.4375 194.171875 331.070312 194.808594 333.609375 195.261719 L 338.777344 196.351562 C 343.222656 197.257812 346.488281 198.621094 348.390625 200.433594 C 351.019531 202.792969 352.292969 205.878906 352.292969 209.691406 C 352.292969 213.046875 351.113281 216.042969 348.753906 218.675781 C 346.488281 221.214844 343.222656 222.941406 339.140625 223.757812 L 339.140625 230.019531 C 339.140625 232.015625 338.777344 233.464844 337.960938 234.375 C 337.054688 235.644531 335.96875 236.097656 334.699219 236.097656 Z M 334.699219 236.097656 " fill-opacity="1" fill-rule="nonzero"/></svg>