<svg xmlns="http://www.w3.org/2000/svg" xmlns:xlink="http://www.w3.org/1999/xlink" width="800" zoomAndPan="magnify" viewBox="0 0 600 449.999984" height="600" preserveAspectRatio="xMidYMid meet" version="1.0"><defs><clipPath id="ae6049141f"><path d="M 423 234 L 527.484375 234 L 527.484375 430 L 423 430 Z M 423 234 " clip-rule="nonzero"/></clipPath><clipPath id="419f7c85d5"><path d="M 72.234375 191 L 224 191 L 224 230 L 72.234375 230 Z M 72.234375 191 " clip-rule="nonzero"/></clipPath><clipPath id="70bac68f4b"><path d="M 72.234375 238 L 226 238 L 226 277 L 72.234375 277 Z M 72.234375 238 " clip-rule="nonzero"/></clipPath><clipPath id="f2fa4bc75a"><path d="M 72.234375 288 L 226 288 L 226 327 L 72.234375 327 Z M 72.234375 288 " clip-rule="nonzero"/></clipPath></defs><path fill="#5cc5ff" d="M 457.398438 119.964844 C 455.886719 118.394531 454.320312 116.828125 452.742188 115.292969 L 456.089844 111.847656 C 457.703125 113.414062 459.308594 115.027344 460.855469 116.628906 Z M 466.265625 129.734375 C 464.839844 128.066406 463.375 126.398438 461.910156 124.78125 L 465.464844 121.554688 C 466.964844 123.207031 468.464844 124.914062 469.917969 126.625 Z M 474.492188 140.050781 C 473.1875 138.304688 471.832031 136.546875 470.457031 134.828125 L 474.210938 131.828125 C 475.613281 133.589844 477 135.386719 478.335938 137.171875 Z M 482.046875 150.855469 C 480.855469 149.027344 479.613281 147.1875 478.355469 145.390625 L 482.292969 142.640625 C 483.574219 144.476562 484.847656 146.355469 486.070312 148.226562 Z M 488.90625 162.121094 C 487.828125 160.21875 486.707031 158.304688 485.566406 156.433594 L 489.667969 153.933594 C 490.835938 155.851562 491.980469 157.808594 493.085938 159.75 Z M 495.03125 173.796875 C 494.074219 171.824219 493.078125 169.839844 492.0625 167.910156 L 496.316406 165.679688 C 497.351562 167.652344 498.375 169.679688 499.355469 171.699219 Z M 500.40625 185.832031 C 499.578125 183.8125 498.710938 181.777344 497.816406 179.773438 L 502.203125 177.8125 C 503.113281 179.863281 504.007812 181.949219 504.851562 184.015625 Z M 504.996094 198.191406 C 504.300781 196.117188 503.5625 194.027344 502.796875 191.972656 L 507.300781 190.300781 C 508.082031 192.398438 508.839844 194.539062 509.546875 196.664062 Z M 508.789062 210.808594 C 508.226562 208.699219 507.625 206.566406 506.992188 204.46875 L 511.59375 203.085938 C 512.238281 205.230469 512.855469 207.414062 513.429688 209.574219 Z M 511.769531 223.644531 C 511.339844 221.503906 510.875 219.335938 510.378906 217.199219 L 515.058594 216.117188 C 515.566406 218.300781 516.042969 220.515625 516.476562 222.707031 Z M 513.921875 236.636719 C 513.636719 234.492188 513.3125 232.300781 512.945312 230.125 L 517.6875 229.339844 C 518.058594 231.566406 518.390625 233.808594 518.683594 236 Z M 515.253906 249.753906 C 515.101562 247.5625 514.910156 245.347656 514.691406 243.179688 L 519.46875 242.695312 C 519.691406 244.917969 519.886719 247.175781 520.046875 249.421875 Z M 515.757812 262.933594 C 515.742188 260.757812 515.691406 258.542969 515.605469 256.339844 L 520.40625 256.15625 C 520.492188 258.40625 520.542969 260.675781 520.558594 262.902344 Z M 519.953125 276.46875 L 515.171875 276.046875 C 515.375 273.742188 515.523438 271.53125 515.625 269.480469 L 520.421875 269.710938 C 520.320312 271.828125 520.160156 274.097656 519.953125 276.46875 Z M 518.332031 289.886719 L 513.585938 289.144531 C 513.90625 287.074219 514.210938 284.878906 514.484375 282.613281 L 519.253906 283.1875 C 518.972656 285.507812 518.660156 287.761719 518.332031 289.886719 Z M 515.523438 303.191406 L 510.867188 302.007812 C 511.796875 298.351562 512.332031 295.980469 512.335938 295.957031 L 512.414062 295.589844 L 517.113281 296.582031 L 517.019531 297.007812 C 517 297.105469 516.464844 299.464844 515.523438 303.191406 Z M 511.949219 316.179688 L 507.347656 314.804688 C 507.96875 312.734375 508.578125 310.589844 509.171875 308.425781 L 513.804688 309.699219 C 513.203125 311.894531 512.578125 314.074219 511.949219 316.179688 Z M 507.722656 329.019531 L 503.214844 327.355469 C 503.925781 325.429688 504.652344 323.332031 505.375 321.125 L 509.9375 322.625 C 509.199219 324.886719 508.453125 327.035156 507.722656 329.019531 Z M 502.253906 341.488281 L 498.046875 339.175781 C 498.9375 337.542969 499.863281 335.617188 500.800781 333.453125 L 505.210938 335.351562 C 504.214844 337.65625 503.222656 339.71875 502.253906 341.488281 " fill-opacity="1" fill-rule="nonzero"/><path fill="#5cc5ff" d="M 401.960938 78.964844 C 400.007812 77.976562 398.011719 77 396.035156 76.074219 L 398.074219 71.722656 C 400.097656 72.671875 402.140625 73.671875 404.136719 74.683594 Z M 413.527344 85.316406 C 411.640625 84.203125 409.714844 83.101562 407.792969 82.046875 L 410.105469 77.835938 C 412.066406 78.914062 414.039062 80.039062 415.96875 81.175781 Z M 424.660156 92.386719 C 422.855469 91.15625 421.003906 89.9375 419.148438 88.761719 L 421.722656 84.707031 C 423.617188 85.90625 425.515625 87.15625 427.363281 88.414062 Z M 432.59375 98.054688 C 431.753906 97.425781 430.90625 96.800781 430.054688 96.179688 L 432.882812 92.296875 C 433.75 92.929688 434.617188 93.566406 435.476562 94.214844 L 432.59375 98.054688 " fill-opacity="1" fill-rule="nonzero"/><path fill="#5cc5ff" d="M 303.921875 56.582031 L 303.832031 51.777344 C 306.078125 51.730469 308.335938 51.722656 310.582031 51.75 L 310.523438 56.554688 C 308.324219 56.527344 306.117188 56.539062 303.921875 56.582031 Z M 323.707031 57.128906 C 321.523438 56.964844 319.304688 56.832031 317.121094 56.738281 L 317.328125 51.9375 C 319.5625 52.035156 321.832031 52.171875 324.066406 52.335938 Z M 290.753906 57.246094 L 290.359375 52.457031 C 292.59375 52.273438 294.855469 52.125 297.089844 52.007812 L 297.335938 56.808594 C 295.148438 56.917969 292.933594 57.066406 290.753906 57.246094 Z M 336.824219 58.53125 C 334.660156 58.230469 332.457031 57.953125 330.277344 57.722656 L 330.785156 52.949219 C 333.019531 53.183594 335.273438 53.460938 337.484375 53.769531 Z M 277.652344 58.738281 L 276.960938 53.988281 C 279.175781 53.660156 281.425781 53.367188 283.648438 53.117188 L 284.191406 57.890625 C 282.019531 58.140625 279.820312 58.425781 277.652344 58.738281 Z M 349.828125 60.757812 C 347.6875 60.320312 345.503906 59.910156 343.347656 59.539062 L 344.15625 54.804688 C 346.367188 55.179688 348.597656 55.601562 350.789062 56.050781 Z M 264.675781 61.0625 L 263.679688 56.363281 C 265.871094 55.898438 268.097656 55.460938 270.300781 55.070312 L 271.148438 59.796875 C 268.992188 60.183594 266.816406 60.609375 264.675781 61.0625 Z M 362.660156 63.8125 C 360.550781 63.238281 358.402344 62.691406 356.269531 62.179688 L 357.382812 57.507812 C 359.5625 58.027344 361.761719 58.589844 363.921875 59.179688 Z M 251.871094 64.207031 L 250.578125 59.585938 C 252.734375 58.980469 254.933594 58.402344 257.101562 57.867188 L 258.25 62.535156 C 256.125 63.054688 253.980469 63.617188 251.871094 64.207031 Z M 375.183594 67.648438 C 373.144531 66.957031 371.066406 66.28125 368.996094 65.644531 L 370.402344 61.054688 C 372.523438 61.703125 374.652344 62.390625 376.734375 63.105469 Z M 239.292969 68.167969 L 237.703125 63.632812 C 239.820312 62.894531 241.972656 62.175781 244.109375 61.503906 L 245.550781 66.089844 C 243.464844 66.746094 241.359375 67.449219 239.292969 68.167969 " fill-opacity="1" fill-rule="nonzero"/><path fill="#5cc5ff" d="M 147.941406 131.839844 L 144.242188 128.773438 C 145.308594 127.496094 146.382812 126.222656 147.472656 124.96875 L 151.097656 128.121094 C 150.03125 129.347656 148.980469 130.585938 147.941406 131.839844 Z M 139.847656 142.261719 L 135.964844 139.433594 C 137.28125 137.621094 138.648438 135.804688 140.019531 134.039062 L 143.8125 136.988281 C 142.472656 138.714844 141.140625 140.488281 139.847656 142.261719 Z M 132.429688 153.175781 L 128.375 150.601562 C 129.582031 148.699219 130.828125 146.796875 132.082031 144.960938 L 136.054688 147.65625 C 134.828125 149.460938 133.609375 151.316406 132.429688 153.175781 Z M 125.71875 164.53125 L 121.511719 162.226562 C 122.582031 160.261719 123.707031 158.292969 124.847656 156.359375 L 128.984375 158.800781 C 127.871094 160.691406 126.769531 162.617188 125.71875 164.53125 Z M 119.742188 176.300781 L 115.394531 174.261719 C 116.339844 172.246094 117.335938 170.203125 118.355469 168.191406 L 122.636719 170.371094 C 121.640625 172.332031 120.667969 174.328125 119.742188 176.300781 Z M 114.527344 188.417969 L 110.058594 186.664062 C 110.875 184.589844 111.738281 182.492188 112.625 180.421875 L 117.042969 182.316406 C 116.167969 184.34375 115.324219 186.398438 114.527344 188.417969 " fill-opacity="1" fill-rule="nonzero"/><path fill="#5cc5ff" d="M 107.511719 335.351562 C 107.175781 334.382812 106.839844 333.410156 106.511719 332.425781 L 111.0625 330.890625 C 111.386719 331.855469 111.714844 332.816406 112.046875 333.769531 Z M 112.226562 347.957031 C 111.402344 345.917969 110.585938 343.808594 109.792969 341.679688 L 114.292969 339.996094 C 115.070312 342.089844 115.875 344.164062 116.683594 346.164062 Z M 117.601562 360.324219 C 116.660156 358.316406 115.726562 356.25 114.824219 354.175781 L 119.230469 352.261719 C 120.109375 354.292969 121.023438 356.316406 121.945312 358.277344 Z M 123.742188 372.347656 C 122.667969 370.414062 121.601562 368.40625 120.570312 366.382812 L 124.84375 364.199219 C 125.855469 366.175781 126.894531 368.128906 127.941406 370.015625 Z M 130.726562 383.921875 C 129.503906 382.054688 128.289062 380.128906 127.125 378.195312 L 131.238281 375.714844 C 132.371094 377.589844 133.550781 379.46875 134.742188 381.28125 Z M 138.59375 394.929688 C 137.214844 393.148438 135.851562 391.324219 134.550781 389.5 L 138.460938 386.707031 C 139.726562 388.480469 141.046875 390.253906 142.386719 391.980469 Z M 147.316406 405.28125 C 145.800781 403.621094 144.296875 401.910156 142.851562 400.191406 L 146.523438 397.09375 C 147.929688 398.765625 149.390625 400.425781 150.859375 402.042969 Z M 156.8125 414.910156 C 155.167969 413.363281 153.535156 411.773438 151.972656 410.1875 L 155.390625 406.8125 C 156.910156 408.355469 158.5 409.902344 160.101562 411.410156 L 156.8125 414.910156 " fill-opacity="1" fill-rule="nonzero"/><path fill="#5cc5ff" d="M 420.578125 154.171875 Z M 421.027344 158.832031 C 419.636719 158.832031 418.160156 158.453125 416.957031 157.246094 C 415.558594 155.851562 415.605469 153.574219 415.65625 150.691406 C 415.753906 145.542969 415.414062 143.058594 413.195312 142.835938 C 410.878906 142.597656 404.675781 142.410156 400.449219 142.53125 L 400.3125 137.730469 C 404.789062 137.601562 411.171875 137.800781 413.679688 138.054688 C 420.6875 138.765625 420.542969 146.289062 420.460938 150.78125 C 420.441406 151.871094 420.410156 153.308594 420.527344 153.960938 C 421.128906 154.183594 422.578125 153.820312 423.390625 153.40625 C 423.554688 153.328125 433.039062 148.859375 437.273438 145.25 C 438.101562 144.578125 440.707031 142.757812 442.1875 142.148438 L 444.011719 146.589844 C 443.230469 146.910156 441.097656 148.332031 440.351562 148.941406 C 435.660156 152.933594 425.910156 157.53125 425.496094 157.722656 C 425.203125 157.878906 423.222656 158.832031 421.027344 158.832031 " fill-opacity="1" fill-rule="nonzero"/><path fill="#5cc5ff" d="M 395.292969 408.539062 C 386.75 408.539062 383.902344 407.355469 381.488281 399.527344 C 380.835938 397.414062 379.164062 394.246094 377.398438 390.890625 C 374.023438 384.492188 370.199219 377.234375 370.34375 371.792969 C 370.453125 368.765625 370.859375 364.835938 371.289062 360.679688 C 371.96875 354.089844 372.742188 346.628906 372.578125 340.625 C 372.464844 336.304688 371.589844 336.132812 368.996094 335.613281 C 367.109375 335.238281 364.527344 334.71875 362.414062 332.324219 C 359.683594 329.289062 359.277344 325.660156 358.914062 322.457031 C 358.628906 319.964844 358.367188 317.613281 357.070312 315.679688 C 355.0625 312.683594 351.554688 312.902344 344.433594 313.621094 C 343.085938 313.761719 341.660156 313.90625 340.164062 314.027344 C 335.636719 314.390625 332.121094 315.230469 328.71875 316.039062 C 325.378906 316.832031 322.222656 317.582031 318.714844 317.691406 C 311.386719 317.996094 308.394531 316.402344 302.792969 309.175781 C 301.59375 307.640625 300.390625 306.433594 299.269531 305.363281 L 302.589844 301.890625 C 303.835938 303.085938 305.1875 304.4375 306.582031 306.222656 C 311.496094 312.5625 313.121094 313.109375 318.542969 312.890625 C 321.589844 312.796875 324.378906 312.132812 327.609375 311.367188 C 331.019531 310.550781 334.886719 309.632812 339.777344 309.238281 C 341.246094 309.121094 342.632812 308.980469 343.949219 308.84375 C 351.140625 308.113281 357.351562 307.476562 361.0625 313.003906 C 363.003906 315.910156 363.367188 319.101562 363.683594 321.917969 C 364.007812 324.765625 364.285156 327.222656 366 329.132812 C 367.003906 330.269531 368.148438 330.546875 369.933594 330.902344 C 373.742188 331.660156 377.179688 332.96875 377.378906 340.492188 C 377.550781 346.808594 376.757812 354.441406 376.066406 361.171875 C 375.644531 365.25 375.242188 369.097656 375.144531 371.941406 C 375.035156 376.109375 378.699219 383.058594 381.644531 388.648438 C 383.601562 392.363281 385.292969 395.570312 386.078125 398.113281 C 387.664062 403.257812 388.019531 403.734375 395.292969 403.734375 C 395.734375 403.734375 396.171875 403.730469 396.597656 403.726562 L 396.660156 408.53125 C 396.210938 408.535156 395.757812 408.539062 395.292969 408.539062 " fill-opacity="1" fill-rule="nonzero"/><path fill="#5cc5ff" d="M 227.078125 298.539062 L 226.167969 301.121094 C 226.722656 300.804688 227.109375 300.234375 227.199219 299.589844 C 227.265625 299.15625 227.179688 298.792969 227.078125 298.539062 Z M 279.171875 440.367188 C 273.539062 437.921875 268.082031 435.066406 262.964844 431.886719 C 252.339844 425.28125 249.632812 421.378906 248.515625 419.015625 C 246.554688 414.847656 246.933594 411.898438 247.335938 408.777344 C 247.675781 406.144531 248.058594 403.15625 247.269531 398.339844 C 246.410156 393.128906 244.792969 389.777344 243.492188 387.089844 C 241.800781 383.582031 240.335938 380.554688 242.054688 376.238281 C 242.519531 375.074219 243.140625 373.972656 243.867188 372.699219 C 245.074219 370.558594 246.445312 368.140625 247.601562 364.5 C 248.0625 363.046875 248.136719 362.015625 247.828125 361.429688 C 247.730469 361.25 246.980469 360.753906 246.429688 360.398438 C 245.925781 360.066406 245.347656 359.6875 244.695312 359.21875 C 241.101562 356.640625 241.65625 353.140625 242.148438 350.054688 C 242.425781 348.324219 242.734375 346.359375 242.539062 344.101562 C 242.203125 340.171875 243.078125 338.433594 243.777344 337.035156 C 244.378906 335.84375 244.851562 334.902344 244.578125 331.746094 C 244.40625 329.738281 244.265625 328.121094 244.121094 327.566406 C 244.039062 327.507812 243.945312 327.449219 243.839844 327.378906 C 243.21875 326.976562 242.292969 326.363281 240.972656 325.101562 C 238.890625 323.097656 237.925781 322.351562 236.996094 322.042969 C 236.359375 321.828125 236.027344 321.898438 235.429688 322.023438 C 234.601562 322.191406 233.339844 322.453125 231.851562 321.660156 C 229.40625 320.347656 229.101562 317.796875 228.785156 315.09375 C 228.65625 314.046875 228.515625 312.855469 228.25 311.566406 C 227.683594 308.769531 226.730469 304.09375 224.160156 302.160156 C 223.707031 301.816406 222.324219 300.777344 222.429688 299.121094 C 222.476562 298.328125 222.871094 297.609375 223.496094 297.136719 L 223.476562 296.800781 C 224.164062 296.746094 224.402344 296.699219 224.410156 296.699219 L 227.214844 298.144531 L 227.132812 298.382812 C 231.085938 301.429688 232.257812 307.167969 232.960938 310.605469 C 233.261719 312.09375 233.414062 313.386719 233.550781 314.527344 C 233.675781 315.582031 233.847656 317.015625 234.09375 317.386719 C 234.195312 317.371094 234.34375 317.339844 234.460938 317.316406 C 235.332031 317.136719 236.65625 316.863281 238.519531 317.488281 C 240.421875 318.121094 241.960938 319.382812 244.300781 321.632812 C 245.296875 322.59375 245.953125 323.019531 246.472656 323.363281 C 248.804688 324.898438 248.894531 325.882812 249.367188 331.332031 C 249.753906 335.84375 248.816406 337.699219 248.066406 339.195312 C 247.507812 340.308594 247.101562 341.113281 247.328125 343.6875 C 247.574219 346.535156 247.191406 348.90625 246.894531 350.8125 C 246.378906 354.019531 246.453125 354.566406 247.492188 355.3125 C 248.085938 355.738281 248.609375 356.082031 249.058594 356.378906 C 250.3125 357.195312 251.390625 357.90625 252.066406 359.171875 C 253.339844 361.5625 252.738281 364.183594 252.179688 365.953125 C 250.871094 370.070312 249.300781 372.839844 248.042969 375.066406 C 247.40625 376.1875 246.855469 377.15625 246.515625 378.015625 C 245.625 380.253906 246.152344 381.558594 247.820312 385 C 249.175781 387.8125 251.03125 391.660156 252.007812 397.558594 C 252.914062 403.070312 252.460938 406.574219 252.101562 409.394531 C 251.726562 412.308594 251.496094 414.066406 252.863281 416.964844 C 254.183594 419.765625 258.433594 423.414062 265.5 427.804688 C 270.421875 430.859375 275.660156 433.609375 281.082031 435.960938 L 279.171875 440.367188 " fill-opacity="1" fill-rule="nonzero"/><path fill="#5cc5ff" d="M 163.378906 374.683594 C 159.746094 368.136719 157.167969 361.742188 155.71875 355.671875 C 153.675781 347.140625 152.554688 342.441406 153.925781 336.15625 C 154.386719 334.019531 155.03125 332.199219 155.65625 330.433594 C 156.359375 328.441406 157.023438 326.554688 157.332031 324.429688 L 162.085938 325.113281 C 161.710938 327.710938 160.933594 329.910156 160.179688 332.035156 C 159.582031 333.734375 159.015625 335.332031 158.613281 337.179688 C 157.480469 342.386719 158.390625 346.203125 160.386719 354.554688 C 161.734375 360.199219 164.15625 366.183594 167.578125 372.351562 L 163.378906 374.683594 " fill-opacity="1" fill-rule="nonzero"/><path fill="#5cc5ff" d="M 143.226562 193.277344 L 138.820312 191.367188 C 141.628906 184.878906 144.851562 178.472656 148.40625 172.316406 C 153.347656 163.753906 158.992188 155.554688 165.183594 147.945312 L 168.90625 150.980469 C 162.878906 158.390625 157.378906 166.375 152.566406 174.71875 C 149.105469 180.71875 145.964844 186.960938 143.226562 193.277344 " fill-opacity="1" fill-rule="nonzero"/><path fill="#5cc5ff" d="M 129.898438 242.027344 L 125.136719 241.433594 C 125.699219 236.914062 126.449219 232.355469 127.351562 227.886719 L 132.054688 228.839844 C 131.175781 233.195312 130.449219 237.628906 129.898438 242.027344 " fill-opacity="1" fill-rule="nonzero"/><path fill="#5cc5ff" d="M 125.492188 289.746094 C 124.855469 285.195312 124.382812 280.558594 124.089844 275.976562 L 128.882812 275.667969 C 129.171875 280.132812 129.628906 284.644531 130.246094 289.082031 L 125.492188 289.746094 " fill-opacity="1" fill-rule="nonzero"/><path fill="#5cc5ff" d="M 159.726562 373.839844 C 148.84375 359.085938 140.238281 342.796875 134.144531 325.429688 L 138.679688 323.839844 C 144.609375 340.753906 152.992188 356.617188 163.589844 370.984375 L 159.726562 373.839844 " fill-opacity="1" fill-rule="nonzero"/><path fill="#5cc5ff" d="M 307.726562 448.539062 C 280.683594 448.539062 253.636719 442.597656 228.632812 430.644531 L 230.699219 426.3125 C 283.042969 451.335938 344.636719 449.304688 395.453125 420.878906 L 397.800781 425.074219 C 369.894531 440.683594 338.816406 448.539062 307.726562 448.539062 " fill-opacity="1" fill-rule="nonzero"/><path fill="#5cc5ff" d="M 461.578125 172.121094 C 446.023438 146.121094 423.847656 124.324219 397.449219 109.074219 C 353.976562 83.960938 301.570312 78.253906 253.683594 93.417969 L 252.234375 88.839844 C 301.40625 73.269531 355.214844 79.128906 399.851562 104.914062 C 426.953125 120.570312 449.722656 142.953125 465.703125 169.65625 L 461.578125 172.121094 " fill-opacity="1" fill-rule="nonzero"/><path fill="#5cc5ff" d="M 197.871094 160.164062 C 166.175781 160.164062 140.386719 134.363281 140.386719 102.652344 C 140.386719 70.9375 166.175781 45.136719 197.871094 45.136719 C 229.570312 45.136719 255.359375 70.9375 255.359375 102.652344 C 255.359375 114.554688 251.753906 125.976562 244.933594 135.6875 L 241.007812 132.925781 C 247.257812 124.03125 250.558594 113.5625 250.558594 102.652344 C 250.558594 73.589844 226.921875 49.941406 197.871094 49.941406 C 168.820312 49.941406 145.1875 73.589844 145.1875 102.652344 C 145.1875 131.71875 168.820312 155.359375 197.871094 155.359375 C 206.21875 155.359375 214.199219 153.464844 221.597656 149.726562 L 223.761719 154.015625 C 215.691406 158.097656 206.976562 160.164062 197.871094 160.164062 " fill-opacity="1" fill-rule="nonzero"/><path fill="#5cc5ff" d="M 198.054688 124.824219 C 201.765625 124.824219 204.777344 127.835938 204.777344 131.550781 C 204.777344 135.269531 201.765625 138.277344 198.054688 138.277344 C 194.339844 138.277344 191.328125 135.269531 191.328125 131.550781 C 191.328125 127.835938 194.339844 124.824219 198.054688 124.824219 " fill-opacity="1" fill-rule="nonzero"/><path fill="#5cc5ff" d="M 186.078125 117.824219 L 180.894531 111.046875 C 185.835938 107.261719 191.742188 105.265625 197.976562 105.265625 C 203.882812 105.265625 209.535156 107.070312 214.320312 110.496094 L 209.363281 117.441406 C 206.027344 115.058594 202.09375 113.796875 197.976562 113.796875 C 193.632812 113.796875 189.519531 115.191406 186.078125 117.824219 " fill-opacity="1" fill-rule="nonzero"/><path fill="#5cc5ff" d="M 220.839844 104.703125 C 214.148438 99.902344 206.242188 97.367188 197.976562 97.367188 C 189.816406 97.367188 181.996094 99.847656 175.351562 104.539062 L 170.433594 97.566406 C 178.523438 91.851562 188.046875 88.832031 197.976562 88.832031 C 208.035156 88.832031 217.660156 91.921875 225.808594 97.765625 L 220.839844 104.703125 " fill-opacity="1" fill-rule="nonzero"/><path fill="#5cc5ff" d="M 163.089844 91.691406 L 157.628906 85.132812 C 168.804688 75.8125 182.980469 70.679688 197.554688 70.679688 C 212.082031 70.679688 226.226562 75.789062 237.386719 85.0625 L 231.9375 91.625 C 222.308594 83.625 210.097656 79.214844 197.554688 79.214844 C 184.972656 79.214844 172.734375 83.648438 163.089844 91.691406 " fill-opacity="1" fill-rule="nonzero"/><path fill="#5cc5ff" d="M 420.722656 233.296875 C 417.75 227.617188 416.179688 221.226562 416.179688 214.820312 C 416.179688 192.828125 434.066406 174.933594 456.046875 174.933594 C 478.035156 174.933594 495.921875 192.828125 495.921875 214.820312 C 495.921875 220.546875 494.636719 226.339844 492.214844 231.582031 L 487.859375 229.566406 C 489.988281 224.953125 491.121094 219.855469 491.121094 214.820312 C 491.121094 195.476562 475.386719 179.738281 456.046875 179.738281 C 436.710938 179.738281 420.980469 195.476562 420.980469 214.820312 C 420.980469 220.457031 422.363281 226.074219 424.976562 231.066406 L 420.722656 233.296875 " fill-opacity="1" fill-rule="nonzero"/><g clip-path="url(#ae6049141f)"><path fill="#5cc5ff" d="M 523.191406 429.527344 C 481.707031 349.683594 468.933594 254.605469 467.082031 239.167969 L 445.144531 239.167969 C 444.117188 247.957031 439.628906 282.507812 428.316406 325.082031 L 423.675781 323.847656 C 436.648438 275.042969 440.570312 236.90625 440.609375 236.527344 C 440.730469 235.300781 441.761719 234.367188 442.996094 234.367188 L 469.222656 234.367188 C 470.453125 234.367188 471.488281 235.296875 471.613281 236.519531 C 471.71875 237.558594 482.8125 341.402344 527.453125 427.3125 L 523.191406 429.527344 " fill-opacity="1" fill-rule="nonzero"/></g><path fill="#5cc5ff" d="M 433.421875 226.132812 C 431.652344 222.597656 430.75 218.792969 430.75 214.820312 C 430.75 200.867188 442.097656 189.511719 456.046875 189.511719 C 470 189.511719 481.351562 200.867188 481.351562 214.820312 C 481.351562 218.296875 480.652344 221.667969 479.277344 224.84375 L 474.875 222.9375 C 475.984375 220.367188 476.546875 217.636719 476.546875 214.820312 C 476.546875 203.515625 467.351562 194.316406 456.046875 194.316406 C 444.746094 194.316406 435.550781 203.515625 435.550781 214.820312 C 435.550781 218.039062 436.28125 221.121094 437.714844 223.980469 L 433.421875 226.132812 " fill-opacity="1" fill-rule="nonzero"/><path fill="#5cc5ff" d="M 456.890625 211.304688 C 453.980469 211.304688 451.609375 213.675781 451.609375 216.589844 C 451.609375 219.5 453.980469 221.875 456.890625 221.875 C 459.804688 221.875 462.175781 219.5 462.175781 216.589844 C 462.175781 213.675781 459.804688 211.304688 456.890625 211.304688 Z M 456.890625 226.679688 C 451.332031 226.679688 446.808594 222.152344 446.808594 216.589844 C 446.808594 211.027344 451.332031 206.5 456.890625 206.5 C 462.453125 206.5 466.976562 211.027344 466.976562 216.589844 C 466.976562 222.152344 462.453125 226.679688 456.890625 226.679688 " fill-opacity="1" fill-rule="nonzero"/><path fill="#5cc5ff" d="M 482.34375 239.167969 L 427.597656 239.167969 L 427.597656 234.367188 L 482.34375 234.367188 L 482.34375 239.167969 " fill-opacity="1" fill-rule="nonzero"/><path fill="#5cc5ff" d="M 439.378906 346.085938 L 435.796875 342.882812 L 477.214844 296.523438 L 480.792969 299.722656 L 439.378906 346.085938 " fill-opacity="1" fill-rule="nonzero"/><path fill="#5cc5ff" d="M 476.480469 297.847656 L 439.183594 256.480469 L 442.75 253.265625 L 480.042969 294.628906 L 476.480469 297.847656 " fill-opacity="1" fill-rule="nonzero"/><path fill="#5cc5ff" d="M 477.542969 299.703125 L 433.363281 299.703125 L 433.363281 294.898438 L 477.542969 294.898438 L 477.542969 299.703125 " fill-opacity="1" fill-rule="nonzero"/><path fill="#5cc5ff" d="M 497.28125 371.335938 L 430.808594 299.757812 L 434.328125 296.488281 L 500.800781 368.066406 L 497.28125 371.335938 " fill-opacity="1" fill-rule="nonzero"/><path fill="#5cc5ff" d="M 499.632812 372.730469 L 438.164062 372.730469 L 438.164062 367.925781 L 499.632812 367.925781 L 499.632812 372.730469 " fill-opacity="1" fill-rule="nonzero"/><path fill="#5cc5ff" d="M 503.472656 385.222656 L 468.898438 385.222656 L 468.898438 380.417969 L 503.472656 380.417969 L 503.472656 385.222656 " fill-opacity="1" fill-rule="nonzero"/><path fill="#5cc5ff" d="M 459.292969 237.246094 L 454.492188 237.246094 L 454.492188 223.796875 L 459.292969 223.796875 L 459.292969 237.246094 " fill-opacity="1" fill-rule="nonzero"/><path fill="#5cc5ff" d="M 435.097656 297.847656 L 431.53125 294.628906 L 468.828125 253.265625 L 472.394531 256.480469 L 435.097656 297.847656 " fill-opacity="1" fill-rule="nonzero"/><g clip-path="url(#419f7c85d5)"><path fill="#5cc5ff" d="M 222.0625 229.5625 L 74.636719 229.5625 C 73.308594 229.5625 72.234375 228.488281 72.234375 227.160156 L 72.234375 193.527344 C 72.234375 192.199219 73.308594 191.125 74.636719 191.125 L 223.023438 191.125 L 223.023438 195.929688 L 77.039062 195.929688 L 77.039062 224.757812 L 222.0625 224.757812 L 222.0625 229.5625 " fill-opacity="1" fill-rule="nonzero"/></g><path fill="#5cc5ff" d="M 96.726562 206.5 C 94.34375 206.5 92.402344 208.441406 92.402344 210.824219 C 92.402344 213.207031 94.34375 215.148438 96.726562 215.148438 C 99.109375 215.148438 101.046875 213.207031 101.046875 210.824219 C 101.046875 208.441406 99.109375 206.5 96.726562 206.5 Z M 96.726562 219.953125 C 91.695312 219.953125 87.601562 215.855469 87.601562 210.824219 C 87.601562 205.789062 91.695312 201.695312 96.726562 201.695312 C 101.757812 201.695312 105.851562 205.789062 105.851562 210.824219 C 105.851562 215.855469 101.757812 219.953125 96.726562 219.953125 " fill-opacity="1" fill-rule="nonzero"/><g clip-path="url(#70bac68f4b)"><path fill="#5cc5ff" d="M 223.503906 276.644531 L 74.636719 276.644531 C 73.308594 276.644531 72.234375 275.570312 72.234375 274.242188 L 72.234375 240.609375 C 72.234375 239.28125 73.308594 238.207031 74.636719 238.207031 L 224.945312 238.207031 L 224.945312 243.011719 L 77.039062 243.011719 L 77.039062 271.839844 L 221.105469 271.839844 L 221.105469 252.621094 L 225.90625 252.621094 L 225.90625 274.242188 C 225.90625 275.570312 224.832031 276.644531 223.503906 276.644531 " fill-opacity="1" fill-rule="nonzero"/></g><g clip-path="url(#f2fa4bc75a)"><path fill="#5cc5ff" d="M 77.039062 321.804688 L 221.105469 321.804688 L 221.105469 292.980469 L 77.039062 292.980469 Z M 223.503906 326.609375 L 74.636719 326.609375 C 73.308594 326.609375 72.234375 325.535156 72.234375 324.207031 L 72.234375 290.578125 C 72.234375 289.246094 73.308594 288.175781 74.636719 288.175781 L 223.503906 288.175781 C 224.832031 288.175781 225.90625 289.246094 225.90625 290.578125 L 225.90625 324.207031 C 225.90625 325.535156 224.832031 326.609375 223.503906 326.609375 " fill-opacity="1" fill-rule="nonzero"/></g><path fill="#5cc5ff" d="M 96.726562 303.546875 C 94.34375 303.546875 92.402344 305.488281 92.402344 307.871094 C 92.402344 310.253906 94.34375 312.195312 96.726562 312.195312 C 99.109375 312.195312 101.046875 310.253906 101.046875 307.871094 C 101.046875 305.488281 99.109375 303.546875 96.726562 303.546875 Z M 96.726562 317 C 91.695312 317 87.601562 312.90625 87.601562 307.871094 C 87.601562 302.839844 91.695312 298.742188 96.726562 298.742188 C 101.757812 298.742188 105.851562 302.839844 105.851562 307.871094 C 105.851562 312.90625 101.757812 317 96.726562 317 " fill-opacity="1" fill-rule="nonzero"/><path fill="#5cc5ff" d="M 142.347656 241.089844 L 137.546875 241.089844 L 137.546875 227.640625 L 142.347656 227.640625 L 142.347656 241.089844 " fill-opacity="1" fill-rule="nonzero"/><path fill="#5cc5ff" d="M 157.714844 241.089844 L 152.914062 241.089844 L 152.914062 227.640625 L 157.714844 227.640625 L 157.714844 241.089844 " fill-opacity="1" fill-rule="nonzero"/><path fill="#5cc5ff" d="M 142.347656 290.097656 L 137.546875 290.097656 L 137.546875 276.644531 L 142.347656 276.644531 L 142.347656 290.097656 " fill-opacity="1" fill-rule="nonzero"/><path fill="#5cc5ff" d="M 157.714844 290.097656 L 152.914062 290.097656 L 152.914062 276.644531 L 157.714844 276.644531 L 157.714844 290.097656 " fill-opacity="1" fill-rule="nonzero"/><path fill="#5cc5ff" d="M 173.082031 218.992188 L 168.277344 218.992188 L 168.277344 202.65625 L 173.082031 202.65625 L 173.082031 218.992188 " fill-opacity="1" fill-rule="nonzero"/><path fill="#5cc5ff" d="M 184.605469 218.992188 L 179.804688 218.992188 L 179.804688 202.65625 L 184.605469 202.65625 L 184.605469 218.992188 " fill-opacity="1" fill-rule="nonzero"/><path fill="#5cc5ff" d="M 196.132812 218.992188 L 191.328125 218.992188 L 191.328125 202.65625 L 196.132812 202.65625 L 196.132812 218.992188 " fill-opacity="1" fill-rule="nonzero"/><path fill="#5cc5ff" d="M 206.695312 218.992188 L 201.894531 218.992188 L 201.894531 202.65625 L 206.695312 202.65625 L 206.695312 218.992188 " fill-opacity="1" fill-rule="nonzero"/><path fill="#5cc5ff" d="M 173.082031 266.074219 L 168.277344 266.074219 L 168.277344 252.621094 L 173.082031 252.621094 L 173.082031 266.074219 " fill-opacity="1" fill-rule="nonzero"/><path fill="#5cc5ff" d="M 184.605469 266.074219 L 179.804688 266.074219 L 179.804688 252.621094 L 184.605469 252.621094 L 184.605469 266.074219 " fill-opacity="1" fill-rule="nonzero"/><path fill="#5cc5ff" d="M 196.132812 266.074219 L 191.328125 266.074219 L 191.328125 252.621094 L 196.132812 252.621094 L 196.132812 266.074219 " fill-opacity="1" fill-rule="nonzero"/><path fill="#5cc5ff" d="M 206.695312 266.074219 L 201.894531 266.074219 L 201.894531 252.621094 L 206.695312 252.621094 L 206.695312 266.074219 " fill-opacity="1" fill-rule="nonzero"/><path fill="#5cc5ff" d="M 173.082031 313.15625 L 168.277344 313.15625 L 168.277344 299.703125 L 173.082031 299.703125 L 173.082031 313.15625 " fill-opacity="1" fill-rule="nonzero"/><path fill="#5cc5ff" d="M 184.605469 313.15625 L 179.804688 313.15625 L 179.804688 299.703125 L 184.605469 299.703125 L 184.605469 313.15625 " fill-opacity="1" fill-rule="nonzero"/><path fill="#5cc5ff" d="M 196.132812 313.15625 L 191.328125 313.15625 L 191.328125 299.703125 L 196.132812 299.703125 L 196.132812 313.15625 " fill-opacity="1" fill-rule="nonzero"/><path fill="#5cc5ff" d="M 206.695312 313.15625 L 201.894531 313.15625 L 201.894531 299.703125 L 206.695312 299.703125 L 206.695312 313.15625 " fill-opacity="1" fill-rule="nonzero"/><path fill="#5cc5ff" d="M 96.726562 253.582031 C 94.34375 253.582031 92.402344 255.523438 92.402344 257.90625 C 92.402344 260.289062 94.34375 262.230469 96.726562 262.230469 C 99.109375 262.230469 101.046875 260.289062 101.046875 257.90625 C 101.046875 255.523438 99.109375 253.582031 96.726562 253.582031 Z M 96.726562 267.035156 C 91.695312 267.035156 87.601562 262.941406 87.601562 257.90625 C 87.601562 252.875 91.695312 248.777344 96.726562 248.777344 C 101.757812 248.777344 105.851562 252.875 105.851562 257.90625 C 105.851562 262.941406 101.757812 267.035156 96.726562 267.035156 " fill-opacity="1" fill-rule="nonzero"/><path fill="#5cc5ff" d="M 162.515625 214.1875 L 155.792969 214.1875 L 155.792969 209.382812 L 162.515625 209.382812 L 162.515625 214.1875 " fill-opacity="1" fill-rule="nonzero"/><path fill="#5cc5ff" d="M 149.070312 214.1875 L 141.386719 214.1875 L 141.386719 209.382812 L 149.070312 209.382812 L 149.070312 214.1875 " fill-opacity="1" fill-rule="nonzero"/><path fill="#5cc5ff" d="M 134.664062 214.1875 L 127.941406 214.1875 L 127.941406 209.382812 L 134.664062 209.382812 L 134.664062 214.1875 " fill-opacity="1" fill-rule="nonzero"/><path fill="#5cc5ff" d="M 121.21875 214.1875 L 114.496094 214.1875 L 114.496094 209.382812 L 121.21875 209.382812 L 121.21875 214.1875 " fill-opacity="1" fill-rule="nonzero"/><path fill="#5cc5ff" d="M 162.515625 261.269531 L 155.792969 261.269531 L 155.792969 256.464844 L 162.515625 256.464844 L 162.515625 261.269531 " fill-opacity="1" fill-rule="nonzero"/><path fill="#5cc5ff" d="M 149.070312 261.269531 L 141.386719 261.269531 L 141.386719 256.464844 L 149.070312 256.464844 L 149.070312 261.269531 " fill-opacity="1" fill-rule="nonzero"/><path fill="#5cc5ff" d="M 134.664062 261.269531 L 127.941406 261.269531 L 127.941406 256.464844 L 134.664062 256.464844 L 134.664062 261.269531 " fill-opacity="1" fill-rule="nonzero"/><path fill="#5cc5ff" d="M 121.21875 261.269531 L 114.496094 261.269531 L 114.496094 256.464844 L 121.21875 256.464844 L 121.21875 261.269531 " fill-opacity="1" fill-rule="nonzero"/><path fill="#5cc5ff" d="M 162.515625 308.351562 L 155.792969 308.351562 L 155.792969 303.546875 L 162.515625 303.546875 L 162.515625 308.351562 " fill-opacity="1" fill-rule="nonzero"/><path fill="#5cc5ff" d="M 149.070312 308.351562 L 141.386719 308.351562 L 141.386719 303.546875 L 149.070312 303.546875 L 149.070312 308.351562 " fill-opacity="1" fill-rule="nonzero"/><path fill="#5cc5ff" d="M 134.664062 308.351562 L 127.941406 308.351562 L 127.941406 303.546875 L 134.664062 303.546875 L 134.664062 308.351562 " fill-opacity="1" fill-rule="nonzero"/><path fill="#5cc5ff" d="M 121.21875 308.351562 L 114.496094 308.351562 L 114.496094 303.546875 L 121.21875 303.546875 L 121.21875 308.351562 " fill-opacity="1" fill-rule="nonzero"/><path fill="#5cc5ff" d="M 445.367188 94.078125 C 439.808594 94.078125 435.28125 98.605469 435.28125 104.167969 C 435.28125 109.730469 439.808594 114.257812 445.367188 114.257812 C 450.925781 114.257812 455.453125 109.730469 455.453125 104.167969 C 455.453125 98.605469 450.925781 94.078125 445.367188 94.078125 Z M 445.367188 119.0625 C 437.160156 119.0625 430.480469 112.378906 430.480469 104.167969 C 430.480469 95.953125 437.160156 89.273438 445.367188 89.273438 C 453.574219 89.273438 460.253906 95.953125 460.253906 104.167969 C 460.253906 112.378906 453.574219 119.0625 445.367188 119.0625 " fill-opacity="1" fill-rule="nonzero"/><path fill="#5cc5ff" d="M 386.78125 60.449219 C 382.277344 60.449219 378.617188 64.109375 378.617188 68.613281 C 378.617188 73.117188 382.277344 76.78125 386.78125 76.78125 C 391.28125 76.78125 394.945312 73.117188 394.945312 68.613281 C 394.945312 64.109375 391.28125 60.449219 386.78125 60.449219 Z M 386.78125 81.585938 C 379.628906 81.585938 373.8125 75.769531 373.8125 68.613281 C 373.8125 61.460938 379.628906 55.644531 386.78125 55.644531 C 393.929688 55.644531 399.746094 61.460938 399.746094 68.613281 C 399.746094 75.769531 393.929688 81.585938 386.78125 81.585938 " fill-opacity="1" fill-rule="nonzero"/><path fill="#5cc5ff" d="M 298.898438 190.164062 L 235.511719 190.164062 L 235.511719 166.144531 L 298.898438 166.144531 Z M 230.707031 157.496094 L 230.707031 242.050781 L 398.785156 242.050781 L 398.785156 157.496094 L 230.707031 157.496094 " fill-opacity="1" fill-rule="nonzero"/><path fill="#1a2851" d="M 398.785156 440.953125 L 463.136719 440.953125 L 463.136719 376.574219 L 398.785156 376.574219 Z M 466.015625 446.71875 L 395.902344 446.71875 C 394.3125 446.71875 393.023438 445.425781 393.023438 443.835938 L 393.023438 373.691406 C 393.023438 372.101562 394.3125 370.808594 395.902344 370.808594 L 466.015625 370.808594 C 467.605469 370.808594 468.898438 372.101562 468.898438 373.691406 L 468.898438 443.835938 C 468.898438 445.425781 467.605469 446.71875 466.015625 446.71875 " fill-opacity="1" fill-rule="nonzero"/><path fill="#1a2851" d="M 281.613281 440.953125 L 345.960938 440.953125 L 345.960938 376.574219 L 281.613281 376.574219 Z M 348.84375 446.71875 L 278.730469 446.71875 C 277.140625 446.71875 275.847656 445.425781 275.847656 443.835938 L 275.847656 373.691406 C 275.847656 372.101562 277.140625 370.808594 278.730469 370.808594 L 348.84375 370.808594 C 350.433594 370.808594 351.722656 372.101562 351.722656 373.691406 L 351.722656 443.835938 C 351.722656 445.425781 350.433594 446.71875 348.84375 446.71875 " fill-opacity="1" fill-rule="nonzero"/><path fill="#1a2851" d="M 160.597656 440.953125 L 224.945312 440.953125 L 224.945312 376.574219 L 160.597656 376.574219 Z M 227.828125 446.71875 L 157.714844 446.71875 C 156.125 446.71875 154.832031 445.425781 154.832031 443.835938 L 154.832031 373.691406 C 154.832031 372.101562 156.125 370.808594 157.714844 370.808594 L 227.828125 370.808594 C 229.417969 370.808594 230.707031 372.101562 230.707031 373.691406 L 230.707031 443.835938 C 230.707031 445.425781 229.417969 446.71875 227.828125 446.71875 " fill-opacity="1" fill-rule="nonzero"/><path fill="#1a2851" d="M 316.1875 372.730469 L 310.425781 372.730469 L 310.425781 302.585938 L 316.1875 302.585938 L 316.1875 372.730469 " fill-opacity="1" fill-rule="nonzero"/><path fill="#1a2851" d="M 437.203125 373.691406 L 431.441406 373.691406 L 431.441406 329.492188 L 191.328125 329.492188 L 191.328125 373.691406 L 185.566406 373.691406 L 185.566406 326.609375 C 185.566406 325.019531 186.859375 323.726562 188.449219 323.726562 L 434.320312 323.726562 C 435.914062 323.726562 437.203125 325.019531 437.203125 326.609375 L 437.203125 373.691406 " fill-opacity="1" fill-rule="nonzero"/><path fill="#1a2851" d="M 225.90625 254.542969 L 395.902344 254.542969 L 395.902344 139.238281 L 225.90625 139.238281 Z M 398.785156 260.308594 L 223.023438 260.308594 C 221.433594 260.308594 220.144531 259.019531 220.144531 257.425781 L 220.144531 136.355469 C 220.144531 134.765625 221.433594 133.472656 223.023438 133.472656 L 398.785156 133.472656 C 400.375 133.472656 401.667969 134.765625 401.667969 136.355469 L 401.667969 257.425781 C 401.667969 259.019531 400.375 260.308594 398.785156 260.308594 " fill-opacity="1" fill-rule="nonzero"/><path fill="#1a2851" d="M 398.785156 151.730469 L 223.984375 151.730469 L 223.984375 145.964844 L 398.785156 145.964844 L 398.785156 151.730469 " fill-opacity="1" fill-rule="nonzero"/><path fill="#1a2851" d="M 398.785156 244.933594 L 223.984375 244.933594 L 223.984375 239.167969 L 398.785156 239.167969 L 398.785156 244.933594 " fill-opacity="1" fill-rule="nonzero"/><path fill="#1a2851" d="M 276.808594 299.703125 L 348.84375 299.703125 L 348.84375 297.078125 C 348.84375 294.289062 346.574219 292.019531 343.785156 292.019531 L 281.867188 292.019531 C 279.078125 292.019531 276.808594 294.289062 276.808594 297.078125 Z M 351.722656 305.46875 L 273.929688 305.46875 C 272.335938 305.46875 271.046875 304.179688 271.046875 302.585938 L 271.046875 297.078125 C 271.046875 291.109375 275.902344 286.253906 281.867188 286.253906 L 343.785156 286.253906 C 349.75 286.253906 354.605469 291.109375 354.605469 297.078125 L 354.605469 302.585938 C 354.605469 304.179688 353.316406 305.46875 351.722656 305.46875 " fill-opacity="1" fill-rule="nonzero"/><path fill="#1a2851" d="M 332.105469 292.980469 L 292.523438 292.980469 C 291.160156 292.980469 289.984375 292.023438 289.703125 290.683594 C 289.425781 289.347656 290.121094 288 291.375 287.453125 C 291.574219 287.359375 297.019531 284.714844 297.019531 276.035156 C 297.019531 266.554688 290.515625 259.652344 290.449219 259.585938 L 294.597656 255.574219 C 294.925781 255.921875 302.78125 264.164062 302.78125 276.035156 C 302.78125 281.007812 301.417969 284.636719 299.742188 287.214844 L 325.425781 287.214844 C 323.539062 284.480469 321.847656 280.722656 321.847656 276.035156 C 321.847656 266.183594 329.511719 256.234375 329.835938 255.8125 L 334.378906 259.355469 L 332.105469 257.582031 L 334.382812 259.351562 C 334.316406 259.4375 327.613281 268.179688 327.613281 276.035156 C 327.613281 283.410156 333.683594 287.679688 333.742188 287.722656 C 334.78125 288.4375 335.234375 289.746094 334.859375 290.953125 C 334.484375 292.15625 333.371094 292.980469 332.105469 292.980469 " fill-opacity="1" fill-rule="nonzero"/><path fill="#1a2851" d="M 377.835938 202.808594 L 348.375 192.03125 L 358.550781 222.097656 L 365.808594 214.839844 L 377.414062 226.453125 L 382.183594 221.683594 L 370.578125 210.070312 L 377.835938 202.808594 " fill-opacity="1" fill-rule="nonzero"/><path fill="#1a2851" d="M 348.375 223.941406 C 331.203125 223.941406 317.230469 209.964844 317.230469 192.785156 C 317.230469 175.601562 331.203125 161.628906 348.375 161.628906 C 365.546875 161.628906 379.515625 175.601562 379.515625 192.785156 L 373.753906 192.785156 C 373.753906 178.78125 362.367188 167.394531 348.375 167.394531 C 334.375 167.394531 322.992188 178.78125 322.992188 192.785156 C 322.992188 206.785156 334.375 218.175781 348.375 218.175781 L 348.375 223.941406 " fill-opacity="1" fill-rule="nonzero"/><path fill="#1a2851" d="M 348.375 210.597656 C 338.554688 210.597656 330.566406 202.609375 330.566406 192.785156 C 330.566406 182.960938 338.554688 174.972656 348.375 174.972656 C 358.191406 174.972656 366.179688 182.960938 366.179688 192.785156 L 360.417969 192.785156 C 360.417969 186.140625 355.015625 180.738281 348.375 180.738281 C 341.734375 180.738281 336.332031 186.140625 336.332031 192.785156 C 336.332031 199.429688 341.734375 204.832031 348.375 204.832031 L 348.375 210.597656 " fill-opacity="1" fill-rule="nonzero"/><path fill="#1a2851" d="M 238.390625 187.28125 L 296.019531 187.28125 L 296.019531 169.027344 L 238.390625 169.027344 Z M 298.898438 193.046875 L 235.511719 193.046875 C 233.917969 193.046875 232.628906 191.757812 232.628906 190.164062 L 232.628906 166.144531 C 232.628906 164.550781 233.917969 163.261719 235.511719 163.261719 L 298.898438 163.261719 C 300.492188 163.261719 301.78125 164.550781 301.78125 166.144531 L 301.78125 190.164062 C 301.78125 191.757812 300.492188 193.046875 298.898438 193.046875 " fill-opacity="1" fill-rule="nonzero"/><path fill="#1a2851" d="M 298.898438 207.460938 L 236.472656 207.460938 L 236.472656 201.695312 L 298.898438 201.695312 L 298.898438 207.460938 " fill-opacity="1" fill-rule="nonzero"/><path fill="#1a2851" d="M 298.898438 221.875 L 236.472656 221.875 L 236.472656 216.109375 L 298.898438 216.109375 L 298.898438 221.875 " fill-opacity="1" fill-rule="nonzero"/></svg>