<svg xmlns="http://www.w3.org/2000/svg" xmlns:xlink="http://www.w3.org/1999/xlink" width="800" zoomAndPan="magnify" viewBox="0 0 600 449.999984" height="600" preserveAspectRatio="xMidYMid meet" version="1.0"><path fill="#ffc344" d="M 321.953125 100.757812 L 321.953125 403.910156 L 278.050781 403.910156 L 278.050781 100.757812 Z M 321.953125 100.757812 " fill-opacity="1" fill-rule="nonzero"/><path fill="#ffc344" d="M 104.269531 343.902344 L 210.367188 343.902344 C 218.449219 343.902344 225 337.351562 225 329.269531 L 225 307.675781 L 89.632812 307.675781 L 89.632812 329.269531 C 89.632812 337.351562 96.1875 343.902344 104.269531 343.902344 Z M 104.269531 343.902344 " fill-opacity="1" fill-rule="nonzero"/><path fill="#ffc344" d="M 495.730469 343.902344 L 389.632812 343.902344 C 381.550781 343.902344 375 337.351562 375 329.269531 L 375 307.675781 L 510.367188 307.675781 L 510.367188 329.269531 C 510.367188 337.351562 503.8125 343.902344 495.730469 343.902344 Z M 495.730469 343.902344 " fill-opacity="1" fill-rule="nonzero"/><path fill="#b6c4cf" d="M 89.632812 304.40625 C 88.921875 304.40625 88.199219 304.292969 87.488281 304.046875 C 84.046875 302.863281 82.214844 299.113281 83.402344 295.667969 L 151.085938 98.96875 C 152 96.308594 154.503906 94.523438 157.316406 94.523438 C 160.132812 94.523438 162.636719 96.308594 163.550781 98.96875 L 231.234375 295.667969 C 232.417969 299.113281 230.589844 302.863281 227.148438 304.046875 C 223.699219 305.234375 219.953125 303.402344 218.769531 299.960938 L 157.320312 121.375 L 95.867188 299.960938 C 94.925781 302.691406 92.371094 304.40625 89.632812 304.40625 Z M 89.632812 304.40625 " fill-opacity="1" fill-rule="nonzero"/><path fill="#b6c4cf" d="M 510.367188 304.40625 C 507.597656 304.40625 505.019531 302.648438 504.105469 299.875 L 442.683594 113.394531 L 381.261719 299.875 C 380.121094 303.332031 376.398438 305.214844 372.9375 304.074219 C 369.480469 302.933594 367.601562 299.207031 368.738281 295.75 L 436.421875 90.261719 C 437.3125 87.558594 439.835938 85.730469 442.683594 85.730469 C 445.527344 85.730469 448.054688 87.558594 448.945312 90.261719 L 516.628906 295.75 C 517.765625 299.210938 515.886719 302.9375 512.429688 304.074219 C 511.742188 304.300781 511.046875 304.40625 510.367188 304.40625 Z M 510.367188 304.40625 " fill-opacity="1" fill-rule="nonzero"/><path fill="#feb237" d="M 313.71875 36.585938 L 286.28125 36.585938 L 286.28125 13.71875 C 286.28125 6.144531 292.421875 0 300 0 C 307.578125 0 313.71875 6.144531 313.71875 13.71875 Z M 313.71875 36.585938 " fill-opacity="1" fill-rule="nonzero"/><path fill="#ffc344" d="M 148.171875 109.902344 L 166.464844 109.902344 C 171.515625 109.902344 175.609375 105.808594 175.609375 100.757812 L 175.609375 73.675781 L 139.023438 73.675781 L 139.023438 100.757812 C 139.023438 105.808594 143.121094 109.902344 148.171875 109.902344 Z M 148.171875 109.902344 " fill-opacity="1" fill-rule="nonzero"/><path fill="#ffe177" d="M 82.316406 316.464844 L 232.316406 316.464844 C 236.359375 316.464844 239.632812 313.1875 239.632812 309.144531 L 239.632812 296.339844 C 239.632812 292.300781 236.359375 289.023438 232.316406 289.023438 L 82.316406 289.023438 C 78.277344 289.023438 75 292.300781 75 296.339844 L 75 309.144531 C 75 313.1875 78.277344 316.464844 82.316406 316.464844 Z M 82.316406 316.464844 " fill-opacity="1" fill-rule="nonzero"/><path fill="#ffd15b" d="M 232.316406 289.023438 L 212.195312 289.023438 L 212.195312 316.464844 L 232.316406 316.464844 C 236.359375 316.464844 239.632812 313.1875 239.632812 309.148438 L 239.632812 296.34375 C 239.632812 292.300781 236.359375 289.023438 232.316406 289.023438 Z M 232.316406 289.023438 " fill-opacity="1" fill-rule="nonzero"/><path fill="#ffc344" d="M 451.828125 109.902344 L 433.535156 109.902344 C 428.484375 109.902344 424.390625 105.808594 424.390625 100.757812 L 424.390625 73.675781 L 460.976562 73.675781 L 460.976562 100.757812 C 460.976562 105.808594 456.878906 109.902344 451.828125 109.902344 Z M 451.828125 109.902344 " fill-opacity="1" fill-rule="nonzero"/><path fill="#8d9ca8" d="M 418.902344 431.347656 L 181.097656 431.347656 L 181.097656 409.753906 C 181.097656 401.671875 187.648438 395.121094 195.730469 395.121094 L 404.265625 395.121094 C 412.351562 395.121094 418.902344 401.675781 418.902344 409.753906 Z M 418.902344 431.347656 " fill-opacity="1" fill-rule="nonzero"/><path fill="#feb237" d="M 278.046875 133.722656 C 285 136.078125 292.394531 137.34375 300 137.34375 C 307.605469 137.34375 315 136.078125 321.953125 133.722656 L 321.953125 100.757812 L 278.050781 100.757812 L 278.050781 133.722656 Z M 278.046875 133.722656 " fill-opacity="1" fill-rule="nonzero"/><path fill="#ffe177" d="M 490.527344 55.023438 L 338.808594 55.023438 C 333.15625 39.039062 317.917969 27.585938 300 27.585938 C 282.082031 27.585938 266.84375 39.039062 261.191406 55.023438 L 109.472656 55.023438 C 105.585938 55.023438 102.441406 58.171875 102.441406 62.054688 L 102.441406 75.433594 C 102.441406 79.316406 105.585938 82.464844 109.472656 82.464844 L 261.195312 82.464844 C 266.84375 98.449219 282.082031 109.902344 300 109.902344 C 317.921875 109.902344 333.15625 98.449219 338.808594 82.464844 L 490.527344 82.464844 C 494.414062 82.464844 497.558594 79.316406 497.558594 75.433594 L 497.558594 62.054688 C 497.558594 58.171875 494.414062 55.023438 490.527344 55.023438 Z M 490.527344 55.023438 " fill-opacity="1" fill-rule="nonzero"/><path fill="#ffc344" d="M 313.71875 68.746094 C 313.71875 69.644531 313.632812 70.539062 313.457031 71.421875 C 313.28125 72.304688 313.019531 73.164062 312.675781 73.996094 C 312.332031 74.828125 311.90625 75.617188 311.40625 76.367188 C 310.90625 77.117188 310.339844 77.808594 309.703125 78.445312 C 309.0625 79.082031 308.371094 79.652344 307.621094 80.152344 C 306.875 80.652344 306.082031 81.074219 305.25 81.417969 C 304.417969 81.765625 303.558594 82.023438 302.675781 82.199219 C 301.792969 82.375 300.902344 82.464844 300 82.464844 C 299.097656 82.464844 298.207031 82.375 297.324219 82.199219 C 296.441406 82.023438 295.582031 81.765625 294.75 81.417969 C 293.917969 81.074219 293.125 80.652344 292.378906 80.152344 C 291.628906 79.652344 290.9375 79.082031 290.296875 78.445312 C 289.660156 77.808594 289.09375 77.117188 288.59375 76.367188 C 288.09375 75.617188 287.667969 74.828125 287.324219 73.996094 C 286.980469 73.164062 286.71875 72.304688 286.542969 71.421875 C 286.367188 70.539062 286.28125 69.644531 286.28125 68.746094 C 286.28125 67.84375 286.367188 66.953125 286.542969 66.066406 C 286.71875 65.183594 286.980469 64.328125 287.324219 63.496094 C 287.667969 62.660156 288.09375 61.871094 288.59375 61.121094 C 289.09375 60.375 289.660156 59.679688 290.296875 59.042969 C 290.9375 58.40625 291.628906 57.835938 292.378906 57.335938 C 293.125 56.835938 293.917969 56.414062 294.75 56.070312 C 295.582031 55.722656 296.441406 55.464844 297.324219 55.289062 C 298.207031 55.113281 299.097656 55.023438 300 55.023438 C 300.902344 55.023438 301.792969 55.113281 302.675781 55.289062 C 303.558594 55.464844 304.417969 55.722656 305.25 56.070312 C 306.082031 56.414062 306.875 56.835938 307.621094 57.335938 C 308.371094 57.835938 309.0625 58.40625 309.703125 59.042969 C 310.339844 59.679688 310.90625 60.375 311.40625 61.121094 C 311.90625 61.871094 312.332031 62.660156 312.675781 63.496094 C 313.019531 64.328125 313.28125 65.183594 313.457031 66.066406 C 313.632812 66.953125 313.71875 67.84375 313.71875 68.746094 Z M 313.71875 68.746094 " fill-opacity="1" fill-rule="nonzero"/><path fill="#ffd15b" d="M 490.527344 82.464844 L 470.121094 82.464844 L 470.121094 55.023438 L 490.527344 55.023438 C 494.414062 55.023438 497.558594 58.171875 497.558594 62.054688 L 497.558594 75.433594 C 497.558594 79.316406 494.414062 82.464844 490.527344 82.464844 Z M 490.527344 82.464844 " fill-opacity="1" fill-rule="nonzero"/><path fill="#ffe177" d="M 517.683594 316.464844 L 367.683594 316.464844 C 363.640625 316.464844 360.367188 313.1875 360.367188 309.144531 L 360.367188 296.339844 C 360.367188 292.300781 363.640625 289.023438 367.683594 289.023438 L 517.683594 289.023438 C 521.722656 289.023438 525 292.300781 525 296.339844 L 525 309.144531 C 525 313.1875 521.722656 316.464844 517.683594 316.464844 Z M 517.683594 316.464844 " fill-opacity="1" fill-rule="nonzero"/><path fill="#ffd15b" d="M 517.683594 316.464844 L 497.558594 316.464844 L 497.558594 289.023438 L 517.683594 289.023438 C 521.722656 289.023438 525 292.300781 525 296.339844 L 525 309.144531 C 525 313.1875 521.722656 316.464844 517.683594 316.464844 Z M 517.683594 316.464844 " fill-opacity="1" fill-rule="nonzero"/><path fill="#b6c4cf" d="M 448.457031 450 L 151.542969 450 C 147.660156 450 144.511719 446.851562 144.511719 442.96875 L 144.511719 429.589844 C 144.511719 425.707031 147.660156 422.558594 151.542969 422.558594 L 448.457031 422.558594 C 452.339844 422.558594 455.488281 425.707031 455.488281 429.589844 L 455.488281 442.96875 C 455.488281 446.851562 452.339844 450 448.457031 450 Z M 448.457031 450 " fill-opacity="1" fill-rule="nonzero"/><path fill="#9facba" d="M 448.457031 450 L 428.046875 450 L 428.046875 422.558594 L 448.457031 422.558594 C 452.339844 422.558594 455.488281 425.707031 455.488281 429.589844 L 455.488281 442.96875 C 455.488281 446.851562 452.339844 450 448.457031 450 Z M 448.457031 450 " fill-opacity="1" fill-rule="nonzero"/></svg>