<svg xmlns="http://www.w3.org/2000/svg" xmlns:xlink="http://www.w3.org/1999/xlink" width="800" zoomAndPan="magnify" viewBox="0 0 600 449.999984" height="600" preserveAspectRatio="xMidYMid meet" version="1.0"><path fill="#282828" d="M 343.972656 415.078125 L 344.050781 415.078125 Z M 112.433594 159.144531 C 109.742188 159.144531 107.203125 160.355469 104.476562 162.738281 C 104.046875 163.144531 99.007812 167.929688 96.332031 170.476562 L 94.644531 172.078125 C 80.609375 185.203125 74.265625 208.855469 78.460938 232.359375 C 79.824219 240.003906 82.019531 247.925781 84.992188 255.90625 C 100.011719 296.277344 128.570312 331.421875 149.890625 353.792969 C 171.105469 376.3125 204.652344 406.722656 244.152344 423.90625 C 251.949219 427.296875 259.738281 429.910156 267.304688 431.6875 C 290.535156 437.128906 314.488281 432.066406 328.3125 418.765625 L 330.167969 417.003906 C 332.820312 414.488281 337.546875 410.023438 338.25 409.34375 C 346.355469 400.980469 342.039062 393.78125 325.039062 376.472656 L 320.628906 371.941406 C 309.617188 360.523438 291.199219 341.308594 275.886719 343.207031 C 271.867188 343.683594 267.488281 346.738281 262.851562 349.976562 C 258.296875 353.160156 253.128906 356.773438 247.117188 358.675781 C 231.066406 363.746094 214.773438 360.417969 201.265625 349.28125 C 193.324219 342.734375 185.242188 335.074219 177.898438 327.136719 C 170.496094 319.503906 163.285156 311.023438 157.171875 302.75 C 146.777344 288.648438 144.316406 272.195312 150.253906 256.421875 C 152.476562 250.523438 156.351562 245.554688 159.777344 241.171875 C 163.25 236.710938 166.535156 232.507812 167.226562 228.515625 C 169.851562 213.316406 151.746094 193.875 140.925781 182.265625 L 136.652344 177.632812 C 125.308594 165.210938 118.480469 159.144531 112.433594 159.144531 Z M 286.082031 450.027344 C 278.109375 450.027344 270.4375 449.066406 263.601562 447.464844 C 255.105469 445.46875 246.378906 442.546875 237.691406 438.765625 C 195.671875 420.492188 160.355469 388.535156 138.140625 364.941406 C 115.808594 341.507812 85.796875 304.511719 69.8125 261.5625 C 66.507812 252.667969 64.046875 243.804688 62.515625 235.203125 C 58.425781 212.308594 61.808594 180.59375 83.570312 160.261719 L 85.175781 158.726562 C 88.074219 155.972656 93.617188 150.710938 93.828125 150.527344 C 116.011719 131.03125 135.632812 152.496094 148.609375 166.695312 L 152.777344 171.214844 C 165.644531 185.03125 187.191406 208.148438 183.191406 231.273438 C 181.804688 239.28125 176.878906 245.582031 172.542969 251.148438 C 169.570312 254.957031 166.761719 258.546875 165.410156 262.140625 C 161.417969 272.738281 163.082031 283.457031 170.207031 293.121094 C 175.894531 300.824219 182.617188 308.738281 189.652344 315.996094 C 196.644531 323.539062 204.179688 330.683594 211.566406 336.773438 C 220.835938 344.410156 231.449219 346.640625 242.234375 343.230469 C 245.886719 342.066406 249.628906 339.457031 253.582031 336.6875 C 259.371094 332.644531 265.925781 328.070312 273.984375 327.117188 C 297.285156 324.363281 319.191406 347.109375 332.289062 360.695312 L 336.59375 365.109375 C 350.070312 378.839844 370.445312 399.574219 349.769531 420.742188 C 349.761719 420.746094 349.753906 420.753906 349.746094 420.761719 C 349.554688 420.953125 344.21875 426.015625 341.304688 428.777344 L 339.515625 430.46875 C 324.550781 444.859375 304.507812 450.027344 286.082031 450.027344 " fill-opacity="1" fill-rule="nonzero"/><path fill="#282828" d="M 298.242188 54.398438 C 293.769531 54.398438 290.144531 50.773438 290.144531 46.289062 L 290.144531 8.148438 C 290.144531 3.671875 293.769531 0.046875 298.242188 0.046875 C 302.710938 0.046875 306.34375 3.671875 306.34375 8.148438 L 306.34375 46.289062 C 306.34375 50.773438 302.710938 54.398438 298.242188 54.398438 " fill-opacity="1" fill-rule="nonzero"/><path fill="#282828" d="M 264.53125 60.867188 C 260.785156 60.867188 257.425781 58.261719 256.621094 54.453125 L 248.6875 17.136719 C 247.761719 12.761719 250.546875 8.457031 254.921875 7.53125 C 259.292969 6.582031 263.601562 9.394531 264.53125 13.769531 L 272.460938 51.082031 C 273.390625 55.457031 270.59375 59.761719 266.222656 60.691406 C 265.65625 60.8125 265.089844 60.867188 264.53125 60.867188 " fill-opacity="1" fill-rule="nonzero"/><path fill="#282828" d="M 232.921875 74.21875 C 229.824219 74.21875 226.859375 72.421875 225.519531 69.40625 L 210.003906 34.558594 C 208.191406 30.476562 210.023438 25.683594 214.113281 23.863281 C 218.210938 22.050781 222.988281 23.882812 224.804688 27.96875 L 240.316406 62.8125 C 242.132812 66.898438 240.296875 71.691406 236.203125 73.511719 C 235.136719 73.984375 234.019531 74.21875 232.921875 74.21875 " fill-opacity="1" fill-rule="nonzero"/><path fill="#282828" d="M 204.765625 93.84375 C 202.253906 93.84375 199.792969 92.6875 198.207031 90.507812 L 175.789062 59.640625 C 173.15625 56.019531 173.964844 50.957031 177.582031 48.324219 C 181.210938 45.6875 186.261719 46.503906 188.894531 50.113281 L 211.304688 80.980469 C 213.9375 84.597656 213.136719 89.667969 209.515625 92.300781 C 208.078125 93.339844 206.40625 93.84375 204.765625 93.84375 " fill-opacity="1" fill-rule="nonzero"/><path fill="#282828" d="M 181.289062 118.902344 C 179.355469 118.902344 177.417969 118.21875 175.875 116.824219 L 147.535156 91.292969 C 144.210938 88.300781 143.949219 83.179688 146.933594 79.855469 C 149.925781 76.535156 155.050781 76.265625 158.375 79.253906 L 186.707031 104.78125 C 190.035156 107.773438 190.304688 112.894531 187.308594 116.222656 C 185.710938 117.996094 183.503906 118.902344 181.289062 118.902344 " fill-opacity="1" fill-rule="nonzero"/><path fill="#282828" d="M 406.949219 396.742188 C 403.851562 396.742188 400.890625 394.949219 399.546875 391.933594 L 384.035156 357.082031 C 382.21875 353 384.058594 348.207031 388.140625 346.386719 C 392.238281 344.574219 397.015625 346.40625 398.832031 350.492188 L 414.34375 385.335938 C 416.160156 389.429688 414.320312 394.222656 410.238281 396.039062 C 409.164062 396.515625 408.046875 396.742188 406.949219 396.742188 " fill-opacity="1" fill-rule="nonzero"/><path fill="#282828" d="M 442.011719 373.125 C 439.503906 373.125 437.035156 371.964844 435.449219 369.785156 L 413.042969 338.925781 C 410.410156 335.300781 411.214844 330.230469 414.832031 327.605469 C 418.460938 324.972656 423.519531 325.785156 426.144531 329.394531 L 448.554688 360.253906 C 451.1875 363.878906 450.382812 368.941406 446.765625 371.574219 C 445.328125 372.621094 443.660156 373.125 442.011719 373.125 " fill-opacity="1" fill-rule="nonzero"/><path fill="#282828" d="M 471.390625 342.726562 C 469.457031 342.726562 467.519531 342.039062 465.976562 340.644531 L 437.636719 315.117188 C 434.320312 312.128906 434.042969 307.003906 437.042969 303.675781 C 440.027344 300.363281 445.160156 300.085938 448.476562 303.074219 L 476.808594 328.601562 C 480.136719 331.597656 480.40625 336.722656 477.410156 340.042969 C 475.8125 341.820312 473.605469 342.726562 471.390625 342.726562 " fill-opacity="1" fill-rule="nonzero"/><path fill="#282828" d="M 493.8125 306.882812 C 492.441406 306.882812 491.054688 306.535156 489.773438 305.800781 L 456.75 286.726562 C 452.878906 284.484375 451.554688 279.535156 453.792969 275.65625 C 456.019531 271.777344 460.960938 270.453125 464.851562 272.691406 L 497.867188 291.761719 C 501.746094 294 503.070312 298.953125 500.832031 302.832031 C 499.332031 305.433594 496.617188 306.882812 493.8125 306.882812 " fill-opacity="1" fill-rule="nonzero"/><path fill="#282828" d="M 508.3125 267.160156 C 507.484375 267.160156 506.644531 267.03125 505.808594 266.765625 L 469.550781 254.96875 C 465.289062 253.589844 462.96875 249.015625 464.347656 244.761719 C 465.722656 240.515625 470.300781 238.183594 474.554688 239.558594 L 510.816406 251.351562 C 515.078125 252.734375 517.398438 257.304688 516.019531 261.5625 C 514.90625 264.980469 511.730469 267.160156 508.3125 267.160156 " fill-opacity="1" fill-rule="nonzero"/><path fill="#282828" d="M 514.242188 225.285156 C 513.960938 225.285156 513.667969 225.265625 513.386719 225.238281 L 475.464844 221.25 C 471.015625 220.785156 467.789062 216.796875 468.253906 212.34375 C 468.722656 207.890625 472.707031 204.699219 477.15625 205.136719 L 515.078125 209.125 C 519.527344 209.589844 522.753906 213.578125 522.289062 218.03125 C 521.847656 222.191406 518.332031 225.285156 514.242188 225.285156 " fill-opacity="1" fill-rule="nonzero"/><path fill="#282828" d="M 473.394531 187.085938 C 469.300781 187.085938 465.785156 183.992188 465.347656 179.828125 C 464.878906 175.375 468.105469 171.390625 472.558594 170.921875 L 510.476562 166.929688 C 514.949219 166.492188 518.90625 169.699219 519.378906 174.144531 C 519.839844 178.597656 516.613281 182.582031 512.167969 183.050781 L 474.25 187.035156 C 473.957031 187.0625 473.675781 187.085938 473.394531 187.085938 " fill-opacity="1" fill-rule="nonzero"/><path fill="#282828" d="M 463.445312 154.230469 C 460.027344 154.230469 456.855469 152.050781 455.738281 148.628906 C 454.359375 144.367188 456.679688 139.800781 460.9375 138.414062 L 497.195312 126.628906 C 501.464844 125.253906 506.019531 127.582031 507.40625 131.832031 C 508.785156 136.085938 506.457031 140.660156 502.207031 142.039062 L 465.941406 153.828125 C 465.113281 154.101562 464.265625 154.230469 463.445312 154.230469 " fill-opacity="1" fill-rule="nonzero"/><path fill="#282828" d="M 446.878906 124.148438 C 444.078125 124.148438 441.359375 122.699219 439.851562 120.101562 C 437.625 116.222656 438.945312 111.273438 442.824219 109.027344 L 475.839844 89.964844 C 479.710938 87.71875 484.664062 89.058594 486.90625 92.929688 C 489.136719 96.800781 487.8125 101.757812 483.9375 103.996094 L 450.917969 123.066406 C 449.644531 123.804688 448.25 124.148438 446.878906 124.148438 " fill-opacity="1" fill-rule="nonzero"/><path fill="#282828" d="M 424.417969 98.191406 C 422.199219 98.191406 419.988281 97.285156 418.398438 95.507812 C 415.40625 92.179688 415.671875 87.0625 419 84.066406 L 447.332031 58.539062 C 450.65625 55.542969 455.773438 55.804688 458.765625 59.140625 C 461.757812 62.460938 461.492188 67.585938 458.164062 70.582031 L 429.832031 96.109375 C 428.28125 97.496094 426.34375 98.191406 424.417969 98.191406 " fill-opacity="1" fill-rule="nonzero"/><path fill="#282828" d="M 397.042969 77.453125 C 395.394531 77.453125 393.730469 76.953125 392.292969 75.910156 C 388.671875 73.277344 387.871094 68.214844 390.496094 64.589844 L 412.90625 33.730469 C 415.539062 30.121094 420.597656 29.308594 424.222656 31.941406 C 427.84375 34.566406 428.644531 39.636719 426.019531 43.261719 L 403.601562 74.121094 C 402.015625 76.300781 399.554688 77.453125 397.042969 77.453125 " fill-opacity="1" fill-rule="nonzero"/><path fill="#282828" d="M 365.980469 62.878906 C 364.875 62.878906 363.757812 62.652344 362.6875 62.175781 C 358.605469 60.359375 356.757812 55.566406 358.585938 51.480469 L 374.089844 16.628906 C 375.914062 12.535156 380.695312 10.710938 384.785156 12.523438 C 388.871094 14.339844 390.710938 19.132812 388.882812 23.21875 L 373.378906 58.0625 C 372.035156 61.085938 369.078125 62.878906 365.980469 62.878906 " fill-opacity="1" fill-rule="nonzero"/><path fill="#282828" d="M 332.566406 55.078125 C 332.007812 55.078125 331.441406 55.019531 330.875 54.890625 C 326.5 53.964844 323.707031 49.667969 324.640625 45.285156 L 332.558594 7.976562 C 333.492188 3.59375 337.796875 0.785156 342.167969 1.734375 C 346.542969 2.667969 349.328125 6.964844 348.402344 11.347656 L 340.476562 48.65625 C 339.671875 52.464844 336.300781 55.078125 332.566406 55.078125 " fill-opacity="1" fill-rule="nonzero"/><path fill="#282828" d="M 214.175781 250.679688 C 214.140625 248.324219 214.101562 246.339844 214.0625 244.726562 C 214.027344 243.113281 214.007812 241.390625 214.007812 239.570312 C 214.007812 237.746094 214.027344 235.316406 214.0625 232.28125 C 214.253906 226.007812 215.777344 220.710938 218.621094 216.386719 C 221.472656 212.0625 225.660156 208.394531 231.203125 205.394531 L 238.773438 201.292969 C 241.433594 199.851562 243.132812 198.109375 243.875 196.078125 C 244.613281 194.042969 245.035156 192.140625 245.15625 190.355469 C 245.304688 188.304688 245.390625 186.082031 245.410156 183.6875 C 245.425781 181.292969 245.382812 179.058594 245.261719 176.96875 C 245 172.863281 242.246094 170.816406 237.011719 170.816406 C 234.359375 170.816406 232.433594 171.347656 231.265625 172.410156 C 230.085938 173.480469 229.460938 174.859375 229.382812 176.574219 C 229.304688 179.53125 229.25 182.285156 229.214844 184.828125 C 229.171875 187.375 229.25 190.144531 229.441406 193.144531 L 214.289062 193.144531 C 214.175781 190.597656 214.09375 188.203125 214.035156 185.9375 C 213.980469 183.679688 213.992188 181.5625 214.0625 179.589844 C 214.367188 172.027344 216.3125 166.617188 219.902344 163.347656 C 223.488281 160.085938 229.191406 158.457031 237.011719 158.457031 C 245.289062 158.457031 251.199219 160.085938 254.75 163.347656 C 258.296875 166.617188 260.222656 172.027344 260.523438 179.589844 C 260.675781 183.382812 260.675781 186.972656 260.523438 190.355469 C 260.300781 196.429688 258.742188 201.324219 255.863281 205.019531 C 252.96875 208.726562 249.21875 211.847656 244.582031 214.390625 L 235.984375 219.0625 C 233.558594 220.394531 231.882812 222.375 230.949219 225.015625 C 230.011719 227.65625 229.554688 230.078125 229.554688 232.28125 L 229.554688 237.40625 L 259.441406 237.40625 L 259.441406 250.679688 L 214.175781 250.679688 " fill-opacity="1" fill-rule="nonzero"/><path fill="#282828" d="M 279.488281 213.535156 L 292.351562 213.535156 L 294.347656 191.777344 L 296.109375 172.804688 L 292.925781 172.804688 L 287.003906 191.777344 Z M 292.351562 250.679688 L 292.351562 226.695312 L 264.800781 226.695312 L 264.800781 214.222656 L 286.316406 159.53125 L 306.703125 159.53125 L 306.703125 213.535156 L 316.722656 213.535156 L 316.722656 226.695312 L 306.703125 226.695312 L 306.703125 250.679688 L 292.351562 250.679688 " fill-opacity="1" fill-rule="nonzero"/><path fill="#282828" d="M 376.792969 250.679688 L 402.921875 172.804688 L 370.359375 172.804688 L 370.359375 159.53125 L 418.179688 159.53125 L 418.179688 173.144531 L 392.675781 250.679688 L 376.792969 250.679688 " fill-opacity="1" fill-rule="nonzero"/><path fill="#282828" d="M 337.015625 260.894531 L 364.597656 152.777344 L 349.796875 152.777344 L 322.207031 260.894531 L 337.015625 260.894531 " fill-opacity="1" fill-rule="nonzero"/></svg>