<svg xmlns="http://www.w3.org/2000/svg" xmlns:xlink="http://www.w3.org/1999/xlink" width="800" zoomAndPan="magnify" viewBox="0 0 600 449.999984" height="600" preserveAspectRatio="xMidYMid meet" version="1.0"><rect x="-60" width="720" fill="#ffffff" y="-44.999998" height="539.99998" fill-opacity="1"/><rect x="-60" width="720" fill="#ffffff" y="-44.999998" height="539.99998" fill-opacity="1"/><rect x="-60" width="720" fill="#ffffff" y="-44.999998" height="539.99998" fill-opacity="1"/><path fill="#2b59c3" d="M 260.984375 354.917969 C 260.984375 369.828125 249.566406 381.914062 235.46875 381.914062 C 221.371094 381.914062 209.949219 369.828125 209.949219 354.917969 C 209.949219 340.011719 221.371094 327.921875 235.46875 327.921875 C 249.566406 327.921875 260.984375 340.011719 260.984375 354.917969 Z M 435.726562 134.011719 C 433.578125 126.574219 434.097656 115.742188 424.945312 103.230469 C 415.78125 90.722656 414.777344 86.597656 397.378906 72.390625 C 397.378906 72.390625 386.609375 61.363281 379.277344 55.445312 C 379.277344 55.445312 370.074219 45.695312 362.476562 39.683594 C 360.765625 38.332031 355.265625 47.480469 347.753906 62.460938 C 340.890625 58.734375 332.75 56.566406 324.007812 56.566406 C 299.515625 56.566406 279.667969 73.523438 279.667969 94.433594 C 279.667969 113.015625 295.34375 128.453125 316 131.671875 C 293.75 182.578125 271.984375 235.632812 271.984375 235.632812 L 256.441406 282.933594 L 331.28125 316.511719 C 331.28125 316.511719 329.519531 309.328125 331.472656 303.890625 C 333.425781 298.457031 329.15625 301.710938 337.03125 281.910156 C 337.03125 281.910156 341.675781 272.304688 347.089844 266.785156 C 352.503906 261.265625 354.613281 257.949219 378.105469 241.453125 C 401.597656 224.953125 405.421875 221.664062 414.40625 211.707031 C 423.402344 201.753906 430.203125 189.269531 433.90625 173.757812 C 437.644531 158.246094 437.871094 141.433594 435.726562 134.011719 Z M 330.832031 349.90625 C 330.832031 349.90625 327.398438 347.617188 321.042969 340.335938 C 314.6875 333.058594 307.535156 328.949219 304.484375 324.5 C 301.433594 320.054688 284.210938 305.339844 284.210938 305.339844 L 267.003906 391.410156 L 330.832031 443.03125 C 330.832031 443.03125 330.050781 438.136719 330.832031 432.171875 C 331.617188 426.21875 329.519531 415.890625 330.832031 405.609375 C 332.148438 395.351562 330.832031 349.90625 330.832031 349.90625 Z M 330.832031 349.90625 " fill-opacity="1" fill-rule="nonzero"/><path fill="#d36582" d="M 331.304688 316.523438 C 331.304688 316.523438 323.175781 317.269531 316.410156 316.523438 C 309.65625 315.773438 304.496094 316.523438 304.496094 316.523438 L 205.597656 301.121094 C 205.597656 301.121094 191.125 289.476562 186.097656 282.851562 C 181.070312 276.234375 174.253906 271.957031 174.253906 271.957031 L 221.601562 262.734375 L 284.695312 271.957031 C 284.695312 271.957031 292.847656 278.753906 297.355469 283.246094 C 301.855469 287.742188 309.539062 294.503906 310.730469 296.925781 C 311.925781 299.347656 319.074219 304.554688 323.042969 307.472656 C 327.011719 310.375 331.304688 316.523438 331.304688 316.523438 Z M 318.003906 431.664062 C 311.25 427.433594 311.648438 425.144531 307.136719 421.589844 C 302.640625 418.035156 296.933594 409.5625 292.171875 407.308594 C 287.410156 405.054688 284.210938 398.933594 284.210938 398.933594 L 230.851562 389.433594 L 174.242188 398.933594 C 174.242188 398.933594 178.269531 401.210938 181.851562 406.246094 C 185.433594 411.273438 191.921875 414.191406 197.613281 421.070312 C 203.304688 427.953125 210.589844 432.328125 213.90625 436.691406 C 217.222656 441.054688 220.863281 443.5 220.863281 443.5 C 220.863281 443.5 238.265625 441.835938 258.007812 443.5 C 277.738281 445.164062 271.25 443.5 285.152344 443.5 C 299.058594 443.5 306.207031 444.488281 315.085938 443.5 C 323.960938 442.511719 330.832031 443.042969 330.832031 443.042969 C 330.832031 443.042969 324.757812 435.894531 318.003906 431.664062 Z M 177.078125 177.226562 C 177.609375 178.289062 181.117188 181.675781 181.117188 181.675781 C 181.117188 181.675781 190.28125 176.433594 195.371094 175.289062 C 200.472656 174.144531 203.367188 171.035156 208.671875 170.035156 C 213.980469 169.019531 220.285156 165.597656 226.929688 163.742188 C 233.574219 161.875 241.4375 159.402344 241.4375 159.402344 L 276.664062 127.996094 L 257.851562 101.253906 L 174.675781 107.074219 L 134.484375 137.109375 C 134.484375 137.109375 137.859375 138.746094 142.359375 143.953125 C 146.855469 149.160156 155.25 155.777344 159.046875 160.453125 C 162.847656 165.128906 170.445312 171.214844 170.445312 171.214844 C 170.445312 171.214844 176.546875 176.167969 177.078125 177.226562 Z M 242.464844 341.035156 C 241.570312 338.601562 238.894531 337.828125 238.894531 337.828125 C 238.894531 337.828125 236.722656 334.285156 234.660156 334.972656 C 232.597656 335.671875 227.304688 334.972656 227.304688 334.972656 C 226.132812 334.972656 217.910156 336.011719 216.4375 337.394531 C 214.96875 338.78125 207.925781 344.988281 207.925781 348.449219 C 207.925781 351.90625 209.6875 355.363281 211.746094 357.777344 C 212.316406 358.449219 213.085938 359.292969 213.953125 360.136719 L 214.039062 359.835938 C 214.039062 359.835938 214.507812 347.183594 222.410156 345.386719 C 227.0625 344.3125 236.359375 344.085938 242.464844 344.628906 C 242.148438 343.820312 242.777344 341.878906 242.464844 341.035156 Z M 215.882812 73.054688 C 246.140625 71.894531 288.359375 69.304688 288.359375 69.304688 L 298.875 52.023438 C 298.875 52.023438 266.894531 38.863281 261.699219 39.539062 C 256.511719 40.210938 181.585938 54.613281 176.402344 55.46875 C 171.214844 56.335938 144.988281 74.1875 144.988281 74.1875 L 154.78125 90.683594 C 154.792969 90.710938 185.628906 74.210938 215.882812 73.054688 Z M 267.015625 168.09375 C 248.457031 176.734375 227.929688 196.609375 223.636719 207.839844 L 219.910156 246.429688 L 252.761719 248.152344 C 252.761719 248.152344 255.355469 228.570312 264.855469 214.167969 C 274.371094 199.765625 310.960938 187.953125 320.476562 170.683594 C 329.988281 153.402344 331.292969 141.457031 331.292969 141.457031 L 295.113281 133.816406 C 295.125 133.816406 285.574219 159.453125 267.015625 168.09375 Z M 267.015625 168.09375 " fill-opacity="1" fill-rule="nonzero"/><path fill="#253c78" d="M 384.75 72.078125 C 379.589844 58.628906 369.90625 37.34375 328.457031 18.808594 C 328.457031 18.808594 296.140625 4.914062 251.773438 7.492188 C 251.773438 7.492188 241.039062 6.9375 230.984375 8.828125 C 220.925781 10.722656 211.894531 10.527344 196.300781 14.253906 C 180.707031 17.976562 166.273438 20.976562 146.867188 28.160156 C 127.464844 35.332031 110.003906 42.898438 110.003906 42.898438 C 110.003906 42.898438 115.875 60.21875 118 73.65625 C 120.121094 87.082031 125.765625 98.289062 126.851562 107.714844 C 127.933594 117.136719 134.496094 137.109375 134.496094 137.109375 C 134.496094 137.109375 168.203125 119.511719 193.765625 115.148438 C 219.332031 110.789062 209.660156 110.390625 225.820312 109.992188 C 241.980469 109.59375 253.507812 110.65625 258.140625 120.574219 C 262.769531 130.503906 259.226562 141 248.878906 151.171875 C 238.53125 161.34375 220.347656 171.105469 207.804688 182.652344 C 195.261719 194.199219 189.703125 197.570312 182.734375 212.746094 C 175.75 227.917969 175.171875 232.691406 174.339844 246.1875 C 173.507812 259.6875 174.242188 271.957031 174.242188 271.957031 C 174.242188 271.957031 190.992188 270.59375 208.070312 271.957031 C 225.144531 273.316406 237.601562 270.59375 254.027344 271.957031 C 270.453125 273.316406 284.683594 271.957031 284.683594 271.957031 C 284.683594 271.957031 282.257812 247.695312 292.171875 234.078125 C 302.085938 220.46875 297.621094 220.519531 334.296875 194.96875 C 370.980469 169.40625 361.308594 173.105469 372.4375 161.261719 C 383.558594 149.425781 386.246094 134.082031 389.199219 118.054688 C 392.167969 102.039062 389.925781 85.515625 384.75 72.078125 Z M 284.210938 318.765625 C 284.753906 312.808594 284.210938 305.339844 284.210938 305.339844 C 284.210938 305.339844 275.082031 306.605469 255.355469 305.339844 C 235.625 304.074219 229.257812 306.074219 215.089844 305.339844 C 200.917969 304.601562 174.242188 305.339844 174.242188 305.339844 C 174.242188 305.796875 175.640625 321.933594 174.242188 329.609375 C 172.84375 337.289062 175.113281 342.046875 174.242188 357.003906 C 173.375 371.960938 174.242188 398.921875 174.242188 398.921875 C 174.242188 398.921875 186.21875 397.691406 212.710938 398.921875 C 239.207031 400.148438 235.757812 398.222656 252.714844 398.921875 C 269.667969 399.617188 284.222656 398.921875 284.222656 398.921875 C 284.222656 398.921875 283.417969 368.128906 284.222656 347.085938 C 285.019531 326.042969 283.683594 324.730469 284.210938 318.765625 Z M 284.210938 318.765625 " fill-opacity="1" fill-rule="nonzero"/><path fill="#ffd89f" d="M 385.28125 71.871094 C 381.023438 60.796875 372.171875 37.742188 328.6875 18.289062 C 328.410156 18.167969 301.046875 6.601562 262.78125 6.601562 C 259.105469 6.601562 255.390625 6.707031 251.808594 6.914062 C 251.796875 6.914062 250.3125 6.839844 247.984375 6.839844 C 243.644531 6.839844 237.144531 7.09375 230.886719 8.261719 C 227.050781 8.984375 223.335938 9.40625 219.394531 9.855469 C 213.039062 10.578125 205.828125 11.382812 196.179688 13.699219 C 194.140625 14.179688 192.117188 14.664062 190.101562 15.132812 C 176.460938 18.339844 163.570312 21.363281 146.675781 27.617188 C 127.476562 34.730469 109.96875 42.308594 109.785156 42.394531 L 109.316406 42.597656 L 109.484375 43.082031 C 109.546875 43.25 115.371094 60.507812 117.457031 73.738281 C 118.554688 80.695312 120.628906 87.164062 122.460938 92.867188 C 124.171875 98.21875 125.789062 103.265625 126.308594 107.773438 C 127.378906 117.136719 133.90625 137.085938 133.976562 137.277344 L 134.183594 137.902344 L 134.761719 137.601562 C 135.097656 137.421875 168.683594 119.996094 193.863281 115.691406 C 204.984375 113.789062 209.371094 112.667969 212.277344 111.921875 C 215.894531 110.992188 216.753906 110.761719 225.832031 110.546875 C 241.617188 110.160156 253.136719 111.183594 257.632812 120.8125 C 262.023438 130.226562 258.863281 140.589844 248.492188 150.785156 C 243.28125 155.910156 236.132812 160.875 228.570312 166.140625 C 221.238281 171.238281 213.652344 176.515625 207.429688 182.242188 C 205.511719 184.011719 203.753906 185.59375 202.125 187.050781 C 193.128906 195.113281 188.183594 199.558594 182.226562 212.515625 C 175.207031 227.796875 174.605469 232.761719 173.785156 246.164062 C 172.964844 259.542969 173.6875 271.882812 173.6875 272.003906 L 173.726562 272.570312 L 174.292969 272.523438 C 174.363281 272.523438 181.828125 271.917969 191.71875 271.917969 C 197.519531 271.917969 203.015625 272.125 208.035156 272.523438 C 211.363281 272.785156 214.75 272.917969 218.367188 272.917969 C 222.890625 272.917969 227.21875 272.714844 231.40625 272.523438 C 235.503906 272.328125 239.738281 272.136719 244.066406 272.136719 C 247.5625 272.136719 250.808594 272.269531 253.980469 272.523438 C 258.839844 272.929688 263.976562 273.136719 269.269531 273.136719 C 278.28125 273.136719 284.671875 272.535156 284.730469 272.523438 L 285.285156 272.460938 L 285.226562 271.90625 C 285.203125 271.664062 282.945312 247.695312 292.617188 234.414062 C 294.425781 231.917969 295.777344 229.882812 296.960938 228.074219 C 302.277344 219.964844 304.703125 216.265625 334.621094 195.425781 C 361.257812 176.867188 363.550781 173.648438 367.023438 168.78125 C 368.328125 166.949219 369.796875 164.886719 372.847656 161.644531 C 383.894531 149.882812 386.679688 134.867188 389.609375 118.957031 L 389.753906 118.164062 C 392.542969 103.097656 390.949219 86.648438 385.28125 71.871094 Z M 382.074219 116.753906 L 381.929688 117.558594 C 379.082031 132.9375 376.636719 146.21875 367.15625 156.304688 C 363.742188 159.933594 362.042969 162.332031 360.667969 164.25 C 357.773438 168.296875 355.6875 171.226562 330.160156 189.015625 C 300.515625 209.671875 296.800781 214.070312 290.433594 223.785156 C 289.253906 225.59375 288.035156 227.449219 286.3125 229.808594 C 278.460938 240.585938 277.195312 256.347656 277.167969 265.144531 C 269.476562 265.460938 261.671875 265.300781 254.644531 264.722656 C 251.253906 264.445312 247.792969 264.300781 244.078125 264.300781 C 239.542969 264.300781 235.226562 264.507812 231.042969 264.699219 C 226.941406 264.894531 222.699219 265.085938 218.367188 265.085938 C 214.957031 265.085938 211.785156 264.964844 208.648438 264.710938 C 203.414062 264.289062 197.710938 264.085938 191.707031 264.085938 C 188.230469 264.085938 184.710938 264.15625 181.238281 264.289062 C 181.152344 259.867188 181.164062 253.371094 181.574219 246.621094 C 182.371094 233.800781 182.839844 229.859375 189.316406 215.757812 C 194.597656 204.273438 198.589844 200.691406 207.382812 192.800781 C 208.972656 191.363281 210.769531 189.75 212.710938 187.964844 C 218.539062 182.601562 225.894531 177.480469 233.019531 172.527344 C 240.871094 167.070312 248.277344 161.910156 253.957031 156.332031 C 271.175781 139.410156 268.078125 124.730469 264.699219 117.488281 C 258.609375 104.4375 244.828125 102.640625 230.835938 102.640625 C 229.257812 102.640625 227.558594 102.664062 225.617188 102.710938 C 216.003906 102.953125 214.617188 103.21875 210.289062 104.339844 C 207.515625 105.050781 203.304688 106.136719 192.511719 107.980469 C 173.582031 111.210938 151.027344 121.042969 138.886719 126.828125 C 137.246094 121.320312 134.628906 111.992188 134.039062 106.871094 C 133.433594 101.589844 131.699219 96.191406 129.863281 90.46875 C 128.042969 84.765625 126.152344 78.875 125.136719 72.511719 C 123.773438 63.871094 121.027344 53.953125 118.890625 46.984375 C 125.113281 44.382812 136.917969 39.539062 149.351562 34.933594 C 165.839844 28.859375 178.5 25.882812 191.898438 22.738281 C 193.925781 22.265625 195.949219 21.785156 197.988281 21.304688 C 207.175781 19.109375 213.835938 18.351562 220.261719 17.628906 C 224.351562 17.167969 228.195312 16.722656 232.320312 15.953125 C 238.289062 14.832031 244.695312 14.664062 247.972656 14.664062 C 249.808594 14.664062 251.050781 14.710938 251.398438 14.722656 L 251.820312 14.746094 L 252.183594 14.722656 C 255.679688 14.519531 259.238281 14.421875 262.769531 14.421875 C 298.71875 14.421875 324.480469 25.015625 325.550781 25.460938 C 342.6875 33.136719 355.882812 42.117188 364.769531 52.167969 C 372.183594 60.554688 375.476562 68.183594 377.972656 74.691406 C 383.074219 87.9375 384.570312 103.265625 382.074219 116.753906 Z M 284.210938 318.765625 C 284.753906 312.808594 284.210938 305.339844 284.210938 305.339844 C 284.210938 305.339844 280.160156 305.90625 271.597656 305.90625 C 267.316406 305.90625 261.925781 305.761719 255.34375 305.339844 C 250.375 305.011719 246.25 304.90625 242.632812 304.90625 C 234.261719 304.90625 228.617188 305.507812 221.515625 305.507812 C 219.515625 305.507812 217.402344 305.457031 215.078125 305.339844 C 210.347656 305.097656 204.234375 305.011719 198.179688 305.011719 C 186.074219 305.011719 174.21875 305.339844 174.21875 305.339844 C 174.21875 305.796875 175.617188 321.933594 174.21875 329.609375 C 172.820312 337.289062 175.085938 342.046875 174.21875 357.003906 C 173.351562 371.960938 174.21875 398.921875 174.21875 398.921875 C 174.21875 398.921875 179.550781 398.378906 190.945312 398.378906 C 196.648438 398.378906 203.859375 398.511719 212.6875 398.921875 C 219.40625 399.234375 224.207031 399.34375 227.894531 399.34375 C 236.398438 399.34375 239.039062 398.761719 245.851562 398.761719 C 247.746094 398.761719 249.953125 398.8125 252.6875 398.921875 C 258.34375 399.148438 263.722656 399.234375 268.390625 399.234375 C 277.722656 399.234375 284.199219 398.921875 284.199219 398.921875 C 284.199219 398.921875 283.390625 368.128906 284.199219 347.085938 C 285.019531 326.042969 283.683594 324.730469 284.210938 318.765625 Z M 277.519531 346.832031 C 277.050781 359.125 277.121094 386.519531 277.265625 392.449219 C 274.816406 392.496094 271.804688 392.542969 268.414062 392.542969 C 263.085938 392.542969 257.898438 392.449219 252.980469 392.242188 C 250.324219 392.136719 248 392.085938 245.863281 392.085938 C 242.449219 392.085938 239.964844 392.230469 237.554688 392.363281 C 234.914062 392.507812 232.199219 392.664062 227.894531 392.664062 C 223.867188 392.664062 218.996094 392.53125 213.003906 392.253906 C 205.089844 391.894531 197.664062 391.699219 190.945312 391.699219 C 186.6875 391.699219 183.25 391.773438 180.585938 391.871094 C 180.488281 387.90625 180.503906 364.378906 180.914062 357.414062 C 181.371094 349.519531 181.007812 344.324219 180.707031 340.144531 C 180.441406 336.347656 180.261719 333.839844 180.816406 330.816406 C 181.5625 326.707031 181.730469 320.355469 181.335938 311.882812 C 185.832031 311.796875 192.007812 311.714844 198.179688 311.714844 C 205.089844 311.714844 210.664062 311.824219 214.726562 312.027344 C 217.019531 312.148438 219.238281 312.207031 221.515625 312.207031 C 225.074219 312.207031 228.195312 312.0625 231.488281 311.917969 C 234.902344 311.761719 238.421875 311.605469 242.632812 311.605469 C 246.527344 311.605469 250.542969 311.738281 254.910156 312.027344 C 260.867188 312.414062 266.484375 312.605469 271.585938 312.605469 C 273.960938 312.605469 276 312.570312 277.738281 312.496094 C 277.738281 314.351562 277.6875 316.355469 277.519531 318.160156 C 277.253906 321.03125 277.363281 323.054688 277.496094 325.609375 C 277.710938 329.164062 277.988281 334.527344 277.519531 346.832031 Z M 277.519531 346.832031 " fill-opacity="1" fill-rule="nonzero"/></svg>