<svg xmlns="http://www.w3.org/2000/svg" xmlns:xlink="http://www.w3.org/1999/xlink" width="800" zoomAndPan="magnify" viewBox="0 0 600 449.999984" height="600" preserveAspectRatio="xMidYMid meet" version="1.0"><path fill="#004c99" d="M 498.683594 221.042969 C 498.683594 332.808594 411.015625 429.261719 299.632812 439.5 C 188.207031 449.746094 83.945312 371.390625 63.5625 261.203125 C 43.179688 151.035156 111.945312 40.058594 219.910156 9.777344 C 327.917969 -20.503906 444.617188 38.300781 484.449219 143.140625 C 493.882812 167.972656 498.683594 194.484375 498.683594 221.042969 " fill-opacity="1" fill-rule="nonzero"/><path fill="#005fbf" d="M 483.179688 221.042969 C 483.179688 332.148438 390.410156 424.921875 279.304688 424.921875 C 168.195312 424.921875 75.425781 332.148438 75.425781 221.042969 C 75.425781 109.933594 168.195312 17.167969 279.304688 17.167969 C 390.410156 17.167969 483.179688 109.933594 483.179688 221.042969 " fill-opacity="1" fill-rule="nonzero"/><path fill="#005fbf" d="M 463.503906 141.796875 C 479.972656 237.8125 422.628906 334.261719 330.414062 365.679688 C 232.609375 399.003906 122.554688 349.746094 81.652344 255.015625 C 101.308594 369.667969 219.191406 445.035156 331.511719 414.722656 C 447.476562 383.425781 511.300781 252.378906 463.503906 141.796875 " fill-opacity="1" fill-rule="nonzero"/><path fill="#005fbf" d="M 406.605469 130.539062 C 378.410156 136.371094 345.945312 96.429688 321.5 86.269531 C 275.820312 67.28125 218.773438 76.097656 177.394531 101.953125 C 133.628906 129.296875 102.5 181.828125 97.707031 233.386719 C 97.695312 233.53125 97.691406 233.5625 97.703125 233.464844 C 100.933594 202.242188 98.753906 172.890625 110.644531 142.707031 C 130.34375 92.679688 172.953125 53.5 224.328125 37.761719 C 277.4375 21.492188 335.519531 31.847656 381.277344 62.855469 C 395.402344 72.433594 449.789062 121.597656 406.605469 130.539062 " fill-opacity="1" fill-rule="nonzero"/><path fill="#005ebc" d="M 370.464844 105.480469 C 384.457031 149.019531 365.398438 169.394531 357.671875 177.234375 C 342.769531 192.359375 321.472656 214.902344 311.265625 233.53125 C 299.3125 255.34375 278.589844 330.011719 256.949219 269.070312 C 231.046875 196.117188 267.632812 176.226562 285.144531 161.449219 C 297.316406 151.175781 312.238281 126.921875 288.847656 119.117188 C 256.457031 108.308594 239.980469 162.007812 203.257812 151.628906 C 179.425781 144.890625 177.777344 118.738281 185.949219 98.589844 C 209.578125 40.316406 346.546875 31.035156 370.464844 105.480469 Z M 370.464844 105.480469 " fill-opacity="1" fill-rule="nonzero"/><path fill="#ffffff" d="M 278.246094 61.710938 C 240.636719 61.988281 204.109375 78.722656 194.601562 102.164062 C 191.132812 110.71875 189.898438 120.621094 191.671875 127.953125 C 193.441406 135.289062 196.902344 140.097656 205.828125 142.621094 C 212.800781 144.589844 217.90625 143.597656 223.628906 140.898438 C 229.351562 138.199219 235.300781 133.402344 241.632812 128.054688 C 247.964844 122.710938 254.605469 116.882812 262.769531 112.785156 C 270.9375 108.683594 281.265625 106.742188 291.796875 110.253906 C 299.304688 112.761719 305.328125 117.359375 308.28125 123.503906 C 311.238281 129.648438 310.972656 136.296875 309.394531 141.910156 C 306.234375 153.140625 298.601562 162.355469 291.191406 168.613281 C 281.558594 176.738281 269.890625 184.234375 263.074219 197.636719 C 256.257812 211.042969 253.304688 230.992188 265.703125 265.90625 C 268.226562 273.015625 270.695312 277.816406 272.582031 280.472656 C 274.464844 283.125 275.460938 283.308594 275.007812 283.203125 C 274.554688 283.09375 273.949219 283.453125 275.007812 282.695312 C 276.066406 281.9375 277.972656 279.945312 279.964844 277.03125 C 283.941406 271.207031 288.292969 262.132812 292.199219 253.164062 C 296.109375 244.195312 299.605469 235.414062 303.125 228.992188 C 314.425781 208.363281 335.910156 185.914062 350.960938 170.636719 C 354.691406 166.847656 360.085938 161.175781 363.402344 151.621094 C 366.71875 142.070312 368.066406 128.515625 361.582031 108.335938 C 356.414062 92.253906 345.382812 80.925781 330.53125 73.140625 C 315.675781 65.351562 297.046875 61.570312 278.242188 61.710938 Z M 278.246094 61.710938 " fill-opacity="1" fill-rule="nonzero"/><path fill="#005ebc" d="M 322.4375 344.410156 C 322.4375 288.582031 235.859375 288.585938 235.859375 344.410156 C 235.859375 400.238281 322.4375 400.242188 322.4375 344.410156 " fill-opacity="1" fill-rule="nonzero"/><path fill="#ffffff" d="M 312.371094 344.410156 C 312.371094 301.554688 245.921875 301.566406 245.921875 344.410156 C 245.921875 387.261719 312.371094 387.269531 312.371094 344.410156 " fill-opacity="1" fill-rule="nonzero"/></svg>