<svg xmlns="http://www.w3.org/2000/svg" xmlns:xlink="http://www.w3.org/1999/xlink" width="800" zoomAndPan="magnify" viewBox="0 0 600 449.999984" height="600" preserveAspectRatio="xMidYMid meet" version="1.0"><defs><clipPath id="ac25acbbab"><path d="M 74.398438 9.957031 L 505.648438 9.957031 L 505.648438 439.707031 L 74.398438 439.707031 Z M 74.398438 9.957031 " clip-rule="nonzero"/></clipPath></defs><path fill="#fec245" d="M 467.820312 368.160156 C 472.136719 372.46875 474.292969 378.113281 474.292969 383.761719 C 474.292969 389.402344 472.136719 395.046875 467.820312 399.355469 C 459.1875 407.972656 445.195312 407.972656 436.5625 399.355469 L 388.902344 351.789062 L 346.519531 309.492188 L 320.269531 283.296875 C 296.625 294.199219 267.683594 289.921875 248.1875 270.46875 C 227.929688 250.25 224.097656 219.847656 236.6875 195.777344 L 279.859375 238.859375 L 307.003906 211.769531 L 263.832031 168.683594 C 287.953125 156.121094 318.414062 159.945312 338.671875 180.164062 C 358.164062 199.613281 362.449219 228.5 351.53125 252.101562 L 377.917969 278.4375 L 420.257812 320.695312 Z M 467.820312 368.160156 " fill-opacity="1" fill-rule="evenodd"/><path fill="#eeeff0" d="M 394.480469 222.402344 C 394.480469 243.074219 388.402344 262.304688 377.921875 278.4375 L 351.53125 252.097656 C 362.453125 228.5 358.167969 199.613281 338.675781 180.164062 C 318.417969 159.945312 287.957031 156.121094 263.835938 168.683594 L 307.003906 211.765625 L 279.859375 238.859375 L 236.691406 195.777344 C 224.101562 219.847656 227.933594 250.25 248.191406 270.46875 C 267.683594 289.917969 296.625 294.199219 320.273438 283.296875 L 346.519531 309.492188 C 330.5625 319.621094 311.660156 325.464844 291.351562 325.464844 C 234.390625 325.464844 188.21875 279.324219 188.21875 222.402344 C 188.21875 165.484375 234.390625 119.34375 291.351562 119.34375 C 348.308594 119.34375 394.480469 165.488281 394.480469 222.402344 Z M 394.480469 222.402344 " fill-opacity="1" fill-rule="evenodd"/><path fill="#56707b" d="M 440.652344 285.394531 L 440.667969 285.402344 C 435.367188 298.074219 428.484375 309.921875 420.261719 320.695312 L 377.921875 278.4375 C 388.402344 262.304688 394.480469 243.074219 394.480469 222.402344 C 394.480469 165.488281 348.308594 119.34375 291.347656 119.34375 C 234.386719 119.34375 188.214844 165.488281 188.214844 222.402344 C 188.214844 279.324219 234.386719 325.464844 291.347656 325.464844 C 311.65625 325.464844 330.558594 319.625 346.519531 309.492188 L 388.902344 351.789062 L 388.898438 351.789062 C 381.203125 357.566406 372.976562 362.652344 364.300781 366.976562 C 363.898438 367.179688 363.496094 367.375 363.097656 367.574219 C 362.789062 367.71875 362.484375 367.871094 362.171875 368.023438 C 361.882812 368.160156 361.597656 368.296875 361.308594 368.433594 C 348.957031 374.289062 335.746094 378.617188 321.90625 381.167969 L 316.140625 432.742188 L 259.128906 432.742188 L 253.117188 378.96875 C 235.058594 374.414062 218.222656 366.804688 203.191406 356.722656 L 161.195312 390.226562 L 120.878906 349.992188 L 155.414062 306.863281 C 146.140625 291.660156 139.339844 274.785156 135.554688 256.804688 L 81.753906 250.816406 L 81.753906 193.914062 L 136.171875 187.851562 C 140.34375 169.675781 147.609375 152.671875 157.402344 137.4375 L 124.355469 96.171875 L 164.667969 55.941406 L 206 88.90625 C 221.792969 78.789062 239.480469 71.355469 258.414062 67.261719 L 264.042969 16.894531 L 321.054688 16.894531 L 326.691406 67.261719 C 346.265625 71.496094 364.515625 79.296875 380.707031 89.945312 L 418.992188 59.410156 L 459.308594 99.644531 L 428.292969 138.371094 C 438.769531 154.925781 446.289062 173.527344 450.109375 193.441406 L 498.429688 198.820312 L 498.429688 255.722656 L 448.539062 261.28125 C 446.542969 269.589844 443.890625 277.648438 440.652344 285.394531 Z M 440.652344 285.394531 " fill-opacity="1" fill-rule="evenodd"/><path fill="#333333" d="M 354.449219 378.421875 C 351.730469 378.421875 349.148438 376.816406 348.039062 374.152344 C 346.5625 370.617188 348.234375 366.554688 351.773438 365.078125 C 363.484375 360.203125 374.570312 353.863281 384.730469 346.242188 C 387.796875 343.941406 392.148438 344.558594 394.453125 347.621094 C 396.757812 350.6875 396.136719 355.035156 393.070312 357.335938 C 381.988281 365.652344 369.894531 372.566406 357.121094 377.886719 C 356.246094 378.25 355.339844 378.421875 354.449219 378.421875 Z M 354.449219 378.421875 " fill-opacity="1" fill-rule="evenodd"/><path fill="#333333" d="M 291.347656 332.402344 C 276.492188 332.402344 262.074219 329.492188 248.5 323.753906 C 235.390625 318.214844 223.617188 310.28125 213.511719 300.183594 C 203.40625 290.082031 195.46875 278.320312 189.921875 265.222656 C 184.183594 251.65625 181.269531 237.25 181.269531 222.40625 C 181.269531 207.558594 184.183594 193.152344 189.921875 179.585938 C 195.46875 166.488281 203.40625 154.726562 213.511719 144.625 C 223.617188 134.527344 235.390625 126.597656 248.5 121.054688 C 262.074219 115.320312 276.492188 112.410156 291.347656 112.410156 C 306.207031 112.410156 320.625 115.316406 334.199219 121.054688 C 347.308594 126.597656 359.078125 134.527344 369.1875 144.628906 C 379.292969 154.726562 387.230469 166.492188 392.773438 179.589844 C 398.515625 193.152344 401.425781 207.558594 401.425781 222.40625 C 401.425781 243.734375 395.3125 264.414062 383.746094 282.21875 C 381.65625 285.433594 377.355469 286.34375 374.140625 284.257812 C 370.921875 282.171875 370.007812 277.875 372.09375 274.660156 C 382.199219 259.113281 387.539062 241.046875 387.539062 222.40625 C 387.539062 169.402344 344.386719 126.285156 291.347656 126.285156 C 238.308594 126.285156 195.160156 169.402344 195.160156 222.40625 C 195.160156 275.40625 238.3125 318.527344 291.347656 318.527344 C 309.65625 318.527344 327.445312 313.378906 342.796875 303.636719 C 346.03125 301.585938 350.324219 302.539062 352.382812 305.773438 C 354.4375 309.007812 353.480469 313.296875 350.242188 315.351562 C 332.664062 326.503906 312.296875 332.402344 291.347656 332.402344 Z M 291.347656 332.402344 " fill-opacity="1" fill-rule="evenodd"/><path fill="#333333" d="M 420.253906 327.632812 C 418.789062 327.632812 417.304688 327.167969 416.050781 326.210938 C 413 323.886719 412.414062 319.535156 414.738281 316.488281 C 422.980469 305.691406 429.742188 293.863281 434.835938 281.328125 C 436.277344 277.777344 440.332031 276.070312 443.882812 277.511719 C 447.4375 278.953125 449.148438 283 447.707031 286.550781 C 442.148438 300.222656 434.769531 313.125 425.78125 324.902344 C 424.414062 326.691406 422.347656 327.632812 420.253906 327.632812 Z M 420.253906 327.632812 " fill-opacity="1" fill-rule="evenodd"/><path fill="#333333" d="M 452.191406 412.742188 C 444.753906 412.742188 437.316406 409.917969 431.652344 404.265625 L 318.660156 291.496094 C 306.851562 295.988281 294.105469 297.238281 281.511719 295.105469 C 266.964844 292.640625 253.746094 285.820312 243.28125 275.375 C 232.386719 264.503906 225.460938 250.742188 223.246094 235.566406 C 221.078125 220.695312 223.597656 205.824219 230.53125 192.5625 C 231.558594 190.605469 233.449219 189.253906 235.632812 188.917969 C 237.820312 188.582031 240.03125 189.308594 241.597656 190.867188 L 279.855469 229.054688 L 297.175781 211.769531 L 258.925781 173.59375 C 257.359375 172.03125 256.632812 169.816406 256.96875 167.632812 C 257.304688 165.449219 258.660156 163.554688 260.621094 162.535156 C 273.90625 155.613281 288.800781 153.101562 303.703125 155.265625 C 318.902344 157.472656 332.691406 164.386719 343.582031 175.253906 C 354.046875 185.699219 360.882812 198.894531 363.351562 213.414062 C 365.488281 225.984375 364.238281 238.703125 359.738281 250.488281 L 472.726562 363.253906 C 478.214844 368.730469 481.234375 376.011719 481.234375 383.757812 C 481.234375 391.503906 478.214844 398.789062 472.726562 404.265625 C 467.066406 409.914062 459.628906 412.742188 452.191406 412.742188 Z M 320.269531 276.359375 C 322.074219 276.359375 323.847656 277.058594 325.179688 278.386719 L 441.46875 394.445312 C 444.425781 397.398438 448.308594 398.871094 452.191406 398.871094 C 456.074219 398.871094 459.957031 397.398438 462.910156 394.445312 C 465.773438 391.59375 467.347656 387.796875 467.347656 383.757812 C 467.347656 379.71875 465.773438 375.921875 462.910156 373.066406 L 346.621094 257.007812 C 344.5625 254.953125 344.003906 251.828125 345.226562 249.1875 C 355.199219 227.632812 350.59375 201.867188 333.765625 185.070312 C 318.390625 169.726562 296.164062 164.601562 276.050781 171.070312 L 311.914062 206.859375 C 313.214844 208.160156 313.949219 209.925781 313.949219 211.769531 C 313.949219 213.609375 313.21875 215.375 311.914062 216.675781 L 284.769531 243.769531 C 282.058594 246.472656 277.664062 246.472656 274.953125 243.769531 L 239.078125 207.964844 C 232.589844 228.035156 237.722656 250.214844 253.097656 265.558594 C 269.933594 282.359375 295.757812 286.957031 317.363281 277 C 318.292969 276.566406 319.289062 276.359375 320.269531 276.359375 Z M 320.269531 276.359375 " fill-opacity="1" fill-rule="evenodd"/><g clip-path="url(#ac25acbbab)"><path fill="#333333" d="M 316.140625 439.683594 L 259.128906 439.683594 C 255.589844 439.683594 252.617188 437.027344 252.226562 433.515625 L 246.738281 384.445312 C 231.511719 380.132812 217.046875 373.699219 203.613281 365.269531 L 165.527344 395.648438 C 162.765625 397.851562 158.785156 397.632812 156.285156 395.136719 L 115.972656 354.902344 C 113.46875 352.402344 113.246094 348.421875 115.457031 345.660156 L 147.003906 306.265625 C 139.28125 292.734375 133.535156 278.269531 129.871094 263.15625 L 80.984375 257.710938 C 77.46875 257.320312 74.808594 254.351562 74.808594 250.8125 L 74.808594 193.914062 C 74.808594 190.378906 77.46875 187.410156 80.984375 187.019531 L 130.582031 181.496094 C 134.582031 166.167969 140.730469 151.554688 148.914062 137.945312 L 118.933594 100.507812 C 116.722656 97.746094 116.945312 93.765625 119.449219 91.265625 L 159.761719 51.03125 C 162.261719 48.535156 166.242188 48.316406 169.003906 50.519531 L 206.503906 80.429688 C 220.714844 71.90625 236 65.59375 252.054688 61.617188 L 257.140625 16.125 C 257.535156 12.613281 260.507812 9.957031 264.042969 9.957031 L 321.058594 9.957031 C 324.59375 9.957031 327.566406 12.613281 327.957031 16.125 L 333.046875 61.617188 C 349.738281 65.753906 365.574219 72.398438 380.25 81.433594 L 414.65625 53.988281 C 417.417969 51.789062 421.398438 52.007812 423.898438 54.503906 L 464.210938 94.738281 C 466.71875 97.238281 466.9375 101.21875 464.726562 103.980469 L 436.757812 138.90625 C 445.660156 153.933594 452.074219 170.105469 455.882812 187.105469 L 499.199219 191.929688 C 502.714844 192.320312 505.371094 195.289062 505.371094 198.824219 L 505.371094 255.722656 C 505.371094 259.257812 502.714844 262.226562 499.199219 262.617188 L 454.074219 267.644531 C 450.804688 279.644531 446.183594 291.273438 440.304688 302.265625 C 438.5 305.648438 434.289062 306.921875 430.90625 305.117188 C 427.523438 303.3125 426.246094 299.109375 428.054688 295.730469 C 434.144531 284.332031 438.765625 272.195312 441.785156 259.65625 C 442.46875 256.816406 444.859375 254.707031 447.765625 254.382812 L 491.480469 249.515625 L 491.480469 205.027344 L 449.335938 200.335938 C 446.308594 200 443.855469 197.734375 443.285156 194.746094 C 439.683594 175.992188 432.664062 158.269531 422.417969 142.078125 C 420.835938 139.574219 421.015625 136.347656 422.867188 134.035156 L 449.992188 100.160156 L 418.46875 68.699219 L 385.035156 95.367188 C 382.683594 97.242188 379.394531 97.390625 376.882812 95.738281 C 361.058594 85.335938 343.675781 78.03125 325.214844 74.039062 C 322.300781 73.410156 320.113281 70.992188 319.78125 68.03125 L 314.839844 23.828125 L 270.25 23.828125 L 265.308594 68.03125 C 264.976562 70.992188 262.789062 73.410156 259.875 74.039062 C 242.023438 77.902344 225.15625 84.867188 209.742188 94.742188 C 207.238281 96.347656 203.988281 96.179688 201.660156 94.324219 L 165.179688 65.226562 L 133.65625 96.6875 L 162.816406 133.101562 C 164.675781 135.425781 164.847656 138.675781 163.238281 141.183594 C 153.699219 156.03125 146.867188 172.253906 142.933594 189.402344 C 142.273438 192.273438 139.867188 194.417969 136.933594 194.746094 L 88.691406 200.117188 L 88.691406 244.605469 L 136.316406 249.910156 C 139.296875 250.242188 141.726562 252.445312 142.34375 255.375 C 145.910156 272.324219 152.300781 288.429688 161.339844 303.253906 C 162.859375 305.742188 162.65625 308.917969 160.832031 311.195312 L 130.175781 349.472656 L 161.703125 380.933594 L 198.851562 351.300781 C 201.21875 349.414062 204.539062 349.273438 207.054688 350.960938 C 221.695312 360.78125 237.761719 367.9375 254.804688 372.238281 C 257.613281 372.945312 259.6875 375.320312 260.007812 378.195312 L 265.328125 425.804688 L 309.917969 425.804688 L 314.996094 380.394531 C 315.335938 377.355469 317.625 374.898438 320.636719 374.34375 C 335.179688 371.660156 349.230469 366.886719 362.398438 360.15625 C 365.8125 358.410156 369.996094 359.761719 371.742188 363.171875 C 373.492188 366.582031 372.140625 370.761719 368.722656 372.507812 C 355.890625 379.066406 342.296875 383.921875 328.234375 386.96875 L 323.03125 433.511719 C 322.652344 437.027344 319.679688 439.683594 316.140625 439.683594 Z M 316.140625 439.683594 " fill-opacity="1" fill-rule="evenodd"/></g></svg>