<svg xmlns="http://www.w3.org/2000/svg" xmlns:xlink="http://www.w3.org/1999/xlink" width="800" zoomAndPan="magnify" viewBox="0 0 600 449.999984" height="600" preserveAspectRatio="xMidYMid meet" version="1.0"><defs><clipPath id="43359d1cdd"><path d="M 266 441.585938 L 342.550781 441.585938 L 342.550781 450 L 266 450 Z M 266 441.585938 " clip-rule="nonzero"/></clipPath><clipPath id="4a0d4653eb"><path d="M 232 15.296875 L 377 15.296875 L 377 57 L 232 57 Z M 232 15.296875 " clip-rule="nonzero"/></clipPath><clipPath id="5b8b51d585"><path d="M 435.28125 315.066406 L 512.996094 315.066406 L 512.996094 416.640625 L 435.28125 416.640625 Z M 435.28125 315.066406 " clip-rule="nonzero"/></clipPath></defs><path fill="#122584" d="M 109.324219 323.59375 C 106.070312 316.339844 103.25 308.929688 100.859375 301.355469 C 100.769531 301.078125 100.632812 300.828125 100.445312 300.605469 C 100.257812 300.382812 100.035156 300.207031 99.777344 300.070312 C 99.519531 299.9375 99.246094 299.855469 98.957031 299.832031 C 98.667969 299.808594 98.382812 299.839844 98.105469 299.925781 C 97.828125 300.011719 97.578125 300.152344 97.355469 300.339844 C 97.132812 300.527344 96.953125 300.75 96.820312 301.007812 C 96.6875 301.265625 96.605469 301.539062 96.582031 301.828125 C 96.554688 302.117188 96.585938 302.402344 96.675781 302.679688 C 99.117188 310.414062 102 317.984375 105.320312 325.390625 C 105.441406 325.65625 105.605469 325.886719 105.816406 326.085938 C 106.027344 326.289062 106.269531 326.4375 106.542969 326.542969 C 106.8125 326.644531 107.09375 326.691406 107.386719 326.683594 C 107.675781 326.675781 107.953125 326.613281 108.21875 326.492188 C 108.484375 326.375 108.71875 326.207031 108.917969 325.996094 C 109.117188 325.785156 109.269531 325.542969 109.371094 325.269531 C 109.476562 325 109.523438 324.71875 109.515625 324.425781 C 109.503906 324.136719 109.441406 323.859375 109.324219 323.59375 Z M 95.019531 278.292969 C 93.519531 270.507812 92.472656 262.644531 91.875 254.707031 C 91.851562 254.414062 91.777344 254.140625 91.644531 253.878906 C 91.511719 253.621094 91.335938 253.394531 91.117188 253.207031 C 90.898438 253.015625 90.648438 252.875 90.371094 252.785156 C 90.09375 252.695312 89.8125 252.660156 89.523438 252.683594 C 89.234375 252.703125 88.957031 252.78125 88.699219 252.910156 C 88.4375 253.042969 88.214844 253.21875 88.023438 253.441406 C 87.835938 253.660156 87.695312 253.910156 87.605469 254.183594 C 87.511719 254.460938 87.480469 254.746094 87.5 255.035156 C 88.109375 263.140625 89.179688 271.171875 90.710938 279.121094 C 90.765625 279.40625 90.875 279.671875 91.035156 279.914062 C 91.195312 280.15625 91.394531 280.359375 91.636719 280.523438 C 91.875 280.6875 92.140625 280.796875 92.425781 280.855469 C 92.707031 280.914062 92.996094 280.917969 93.28125 280.863281 C 93.566406 280.808594 93.828125 280.699219 94.074219 280.539062 C 94.316406 280.378906 94.519531 280.179688 94.679688 279.9375 C 94.84375 279.695312 94.953125 279.433594 95.011719 279.148438 C 95.070312 278.863281 95.074219 278.578125 95.019531 278.292969 Z M 91.433594 230.90625 C 91.738281 222.945312 92.488281 215.050781 93.691406 207.21875 C 93.738281 206.929688 93.722656 206.644531 93.65625 206.363281 C 93.585938 206.078125 93.464844 205.820312 93.292969 205.585938 C 93.121094 205.351562 92.910156 205.160156 92.664062 205.007812 C 92.414062 204.855469 92.144531 204.757812 91.859375 204.714844 C 91.570312 204.671875 91.285156 204.683594 91.003906 204.753906 C 90.722656 204.820312 90.460938 204.941406 90.226562 205.113281 C 89.992188 205.285156 89.800781 205.496094 89.648438 205.746094 C 89.5 205.996094 89.402344 206.261719 89.359375 206.550781 C 88.128906 214.550781 87.359375 222.613281 87.050781 230.738281 C 87.039062 231.03125 87.085938 231.3125 87.1875 231.585938 C 87.285156 231.859375 87.4375 232.101562 87.632812 232.316406 C 87.832031 232.527344 88.0625 232.695312 88.328125 232.816406 C 88.589844 232.9375 88.867188 233.003906 89.160156 233.015625 C 89.449219 233.027344 89.730469 232.984375 90.003906 232.882812 C 90.277344 232.78125 90.519531 232.632812 90.734375 232.433594 C 90.945312 232.234375 91.113281 232.003906 91.234375 231.738281 C 91.355469 231.476562 91.421875 231.199219 91.433594 230.90625 Z M 98.65625 183.949219 C 100.757812 176.289062 103.296875 168.773438 106.273438 161.40625 C 106.382812 161.136719 106.433594 160.855469 106.433594 160.566406 C 106.429688 160.273438 106.371094 159.996094 106.257812 159.726562 C 106.144531 159.460938 105.984375 159.222656 105.777344 159.019531 C 105.570312 158.816406 105.332031 158.660156 105.0625 158.550781 C 104.792969 158.441406 104.511719 158.386719 104.222656 158.390625 C 103.929688 158.394531 103.652344 158.453125 103.382812 158.566406 C 103.117188 158.679688 102.878906 158.839844 102.675781 159.046875 C 102.472656 159.253906 102.316406 159.492188 102.207031 159.761719 C 99.167969 167.289062 96.574219 174.960938 94.425781 182.785156 C 94.347656 183.066406 94.328125 183.351562 94.363281 183.640625 C 94.402344 183.925781 94.492188 184.199219 94.632812 184.453125 C 94.777344 184.703125 94.964844 184.921875 95.195312 185.097656 C 95.425781 185.277344 95.679688 185.40625 95.960938 185.480469 C 96.242188 185.558594 96.523438 185.578125 96.8125 185.542969 C 97.101562 185.507812 97.371094 185.417969 97.625 185.273438 C 97.878906 185.128906 98.09375 184.941406 98.273438 184.714844 C 98.449219 184.484375 98.578125 184.226562 98.65625 183.949219 Z M 116.441406 139.898438 C 120.242188 132.929688 124.433594 126.199219 129.015625 119.703125 C 129.183594 119.464844 129.300781 119.203125 129.363281 118.917969 C 129.425781 118.636719 129.433594 118.347656 129.386719 118.0625 C 129.335938 117.777344 129.234375 117.507812 129.078125 117.261719 C 128.921875 117.015625 128.726562 116.8125 128.488281 116.644531 C 128.25 116.476562 127.992188 116.359375 127.707031 116.296875 C 127.421875 116.230469 127.136719 116.222656 126.851562 116.273438 C 126.566406 116.324219 126.296875 116.425781 126.050781 116.582031 C 125.808594 116.734375 125.601562 116.933594 125.433594 117.171875 C 120.753906 123.804688 116.472656 130.679688 112.589844 137.796875 C 112.453125 138.050781 112.367188 138.324219 112.335938 138.613281 C 112.304688 138.902344 112.332031 139.1875 112.414062 139.464844 C 112.496094 139.746094 112.625 139.996094 112.808594 140.222656 C 112.992188 140.449219 113.210938 140.632812 113.464844 140.773438 C 113.722656 140.914062 113.992188 140.996094 114.28125 141.027344 C 114.570312 141.058594 114.855469 141.035156 115.136719 140.953125 C 115.414062 140.871094 115.667969 140.738281 115.894531 140.554688 C 116.121094 140.371094 116.300781 140.152344 116.441406 139.898438 Z M 143.816406 101.078125 C 149.109375 95.152344 154.71875 89.546875 160.648438 84.261719 C 160.867188 84.070312 161.039062 83.84375 161.164062 83.582031 C 161.292969 83.316406 161.363281 83.042969 161.378906 82.75 C 161.398438 82.460938 161.355469 82.179688 161.261719 81.902344 C 161.167969 81.628906 161.023438 81.382812 160.828125 81.164062 C 160.636719 80.949219 160.40625 80.777344 160.144531 80.648438 C 159.882812 80.523438 159.609375 80.449219 159.316406 80.433594 C 159.027344 80.417969 158.746094 80.457031 158.46875 80.550781 C 158.195312 80.648438 157.949219 80.792969 157.730469 80.984375 C 151.675781 86.378906 145.949219 92.101562 140.546875 98.152344 C 140.351562 98.371094 140.207031 98.613281 140.113281 98.890625 C 140.015625 99.164062 139.976562 99.445312 139.992188 99.738281 C 140.007812 100.027344 140.082031 100.304688 140.207031 100.566406 C 140.332031 100.828125 140.503906 101.058594 140.722656 101.25 C 140.9375 101.445312 141.183594 101.589844 141.457031 101.6875 C 141.734375 101.78125 142.015625 101.820312 142.304688 101.804688 C 142.597656 101.789062 142.871094 101.71875 143.132812 101.589844 C 143.398438 101.464844 143.625 101.292969 143.816406 101.078125 Z M 143.816406 101.078125 " fill-opacity="1" fill-rule="nonzero"/><g clip-path="url(#43359d1cdd)"><path fill="#122584" d="M 339.839844 441.703125 C 332.078125 443.292969 324.234375 444.433594 316.308594 445.125 C 316.019531 445.148438 315.746094 445.230469 315.488281 445.363281 C 315.230469 445.5 315.007812 445.675781 314.820312 445.898438 C 314.632812 446.121094 314.496094 446.371094 314.40625 446.652344 C 314.320312 446.929688 314.289062 447.210938 314.3125 447.5 C 314.339844 447.792969 314.417969 448.066406 314.554688 448.324219 C 314.6875 448.582031 314.867188 448.804688 315.089844 448.992188 C 315.3125 449.179688 315.5625 449.316406 315.839844 449.402344 C 316.117188 449.492188 316.398438 449.523438 316.6875 449.496094 C 324.78125 448.792969 332.792969 447.628906 340.71875 446.003906 C 341.003906 445.945312 341.269531 445.835938 341.507812 445.671875 C 341.75 445.507812 341.949219 445.304688 342.109375 445.0625 C 342.269531 444.820312 342.378906 444.554688 342.433594 444.269531 C 342.488281 443.984375 342.488281 443.699219 342.429688 443.414062 C 342.371094 443.128906 342.261719 442.863281 342.097656 442.625 C 341.933594 442.382812 341.730469 442.183594 341.488281 442.023438 C 341.246094 441.859375 340.980469 441.753906 340.695312 441.699219 C 340.410156 441.644531 340.125 441.644531 339.839844 441.703125 Z M 292.535156 445.839844 C 284.570312 445.628906 276.671875 444.964844 268.835938 443.855469 C 268.550781 443.8125 268.265625 443.828125 267.984375 443.902344 C 267.703125 443.976562 267.445312 444.097656 267.210938 444.273438 C 266.980469 444.449219 266.789062 444.660156 266.640625 444.910156 C 266.492188 445.160156 266.398438 445.429688 266.359375 445.71875 C 266.316406 446.007812 266.332031 446.292969 266.40625 446.574219 C 266.476562 446.855469 266.601562 447.113281 266.777344 447.347656 C 266.949219 447.578125 267.164062 447.769531 267.414062 447.917969 C 267.664062 448.066406 267.933594 448.160156 268.222656 448.199219 C 276.222656 449.335938 284.289062 450.011719 292.417969 450.226562 C 292.710938 450.234375 292.992188 450.1875 293.261719 450.082031 C 293.535156 449.976562 293.773438 449.824219 293.984375 449.625 C 294.195312 449.425781 294.363281 449.191406 294.480469 448.925781 C 294.597656 448.660156 294.660156 448.382812 294.667969 448.089844 C 294.675781 447.800781 294.628906 447.519531 294.523438 447.246094 C 294.421875 446.976562 294.269531 446.734375 294.066406 446.523438 C 293.867188 446.3125 293.636719 446.148438 293.371094 446.027344 C 293.105469 445.910156 292.824219 445.847656 292.535156 445.839844 Z M 292.535156 445.839844 " fill-opacity="1" fill-rule="nonzero"/></g><path fill="#122584" d="M 448.621094 96.914062 C 454.074219 102.695312 459.175781 108.769531 463.925781 115.128906 C 464.101562 115.363281 464.3125 115.554688 464.5625 115.703125 C 464.8125 115.851562 465.082031 115.945312 465.367188 115.988281 C 465.65625 116.03125 465.941406 116.015625 466.222656 115.945312 C 466.503906 115.871094 466.761719 115.75 466.996094 115.574219 C 467.226562 115.398438 467.417969 115.1875 467.566406 114.9375 C 467.714844 114.6875 467.8125 114.417969 467.851562 114.128906 C 467.894531 113.84375 467.878906 113.558594 467.808594 113.277344 C 467.734375 112.992188 467.613281 112.734375 467.4375 112.503906 C 462.585938 106.007812 457.378906 99.808594 451.8125 93.902344 C 451.613281 93.691406 451.382812 93.527344 451.117188 93.40625 C 450.851562 93.289062 450.574219 93.222656 450.28125 93.214844 C 449.992188 93.207031 449.710938 93.253906 449.4375 93.359375 C 449.167969 93.460938 448.925781 93.613281 448.714844 93.8125 C 448.5 94.011719 448.335938 94.246094 448.21875 94.511719 C 448.097656 94.777344 448.035156 95.054688 448.027344 95.34375 C 448.015625 95.636719 448.066406 95.917969 448.167969 96.1875 C 448.273438 96.460938 448.421875 96.703125 448.621094 96.914062 Z M 477.046875 134.976562 C 481.042969 141.851562 484.625 148.925781 487.800781 156.199219 C 487.914062 156.464844 488.078125 156.699219 488.289062 156.902344 C 488.496094 157.105469 488.738281 157.257812 489.007812 157.363281 C 489.277344 157.472656 489.558594 157.519531 489.851562 157.515625 C 490.140625 157.511719 490.421875 157.449219 490.6875 157.332031 C 490.953125 157.214844 491.1875 157.054688 491.390625 156.84375 C 491.589844 156.632812 491.746094 156.394531 491.851562 156.125 C 491.957031 155.851562 492.007812 155.570312 492 155.28125 C 491.996094 154.988281 491.933594 154.710938 491.820312 154.445312 C 488.578125 147.011719 484.917969 139.789062 480.835938 132.769531 C 480.691406 132.519531 480.5 132.304688 480.269531 132.128906 C 480.039062 131.953125 479.78125 131.828125 479.5 131.75 C 479.21875 131.675781 478.9375 131.660156 478.648438 131.699219 C 478.359375 131.738281 478.089844 131.832031 477.839844 131.976562 C 477.585938 132.121094 477.371094 132.3125 477.195312 132.542969 C 477.019531 132.773438 476.894531 133.03125 476.820312 133.3125 C 476.746094 133.59375 476.730469 133.878906 476.769531 134.167969 C 476.804688 134.457031 476.898438 134.726562 477.046875 134.976562 Z M 496.03125 178.519531 C 498.34375 186.117188 500.210938 193.824219 501.632812 201.644531 C 501.683594 201.933594 501.789062 202.199219 501.945312 202.441406 C 502.105469 202.6875 502.304688 202.890625 502.542969 203.058594 C 502.78125 203.222656 503.042969 203.335938 503.328125 203.398438 C 503.609375 203.460938 503.898438 203.464844 504.183594 203.414062 C 504.46875 203.359375 504.734375 203.257812 504.976562 203.097656 C 505.222656 202.941406 505.429688 202.742188 505.59375 202.503906 C 505.757812 202.261719 505.871094 202 505.933594 201.71875 C 505.996094 201.433594 506 201.148438 505.949219 200.859375 C 504.496094 192.871094 502.589844 185 500.230469 177.242188 C 500.144531 176.964844 500.007812 176.710938 499.824219 176.488281 C 499.640625 176.261719 499.417969 176.082031 499.164062 175.945312 C 498.90625 175.808594 498.632812 175.726562 498.34375 175.699219 C 498.054688 175.667969 497.769531 175.699219 497.492188 175.78125 C 497.214844 175.867188 496.960938 176.003906 496.738281 176.1875 C 496.511719 176.371094 496.332031 176.59375 496.195312 176.847656 C 496.058594 177.105469 495.976562 177.378906 495.949219 177.667969 C 495.921875 177.957031 495.949219 178.242188 496.03125 178.519531 Z M 504.535156 225.265625 C 504.828125 229.800781 504.976562 234.355469 504.976562 238.921875 C 504.976562 242.308594 504.894531 245.691406 504.734375 249.066406 C 504.71875 249.355469 504.761719 249.636719 504.859375 249.910156 C 504.957031 250.1875 505.105469 250.429688 505.300781 250.644531 C 505.496094 250.863281 505.726562 251.03125 505.988281 251.15625 C 506.25 251.28125 506.527344 251.347656 506.816406 251.363281 C 507.109375 251.378906 507.390625 251.335938 507.664062 251.238281 C 507.9375 251.136719 508.183594 250.992188 508.398438 250.796875 C 508.613281 250.601562 508.78125 250.371094 508.90625 250.109375 C 509.03125 249.84375 509.101562 249.566406 509.113281 249.277344 C 509.28125 245.832031 509.363281 242.382812 509.363281 238.921875 C 509.363281 234.261719 509.210938 229.613281 508.910156 224.980469 C 508.890625 224.6875 508.820312 224.414062 508.691406 224.152344 C 508.5625 223.890625 508.386719 223.664062 508.167969 223.472656 C 507.949219 223.28125 507.703125 223.136719 507.429688 223.042969 C 507.152344 222.949219 506.871094 222.914062 506.582031 222.933594 C 506.289062 222.949219 506.015625 223.023438 505.753906 223.152344 C 505.492188 223.28125 505.265625 223.457031 505.074219 223.675781 C 504.882812 223.894531 504.738281 224.140625 504.644531 224.414062 C 504.554688 224.691406 504.515625 224.972656 504.535156 225.265625 Z M 502.230469 272.730469 C 500.945312 280.574219 499.210938 288.316406 497.027344 295.949219 C 496.949219 296.226562 496.925781 296.511719 496.957031 296.800781 C 496.992188 297.089844 497.078125 297.363281 497.21875 297.617188 C 497.359375 297.871094 497.546875 298.089844 497.773438 298.269531 C 498 298.449219 498.253906 298.582031 498.535156 298.660156 C 498.8125 298.742188 499.097656 298.765625 499.386719 298.730469 C 499.675781 298.699219 499.945312 298.609375 500.203125 298.46875 C 500.457031 298.328125 500.671875 298.144531 500.855469 297.914062 C 501.035156 297.6875 501.164062 297.433594 501.246094 297.152344 C 503.472656 289.359375 505.242188 281.453125 506.558594 273.441406 C 506.605469 273.15625 506.597656 272.871094 506.53125 272.585938 C 506.464844 272.300781 506.347656 272.042969 506.175781 271.804688 C 506.007812 271.570312 505.800781 271.375 505.550781 271.222656 C 505.304688 271.066406 505.039062 270.96875 504.75 270.921875 C 504.464844 270.875 504.179688 270.882812 503.894531 270.949219 C 503.613281 271.015625 503.351562 271.132812 503.117188 271.304688 C 502.878906 271.472656 502.6875 271.679688 502.53125 271.929688 C 502.378906 272.175781 502.277344 272.441406 502.230469 272.730469 Z M 502.230469 272.730469 " fill-opacity="1" fill-rule="nonzero"/><path fill="#c0ffe5" d="M 451.609375 238.921875 C 451.609375 323.746094 382.894531 392.507812 298.128906 392.507812 C 213.363281 392.507812 144.648438 323.746094 144.648438 238.921875 C 144.648438 154.097656 213.363281 85.332031 298.128906 85.332031 C 382.894531 85.332031 451.609375 154.097656 451.609375 238.921875 " fill-opacity="1" fill-rule="nonzero"/><path stroke-linecap="round" transform="matrix(0.019942, 0, 0, -0.0199559, 86.896022, 450.303037)" fill-opacity="1" fill="#52ddc2" fill-rule="nonzero" stroke-linejoin="round" d="M 8312.919898 10826.899389 L 8312.919898 12853.435145 C 8312.919898 13715.686666 9011.82338 14414.492099 9873.895752 14414.492099 L 12181.765938 14414.492099 C 13044.034191 14414.492099 13742.741792 13715.686666 13742.741792 12853.435145 L 13742.741792 10830.031291 " stroke="#122584" stroke-width="219.94299" stroke-opacity="1" stroke-miterlimit="10"/><path fill="#ffe780" d="M 254.640625 124.542969 L 268.398438 141.363281 L 193.332031 141.363281 C 186.589844 141.363281 181.125 135.894531 181.125 129.148438 L 181.125 80.046875 C 181.125 73.300781 186.589844 67.832031 193.332031 67.832031 L 242.398438 67.832031 C 249.136719 67.832031 254.605469 73.300781 254.605469 80.046875 L 254.605469 123.949219 L 254.640625 124.542969 " fill-opacity="1" fill-rule="nonzero"/><path stroke-linecap="round" transform="matrix(0.019942, 0, 0, -0.0199559, 86.896022, 450.303037)" fill="none" stroke-linejoin="round" d="M 8411.643933 16323.97305 L 9101.536887 15481.100167 L 5337.291313 15481.100167 C 4999.200671 15481.100167 4725.163123 15755.141513 4725.163123 16093.191088 L 4725.163123 18553.690889 C 4725.163123 18891.740464 4999.200671 19165.78181 5337.291313 19165.78181 L 7797.752814 19165.78181 C 8135.647574 19165.78181 8409.881003 18891.740464 8409.881003 18553.690889 L 8409.881003 16353.726111 Z M 8411.643933 16323.97305 " stroke="#122584" stroke-width="219.94299" stroke-opacity="1" stroke-miterlimit="10"/><path fill="#ffffff" d="M 416.425781 141.363281 C 423.167969 141.363281 428.632812 135.894531 428.632812 129.148438 L 428.632812 80.046875 C 428.632812 73.300781 423.167969 67.832031 416.425781 67.832031 L 367.363281 67.832031 C 360.621094 67.832031 355.152344 73.300781 355.152344 80.046875 L 355.109375 124.289062 L 341.359375 141.363281 L 416.425781 141.363281 " fill-opacity="1" fill-rule="nonzero"/><path stroke-linecap="round" transform="matrix(0.019942, 0, 0, -0.0199559, 86.896022, 450.303037)" fill="none" stroke-linejoin="round" d="M 16524.448167 15481.100167 C 16862.538809 15481.100167 17136.576357 15755.141513 17136.576357 16093.191088 L 17136.576357 18553.690889 C 17136.576357 18891.740464 16862.538809 19165.78181 16524.448167 19165.78181 L 14064.182547 19165.78181 C 13726.091905 19165.78181 13451.858476 18891.740464 13451.858476 18553.690889 L 13449.703785 16336.696399 L 12760.202592 15481.100167 Z M 16524.448167 15481.100167 " stroke="#122584" stroke-width="219.94299" stroke-opacity="1" stroke-miterlimit="10"/><path stroke-linecap="round" transform="matrix(0.019942, 0, 0, -0.0199559, 86.896022, 450.303037)" fill="none" stroke-linejoin="round" d="M 5606.040073 16157.199317 L 6527.660275 18512.388943 L 7449.280478 16157.199317 " stroke="#122584" stroke-width="219.94299" stroke-opacity="1" stroke-miterlimit="10"/><path stroke-linecap="round" transform="matrix(0.019942, 0, 0, -0.0199559, 86.896022, 450.303037)" fill="none" stroke-linejoin="round" d="M 5985.657491 17032.565674 L 7052.229649 17032.565674 " stroke="#122584" stroke-width="219.94299" stroke-opacity="1" stroke-miterlimit="10"/><path stroke-linecap="round" transform="matrix(0.019942, 0, 0, -0.0199559, 86.896022, 450.303037)" fill="none" stroke-linejoin="round" d="M 14710.002272 17899.906535 C 14834.582601 17387.644961 15219.880569 16519.129638 16413.77539 16054.8253 " stroke="#122584" stroke-width="219.94299" stroke-opacity="1" stroke-miterlimit="10"/><path stroke-linecap="round" transform="matrix(0.019942, 0, 0, -0.0199559, 86.896022, 450.303037)" fill="none" stroke-linejoin="round" d="M 16119.953859 18307.640909 C 16119.953859 18307.640909 16119.953859 16740.320153 14356.828792 16054.8253 " stroke="#122584" stroke-width="219.94299" stroke-opacity="1" stroke-miterlimit="10"/><path stroke-linecap="round" transform="matrix(0.019942, 0, 0, -0.0199559, 86.896022, 450.303037)" fill="none" stroke-linejoin="round" d="M 14324.704304 18390.049057 L 16457.84862 18390.049057 " stroke="#122584" stroke-width="219.94299" stroke-opacity="1" stroke-miterlimit="10"/><path stroke-linecap="round" transform="matrix(0.019942, 0, 0, -0.0199559, 86.896022, 450.303037)" fill="none" stroke-linejoin="round" d="M 15391.276462 18486.942247 L 15391.276462 18680.924371 " stroke="#122584" stroke-width="219.94299" stroke-opacity="1" stroke-miterlimit="10"/><g clip-path="url(#4a0d4653eb)"><path stroke-linecap="round" transform="matrix(0.019942, 0, 0, -0.0199559, 86.896022, 450.303037)" fill="none" stroke-linejoin="round" d="M 14432.047104 19884.357369 C 13652.048879 20975.433414 12374.512862 21686.766451 10930.86974 21686.766451 C 9479.587257 21686.766451 8196.17481 20967.995149 7417.351871 19866.936169 " stroke="#122584" stroke-width="219.94299" stroke-opacity="1" stroke-miterlimit="10"/></g><path stroke-linecap="round" transform="matrix(0.019942, 0, 0, -0.0199559, 86.896022, 450.303037)" fill="none" stroke-linejoin="round" d="M 7314.906098 20788.693811 L 7417.351871 19866.936169 L 8441.417848 19969.50593 " stroke="#122584" stroke-width="219.94299" stroke-opacity="1" stroke-miterlimit="10"/><path stroke-linecap="round" transform="matrix(0.019942, 0, 0, -0.0199559, 86.896022, 450.303037)" fill="none" stroke-linejoin="round" d="M 14534.492878 20805.919267 L 14432.047104 19884.357369 L 13408.177009 19986.731386 " stroke="#122584" stroke-width="219.94299" stroke-opacity="1" stroke-miterlimit="10"/><path stroke-linecap="round" transform="matrix(0.019942, 0, 0, -0.0199559, 86.896022, 450.303037)" fill="none" stroke-linejoin="round" d="M 9476.453161 12475.258087 L 9476.453161 10826.899389 " stroke="#122584" stroke-width="219.94299" stroke-opacity="1" stroke-miterlimit="10"/><path stroke-linecap="round" transform="matrix(0.019942, 0, 0, -0.0199559, 86.896022, 450.303037)" fill="none" stroke-linejoin="round" d="M 12676.169634 12475.258087 L 12676.169634 10826.899389 " stroke="#122584" stroke-width="219.94299" stroke-opacity="1" stroke-miterlimit="10"/><path fill="#ffffff" d="M 295.140625 148.335938 L 295.140625 162.449219 C 295.140625 168.769531 300.257812 173.894531 306.570312 173.894531 C 312.886719 173.894531 318.007812 168.769531 318.007812 162.449219 L 318.007812 148.417969 L 295.140625 148.335938 " fill-opacity="1" fill-rule="nonzero"/><path stroke-linecap="round" transform="matrix(0.019942, 0, 0, -0.0199559, 86.896022, 450.303037)" fill="none" stroke-linejoin="round" d="M 10442.538355 15131.697451 L 10442.538355 14424.475034 C 10442.538355 14107.761535 10699.142492 13850.945645 11015.686222 13850.945645 C 11332.425832 13850.945645 11589.22585 14107.761535 11589.22585 14424.475034 L 11589.22585 15127.58683 Z M 10442.538355 15131.697451 " stroke="#122584" stroke-width="219.94299" stroke-opacity="1" stroke-miterlimit="10"/><path stroke-linecap="round" transform="matrix(0.019942, 0, 0, -0.0199559, 86.896022, 450.303037)" fill-opacity="1" fill="#ff957d" fill-rule="nonzero" stroke-linejoin="round" d="M 9836.090715 18853.766163 C 9552.063235 18764.702726 9345.996401 18499.274108 9345.996401 18115.028991 L 9345.996401 17153.926842 L 12706.13943 17143.356675 L 12706.13943 18115.811967 C 12706.13943 18695.800902 12236.024981 19165.78181 11656.021278 19165.78181 L 9766.161191 19165.78181 C 9766.161191 18817.749301 10048.22986 18535.878202 10396.114553 18535.878202 L 11095.99744 18535.878202 " stroke="#122584" stroke-width="219.94299" stroke-opacity="1" stroke-miterlimit="10"/><path fill="#ffffff" d="M 281.242188 104.386719 L 281.242188 101.558594 C 281.242188 89.867188 290.714844 80.386719 302.402344 80.386719 L 311.128906 80.386719 C 322.8125 80.386719 332.285156 89.867188 332.285156 101.558594 L 332.285156 104.394531 C 338.089844 104.472656 342.773438 109.203125 342.773438 115.03125 C 342.773438 120.855469 338.089844 125.585938 332.285156 125.664062 L 332.285156 128.496094 C 332.285156 140.191406 322.8125 149.671875 311.128906 149.671875 L 302.402344 149.671875 C 290.714844 149.671875 281.242188 140.191406 281.242188 128.496094 L 281.242188 125.671875 C 275.367188 125.671875 270.605469 120.90625 270.605469 115.03125 C 270.605469 109.148438 275.367188 104.386719 281.242188 104.386719 " fill-opacity="1" fill-rule="nonzero"/><path stroke-linecap="round" transform="matrix(0.019942, 0, 0, -0.0199559, 86.896022, 450.303037)" fill="none" stroke-linejoin="round" d="M 9745.593683 17334.011155 L 9745.593683 17475.72968 C 9745.593683 18061.590929 10220.605159 18536.661177 10806.681173 18536.661177 L 11244.279373 18536.661177 C 11830.159506 18536.661177 12305.170981 18061.590929 12305.170981 17475.72968 L 12305.170981 17333.619667 C 12596.250178 17329.704791 12831.111522 17092.659026 12831.111522 16800.609249 C 12831.111522 16508.755215 12596.250178 16271.709451 12305.170981 16267.794574 L 12305.170981 16125.880306 C 12305.170981 15539.823313 11830.159506 15064.753065 11244.279373 15064.753065 L 10806.681173 15064.753065 C 10220.605159 15064.753065 9745.593683 15539.823313 9745.593683 16125.880306 L 9745.593683 16267.403087 C 9450.988628 16267.403087 9212.209664 16506.210546 9212.209664 16800.609249 C 9212.209664 17095.39944 9450.988628 17334.011155 9745.593683 17334.011155 Z M 9745.593683 17334.011155 " stroke="#122584" stroke-width="219.94299" stroke-opacity="1" stroke-miterlimit="10"/><path stroke-linecap="round" transform="matrix(0.019942, 0, 0, -0.0199559, 86.896022, 450.303037)" fill-opacity="1" fill="#ffffff" fill-rule="nonzero" stroke-linejoin="round" d="M 18235.077121 967.870473 L 13111.221381 967.870473 C 12848.349051 967.870473 12635.03462 1181.035491 12635.03462 1443.91944 L 12635.03462 9184.608751 C 12635.03462 9447.492699 12848.349051 9660.853461 13111.221381 9660.853461 L 18942.991129 9660.853461 C 19206.05934 9660.853461 19419.177891 9447.492699 19419.177891 9184.608751 L 19419.177891 7159.247458 " stroke="#122584" stroke-width="219.94299" stroke-opacity="1" stroke-miterlimit="10"/><path fill="#ffe780" d="M 459.539062 414.316406 C 456.308594 414.316406 453.664062 411.667969 453.664062 408.433594 C 454.574219 392.324219 449.9375 384.417969 444 374.960938 C 439.898438 369.035156 437.488281 361.851562 437.488281 354.101562 C 437.488281 333.839844 453.902344 317.414062 474.152344 317.414062 C 494.394531 317.414062 510.808594 333.839844 510.808594 354.101562 C 510.808594 361.851562 508.402344 369.035156 504.300781 374.960938 C 498.363281 384.417969 493.726562 392.324219 494.636719 408.433594 C 494.636719 411.667969 491.992188 414.316406 488.757812 414.3125 L 490.261719 414.316406 " fill-opacity="1" fill-rule="nonzero"/><g clip-path="url(#5b8b51d585)"><path stroke-linecap="round" transform="matrix(0.019942, 0, 0, -0.0199559, 86.896022, 450.303061)" fill="none" stroke-linejoin="round" d="M 18686.386992 1803.30612 C 18524.393388 1803.30612 18391.781937 1936.020416 18391.781937 2098.096283 C 18437.422215 2905.343713 18204.911443 3301.529164 17907.172292 3775.424904 C 17701.49722 4072.368248 17580.63863 4432.341096 17580.63863 4820.696795 C 17580.63863 5836.019885 18403.730679 6659.122564 19419.177891 6659.122564 C 20434.23334 6659.122564 21257.325389 5836.019885 21257.325389 4820.696795 C 21257.325389 4432.341096 21136.66268 4072.368248 20930.987608 3775.424904 C 20633.248457 3301.529164 20400.737685 2905.343713 20446.377963 2098.096283 C 20446.377963 1936.020416 20313.766512 1803.30612 20151.577027 1803.501864 L 20226.99122 1803.30612 " stroke="#122584" stroke-width="219.94299" stroke-opacity="1" stroke-miterlimit="10"/></g><path stroke-linecap="round" transform="matrix(0.019942, 0, 0, -0.0199559, 86.896022, 450.303037)" fill="none" stroke-linejoin="round" d="M 19203.121125 2546.152883 L 18970.414472 5036.014257 L 19887.33353 5036.014257 L 19654.626878 2546.152883 " stroke="#122584" stroke-width="219.94299" stroke-opacity="1" stroke-miterlimit="10"/><path stroke-linecap="round" transform="matrix(0.019942, 0, 0, -0.0199559, 86.896022, 450.303037)" fill-opacity="1" fill="#ff957d" fill-rule="nonzero" stroke-linejoin="round" d="M 19506.736707 1803.305091 L 18611.16868 1803.305091 C 18489.918329 1803.305091 18391.781937 1705.041694 18391.781937 1584.072014 L 18391.781937 1581.3316 C 18391.781937 1460.166177 18489.918329 1361.90278 18611.16868 1361.90278 L 18678.159989 1361.90278 C 18819.194324 1097.061393 19097.933017 916.585592 19418.98201 916.585592 C 19740.031003 916.585592 20018.965576 1097.061393 20159.80403 1361.90278 L 20226.99122 1361.90278 C 20348.045691 1361.90278 20446.377963 1460.166177 20446.377963 1581.3316 L 20446.377963 1584.072014 C 20446.377963 1705.041694 20348.045691 1803.305091 20226.99122 1803.305091 L 20073.028738 1803.305091 " stroke="#122584" stroke-width="219.94299" stroke-opacity="1" stroke-miterlimit="10"/><path stroke-linecap="round" transform="matrix(0.019942, 0, 0, -0.0199559, 86.896022, 450.303037)" fill="none" stroke-linejoin="round" d="M 15560.517664 6619.973238 L 14963.276432 8505.181956 L 14365.839319 6619.973238 " stroke="#122584" stroke-width="219.94299" stroke-opacity="1" stroke-miterlimit="10"/><path stroke-linecap="round" transform="matrix(0.019942, 0, 0, -0.0199559, 86.896022, 450.303037)" fill="none" stroke-linejoin="round" d="M 14601.484187 7363.799749 L 15324.872796 7363.799749 " stroke="#122584" stroke-width="219.94299" stroke-opacity="1" stroke-miterlimit="10"/><path stroke-linecap="round" transform="matrix(0.019942, 0, 0, -0.0199559, 86.896022, 450.303037)" fill="none" stroke-linejoin="round" d="M 17688.569073 6619.973238 L 16662.348405 6619.973238 L 17688.569073 8505.181956 L 16744.618434 8505.181956 " stroke="#122584" stroke-width="219.94299" stroke-opacity="1" stroke-miterlimit="10"/><path stroke-linecap="round" transform="matrix(0.019942, 0, 0, -0.0199559, 86.896022, 450.303037)" fill="none" stroke-linejoin="round" d="M 16006.342867 7562.675469 L 16439.044042 7562.675469 " stroke="#122584" stroke-width="219.94299" stroke-opacity="1" stroke-miterlimit="10"/><path stroke-linecap="round" transform="matrix(0.019942, 0, 0, -0.0199559, 86.896022, 450.303037)" fill="none" stroke-linejoin="round" d="M 13829.712965 5314.361967 L 16983.78916 5314.361967 " stroke="#122584" stroke-width="219.94299" stroke-opacity="1" stroke-miterlimit="10"/><path stroke-linecap="round" transform="matrix(0.019942, 0, 0, -0.0199559, 86.896022, 450.303037)" fill="none" stroke-linejoin="round" d="M 13829.712965 3997.984786 L 17137.164 3997.984786 " stroke="#122584" stroke-width="219.94299" stroke-opacity="1" stroke-miterlimit="10"/><path stroke-linecap="round" transform="matrix(0.019942, 0, 0, -0.0199559, 86.896022, 450.303037)" fill="none" stroke-linejoin="round" d="M 13829.712965 2620.33979 L 17699.734291 2620.33979 " stroke="#122584" stroke-width="219.94299" stroke-opacity="1" stroke-miterlimit="10"/><path fill="#ff957d" d="M 151.789062 295.707031 C 140.046875 288.144531 139.199219 271.546875 150.109375 262.828125 C 156.714844 257.546875 166.222656 257.0625 173.332031 261.640625 C 185.074219 269.203125 185.921875 285.796875 175.011719 294.519531 C 168.402344 299.800781 158.898438 300.285156 151.789062 295.707031 Z M 194.957031 319.761719 L 206.707031 306.734375 C 207.460938 305.898438 207.394531 304.613281 206.5625 303.859375 L 199.675781 297.636719 C 199.03125 297.054688 198.863281 296.128906 199.21875 295.339844 C 200.171875 293.25 200.929688 291.097656 201.503906 288.90625 C 201.722656 288.070312 202.4375 287.457031 203.304688 287.414062 L 212.574219 286.941406 C 213.695312 286.882812 214.558594 285.925781 214.5 284.804688 L 213.605469 267.273438 C 213.546875 266.152344 212.59375 265.289062 211.472656 265.347656 L 202.203125 265.820312 C 201.335938 265.863281 200.5625 265.328125 200.257812 264.515625 C 199.464844 262.398438 198.488281 260.335938 197.332031 258.351562 C 196.894531 257.605469 196.96875 256.664062 197.550781 256.019531 L 203.765625 249.128906 C 204.519531 248.292969 204.453125 247.007812 203.621094 246.253906 L 190.601562 234.492188 C 189.769531 233.738281 188.480469 233.804688 187.730469 234.640625 L 181.511719 241.53125 C 180.929688 242.175781 180.003906 242.347656 179.214844 241.988281 C 177.125 241.035156 174.976562 240.273438 172.789062 239.703125 C 171.949219 239.484375 171.339844 238.765625 171.292969 237.898438 L 170.820312 228.625 C 170.761719 227.5 169.808594 226.640625 168.6875 226.695312 L 151.167969 227.589844 C 150.046875 227.648438 149.1875 228.605469 149.242188 229.726562 L 149.71875 239 C 149.761719 239.871094 149.226562 240.644531 148.414062 240.949219 C 146.296875 241.742188 144.234375 242.71875 142.253906 243.875 C 141.507812 244.316406 140.566406 244.242188 139.921875 243.660156 L 133.035156 237.4375 C 132.203125 236.683594 130.917969 236.75 130.164062 237.585938 L 118.410156 250.613281 C 117.660156 251.445312 117.726562 252.734375 118.558594 253.488281 L 125.445312 259.707031 C 126.089844 260.289062 126.257812 261.214844 125.902344 262.007812 C 124.949219 264.097656 124.191406 266.25 123.617188 268.4375 C 123.398438 269.277344 122.679688 269.886719 121.816406 269.929688 L 112.546875 270.40625 C 111.425781 270.464844 110.5625 271.421875 110.621094 272.542969 L 111.515625 290.070312 C 111.570312 291.195312 112.527344 292.054688 113.648438 292 L 122.917969 291.527344 C 123.785156 291.480469 124.558594 292.015625 124.863281 292.828125 C 125.65625 294.949219 126.632812 297.007812 127.789062 298.992188 C 128.226562 299.742188 128.152344 300.683594 127.570312 301.324219 L 121.355469 308.214844 C 120.601562 309.050781 120.667969 310.335938 121.5 311.09375 L 134.519531 322.851562 C 135.351562 323.605469 136.640625 323.539062 137.390625 322.707031 L 143.609375 315.8125 C 144.191406 315.167969 145.117188 315 145.90625 315.359375 C 147.996094 316.308594 150.144531 317.070312 152.332031 317.644531 C 153.171875 317.863281 153.78125 318.578125 153.824219 319.449219 L 154.300781 328.722656 C 154.355469 329.84375 155.3125 330.707031 156.433594 330.652344 L 170.128906 329.949219 C 173.363281 329.785156 175.847656 327.027344 175.683594 323.792969 L 175.402344 318.34375 C 175.359375 317.476562 175.894531 316.699219 176.707031 316.398438 C 178.824219 315.601562 180.886719 314.625 182.867188 313.46875 C 183.613281 313.03125 184.554688 313.105469 185.195312 313.6875 L 192.085938 319.910156 C 192.917969 320.660156 194.203125 320.597656 194.957031 319.761719 " fill-opacity="1" fill-rule="nonzero"/><path stroke-linecap="round" transform="matrix(0.019942, 0, 0, -0.0199559, 86.896022, 450.303037)" fill="none" stroke-linejoin="round" d="M 3254.096658 7746.870402 C 2665.278309 8125.830435 2622.772128 8957.545921 3169.867819 9394.446124 C 3501.102625 9659.091767 3977.877029 9683.364001 4334.380487 9453.952245 C 4923.198835 9074.992212 4965.705016 8243.47247 4418.609326 7806.376523 C 4087.178639 7541.73088 3610.600115 7517.458647 3254.096658 7746.870402 Z M 5418.777817 6541.479966 L 6008.183809 7194.285602 C 6045.792965 7236.174779 6042.462987 7300.574495 6000.74033 7338.353052 L 5655.40209 7650.172956 C 5623.081722 7679.338785 5614.658838 7725.73007 5632.484011 7765.270321 C 5680.27898 7869.993264 5718.279898 7977.848108 5747.074408 8087.66039 C 5758.043745 8129.549568 5793.889972 8160.281347 5837.375559 8162.434529 L 6302.201221 8186.119531 C 6358.419074 8189.055689 6401.708779 8237.012924 6398.770564 8293.1914 L 6353.91381 9171.689658 C 6350.975595 9227.868134 6303.180626 9271.127518 6246.962773 9268.191361 L 5782.137111 9244.506359 C 5738.651524 9242.353177 5699.867082 9269.17008 5684.588362 9309.884794 C 5644.824515 9415.977944 5595.85426 9519.330681 5537.873478 9618.76854 C 5515.934804 9656.15561 5519.656543 9703.32987 5548.842815 9735.6276 L 5860.489519 10080.919696 C 5898.294556 10122.808874 5894.964579 10187.20859 5853.241921 10224.987147 L 5200.370479 10814.371785 C 5158.647822 10852.150342 5094.007085 10848.822697 5056.397929 10806.93352 L 4744.555344 10461.641424 C 4715.369072 10429.343694 4668.94527 10420.730966 4629.377304 10438.739397 C 4524.580958 10486.500889 4416.846396 10524.670933 4307.153025 10553.249531 C 4265.038605 10564.211185 4234.481166 10600.228047 4232.130594 10643.683175 L 4208.42899 11108.379001 C 4205.490775 11164.753221 4157.695806 11207.816861 4101.477953 11205.076447 L 3222.951575 11160.251113 C 3166.733722 11157.314955 3123.639898 11109.35772 3126.382232 11053.179244 L 3150.279717 10588.483418 C 3152.434408 10544.832547 3125.598708 10506.075271 3084.855456 10490.807253 C 2978.687942 10451.071258 2875.262763 10402.135303 2775.951086 10344.195133 C 2738.537811 10322.076081 2691.330485 10325.795214 2659.010117 10354.961043 L 2313.671877 10666.780946 C 2271.94922 10704.559503 2207.504364 10701.231858 2169.699327 10659.342681 L 1580.293336 10006.537045 C 1542.68418 9964.843612 1546.014157 9900.248152 1587.736814 9862.469595 L 1933.075054 9550.845435 C 1965.395422 9521.679606 1973.818306 9475.288321 1955.993133 9435.552326 C 1908.198164 9330.829383 1870.197246 9222.974539 1841.402736 9113.358001 C 1830.433399 9071.273079 1794.391291 9040.737044 1751.101586 9038.583862 L 1286.275924 9014.703116 C 1230.058071 9011.766959 1186.768365 8964.005467 1189.70658 8907.631247 L 1234.563334 8029.328733 C 1237.305668 7972.954513 1285.296518 7929.890873 1341.514371 7932.631286 L 1806.340034 7956.316288 C 1849.82562 7958.665214 1888.610062 7931.848311 1903.888782 7891.133596 C 1943.652629 7784.844703 1992.622884 7681.68771 2050.603666 7582.249851 C 2072.542341 7544.667037 2068.820601 7497.492777 2039.634329 7465.390791 L 1727.987625 7120.098695 C 1690.182588 7078.209517 1693.512566 7013.809801 1735.235223 6975.8355 L 2388.106665 6386.646606 C 2429.829322 6348.868049 2494.470059 6352.195694 2532.079215 6394.084871 L 2843.9218 6739.376967 C 2873.108072 6771.674697 2919.531874 6780.091682 2959.09984 6762.08325 C 3063.896186 6714.517502 3171.630748 6676.347458 3281.324119 6647.573116 C 3323.438539 6636.611462 3353.995978 6600.790344 3356.150669 6557.139472 L 3380.048154 6092.443646 C 3382.790488 6036.26517 3430.781338 5993.005786 3486.999191 5995.7462 L 4173.75805 6030.980087 C 4335.947535 6039.201328 4460.527864 6177.396464 4452.300861 6339.472346 L 4438.197428 6612.534973 C 4436.042736 6655.9901 4462.878436 6694.94312 4503.621689 6710.015394 C 4609.789202 6749.947133 4713.214381 6798.883088 4812.526058 6856.823258 C 4849.939333 6878.746566 4897.146659 6875.027434 4929.271147 6845.861605 L 5274.805267 6534.041701 C 5316.527924 6496.458888 5380.97278 6499.786533 5418.777817 6541.479966 Z M 5418.777817 6541.479966 " stroke="#122584" stroke-width="219.94299" stroke-opacity="1" stroke-miterlimit="10"/><path fill="#52ddc2" d="M 132.761719 387.4375 C 127.402344 383.175781 126.511719 375.375 130.769531 370.015625 C 135.027344 364.65625 142.820312 363.765625 148.179688 368.027344 C 153.535156 372.285156 154.425781 380.085938 150.167969 385.445312 C 145.910156 390.804688 138.117188 391.695312 132.761719 387.4375 Z M 169.839844 410.796875 L 179.285156 398.902344 C 179.8125 398.238281 179.703125 397.273438 179.039062 396.746094 L 172.761719 391.75 C 172.1875 391.296875 171.996094 390.523438 172.253906 389.839844 C 172.945312 388.023438 173.472656 386.171875 173.839844 384.296875 C 173.980469 383.574219 174.550781 383.023438 175.28125 382.941406 L 183.25 382.03125 C 184.09375 381.933594 184.699219 381.171875 184.601562 380.328125 L 182.875 365.234375 C 182.78125 364.394531 182.019531 363.789062 181.179688 363.882812 L 173.207031 364.796875 C 172.480469 364.878906 171.796875 364.46875 171.5 363.800781 C 170.71875 362.054688 169.785156 360.371094 168.707031 358.757812 C 168.296875 358.148438 168.3125 357.355469 168.765625 356.78125 L 173.757812 350.496094 C 174.285156 349.832031 174.175781 348.871094 173.511719 348.339844 L 161.625 338.886719 C 160.960938 338.359375 160 338.46875 159.472656 339.132812 L 154.480469 345.417969 C 154.023438 345.992188 153.253906 346.183594 152.566406 345.921875 C 150.757812 345.230469 148.902344 344.703125 147.03125 344.335938 C 146.3125 344.195312 145.757812 343.625 145.675781 342.894531 L 144.761719 334.917969 C 144.667969 334.074219 143.90625 333.472656 143.066406 333.570312 L 127.980469 335.292969 C 127.140625 335.390625 126.535156 336.148438 126.632812 336.992188 L 127.542969 344.96875 C 127.625 345.699219 127.21875 346.382812 126.546875 346.679688 C 124.804688 347.460938 123.121094 348.390625 121.511719 349.472656 C 120.902344 349.882812 120.105469 349.871094 119.535156 349.414062 L 113.253906 344.417969 C 112.589844 343.890625 111.625 344 111.101562 344.664062 L 101.652344 356.558594 C 101.125 357.222656 101.234375 358.1875 101.898438 358.714844 L 108.179688 363.710938 C 108.75 364.167969 108.945312 364.941406 108.683594 365.625 C 107.992188 367.4375 107.464844 369.289062 107.097656 371.167969 C 106.957031 371.886719 106.386719 372.4375 105.65625 372.519531 L 97.6875 373.433594 C 96.84375 373.527344 96.242188 374.289062 96.335938 375.128906 L 98.0625 390.226562 C 98.15625 391.070312 98.917969 391.675781 99.757812 391.578125 L 107.730469 390.667969 C 108.457031 390.582031 109.140625 390.992188 109.4375 391.660156 C 110.21875 393.40625 111.152344 395.09375 112.234375 396.703125 C 112.640625 397.3125 112.628906 398.105469 112.171875 398.679688 L 107.179688 404.964844 C 106.652344 405.628906 106.761719 406.59375 107.425781 407.121094 L 119.3125 416.574219 C 119.976562 417.101562 120.941406 416.992188 121.464844 416.332031 L 126.457031 410.042969 C 126.914062 409.472656 127.6875 409.277344 128.371094 409.539062 C 130.183594 410.230469 132.035156 410.757812 133.910156 411.125 C 134.628906 411.265625 135.179688 411.839844 135.261719 412.566406 L 136.171875 420.542969 C 136.269531 421.386719 137.03125 421.988281 137.871094 421.894531 L 152.957031 420.167969 C 153.796875 420.070312 154.402344 419.3125 154.304688 418.46875 L 153.394531 410.492188 C 153.3125 409.765625 153.722656 409.082031 154.390625 408.78125 C 156.132812 408.003906 157.820312 407.070312 159.429688 405.988281 C 160.035156 405.578125 160.832031 405.589844 161.402344 406.050781 L 167.683594 411.042969 C 168.347656 411.570312 169.3125 411.460938 169.839844 410.796875 " fill-opacity="1" fill-rule="nonzero"/><path stroke-linecap="round" transform="matrix(0.019942, 0, 0, -0.0199559, 86.896022, 450.303037)" fill="none" stroke-linejoin="round" d="M 2299.960206 3150.218307 C 2031.211445 3363.774814 1986.550573 3754.67522 2200.060885 4023.235739 C 2413.571198 4291.796258 2804.353834 4336.425849 3073.102594 4122.869343 C 3341.655474 3909.50858 3386.316347 3518.608174 3172.806034 3250.047655 C 2959.295721 2981.487136 2568.513085 2936.857545 2299.960206 3150.218307 Z M 4159.262854 1979.670271 L 4632.903162 2575.710199 C 4659.3471 2608.986649 4653.862431 2657.335372 4620.562658 2683.760787 L 4305.781858 2934.117132 C 4276.987348 2956.823414 4267.389178 2995.580691 4280.317325 3029.835859 C 4314.988266 3120.856735 4341.432203 3213.639305 4359.845019 3307.596338 C 4366.896736 3343.808944 4395.495365 3371.408823 4432.125116 3375.519443 L 4831.722398 3421.127752 C 4874.032699 3426.021348 4904.394257 3464.191393 4899.497231 3506.472057 L 4812.91782 4262.826173 C 4808.216676 4304.911094 4770.019877 4335.251386 4727.905457 4330.553534 L 4328.112294 4284.749481 C 4291.678424 4280.63886 4257.399246 4301.191961 4242.512288 4334.664154 C 4203.336084 4422.161641 4156.52052 4506.527227 4102.457358 4587.369424 C 4081.889851 4617.90546 4082.673375 4657.641455 4105.395573 4686.415797 L 4355.731518 5001.367601 C 4382.175456 5034.64405 4376.690787 5082.797029 4343.391014 5109.418189 L 3747.325068 5583.11823 C 3714.025294 5609.543646 3665.838563 5604.062819 3639.394625 5570.78637 L 3389.058681 5255.834565 C 3366.140601 5227.060224 3327.55204 5217.468777 3293.076981 5230.583613 C 3202.384068 5265.230269 3109.340583 5291.655684 3015.513574 5310.055603 C 2979.471467 5317.10238 2951.656362 5345.680978 2947.54286 5382.285072 L 2901.706701 5781.99395 C 2897.005557 5824.274615 2858.808758 5854.419163 2816.694338 5849.525567 L 2060.201836 5763.202543 C 2018.087417 5758.308948 1987.725859 5720.334647 1992.622884 5678.053982 L 2038.263162 5278.345104 C 2042.376663 5241.74101 2022.005037 5207.485842 1988.313502 5192.609312 C 1900.950567 5153.460548 1816.525847 5106.873519 1735.822866 5052.652481 C 1705.265427 5032.09938 1665.305699 5032.686612 1636.70707 5055.588639 L 1321.730388 5305.944983 C 1288.430615 5332.370398 1240.048003 5326.889571 1213.799946 5293.613122 L 739.963757 4697.573194 C 713.519819 4664.296745 719.004488 4615.948022 752.304261 4589.522606 L 1067.280942 4339.166262 C 1095.879571 4316.264235 1105.673623 4277.506959 1092.549594 4243.251791 C 1057.878653 4152.426659 1031.434716 4059.644089 1013.0219 3965.491312 C 1005.970183 3929.47445 977.371554 3901.874571 940.741803 3897.763951 L 541.144521 3851.959897 C 498.83422 3847.262046 468.668543 3809.092001 473.369688 3767.00708 L 559.949099 3010.457221 C 564.650243 2968.176556 602.847042 2937.836264 644.961462 2942.72986 L 1044.754625 2988.338169 C 1081.188495 2992.644533 1115.467674 2972.091432 1130.354631 2938.619239 C 1169.530835 2851.121752 1216.346399 2766.560423 1270.605442 2685.913969 C 1290.977068 2655.377934 1290.389425 2615.641938 1267.471346 2586.867597 L 1017.135401 2271.915793 C 990.691463 2238.639344 996.176132 2190.29062 1029.475905 2163.865205 L 1625.541851 1690.165164 C 1658.841625 1663.739748 1707.224237 1669.220575 1733.472294 1702.30128 L 1983.808238 2017.448828 C 2006.726318 2046.027426 2045.51076 2055.814617 2079.789938 2042.699781 C 2170.678732 2008.053125 2263.526336 1981.62771 2357.549226 1963.227791 C 2393.591334 1956.181013 2421.210558 1927.406672 2425.324059 1890.998322 L 2470.964337 1491.289444 C 2475.861362 1449.008779 2514.058161 1418.864231 2556.172581 1423.562083 L 3312.665083 1510.08085 C 3354.779502 1514.974446 3385.14106 1552.948747 3380.244035 1595.229412 L 3334.603757 1994.938289 C 3330.490256 2031.34664 3351.057763 2065.601808 3384.553417 2080.674082 C 3471.916353 2119.627102 3556.536953 2166.409875 3637.239934 2220.630912 C 3667.601492 2241.184013 3707.56122 2240.596782 3736.159849 2217.499011 L 4051.136531 1967.338411 C 4084.436304 1940.912995 4132.818916 1946.393822 4159.262854 1979.670271 Z M 4159.262854 1979.670271 " stroke="#122584" stroke-width="219.94299" stroke-opacity="1" stroke-miterlimit="10"/><path fill="#ffe780" d="M 214.152344 295.742188 C 215.375 295.679688 216.609375 295.652344 217.851562 295.652344 C 258.140625 295.652344 290.800781 328.332031 290.800781 368.648438 C 290.800781 408.964844 258.140625 441.648438 217.851562 441.648438 C 203.128906 441.648438 189.429688 437.285156 177.964844 429.78125 L 153.5 354.125 L 214.152344 295.742188 " fill-opacity="1" fill-rule="nonzero"/><path stroke-linecap="round" transform="matrix(0.019942, 0, 0, -0.0199559, 86.896022, 450.303037)" fill="none" stroke-linejoin="round" d="M 6381.337153 7745.108708 C 6442.647912 7748.240609 6504.546315 7749.610816 6566.83648 7749.610816 C 8587.153327 7749.610816 10224.914541 6112.018028 10224.914541 4091.746075 C 10224.914541 2071.474122 8587.153327 433.685591 6566.83648 433.685591 C 5828.560913 433.685591 5141.606173 652.331437 4566.695377 1028.355313 L 3339.892545 4819.521593 Z M 6381.337153 7745.108708 " stroke="#122584" stroke-width="219.94299" stroke-opacity="1" stroke-miterlimit="10"/><path fill="#ffffff" d="M 177.964844 429.515625 L 178.625 393.957031 C 178.625 393.957031 198.609375 399.457031 207.574219 396.9375 C 214.503906 394.992188 215.082031 389.292969 214.152344 386.019531 C 213.558594 383.925781 213.972656 383.824219 215.214844 382.8125 L 217.5625 380.910156 C 217.890625 380.644531 218.082031 380.234375 218.042969 379.8125 C 217.894531 378.265625 208.929688 374.636719 207.910156 373.632812 C 208.164062 372.222656 218.308594 370.109375 219.15625 367.890625 C 219.386719 367.28125 219.265625 366.59375 218.855469 366.089844 L 215.875 363.65625 C 215.628906 363.351562 215.957031 360.117188 216.023438 360.5 C 215.90625 359.828125 216.367188 359.183594 217.042969 359.089844 C 219.46875 358.75 222.710938 358.945312 224.847656 358.5625 C 225.453125 358.433594 226.070312 358.101562 226.625 357.625 C 228.941406 355.648438 229.128906 352.121094 227.238281 349.734375 L 216.472656 336.171875 C 215.898438 335.410156 215.582031 334.484375 215.5625 333.527344 L 215.5625 333.503906 C 215.535156 332.140625 218.730469 320.585938 218.425781 313.964844 C 218.117188 307.230469 216.488281 301.152344 214.152344 295.742188 C 175.578125 297.667969 144.898438 329.574219 144.898438 368.648438 C 144.898438 394.238281 158.054688 416.75 177.964844 429.78125 L 177.964844 429.515625 " fill-opacity="1" fill-rule="nonzero"/><path stroke-linecap="round" transform="matrix(0.019942, 0, 0, -0.0199559, 86.896022, 450.303037)" fill="none" stroke-linejoin="round" d="M 4566.695377 1041.665892 L 4599.79927 2823.521874 C 4599.79927 2823.521874 5601.926572 2547.914577 6051.473514 2674.16934 C 6398.966445 2771.649762 6427.956836 3057.239993 6381.337153 3221.273314 C 6351.563238 3326.192 6372.326626 3331.28134 6434.616791 3381.978989 L 6552.341284 3477.306228 C 6568.79529 3490.616808 6578.39346 3511.169909 6576.43465 3532.310241 C 6568.991171 3609.824794 6119.444228 3791.670801 6068.319282 3841.976963 C 6081.051548 3912.640481 6589.754559 4018.537887 6632.260741 4129.720376 C 6643.817721 4160.256412 6637.745409 4194.707324 6617.177902 4219.958277 L 6467.720683 4341.906676 C 6455.380179 4357.174694 6471.834185 4519.250575 6475.164162 4500.067681 C 6469.287731 4533.735618 6492.401692 4566.033348 6526.289108 4570.7312 C 6647.931222 4587.760912 6810.512469 4577.973721 6917.659388 4597.156615 C 6948.020946 4603.616161 6978.970147 4620.254386 7006.785252 4644.135132 C 7122.942697 4743.181504 7132.344986 4919.938172 7037.538572 5039.537646 L 6497.690479 5719.160184 C 6468.895969 5757.330229 6453.029607 5803.721514 6452.050201 5851.678749 L 6452.050201 5852.853212 C 6450.679034 5921.167805 6610.909709 6500.178021 6595.63099 6831.963793 C 6580.156389 7169.426137 6498.474003 7474.003519 6381.337153 7745.108708 C 4447.012074 7648.607005 2908.562537 6049.771494 2908.562537 4091.746075 C 2908.562537 2809.428319 3568.289815 1681.356692 4566.695377 1028.355313 Z M 4566.695377 1041.665892 " stroke="#122584" stroke-width="219.94299" stroke-opacity="1" stroke-miterlimit="10"/><path stroke-linecap="round" transform="matrix(0.019942, 0, 0, -0.0199559, 86.896022, 450.303037)" fill="none" stroke-linejoin="round" d="M 7268.874058 2963.28296 C 7786.979358 3392.157667 7793.24755 3913.031969 7383.660336 4410.417012 " stroke="#122584" stroke-width="219.94299" stroke-opacity="1" stroke-miterlimit="10"/><path stroke-linecap="round" transform="matrix(0.019942, 0, 0, -0.0199559, 86.896022, 450.303037)" fill="none" stroke-linejoin="round" d="M 7874.342293 2275.439182 C 8786.756087 3030.42309 8824.757005 4102.511985 8090.203178 4994.908055 " stroke="#122584" stroke-width="219.94299" stroke-opacity="1" stroke-miterlimit="10"/><path fill="#ffffff" d="M 231.851562 335.433594 L 250.25 323.261719 L 288.5 323.261719 C 297.546875 323.261719 304.878906 315.871094 304.878906 306.753906 L 304.878906 280.332031 C 304.878906 271.214844 297.546875 263.824219 288.5 263.824219 L 248.226562 263.824219 C 239.183594 263.824219 231.851562 271.214844 231.851562 280.332031 L 231.851562 335.433594 " fill-opacity="1" fill-rule="nonzero"/><path stroke-linecap="round" transform="matrix(0.019942, 0, 0, -0.0199559, 86.896022, 450.303037)" fill="none" stroke-linejoin="round" d="M 7268.874058 5756.155766 L 8191.473665 6366.093505 L 10109.54062 6366.093505 C 10563.201064 6366.093505 10930.86974 6736.44081 10930.86974 7193.306883 L 10930.86974 8517.318073 C 10930.86974 8974.184145 10563.201064 9344.53145 10109.54062 9344.53145 L 8090.007297 9344.53145 C 7636.542734 9344.53145 7268.874058 8974.184145 7268.874058 8517.318073 Z M 7268.874058 5756.155766 " stroke="#122584" stroke-width="219.94299" stroke-opacity="1" stroke-miterlimit="10"/><path stroke-linecap="round" transform="matrix(0.019942, 0, 0, -0.0199559, 86.896022, 450.303037)" fill="none" stroke-linejoin="round" d="M 8191.473665 8257.370281 L 10008.270132 8257.370281 " stroke="#122584" stroke-width="219.94299" stroke-opacity="1" stroke-miterlimit="10"/><path stroke-linecap="round" transform="matrix(0.019942, 0, 0, -0.0199559, 86.896022, 450.303037)" fill="none" stroke-linejoin="round" d="M 8191.473665 7384.548594 L 10008.270132 7384.548594 " stroke="#122584" stroke-width="219.94299" stroke-opacity="1" stroke-miterlimit="10"/></svg>