<svg xmlns="http://www.w3.org/2000/svg" xmlns:xlink="http://www.w3.org/1999/xlink" width="800" zoomAndPan="magnify" viewBox="0 0 600 449.999984" height="600" preserveAspectRatio="xMidYMid meet" version="1.0"><defs><clipPath id="043619691d"><path d="M 52.296875 315 L 188 315 L 188 347 L 52.296875 347 Z M 52.296875 315 " clip-rule="nonzero"/></clipPath><clipPath id="bb673ac9ac"><path d="M 52.296875 164 L 121 164 L 121 320 L 52.296875 320 Z M 52.296875 164 " clip-rule="nonzero"/></clipPath><clipPath id="5206b91d48"><path d="M 283 8.410156 L 323 8.410156 L 323 50 L 283 50 Z M 283 8.410156 " clip-rule="nonzero"/></clipPath></defs><g clip-path="url(#043619691d)"><path fill="#ce9930" d="M 120.144531 315.292969 L 52.882812 315.292969 C 52.882812 315.292969 55.851562 339.355469 68.378906 346.28125 L 171.910156 346.28125 C 184.441406 339.6875 187.40625 315.292969 187.40625 315.292969 Z M 120.144531 315.292969 " fill-opacity="1" fill-rule="nonzero"/></g><path fill="#ce9930" d="M 140.257812 152.789062 C 140.257812 143.226562 132.34375 135.316406 122.78125 135.316406 L 121.792969 135.316406 C 112.230469 135.316406 104.320312 143.226562 104.320312 152.789062 L 104.320312 153.777344 C 104.320312 163.335938 112.230469 171.246094 121.792969 171.246094 L 122.78125 171.246094 C 132.34375 171.246094 140.257812 163.335938 140.257812 153.777344 Z M 135.3125 154.105469 C 135.3125 160.699219 129.707031 166.300781 123.113281 166.300781 L 121.792969 166.300781 C 115.199219 166.300781 109.59375 161.027344 109.59375 154.105469 L 109.59375 152.789062 C 109.59375 146.195312 114.871094 140.261719 121.792969 140.261719 L 123.113281 140.261719 C 129.707031 140.261719 135.3125 145.867188 135.3125 152.789062 Z M 135.3125 154.105469 " fill-opacity="1" fill-rule="nonzero"/><path fill="#ce9930" d="M 119.152344 165.492188 L 122.199219 164.226562 L 186.355469 318.191406 L 183.3125 319.460938 Z M 119.152344 165.492188 " fill-opacity="1" fill-rule="nonzero"/><g clip-path="url(#bb673ac9ac)"><path fill="#ce9930" d="M 52.867188 318.304688 L 117.03125 164.339844 L 120.078125 165.609375 L 55.910156 319.570312 Z M 52.867188 318.304688 " fill-opacity="1" fill-rule="nonzero"/></g><path fill="#ce9930" d="M 480.195312 320.238281 L 412.933594 320.238281 C 412.933594 320.238281 415.902344 344.300781 428.429688 349.574219 L 531.960938 349.574219 C 544.492188 344.300781 547.457031 320.238281 547.457031 320.238281 Z M 480.195312 320.238281 " fill-opacity="1" fill-rule="nonzero"/><path fill="#ce9930" d="M 498.332031 157.730469 C 498.332031 148.171875 490.417969 140.261719 480.855469 140.261719 L 479.867188 140.261719 C 470.304688 140.261719 462.390625 148.171875 462.390625 157.730469 L 462.390625 158.722656 C 462.390625 168.28125 470.304688 176.191406 479.867188 176.191406 L 480.855469 176.191406 C 490.417969 176.191406 498.332031 168.28125 498.332031 158.722656 Z M 493.054688 157.402344 C 493.054688 163.996094 487.449219 169.597656 480.855469 169.597656 L 479.535156 169.597656 C 472.941406 169.597656 467.335938 163.996094 467.335938 157.402344 L 467.335938 156.082031 C 467.335938 149.492188 472.941406 143.886719 479.535156 143.886719 L 480.855469 143.886719 C 487.449219 143.886719 493.054688 149.492188 493.054688 156.082031 Z M 493.054688 157.402344 " fill-opacity="1" fill-rule="nonzero"/><path fill="#ce9930" d="M 479.238281 171.132812 L 482.28125 169.863281 L 546.558594 323.777344 L 543.515625 325.050781 Z M 479.238281 171.132812 " fill-opacity="1" fill-rule="nonzero"/><path fill="#ce9930" d="M 412.800781 323.644531 L 477.082031 169.730469 L 480.125 171 L 415.84375 324.914062 Z M 412.800781 323.644531 " fill-opacity="1" fill-rule="nonzero"/><path fill="#9b762c" d="M 369.082031 440.222656 L 235.546875 440.222656 C 235.546875 440.222656 206.859375 452.417969 205.871094 460.660156 L 398.425781 460.660156 C 397.765625 452.417969 369.082031 440.222656 369.082031 440.222656 Z M 369.082031 440.222656 " fill-opacity="1" fill-rule="nonzero"/><g clip-path="url(#5206b91d48)"><path fill="#ffb600" d="M 322.589844 14.34375 C 322.589844 14.34375 311.710938 9.730469 305.117188 8.738281 L 305.117188 8.410156 C 301.488281 8.410156 303.796875 8.410156 303.46875 8.410156 C 303.136719 8.410156 301.820312 8.410156 301.820312 8.410156 L 301.820312 8.738281 C 295.222656 10.058594 283.355469 14.34375 283.355469 14.34375 L 296.871094 49.613281 L 301.820312 49.945312 L 305.117188 49.945312 L 309.402344 49.613281 Z M 322.589844 14.34375 " fill-opacity="1" fill-rule="nonzero"/></g><path fill="#f4b73d" d="M 310.390625 107.957031 L 296.871094 107.957031 L 287.640625 270.792969 L 319.953125 270.792969 Z M 310.390625 107.957031 " fill-opacity="1" fill-rule="nonzero"/><path fill="#ffb600" d="M 302.808594 107.957031 L 284.671875 107.957031 L 291.597656 123.449219 L 314.679688 123.449219 L 321.601562 107.957031 Z M 302.808594 107.957031 " fill-opacity="1" fill-rule="nonzero"/><path fill="#ffb600" d="M 313.6875 60.160156 L 291.269531 60.160156 L 285.003906 85.875 L 321.601562 85.875 Z M 313.6875 60.160156 " fill-opacity="1" fill-rule="nonzero"/><path fill="#d19207" d="M 320.28125 54.886719 C 320.28125 60.492188 315.667969 65.105469 310.0625 65.105469 L 294.566406 65.105469 C 288.960938 65.105469 284.34375 60.492188 284.34375 54.886719 C 284.34375 49.285156 288.960938 44.667969 294.566406 44.667969 L 310.0625 44.667969 C 315.667969 44.667969 320.28125 49.285156 320.28125 54.886719 Z M 320.28125 54.886719 " fill-opacity="1" fill-rule="nonzero"/><path fill="#f2bb40" d="M 497.339844 119.824219 C 490.085938 123.449219 479.535156 128.726562 470.304688 125.097656 C 450.519531 117.847656 430.738281 105.320312 409.304688 99.386719 C 405.679688 98.398438 401.722656 97.410156 398.097656 96.421875 C 350.289062 84.226562 301.820312 79.609375 301.820312 79.609375 C 301.820312 79.609375 253.351562 84.226562 205.542969 96.421875 C 201.914062 97.410156 198.289062 98.398438 194.332031 99.386719 C 172.570312 105.652344 153.117188 118.175781 133.332031 125.097656 C 124.429688 128.726562 113.550781 123.449219 106.296875 119.824219 C 99.042969 118.175781 90.140625 127.078125 95.414062 135.976562 C 122.453125 173.554688 163.335938 130.703125 197.628906 128.066406 C 201.253906 127.078125 204.882812 126.085938 208.839844 125.097656 C 242.46875 116.859375 279.066406 110.265625 301.488281 114.550781 C 324.898438 110.265625 360.839844 116.527344 394.46875 125.097656 C 398.097656 126.085938 402.054688 127.078125 405.679688 128.066406 C 439.640625 130.371094 480.855469 173.554688 507.890625 135.976562 C 513.496094 127.078125 504.59375 117.847656 497.339844 119.824219 Z M 497.339844 119.824219 " fill-opacity="1" fill-rule="nonzero"/><path fill="#efaf48" d="M 321.601562 272.441406 C 321.601562 275.410156 319.292969 277.714844 316.65625 277.714844 L 291.597656 277.714844 C 288.960938 277.714844 286.652344 275.410156 286.652344 272.441406 C 286.652344 269.476562 288.960938 267.167969 291.597656 267.167969 L 316.65625 267.167969 C 319.292969 267.5 321.601562 269.476562 321.601562 272.441406 Z M 321.601562 272.441406 " fill-opacity="1" fill-rule="nonzero"/><path fill="#ffb600" d="M 318.304688 305.40625 C 325.558594 293.867188 318.304688 274.089844 318.304688 274.089844 L 289.289062 274.089844 C 289.289062 274.089844 282.035156 293.539062 289.289062 305.40625 L 294.894531 335.070312 C 294.894531 335.070312 281.707031 352.871094 294.894531 368.363281 L 313.027344 368.363281 C 326.21875 352.871094 313.027344 335.070312 313.027344 335.070312 Z M 318.304688 305.40625 " fill-opacity="1" fill-rule="nonzero"/><path fill="#ffb600" d="M 312.699219 366.714844 L 294.894531 366.714844 L 285.992188 398.359375 L 285.992188 415.171875 L 289.289062 440.222656 L 317.976562 440.222656 L 321.929688 415.171875 L 321.929688 398.359375 Z M 312.699219 366.714844 " fill-opacity="1" fill-rule="nonzero"/></svg>