<svg xmlns="http://www.w3.org/2000/svg" xmlns:xlink="http://www.w3.org/1999/xlink" width="800" zoomAndPan="magnify" viewBox="0 0 600 449.999984" height="600" preserveAspectRatio="xMidYMid meet" version="1.0"><path fill="#c8ede6" d="M 518.4375 263.621094 C 520.261719 259.875 521.882812 255.933594 523.28125 251.804688 C 539.300781 204.554688 515.074219 147.953125 464.066406 134.289062 C 458.554688 65.066406 409.882812 17.574219 354.914062 9.472656 C 292 0.199219 234.367188 40.148438 215.191406 103.640625 C 192.078125 95.453125 169.554688 96.453125 148.328125 108.851562 C 138.695312 113.300781 129.886719 119.871094 121.984375 128.511719 C 110.382812 141.195312 102.839844 157.207031 99.765625 174.089844 C 95.214844 174.808594 90.742188 175.523438 86.527344 177.03125 C 61.949219 185.84375 46.441406 203.976562 42.1875 231.292969 C 39.539062 248.300781 44.882812 265.269531 47.863281 272.121094 C 59.636719 299.214844 86.933594 314.566406 114.671875 310.507812 C 116.050781 310.304688 118.058594 310.925781 119.246094 311.921875 C 120.710938 355.21875 141.746094 393.511719 173.296875 415.386719 C 223.921875 450.488281 289.054688 439.675781 330.144531 391.542969 C 347.753906 409.542969 368.707031 418.289062 393.320312 415.113281 C 417.796875 411.957031 436.804688 398.457031 450.667969 376.503906 C 457.074219 378.226562 463.148438 380.707031 469.425781 381.394531 C 494.015625 384.082031 513.820312 374.191406 528.636719 352.203125 C 529.140625 351.449219 529.871094 350.871094 530.496094 350.210938 C 532.613281 345.355469 534.730469 340.503906 536.847656 335.652344 C 537.792969 328.289062 539.457031 320.917969 539.542969 313.566406 C 539.78125 293.765625 531.683594 275.714844 518.4375 263.621094 Z M 518.4375 263.621094 " fill-opacity="1" fill-rule="nonzero"/><path fill="#fdfcef" d="M 186.5 408.789062 C 186.5 408.789062 115.371094 408.789062 114.9375 408.789062 C 98.511719 408.789062 85.199219 395.476562 85.199219 379.058594 C 85.199219 364.738281 95.335938 352.78125 108.832031 349.964844 C 108.671875 348.714844 108.570312 347.441406 108.570312 346.148438 C 108.570312 329.144531 122.363281 315.359375 139.371094 315.359375 C 149.417969 315.359375 158.3125 320.1875 163.933594 327.625 C 165.367188 308.695312 182.289062 294.09375 202.078125 296.511719 C 216.554688 298.28125 228.519531 309.464844 231.183594 323.792969 C 232.035156 328.390625 231.953125 332.847656 231.101562 337.03125 C 234.980469 332.855469 240.503906 330.226562 246.65625 330.226562 C 257.910156 330.226562 267.105469 338.988281 267.828125 350.058594 C 272.9375 348.925781 278.5 349 284.359375 351.199219 C 295.554688 355.402344 303.523438 365.933594 303.992188 377.878906 C 304.65625 394.839844 291.09375 408.800781 274.269531 408.800781 C 272.992188 408.800781 268.503906 408.800781 267.46875 408.800781 L 205.710938 408.800781 " fill-opacity="1" fill-rule="nonzero"/><path fill="#472b29" d="M 114.9375 411.828125 L 186.5 411.828125 C 188.175781 411.828125 189.539062 410.46875 189.539062 408.789062 C 189.539062 407.109375 188.175781 405.746094 186.5 405.746094 L 114.9375 405.746094 C 100.214844 405.746094 88.238281 393.773438 88.238281 379.058594 C 88.238281 366.496094 97.15625 355.507812 109.445312 352.941406 C 110.996094 352.617188 112.035156 351.15625 111.84375 349.582031 C 111.703125 348.453125 111.605469 347.308594 111.605469 346.148438 C 111.605469 330.839844 124.058594 318.398438 139.359375 318.398438 C 148.109375 318.398438 156.183594 322.429688 161.492188 329.453125 C 162.253906 330.464844 163.550781 330.894531 164.777344 330.539062 C 165.988281 330.179688 166.859375 329.113281 166.949219 327.855469 C 167.582031 319.480469 171.691406 311.613281 178.207031 306.273438 C 184.792969 300.875 193.148438 298.476562 201.691406 299.53125 C 214.867188 301.148438 225.757812 311.34375 228.171875 324.347656 C 228.929688 328.402344 228.902344 332.464844 228.09375 336.421875 C 227.828125 337.761719 228.472656 339.113281 229.6875 339.730469 C 230.90625 340.363281 232.382812 340.097656 233.308594 339.097656 C 236.804688 335.339844 241.539062 333.265625 246.632812 333.265625 C 256.179688 333.265625 264.140625 340.734375 264.769531 350.257812 C 264.828125 351.144531 265.265625 351.953125 265.980469 352.484375 C 266.691406 353.023438 267.609375 353.214844 268.460938 353.023438 C 273.578125 351.898438 278.421875 352.222656 283.261719 354.039062 C 293.417969 357.851562 300.511719 367.472656 300.925781 377.988281 C 301.210938 385.328125 298.570312 392.277344 293.496094 397.558594 C 288.417969 402.839844 281.578125 405.753906 274.246094 405.753906 L 205.6875 405.753906 C 204.007812 405.753906 202.644531 407.117188 202.644531 408.792969 C 202.644531 410.472656 204.007812 411.835938 205.6875 411.835938 L 274.257812 411.835938 C 283.257812 411.835938 291.648438 408.257812 297.890625 401.777344 C 304.125 395.292969 307.367188 386.761719 307.015625 377.757812 C 306.511719 364.828125 297.828125 353.011719 285.417969 348.355469 C 280.550781 346.523438 275.523438 345.933594 270.402344 346.535156 C 268.109375 335.457031 258.246094 327.1875 246.644531 327.1875 C 242.484375 327.1875 238.40625 328.28125 234.816406 330.289062 C 234.816406 327.941406 234.605469 325.59375 234.171875 323.238281 C 231.269531 307.660156 218.226562 295.429688 202.445312 293.496094 C 192.230469 292.25 182.246094 295.113281 174.359375 301.574219 C 168.257812 306.578125 163.921875 313.4375 161.960938 320.988281 C 155.804688 315.417969 147.851562 312.316406 139.367188 312.316406 C 120.707031 312.316406 105.527344 327.496094 105.527344 346.148438 C 105.527344 346.652344 105.539062 347.15625 105.570312 347.65625 C 91.855469 351.746094 82.160156 364.535156 82.160156 379.058594 C 82.152344 397.136719 96.859375 411.828125 114.9375 411.828125 Z M 114.9375 411.828125 " fill-opacity="1" fill-rule="nonzero"/><path fill="#fdfcef" d="M 203.734375 343.308594 C 214.734375 342.582031 224.207031 350.179688 224.882812 360.265625 C 224.96875 361.519531 224.914062 362.753906 224.730469 363.953125 C 226.851562 361.558594 229.992188 359.933594 233.601562 359.695312 C 240.203125 359.265625 245.902344 363.617188 246.730469 369.546875 C 247.929688 369.21875 249.179688 369 250.476562 368.914062 C 260.101562 368.28125 268.386719 374.929688 268.984375 383.757812 " fill-opacity="1" fill-rule="nonzero"/><path fill="#472b29" d="M 268.976562 385.273438 C 269.015625 385.273438 269.050781 385.273438 269.082031 385.265625 C 269.921875 385.210938 270.554688 384.488281 270.5 383.648438 C 269.847656 374 260.839844 366.6875 250.375 367.386719 C 249.539062 367.441406 248.710938 367.546875 247.886719 367.710938 C 246.21875 361.824219 240.242188 357.707031 233.492188 358.183594 C 230.90625 358.347656 228.484375 359.148438 226.410156 360.503906 C 226.410156 360.390625 226.398438 360.28125 226.390625 360.164062 C 225.660156 349.25 215.519531 340.949219 203.625 341.792969 C 202.785156 341.847656 202.152344 342.570312 202.207031 343.410156 C 202.261719 344.25 202.960938 344.960938 203.824219 344.820312 C 213.871094 344.183594 222.734375 351.128906 223.355469 360.371094 C 223.429688 361.488281 223.378906 362.621094 223.214844 363.734375 C 223.113281 364.398438 223.464844 365.054688 224.074219 365.339844 C 224.679688 365.625 225.40625 365.472656 225.855469 364.96875 C 227.820312 362.75 230.601562 361.417969 233.683594 361.214844 C 239.472656 361.007812 244.484375 364.597656 245.207031 369.753906 C 245.269531 370.1875 245.511719 370.574219 245.878906 370.816406 C 246.242188 371.054688 246.6875 371.128906 247.117188 371.011719 C 248.257812 370.703125 249.414062 370.507812 250.566406 370.421875 C 259.328125 369.863281 266.914062 375.871094 267.453125 383.855469 C 267.519531 384.660156 268.1875 385.273438 268.976562 385.273438 Z M 268.976562 385.273438 " fill-opacity="1" fill-rule="nonzero"/><path fill="#fdfcef" d="M 102.894531 353.449219 C 113.230469 348.578125 125.183594 352.027344 129.59375 361.15625 C 130.144531 362.285156 130.550781 363.460938 130.816406 364.644531 " fill-opacity="1" fill-rule="nonzero"/><path fill="#472b29" d="M 130.816406 366.167969 C 130.925781 366.167969 131.042969 366.152344 131.160156 366.128906 C 131.972656 365.941406 132.492188 365.125 132.300781 364.304688 C 132.003906 362.984375 131.554688 361.703125 130.96875 360.492188 C 126.207031 350.636719 113.316406 346.878906 102.246094 352.070312 C 101.488281 352.433594 101.160156 353.335938 101.519531 354.09375 C 101.875 354.863281 102.789062 355.164062 103.542969 354.824219 C 113.121094 350.300781 124.191406 353.445312 128.234375 361.8125 C 128.71875 362.816406 129.089844 363.878906 129.339844 364.980469 C 129.496094 365.691406 130.125 366.167969 130.816406 366.167969 Z M 130.816406 366.167969 " fill-opacity="1" fill-rule="nonzero"/><path fill="#ffffff" d="M 254.789062 71.757812 L 193.769531 71.757812 C 192.089844 71.757812 190.726562 70.394531 190.726562 68.714844 C 190.726562 67.039062 192.089844 65.675781 193.769531 65.675781 L 254.789062 65.675781 C 256.46875 65.675781 257.832031 67.039062 257.832031 68.714844 C 257.832031 70.394531 256.476562 71.757812 254.789062 71.757812 Z M 275.359375 68.714844 C 275.359375 67.039062 273.996094 65.675781 272.320312 65.675781 L 263.519531 65.675781 C 261.84375 65.675781 260.480469 67.039062 260.480469 68.714844 C 260.480469 70.394531 261.84375 71.757812 263.519531 71.757812 L 272.320312 71.757812 C 274.003906 71.757812 275.359375 70.394531 275.359375 68.714844 Z M 300.03125 68.714844 C 300.03125 67.039062 298.667969 65.675781 296.988281 65.675781 L 281.5 65.675781 C 279.820312 65.675781 278.457031 67.039062 278.457031 68.714844 C 278.457031 70.394531 279.820312 71.757812 281.5 71.757812 L 296.988281 71.757812 C 298.675781 71.757812 300.03125 70.394531 300.03125 68.714844 Z M 300.03125 80.878906 C 300.03125 79.199219 298.667969 77.835938 296.988281 77.835938 L 238.484375 77.835938 C 236.804688 77.835938 235.445312 79.199219 235.445312 80.878906 C 235.445312 82.558594 236.804688 83.917969 238.484375 83.917969 L 296.988281 83.917969 C 298.675781 83.917969 300.03125 82.558594 300.03125 80.878906 Z M 230.992188 80.878906 C 230.992188 79.199219 229.628906 77.835938 227.949219 77.835938 L 224.417969 77.835938 C 222.742188 77.835938 221.378906 79.199219 221.378906 80.878906 C 221.378906 82.558594 222.742188 83.917969 224.417969 83.917969 L 227.949219 83.917969 C 229.628906 83.917969 230.992188 82.558594 230.992188 80.878906 Z M 216.535156 80.878906 C 216.535156 79.199219 215.171875 77.835938 213.492188 77.835938 L 204.628906 77.835938 C 202.949219 77.835938 201.585938 79.199219 201.585938 80.878906 C 201.585938 82.558594 202.949219 83.917969 204.628906 83.917969 L 213.492188 83.917969 C 215.171875 83.917969 216.535156 82.558594 216.535156 80.878906 Z M 272.113281 56.554688 C 272.113281 54.875 270.75 53.511719 269.070312 53.511719 L 238.484375 53.511719 C 236.804688 53.511719 235.445312 54.875 235.445312 56.554688 C 235.445312 58.234375 236.804688 59.59375 238.484375 59.59375 L 269.070312 59.59375 C 270.753906 59.59375 272.113281 58.234375 272.113281 56.554688 Z M 272.113281 44.390625 C 272.113281 42.714844 270.75 41.351562 269.070312 41.351562 L 261.421875 41.351562 C 259.742188 41.351562 258.378906 42.714844 258.378906 44.390625 C 258.378906 46.070312 259.742188 47.433594 261.421875 47.433594 L 269.070312 47.433594 C 270.753906 47.433594 272.113281 46.070312 272.113281 44.390625 Z M 252.222656 93.039062 C 252.222656 91.363281 250.859375 90 249.179688 90 L 238.484375 90 C 236.804688 90 235.445312 91.363281 235.445312 93.039062 C 235.445312 94.71875 236.804688 96.082031 238.484375 96.082031 L 249.179688 96.082031 C 250.867188 96.082031 252.222656 94.71875 252.222656 93.039062 Z M 515.457031 199.460938 L 454.433594 199.460938 C 452.757812 199.460938 451.394531 198.097656 451.394531 196.417969 C 451.394531 194.742188 452.757812 193.378906 454.433594 193.378906 L 515.464844 193.378906 C 517.140625 193.378906 518.503906 194.742188 518.503906 196.417969 C 518.503906 198.097656 517.140625 199.460938 515.457031 199.460938 Z M 536.027344 196.417969 C 536.027344 194.742188 534.664062 193.378906 532.984375 193.378906 L 524.1875 193.378906 C 522.507812 193.378906 521.144531 194.742188 521.144531 196.417969 C 521.144531 198.097656 522.507812 199.460938 524.1875 199.460938 L 532.984375 199.460938 C 534.671875 199.460938 536.027344 198.097656 536.027344 196.417969 Z M 560.695312 196.417969 C 560.695312 194.742188 559.335938 193.378906 557.65625 193.378906 L 542.164062 193.378906 C 540.488281 193.378906 539.125 194.742188 539.125 196.417969 C 539.125 198.097656 540.488281 199.460938 542.164062 199.460938 L 557.65625 199.460938 C 559.335938 199.460938 560.695312 198.097656 560.695312 196.417969 Z M 548.371094 172.09375 C 548.371094 170.417969 547.007812 169.054688 545.328125 169.054688 L 486.824219 169.054688 C 485.148438 169.054688 483.785156 170.417969 483.785156 172.09375 C 483.785156 173.773438 485.148438 175.136719 486.824219 175.136719 L 545.328125 175.136719 C 547.007812 175.136719 548.371094 173.773438 548.371094 172.09375 Z M 479.332031 172.09375 C 479.332031 170.417969 477.96875 169.054688 476.289062 169.054688 L 472.761719 169.054688 C 471.082031 169.054688 469.71875 170.417969 469.71875 172.09375 C 469.71875 173.773438 471.082031 175.136719 472.761719 175.136719 L 476.289062 175.136719 C 477.972656 175.136719 479.332031 173.773438 479.332031 172.09375 Z M 464.867188 172.09375 C 464.867188 170.417969 463.507812 169.054688 461.828125 169.054688 L 452.96875 169.054688 C 451.289062 169.054688 449.925781 170.417969 449.925781 172.09375 C 449.925781 173.773438 451.289062 175.136719 452.96875 175.136719 L 461.828125 175.136719 C 463.511719 175.136719 464.867188 173.773438 464.867188 172.09375 Z M 532.777344 184.257812 C 532.777344 182.578125 531.414062 181.214844 529.734375 181.214844 L 499.152344 181.214844 C 497.472656 181.214844 496.109375 182.578125 496.109375 184.257812 C 496.109375 185.933594 497.472656 187.296875 499.152344 187.296875 L 529.734375 187.296875 C 531.414062 187.296875 532.777344 185.933594 532.777344 184.257812 Z M 532.777344 172.09375 C 532.777344 170.417969 531.414062 169.054688 529.734375 169.054688 L 522.089844 169.054688 C 520.410156 169.054688 519.046875 170.417969 519.046875 172.09375 C 519.046875 173.773438 520.410156 175.136719 522.089844 175.136719 L 529.734375 175.136719 C 531.414062 175.136719 532.777344 173.773438 532.777344 172.09375 Z M 493.335938 184.257812 C 493.335938 182.578125 491.972656 181.214844 490.292969 181.214844 L 479.597656 181.214844 C 477.917969 181.214844 476.554688 182.578125 476.554688 184.257812 C 476.554688 185.933594 477.917969 187.296875 479.597656 187.296875 L 490.292969 187.296875 C 491.980469 187.296875 493.335938 185.933594 493.335938 184.257812 Z M 493.335938 184.257812 " fill-opacity="1" fill-rule="nonzero"/><path fill="#fdfcef" d="M 469.425781 97.828125 C 480.882812 97.828125 490.824219 97.828125 490.964844 97.828125 C 503.800781 97.828125 514.210938 87.648438 514.210938 75.089844 C 514.210938 64.132812 506.289062 54.992188 495.746094 52.832031 C 495.867188 51.871094 495.953125 50.90625 495.953125 49.914062 C 495.953125 36.90625 485.171875 26.363281 471.878906 26.363281 C 464.03125 26.363281 457.074219 30.050781 452.683594 35.746094 C 451.558594 21.265625 438.335938 10.09375 422.871094 11.949219 C 411.5625 13.304688 402.203125 21.855469 400.125 32.8125 C 399.453125 36.328125 399.527344 39.738281 400.191406 42.9375 C 397.160156 39.746094 392.839844 37.734375 388.035156 37.734375 C 379.238281 37.734375 372.050781 44.433594 371.488281 52.898438 C 367.488281 52.035156 363.144531 52.089844 358.570312 53.769531 C 349.820312 56.980469 343.59375 65.039062 343.226562 74.175781 C 342.710938 87.148438 353.308594 97.828125 366.457031 97.828125 C 367.453125 97.828125 370.964844 97.828125 371.773438 97.828125 L 420.042969 97.828125 M 430.019531 97.828125 L 432.210938 97.828125 " fill-opacity="1" fill-rule="nonzero"/><path fill="#472b29" d="M 490.964844 100.871094 L 469.425781 100.871094 C 467.746094 100.871094 466.382812 99.511719 466.382812 97.832031 C 466.382812 96.152344 467.746094 94.792969 469.425781 94.792969 L 490.964844 94.792969 C 502.101562 94.792969 511.167969 85.957031 511.167969 75.09375 C 511.167969 65.828125 504.425781 57.714844 495.128906 55.816406 C 493.574219 55.496094 492.519531 54.03125 492.722656 52.449219 C 492.832031 51.617188 492.902344 50.777344 492.902344 49.914062 C 492.902344 38.601562 483.46875 29.402344 471.871094 29.402344 C 465.226562 29.402344 459.109375 32.386719 455.078125 37.605469 C 454.3125 38.601562 453.003906 39.011719 451.800781 38.664062 C 450.597656 38.296875 449.738281 37.242188 449.640625 35.988281 C 449.160156 29.785156 446.203125 24.167969 441.3125 20.152344 C 436.269531 16.015625 429.84375 14.199219 423.222656 14.964844 C 413.210938 16.164062 404.9375 23.734375 403.105469 33.371094 C 402.53125 36.382812 402.550781 39.394531 403.160156 42.324219 C 403.433594 43.65625 402.792969 45.007812 401.589844 45.636719 C 400.390625 46.257812 398.914062 46.023438 397.976562 45.03125 C 395.371094 42.289062 391.835938 40.773438 388.027344 40.773438 C 380.917969 40.773438 374.980469 46.191406 374.515625 53.101562 C 374.457031 53.988281 374.015625 54.789062 373.3125 55.324219 C 372.605469 55.855469 371.707031 56.054688 370.839844 55.867188 C 366.953125 55.027344 363.28125 55.269531 359.609375 56.628906 C 351.933594 59.441406 346.566406 66.546875 346.257812 74.292969 C 346.042969 79.621094 347.976562 84.683594 351.703125 88.558594 C 355.566406 92.574219 360.804688 94.785156 366.441406 94.785156 L 420.023438 94.785156 C 421.703125 94.785156 423.066406 96.148438 423.066406 97.828125 C 423.066406 99.503906 421.703125 100.867188 420.023438 100.867188 L 366.441406 100.867188 C 359.234375 100.867188 352.261719 97.917969 347.316406 92.773438 C 342.429688 87.6875 339.898438 81.042969 340.179688 74.054688 C 340.585938 63.871094 347.550781 54.570312 357.511719 50.910156 C 361.222656 49.542969 365.054688 49.0625 368.949219 49.425781 C 371.042969 40.9375 378.859375 34.6875 388.023438 34.6875 C 391.023438 34.6875 393.964844 35.375 396.625 36.652344 C 396.679688 35.179688 396.851562 33.707031 397.128906 32.230469 C 399.449219 20.011719 409.882812 10.429688 422.5 8.921875 C 430.804688 7.90625 438.835938 10.246094 445.167969 15.433594 C 449.71875 19.160156 452.945312 24.003906 454.574219 29.433594 C 459.386719 25.492188 465.441406 23.308594 471.867188 23.308594 C 486.820312 23.308594 498.980469 35.238281 498.980469 49.902344 C 498.980469 50.109375 498.980469 50.316406 498.976562 50.527344 C 509.707031 53.902344 517.246094 63.832031 517.246094 75.082031 C 517.25 89.308594 505.460938 100.871094 490.964844 100.871094 Z M 432.210938 100.871094 L 430.019531 100.871094 C 428.339844 100.871094 426.976562 99.511719 426.976562 97.832031 C 426.976562 96.152344 428.339844 94.792969 430.019531 94.792969 L 432.210938 94.792969 C 433.890625 94.792969 435.253906 96.152344 435.253906 97.832031 C 435.253906 99.511719 433.890625 100.871094 432.210938 100.871094 Z M 432.210938 100.871094 " fill-opacity="1" fill-rule="nonzero"/><path fill="#472b29" d="M 480.578125 65.578125 C 480.46875 65.578125 480.359375 65.566406 480.242188 65.542969 C 479.421875 65.359375 478.90625 64.542969 479.09375 63.722656 C 479.320312 62.726562 479.664062 61.746094 480.128906 60.8125 C 483.800781 53.367188 493.949219 50.613281 502.773438 54.6875 C 503.53125 55.039062 503.867188 55.941406 503.515625 56.699219 C 503.160156 57.464844 502.253906 57.789062 501.496094 57.441406 C 494.1875 54.0625 485.816406 56.175781 482.859375 62.148438 C 482.507812 62.867188 482.238281 63.621094 482.070312 64.378906 C 481.902344 65.097656 481.277344 65.578125 480.578125 65.578125 Z M 449.191406 100.871094 L 442.457031 100.871094 C 440.777344 100.871094 439.414062 99.511719 439.414062 97.832031 C 439.414062 96.152344 440.777344 94.792969 442.457031 94.792969 L 449.191406 94.792969 C 450.871094 94.792969 452.234375 96.152344 452.234375 97.832031 C 452.234375 99.511719 450.875 100.871094 449.191406 100.871094 Z M 449.191406 100.871094 " fill-opacity="1" fill-rule="nonzero"/><path fill="#fdfcee" d="M 298.308594 261.789062 L 151.382812 261.789062 C 133.726562 261.789062 119.277344 246.941406 119.277344 228.792969 L 119.277344 163.792969 C 119.277344 145.648438 133.726562 130.796875 151.382812 130.796875 L 425.753906 130.796875 " fill-opacity="1" fill-rule="nonzero"/><path fill="#472b29" d="M 298.308594 266.046875 L 151.382812 266.046875 C 131.335938 266.046875 115.019531 249.335938 115.019531 228.792969 L 115.019531 163.792969 C 115.019531 143.253906 131.335938 126.535156 151.382812 126.535156 L 425.753906 126.535156 C 428.109375 126.535156 430.015625 128.4375 430.015625 130.792969 C 430.015625 133.144531 428.109375 135.046875 425.753906 135.046875 L 151.382812 135.046875 C 136.027344 135.046875 123.535156 147.941406 123.535156 163.792969 L 123.535156 228.792969 C 123.535156 244.636719 136.027344 257.535156 151.382812 257.535156 L 298.308594 257.535156 C 300.664062 257.535156 302.566406 259.4375 302.566406 261.789062 C 302.566406 264.144531 300.65625 266.046875 298.308594 266.046875 Z M 298.308594 266.046875 " fill-opacity="1" fill-rule="nonzero"/><path fill="#8f9eb6" d="M 387.53125 177.730469 L 490.261719 273.570312 L 440.613281 277.84375 L 468.867188 340.308594 L 450.03125 348.867188 L 422.640625 285.542969 L 387.542969 318.917969 L 387.542969 177.730469 Z M 387.53125 177.730469 " fill-opacity="1" fill-rule="nonzero"/><path fill="#472b29" d="M 450.03125 353.128906 C 449.511719 353.128906 448.988281 353.03125 448.496094 352.84375 C 447.433594 352.433594 446.574219 351.609375 446.117188 350.554688 L 421.148438 292.835938 L 390.476562 322.003906 C 389.234375 323.183594 387.421875 323.507812 385.863281 322.839844 C 384.300781 322.167969 383.285156 320.632812 383.285156 318.921875 L 383.285156 177.730469 C 383.285156 176.042969 384.289062 174.503906 385.839844 173.828125 C 387.390625 173.152344 389.195312 173.460938 390.4375 174.617188 L 493.171875 270.457031 C 494.402344 271.597656 494.839844 273.367188 494.289062 274.957031 C 493.742188 276.542969 492.308594 277.664062 490.628906 277.808594 L 446.96875 281.574219 L 472.742188 338.558594 C 473.707031 340.699219 472.761719 343.214844 470.625 344.1875 L 451.792969 352.746094 C 451.234375 352.996094 450.632812 353.128906 450.03125 353.128906 Z M 422.640625 281.285156 C 422.921875 281.285156 423.207031 281.316406 423.492188 281.378906 C 424.855469 281.652344 426 282.574219 426.550781 283.859375 L 452.21875 343.199219 L 463.234375 338.199219 L 436.738281 279.601562 C 436.164062 278.34375 436.242188 276.890625 436.945312 275.699219 C 437.644531 274.507812 438.871094 273.726562 440.253906 273.605469 L 480.363281 270.144531 L 391.789062 187.527344 L 391.792969 308.996094 L 419.703125 282.464844 C 420.503906 281.699219 421.558594 281.285156 422.640625 281.285156 Z M 422.640625 281.285156 " fill-opacity="1" fill-rule="nonzero"/><path fill="#1f212b" d="M 159.703125 174.734375 L 159.703125 192.050781 C 162.484375 188.445312 165.902344 187.375 169.445312 187.375 C 178.304688 187.375 182.226562 193.382812 182.226562 202.546875 L 182.226562 218.984375 L 174.507812 218.984375 L 174.507812 202.609375 C 174.507812 196.917969 171.539062 194.515625 167.417969 194.515625 C 162.867188 194.515625 159.699219 198.378906 159.699219 203.054688 L 159.699219 218.984375 L 151.976562 218.984375 L 151.976562 174.722656 Z M 159.703125 174.734375 " fill-opacity="1" fill-rule="nonzero"/><path fill="#1f212b" d="M 200.621094 179.03125 L 200.621094 187.886719 L 209.222656 187.886719 L 209.222656 194.523438 L 200.550781 194.523438 L 200.550781 207.992188 C 200.550781 210.964844 202.199219 212.414062 204.605469 212.414062 C 205.808594 212.414062 207.195312 212.027344 208.332031 211.464844 L 210.480469 218.042969 C 208.265625 218.929688 206.429688 219.308594 204.09375 219.367188 C 197.328125 219.625 192.894531 215.761719 192.894531 207.984375 L 192.894531 194.515625 L 187.078125 194.515625 L 187.078125 187.882812 L 192.894531 187.882812 L 192.894531 179.847656 Z M 200.621094 179.03125 " fill-opacity="1" fill-rule="nonzero"/><path fill="#1f212b" d="M 225.601562 179.03125 L 225.601562 187.886719 L 234.203125 187.886719 L 234.203125 194.523438 L 225.53125 194.523438 L 225.53125 207.992188 C 225.53125 210.964844 227.183594 212.414062 229.585938 212.414062 C 230.789062 212.414062 232.175781 212.027344 233.3125 211.464844 L 235.460938 218.042969 C 233.246094 218.929688 231.410156 219.308594 229.074219 219.367188 C 222.308594 219.625 217.875 215.761719 217.875 207.984375 L 217.875 194.515625 L 212.058594 194.515625 L 212.058594 187.882812 L 217.875 187.882812 L 217.875 179.847656 Z M 225.601562 179.03125 " fill-opacity="1" fill-rule="nonzero"/><path fill="#1f212b" d="M 240.707031 232.011719 L 240.707031 187.820312 L 247.914062 187.820312 L 248.421875 192.121094 C 250.824219 188.640625 254.996094 187.121094 258.542969 187.121094 C 268.15625 187.121094 274.550781 194.265625 274.550781 203.4375 C 274.550781 212.546875 268.796875 219.746094 258.800781 219.746094 C 255.507812 219.746094 250.640625 218.738281 248.425781 215.324219 L 248.425781 232.015625 L 240.707031 232.015625 Z M 266.832031 203.4375 C 266.832031 198.566406 263.539062 194.582031 257.972656 194.582031 C 252.40625 194.582031 249.113281 198.566406 249.113281 203.4375 C 249.113281 208.300781 252.722656 212.289062 257.972656 212.289062 C 263.222656 212.289062 266.832031 208.308594 266.832031 203.4375 Z M 266.832031 203.4375 " fill-opacity="1" fill-rule="nonzero"/><path fill="#1f212b" d="M 288.003906 196.675781 C 288.003906 202.554688 279.023438 202.554688 279.023438 196.675781 C 279.023438 190.734375 288.003906 190.734375 288.003906 196.675781 Z M 288.003906 215.007812 C 288.003906 220.890625 279.023438 220.890625 279.023438 215.007812 C 279.023438 209.066406 288.003906 209.066406 288.003906 215.007812 Z M 288.003906 215.007812 " fill-opacity="1" fill-rule="nonzero"/><path fill="#1f212b" d="M 319.871094 169.558594 L 298.304688 224.289062 L 290.109375 224.289062 L 311.609375 169.558594 Z M 319.871094 169.558594 " fill-opacity="1" fill-rule="nonzero"/><path fill="#1f212b" d="M 348.636719 169.558594 L 327.066406 224.289062 L 318.871094 224.289062 L 340.375 169.558594 Z M 348.636719 169.558594 " fill-opacity="1" fill-rule="nonzero"/><path fill="#472b29" d="M 400.09375 213.835938 C 398.917969 213.835938 397.804688 213.152344 397.308594 212.011719 L 383.996094 181.605469 C 383.320312 180.066406 384.019531 178.273438 385.566406 177.605469 C 387.097656 176.949219 388.898438 177.632812 389.566406 179.171875 L 402.878906 209.578125 C 403.554688 211.117188 402.855469 212.910156 401.308594 213.578125 C 400.914062 213.757812 400.5 213.835938 400.09375 213.835938 Z M 400.09375 213.835938 " fill-opacity="1" fill-rule="nonzero"/><path fill="#472b29" d="M 411.5 237.78125 C 410.34375 237.78125 409.238281 237.121094 408.726562 235.996094 L 403.214844 223.832031 C 402.519531 222.304688 403.203125 220.5 404.730469 219.8125 C 406.257812 219.121094 408.0625 219.800781 408.757812 221.328125 L 414.269531 233.488281 C 414.960938 235.015625 414.28125 236.820312 412.753906 237.507812 C 412.347656 237.691406 411.921875 237.78125 411.5 237.78125 Z M 411.5 237.78125 " fill-opacity="1" fill-rule="nonzero"/></svg>