<svg xmlns="http://www.w3.org/2000/svg" xmlns:xlink="http://www.w3.org/1999/xlink" width="800" zoomAndPan="magnify" viewBox="0 0 600 449.999984" height="600" preserveAspectRatio="xMidYMid meet" version="1.0"><defs><clipPath id="1a7bce8374"><path d="M 320 13.804688 L 404 13.804688 L 404 405.304688 L 320 405.304688 Z M 320 13.804688 " clip-rule="nonzero"/></clipPath><clipPath id="c48b59ac55"><path d="M 292 138 L 331 138 L 331 405.304688 L 292 405.304688 Z M 292 138 " clip-rule="nonzero"/></clipPath><clipPath id="63c7d633dc"><path d="M 243 208 L 281 208 L 281 405.304688 L 243 405.304688 Z M 243 208 " clip-rule="nonzero"/></clipPath><clipPath id="9dfa92744b"><path d="M 193 278 L 231 278 L 231 405.304688 L 193 405.304688 Z M 193 278 " clip-rule="nonzero"/></clipPath><clipPath id="075076f843"><path d="M 143.429688 337 L 182 337 L 182 405.304688 L 143.429688 405.304688 Z M 143.429688 337 " clip-rule="nonzero"/></clipPath><clipPath id="46899d4c7b"><path d="M 224 124 L 488.429688 124 L 488.429688 405.304688 L 224 405.304688 Z M 224 124 " clip-rule="nonzero"/></clipPath></defs><g clip-path="url(#1a7bce8374)"><path fill="#4bbc39" d="M 403.382812 71.441406 L 361.78125 13.828125 L 320.164062 71.441406 L 342.570312 71.441406 L 342.570312 405.277344 L 379.980469 405.277344 L 379.980469 71.441406 L 403.382812 71.441406 " fill-opacity="1" fill-rule="nonzero"/></g><g clip-path="url(#c48b59ac55)"><path fill="#4bbc39" d="M 292.847656 138.304688 L 292.847656 405.277344 L 330.261719 405.277344 L 330.261719 138.304688 L 292.847656 138.304688 " fill-opacity="1" fill-rule="nonzero"/></g><g clip-path="url(#63c7d633dc)"><path fill="#4bbc39" d="M 243.132812 208.167969 L 243.132812 405.277344 L 280.539062 405.277344 L 280.539062 208.167969 L 243.132812 208.167969 " fill-opacity="1" fill-rule="nonzero"/></g><g clip-path="url(#9dfa92744b)"><path fill="#4bbc39" d="M 193.410156 278.03125 L 193.410156 405.277344 L 230.824219 405.277344 L 230.824219 278.03125 L 193.410156 278.03125 " fill-opacity="1" fill-rule="nonzero"/></g><g clip-path="url(#075076f843)"><path fill="#4bbc39" d="M 143.691406 337.910156 L 143.691406 405.277344 L 181.101562 405.277344 L 181.101562 337.910156 L 143.691406 337.910156 " fill-opacity="1" fill-rule="nonzero"/></g><path fill="#f78f34" d="M 488 317.523438 C 488 364.550781 449.871094 402.675781 402.84375 402.675781 C 355.820312 402.675781 317.695312 364.550781 317.695312 317.523438 C 317.695312 270.492188 355.820312 232.367188 402.84375 232.367188 C 449.871094 232.367188 488 270.492188 488 317.523438 " fill-opacity="1" fill-rule="nonzero"/><path fill="#fabb35" d="M 468.851562 317.523438 C 468.851562 353.976562 439.296875 383.523438 402.84375 383.523438 C 366.390625 383.523438 336.84375 353.976562 336.84375 317.523438 C 336.84375 281.074219 366.390625 251.523438 402.84375 251.523438 C 439.296875 251.523438 468.851562 281.074219 468.851562 317.523438 " fill-opacity="1" fill-rule="nonzero"/><g clip-path="url(#46899d4c7b)"><path stroke-linecap="round" transform="matrix(0.17262, 0, 0, -0.172619, -51.14496, 576.542355)" fill="none" stroke-linejoin="miter" d="M 2757.692505 1630.053552 C 2757.692505 1630.053552 2750.654811 1711.767991 2643.052762 1719.801397 C 2557.310562 1726.228121 2506.010069 1695.904845 2497.116776 1638.630061 C 2497.116776 1638.630061 2484.874356 1556.847733 2535.948557 1530.484587 C 2596.255488 1499.256139 2762.965119 1495.27338 2764.7302 1384.344501 C 2764.7302 1384.344501 2771.564231 1285.793855 2634.385762 1285.793855 C 2634.385762 1285.793855 2502.07258 1282.263682 2495.238549 1365.041699 " stroke="#f78f34" stroke-width="63.361" stroke-opacity="1" stroke-miterlimit="10"/></g><path stroke-linecap="round" transform="matrix(0.17262, 0, 0, -0.172619, -51.14496, 576.542355)" fill="none" stroke-linejoin="miter" d="M 2572.924739 1790.947948 L 2572.924739 1715.275535 " stroke="#f78f34" stroke-width="63.361" stroke-opacity="1" stroke-miterlimit="10"/><path stroke-linecap="round" transform="matrix(0.17262, 0, 0, -0.172619, -51.14496, 576.542355)" fill="none" stroke-linejoin="miter" d="M 2669.68738 1790.947948 L 2669.68738 1715.275535 " stroke="#f78f34" stroke-width="63.361" stroke-opacity="1" stroke-miterlimit="10"/><path stroke-linecap="round" transform="matrix(0.17262, 0, 0, -0.172619, -51.14496, 576.542355)" fill="none" stroke-linejoin="miter" d="M 2581.591739 1285.793855 L 2581.591739 1210.076183 " stroke="#f78f34" stroke-width="63.361" stroke-opacity="1" stroke-miterlimit="10"/><path stroke-linecap="round" transform="matrix(0.17262, 0, 0, -0.172619, -51.14496, 576.542355)" fill="none" stroke-linejoin="miter" d="M 2678.399639 1285.793855 L 2678.399639 1210.076183 " stroke="#f78f34" stroke-width="63.361" stroke-opacity="1" stroke-miterlimit="10"/></svg>