<svg xmlns="http://www.w3.org/2000/svg" xmlns:xlink="http://www.w3.org/1999/xlink" width="800" zoomAndPan="magnify" viewBox="0 0 600 449.999984" height="600" preserveAspectRatio="xMidYMid meet" version="1.0"><defs><clipPath id="7f1ef168d0"><path d="M 152 11 L 456 11 L 456 436 L 152 436 Z M 152 11 " clip-rule="nonzero"/></clipPath><clipPath id="7afa859519"><path d="M 261.972656 198.304688 C 266.128906 191.007812 270.285156 186.9375 278.601562 189.988281 C 289.972656 268.808594 312.796875 288.492188 350.214844 288.492188 C 383.390625 288.492188 431.164062 220.023438 433.199219 193.042969 C 448.726562 188.886719 446.691406 197.203125 448.726562 201.359375 C 432.09375 255.316406 392.726562 299.859375 354.371094 305.121094 C 339.863281 415.074219 281.65625 440.441406 229.898438 434.757812 C 163.546875 427.460938 150.054688 348.644531 156.246094 312.332031 C 162.441406 276.019531 159.386719 252.179688 152.089844 238.6875 C 159.386719 230.375 164.5625 232.496094 169.738281 238.6875 C 178.054688 256.335938 178.054688 283.316406 171.777344 312.332031 C 166.515625 337.019531 181.109375 412.953125 231.933594 416.09375 C 289.039062 419.570312 325.269531 376.640625 333.585938 304.101562 C 290.988281 303.082031 261.972656 229.441406 261.972656 198.304688 Z M 300.324219 17.847656 C 296.164062 19.882812 290.988281 29.214844 299.304688 38.632812 C 299.304688 38.632812 305.5 36.597656 308.640625 37.613281 C 311.777344 38.632812 320.007812 47.964844 328.324219 41.773438 C 336.640625 35.578125 337.65625 23.105469 328.324219 17.929688 C 319.246094 12.925781 313.816406 17.929688 309.65625 18.949219 C 305.5 19.96875 301.339844 19.882812 300.324219 17.847656 Z M 442.957031 17.253906 C 439.136719 15.300781 434.894531 9.191406 424.96875 12.078125 C 414.703125 15.046875 413.003906 27.433594 419.707031 35.324219 C 426.410156 43.214844 436.59375 36.003906 439.816406 35.664062 C 443.042969 35.324219 448.726562 38.71875 448.726562 38.71875 C 458.910156 31.421875 455.9375 21.238281 452.289062 18.269531 C 450.847656 20.050781 446.773438 19.117188 442.957031 17.253906 Z M 442.957031 17.253906 " clip-rule="nonzero"/></clipPath><linearGradient x1="46.599962" gradientTransform="matrix(0.848501, 0, 0, 0.848416, 110.513854, 11.3136)" y1="250" x2="410.599953" gradientUnits="userSpaceOnUse" y2="250" id="788aa854b2"><stop stop-opacity="1" stop-color="rgb(97.599792%, 75.299072%, 78.399658%)" offset="0"/><stop stop-opacity="1" stop-color="rgb(97.599792%, 75.299072%, 78.399658%)" offset="0.125"/><stop stop-opacity="1" stop-color="rgb(97.599792%, 75.299072%, 78.399658%)" offset="0.15625"/><stop stop-opacity="1" stop-color="rgb(97.60437%, 75.233459%, 78.372192%)" offset="0.171875"/><stop stop-opacity="1" stop-color="rgb(97.63031%, 74.938965%, 78.253174%)" offset="0.175781"/><stop stop-opacity="1" stop-color="rgb(97.651672%, 74.710083%, 78.161621%)" offset="0.179688"/><stop stop-opacity="1" stop-color="rgb(97.671509%, 74.481201%, 78.070068%)" offset="0.183594"/><stop stop-opacity="1" stop-color="rgb(97.691345%, 74.252319%, 77.978516%)" offset="0.1875"/><stop stop-opacity="1" stop-color="rgb(97.711182%, 74.021912%, 77.885437%)" offset="0.191406"/><stop stop-opacity="1" stop-color="rgb(97.732544%, 73.79303%, 77.793884%)" offset="0.195312"/><stop stop-opacity="1" stop-color="rgb(97.75238%, 73.564148%, 77.700806%)" offset="0.199219"/><stop stop-opacity="1" stop-color="rgb(97.773743%, 73.335266%, 77.609253%)" offset="0.203125"/><stop stop-opacity="1" stop-color="rgb(97.793579%, 73.106384%, 77.516174%)" offset="0.207031"/><stop stop-opacity="1" stop-color="rgb(97.813416%, 72.877502%, 77.424622%)" offset="0.210937"/><stop stop-opacity="1" stop-color="rgb(97.833252%, 72.647095%, 77.331543%)" offset="0.214844"/><stop stop-opacity="1" stop-color="rgb(97.854614%, 72.418213%, 77.23999%)" offset="0.21875"/><stop stop-opacity="1" stop-color="rgb(97.874451%, 72.189331%, 77.148438%)" offset="0.222656"/><stop stop-opacity="1" stop-color="rgb(97.894287%, 71.960449%, 77.056885%)" offset="0.226562"/><stop stop-opacity="1" stop-color="rgb(97.914124%, 71.731567%, 76.963806%)" offset="0.230469"/><stop stop-opacity="1" stop-color="rgb(97.935486%, 71.502686%, 76.872253%)" offset="0.234375"/><stop stop-opacity="1" stop-color="rgb(97.955322%, 71.272278%, 76.779175%)" offset="0.238281"/><stop stop-opacity="1" stop-color="rgb(97.976685%, 71.043396%, 76.687622%)" offset="0.242187"/><stop stop-opacity="1" stop-color="rgb(97.996521%, 70.814514%, 76.594543%)" offset="0.246094"/><stop stop-opacity="1" stop-color="rgb(98.016357%, 70.585632%, 76.502991%)" offset="0.25"/><stop stop-opacity="1" stop-color="rgb(98.036194%, 70.35675%, 76.411438%)" offset="0.253906"/><stop stop-opacity="1" stop-color="rgb(98.057556%, 70.127869%, 76.319885%)" offset="0.257812"/><stop stop-opacity="1" stop-color="rgb(98.077393%, 69.898987%, 76.226807%)" offset="0.261719"/><stop stop-opacity="1" stop-color="rgb(98.097229%, 69.670105%, 76.135254%)" offset="0.265625"/><stop stop-opacity="1" stop-color="rgb(98.117065%, 69.439697%, 76.042175%)" offset="0.269531"/><stop stop-opacity="1" stop-color="rgb(98.138428%, 69.210815%, 75.950623%)" offset="0.273437"/><stop stop-opacity="1" stop-color="rgb(98.158264%, 68.981934%, 75.857544%)" offset="0.277344"/><stop stop-opacity="1" stop-color="rgb(98.179626%, 68.753052%, 75.765991%)" offset="0.28125"/><stop stop-opacity="1" stop-color="rgb(98.199463%, 68.52417%, 75.672913%)" offset="0.285156"/><stop stop-opacity="1" stop-color="rgb(98.219299%, 68.295288%, 75.58136%)" offset="0.289062"/><stop stop-opacity="1" stop-color="rgb(98.239136%, 68.06488%, 75.489807%)" offset="0.292969"/><stop stop-opacity="1" stop-color="rgb(98.260498%, 67.835999%, 75.398254%)" offset="0.296875"/><stop stop-opacity="1" stop-color="rgb(98.280334%, 67.607117%, 75.305176%)" offset="0.300781"/><stop stop-opacity="1" stop-color="rgb(98.300171%, 67.378235%, 75.213623%)" offset="0.304687"/><stop stop-opacity="1" stop-color="rgb(98.320007%, 67.149353%, 75.120544%)" offset="0.308594"/><stop stop-opacity="1" stop-color="rgb(98.34137%, 66.920471%, 75.028992%)" offset="0.3125"/><stop stop-opacity="1" stop-color="rgb(98.361206%, 66.691589%, 74.935913%)" offset="0.316406"/><stop stop-opacity="1" stop-color="rgb(98.382568%, 66.462708%, 74.84436%)" offset="0.320312"/><stop stop-opacity="1" stop-color="rgb(98.402405%, 66.2323%, 74.752808%)" offset="0.324219"/><stop stop-opacity="1" stop-color="rgb(98.422241%, 66.003418%, 74.661255%)" offset="0.328125"/><stop stop-opacity="1" stop-color="rgb(98.442078%, 65.774536%, 74.568176%)" offset="0.332031"/><stop stop-opacity="1" stop-color="rgb(98.46344%, 65.545654%, 74.476624%)" offset="0.335937"/><stop stop-opacity="1" stop-color="rgb(98.483276%, 65.316772%, 74.383545%)" offset="0.339844"/><stop stop-opacity="1" stop-color="rgb(98.503113%, 65.087891%, 74.291992%)" offset="0.34375"/><stop stop-opacity="1" stop-color="rgb(98.522949%, 64.857483%, 74.198914%)" offset="0.347656"/><stop stop-opacity="1" stop-color="rgb(98.544312%, 64.628601%, 74.107361%)" offset="0.351562"/><stop stop-opacity="1" stop-color="rgb(98.564148%, 64.399719%, 74.014282%)" offset="0.355469"/><stop stop-opacity="1" stop-color="rgb(98.58551%, 64.170837%, 73.922729%)" offset="0.359375"/><stop stop-opacity="1" stop-color="rgb(98.605347%, 63.941956%, 73.831177%)" offset="0.363281"/><stop stop-opacity="1" stop-color="rgb(98.625183%, 63.713074%, 73.739624%)" offset="0.367187"/><stop stop-opacity="1" stop-color="rgb(98.64502%, 63.484192%, 73.646545%)" offset="0.371094"/><stop stop-opacity="1" stop-color="rgb(98.666382%, 63.25531%, 73.554993%)" offset="0.375"/><stop stop-opacity="1" stop-color="rgb(98.686218%, 63.024902%, 73.461914%)" offset="0.378906"/><stop stop-opacity="1" stop-color="rgb(98.706055%, 62.796021%, 73.370361%)" offset="0.382812"/><stop stop-opacity="1" stop-color="rgb(98.725891%, 62.567139%, 73.277283%)" offset="0.386719"/><stop stop-opacity="1" stop-color="rgb(98.747253%, 62.338257%, 73.18573%)" offset="0.390625"/><stop stop-opacity="1" stop-color="rgb(98.76709%, 62.109375%, 73.094177%)" offset="0.394531"/><stop stop-opacity="1" stop-color="rgb(98.786926%, 61.880493%, 73.002625%)" offset="0.398437"/><stop stop-opacity="1" stop-color="rgb(98.806763%, 61.650085%, 72.909546%)" offset="0.402344"/><stop stop-opacity="1" stop-color="rgb(98.828125%, 61.421204%, 72.817993%)" offset="0.40625"/><stop stop-opacity="1" stop-color="rgb(98.847961%, 61.192322%, 72.724915%)" offset="0.410156"/><stop stop-opacity="1" stop-color="rgb(98.869324%, 60.96344%, 72.633362%)" offset="0.414062"/><stop stop-opacity="1" stop-color="rgb(98.88916%, 60.734558%, 72.540283%)" offset="0.417969"/><stop stop-opacity="1" stop-color="rgb(98.908997%, 60.505676%, 72.44873%)" offset="0.421875"/><stop stop-opacity="1" stop-color="rgb(98.928833%, 60.276794%, 72.355652%)" offset="0.425781"/><stop stop-opacity="1" stop-color="rgb(98.950195%, 60.047913%, 72.264099%)" offset="0.429687"/><stop stop-opacity="1" stop-color="rgb(98.970032%, 59.817505%, 72.172546%)" offset="0.433594"/><stop stop-opacity="1" stop-color="rgb(98.989868%, 59.588623%, 72.080994%)" offset="0.4375"/><stop stop-opacity="1" stop-color="rgb(99.009705%, 59.359741%, 71.987915%)" offset="0.441406"/><stop stop-opacity="1" stop-color="rgb(99.031067%, 59.130859%, 71.896362%)" offset="0.445312"/><stop stop-opacity="1" stop-color="rgb(99.050903%, 58.901978%, 71.803284%)" offset="0.449219"/><stop stop-opacity="1" stop-color="rgb(99.072266%, 58.673096%, 71.711731%)" offset="0.453125"/><stop stop-opacity="1" stop-color="rgb(99.092102%, 58.442688%, 71.618652%)" offset="0.457031"/><stop stop-opacity="1" stop-color="rgb(99.111938%, 58.213806%, 71.5271%)" offset="0.460937"/><stop stop-opacity="1" stop-color="rgb(99.131775%, 57.984924%, 71.434021%)" offset="0.464844"/><stop stop-opacity="1" stop-color="rgb(99.153137%, 57.756042%, 71.342468%)" offset="0.46875"/><stop stop-opacity="1" stop-color="rgb(99.172974%, 57.527161%, 71.250916%)" offset="0.472656"/><stop stop-opacity="1" stop-color="rgb(99.19281%, 57.298279%, 71.159363%)" offset="0.476562"/><stop stop-opacity="1" stop-color="rgb(99.212646%, 57.069397%, 71.066284%)" offset="0.480469"/><stop stop-opacity="1" stop-color="rgb(99.234009%, 56.840515%, 70.974731%)" offset="0.484375"/><stop stop-opacity="1" stop-color="rgb(99.253845%, 56.610107%, 70.881653%)" offset="0.488281"/><stop stop-opacity="1" stop-color="rgb(99.275208%, 56.381226%, 70.7901%)" offset="0.492188"/><stop stop-opacity="1" stop-color="rgb(99.295044%, 56.152344%, 70.697021%)" offset="0.496094"/><stop stop-opacity="1" stop-color="rgb(99.31488%, 55.923462%, 70.605469%)" offset="0.5"/><stop stop-opacity="1" stop-color="rgb(99.334717%, 55.69458%, 70.513916%)" offset="0.503906"/><stop stop-opacity="1" stop-color="rgb(99.356079%, 55.465698%, 70.422363%)" offset="0.507812"/><stop stop-opacity="1" stop-color="rgb(99.375916%, 55.235291%, 70.329285%)" offset="0.511719"/><stop stop-opacity="1" stop-color="rgb(99.395752%, 55.006409%, 70.237732%)" offset="0.515625"/><stop stop-opacity="1" stop-color="rgb(99.415588%, 54.777527%, 70.144653%)" offset="0.519531"/><stop stop-opacity="1" stop-color="rgb(99.436951%, 54.548645%, 70.053101%)" offset="0.523438"/><stop stop-opacity="1" stop-color="rgb(99.456787%, 54.319763%, 69.960022%)" offset="0.527344"/><stop stop-opacity="1" stop-color="rgb(99.478149%, 54.090881%, 69.868469%)" offset="0.53125"/><stop stop-opacity="1" stop-color="rgb(99.497986%, 53.862%, 69.775391%)" offset="0.535156"/><stop stop-opacity="1" stop-color="rgb(99.517822%, 53.633118%, 69.683838%)" offset="0.539062"/><stop stop-opacity="1" stop-color="rgb(99.537659%, 53.40271%, 69.592285%)" offset="0.542969"/><stop stop-opacity="1" stop-color="rgb(99.559021%, 53.173828%, 69.500732%)" offset="0.546875"/><stop stop-opacity="1" stop-color="rgb(99.578857%, 52.944946%, 69.407654%)" offset="0.550781"/><stop stop-opacity="1" stop-color="rgb(99.598694%, 52.716064%, 69.316101%)" offset="0.554688"/><stop stop-opacity="1" stop-color="rgb(99.61853%, 52.487183%, 69.223022%)" offset="0.558594"/><stop stop-opacity="1" stop-color="rgb(99.639893%, 52.258301%, 69.13147%)" offset="0.5625"/><stop stop-opacity="1" stop-color="rgb(99.659729%, 52.027893%, 69.038391%)" offset="0.566406"/><stop stop-opacity="1" stop-color="rgb(99.681091%, 51.799011%, 68.946838%)" offset="0.570313"/><stop stop-opacity="1" stop-color="rgb(99.700928%, 51.570129%, 68.855286%)" offset="0.574219"/><stop stop-opacity="1" stop-color="rgb(99.720764%, 51.341248%, 68.763733%)" offset="0.578125"/><stop stop-opacity="1" stop-color="rgb(99.740601%, 51.112366%, 68.670654%)" offset="0.582031"/><stop stop-opacity="1" stop-color="rgb(99.761963%, 50.883484%, 68.579102%)" offset="0.585938"/><stop stop-opacity="1" stop-color="rgb(99.781799%, 50.654602%, 68.486023%)" offset="0.589844"/><stop stop-opacity="1" stop-color="rgb(99.801636%, 50.42572%, 68.39447%)" offset="0.59375"/><stop stop-opacity="1" stop-color="rgb(99.821472%, 50.195312%, 68.301392%)" offset="0.597656"/><stop stop-opacity="1" stop-color="rgb(99.842834%, 49.966431%, 68.209839%)" offset="0.601562"/><stop stop-opacity="1" stop-color="rgb(99.862671%, 49.737549%, 68.11676%)" offset="0.605469"/><stop stop-opacity="1" stop-color="rgb(99.884033%, 49.508667%, 68.025208%)" offset="0.609375"/><stop stop-opacity="1" stop-color="rgb(99.90387%, 49.279785%, 67.933655%)" offset="0.613281"/><stop stop-opacity="1" stop-color="rgb(99.923706%, 49.050903%, 67.842102%)" offset="0.617188"/><stop stop-opacity="1" stop-color="rgb(99.943542%, 48.820496%, 67.749023%)" offset="0.621094"/><stop stop-opacity="1" stop-color="rgb(99.964905%, 48.591614%, 67.657471%)" offset="0.625"/><stop stop-opacity="1" stop-color="rgb(99.981689%, 48.394775%, 67.578125%)" offset="0.628906"/><stop stop-opacity="1" stop-color="rgb(100%, 48.199463%, 67.498779%)" offset="0.632813"/><stop stop-opacity="1" stop-color="rgb(100%, 48.199463%, 67.498779%)" offset="0.640625"/><stop stop-opacity="1" stop-color="rgb(100%, 48.199463%, 67.498779%)" offset="0.65625"/><stop stop-opacity="1" stop-color="rgb(100%, 48.199463%, 67.498779%)" offset="0.6875"/><stop stop-opacity="1" stop-color="rgb(100%, 48.199463%, 67.498779%)" offset="0.75"/><stop stop-opacity="1" stop-color="rgb(100%, 48.199463%, 67.498779%)" offset="1"/></linearGradient><clipPath id="a4774065a0"><path d="M 110.480469 174 L 194 174 L 194 258 L 110.480469 258 Z M 110.480469 174 " clip-rule="nonzero"/></clipPath></defs><path fill="#c6d0f3" d="M 264.007812 200.339844 C 248.480469 137.050781 242.203125 86.230469 248.480469 59.25 C 253.402344 37.785156 277.5 22.9375 302.445312 22.9375 L 302.445312 33.371094 C 288.953125 34.390625 276.648438 32.4375 259.933594 56.195312 C 247.460938 73.84375 267.230469 161.992188 273.425781 200.339844 Z M 444.570312 202.632812 C 472.738281 143.835938 489.199219 95.390625 488.605469 67.734375 C 488.179688 45.757812 467.5625 26.246094 443.210938 21.15625 L 441.089844 31.335938 C 454.070312 35.070312 466.542969 35.664062 478.085938 62.386719 C 486.652344 82.15625 449.40625 164.453125 435.40625 200.765625 Z M 444.570312 202.632812 " fill-opacity="1" fill-rule="nonzero"/><g clip-path="url(#7f1ef168d0)"><g clip-path="url(#7afa859519)"><path fill="url(#788aa854b2)" d="M 150.054688 9.191406 L 150.054688 440.441406 L 458.910156 440.441406 L 458.910156 9.191406 Z M 150.054688 9.191406 " fill-rule="nonzero"/></g></g><g clip-path="url(#a4774065a0)"><path fill="#c6d0f3" d="M 110.515625 220.109375 C 110.515625 197.203125 126.042969 174.464844 152.003906 174.464844 C 174.914062 174.464844 193.496094 193.042969 193.496094 215.953125 C 193.496094 238.859375 174.914062 257.4375 152.003906 257.4375 C 129.097656 257.4375 110.515625 243.015625 110.515625 220.109375 Z M 110.515625 220.109375 " fill-opacity="1" fill-rule="nonzero"/></g><path fill="#ffffff" d="M 344.019531 311.824219 C 344.359375 310.039062 347.074219 310.804688 346.820312 312.585938 C 342.070312 339.058594 332.3125 365.101562 316.785156 387.160156 C 316.019531 388.265625 314.238281 387.246094 315.003906 386.144531 C 328.917969 363.066406 339.269531 338.464844 344.019531 311.824219 Z M 439.648438 208.144531 C 438.96875 209.503906 438.289062 210.859375 437.609375 212.21875 C 436.933594 213.660156 439.054688 214.933594 439.816406 213.492188 C 440.582031 212.132812 441.257812 210.777344 441.9375 209.417969 C 442.703125 207.976562 440.410156 206.617188 439.648438 208.144531 Z M 430.992188 225.878906 C 423.355469 240.132812 413.511719 252.859375 402.144531 264.226562 C 401.296875 265.074219 402.566406 266.433594 403.5 265.582031 C 415.378906 254.46875 425.054688 241.148438 432.605469 226.8125 C 433.113281 225.792969 431.585938 224.859375 430.992188 225.878906 Z M 126.464844 244.96875 C 128.839844 245.902344 131.21875 246.917969 133.761719 247.683594 C 134.695312 247.9375 135.289062 246.578125 134.441406 246.070312 C 132.066406 244.796875 129.519531 243.863281 127.058594 242.847656 C 125.703125 242.253906 125.109375 244.375 126.464844 244.96875 Z M 136.734375 243.949219 C 135.882812 242.675781 134.609375 241.574219 133.421875 240.640625 C 131.558594 239.113281 129.859375 237.925781 127.738281 236.824219 C 126.976562 236.230469 126.042969 235.636719 125.191406 235.550781 C 124.175781 235.125 123.15625 235.296875 122.308594 236.3125 C 121.800781 236.90625 121.542969 237.585938 121.460938 238.265625 C 121.289062 239.199219 121.628906 240.300781 122.222656 241.234375 C 122.730469 242.082031 123.410156 242.847656 124.175781 243.441406 C 125.53125 244.714844 127.144531 245.816406 128.078125 246.410156 C 129.519531 247.34375 131.558594 248.871094 133.507812 249.378906 C 135.121094 249.972656 136.734375 250.226562 137.75 249.378906 C 139.789062 247.9375 138.261719 245.644531 136.734375 243.949219 Z M 120.609375 225.964844 C 120.101562 225.453125 119.59375 224.859375 118.914062 224.691406 C 118.066406 224.4375 117.046875 224.773438 116.539062 225.539062 C 116.113281 226.21875 116.113281 226.894531 116.199219 227.660156 C 116.199219 228 116.199219 228.339844 116.453125 228.679688 C 116.453125 228.761719 116.539062 228.933594 116.539062 229.015625 C 116.539062 229.101562 116.625 229.1875 116.625 229.1875 C 116.707031 229.441406 116.707031 229.609375 116.792969 229.867188 C 116.960938 230.542969 117.300781 231.222656 117.8125 231.730469 C 119.253906 233.089844 121.628906 232.410156 122.222656 230.542969 C 122.730469 229.015625 121.714844 227.066406 120.609375 225.964844 Z M 189.339844 221.125 C 189.507812 220.109375 189.59375 219.175781 189.765625 218.328125 C 190.273438 215.527344 191.207031 211.792969 188.066406 210.183594 C 185.097656 208.65625 183.144531 210.351562 182.042969 213.152344 C 181.957031 213.320312 181.871094 213.492188 181.871094 213.574219 C 181.703125 213.914062 181.617188 214.425781 181.449219 215.019531 C 180.601562 218.328125 180.601562 222.230469 181.109375 223.925781 C 181.277344 224.351562 181.449219 224.773438 181.703125 225.199219 C 182.042969 226.046875 182.636719 226.726562 183.316406 227.066406 C 184.332031 227.828125 185.691406 228 186.792969 227.234375 C 188.238281 226.300781 188.746094 224.4375 189 222.652344 C 189.085938 222.144531 189.167969 221.636719 189.253906 221.125 C 189.339844 221.210938 189.339844 221.210938 189.339844 221.125 Z M 184.589844 201.105469 C 184.332031 201.105469 184.078125 201.105469 183.824219 201.1875 C 183.65625 201.1875 183.570312 201.1875 183.398438 201.273438 C 182.382812 201.699219 181.617188 202.460938 181.363281 203.566406 C 181.109375 204.667969 181.449219 205.769531 182.210938 206.535156 C 183.910156 208.0625 186.625 207.46875 187.472656 205.347656 C 188.152344 203.308594 186.625 201.105469 184.589844 201.105469 Z M 169.992188 216.035156 C 170.757812 215.359375 170.25 213.914062 169.144531 213.832031 C 167.617188 213.746094 166.175781 214.59375 165.410156 215.78125 C 165.328125 215.867188 165.242188 215.867188 165.15625 215.953125 C 163.96875 216.96875 163.800781 218.75 164.648438 220.023438 C 164.902344 220.363281 165.15625 220.617188 165.496094 220.871094 C 167.195312 222.738281 170.585938 222.144531 171.183594 219.34375 C 171.4375 217.988281 170.84375 216.800781 169.992188 216.035156 Z M 436.847656 17.421875 C 435.066406 14.707031 431.332031 14.027344 428.785156 16.066406 C 427.851562 16.828125 428.191406 18.523438 429.125 19.035156 C 429.378906 19.203125 429.71875 19.289062 430.058594 19.375 C 431.671875 20.476562 433.792969 20.730469 435.746094 20.308594 C 436.847656 19.96875 437.527344 18.441406 436.847656 17.421875 Z M 441.257812 19.542969 C 439.308594 19.542969 439.308594 22.597656 441.257812 22.597656 C 443.210938 22.597656 443.210938 19.542969 441.257812 19.542969 Z M 310.675781 21.75 C 309.742188 21.15625 308.382812 21.75 308.128906 22.765625 C 307.789062 23.953125 308.722656 24.886719 309.828125 24.972656 C 310.589844 25.058594 311.523438 24.632812 311.777344 23.785156 C 311.949219 22.9375 311.355469 22.171875 310.675781 21.75 Z M 321.621094 18.609375 C 320.773438 18.1875 319.753906 18.269531 318.90625 18.523438 C 317.886719 18.441406 316.871094 18.695312 316.191406 19.714844 C 314.832031 21.75 316.699219 23.953125 318.820312 24.039062 C 320.6875 24.125 323.234375 23.277344 323.234375 20.984375 C 323.234375 20.050781 322.46875 19.117188 321.621094 18.609375 Z M 255.183594 54.160156 C 249.753906 67.480469 247.714844 81.730469 248.988281 95.984375 C 249.074219 97.171875 250.941406 97.171875 250.855469 95.984375 C 249.835938 81.816406 251.875 67.902344 256.539062 54.496094 C 256.878906 53.734375 255.523438 53.394531 255.183594 54.160156 Z M 249.921875 101.925781 C 249.921875 103.195312 249.921875 104.46875 249.921875 105.742188 C 249.921875 107.183594 252.128906 107.183594 252.128906 105.742188 C 252.128906 104.46875 252.128906 103.195312 252.128906 101.925781 C 252.128906 100.480469 249.921875 100.480469 249.921875 101.925781 Z M 484.789062 59.503906 C 484.703125 58.910156 483.769531 58.910156 483.855469 59.503906 C 485.042969 75.792969 482.75 91.402344 477.320312 106.675781 C 477.066406 107.4375 478.253906 107.777344 478.59375 107.015625 C 484.703125 91.996094 486.738281 75.453125 484.789062 59.503906 Z M 476.640625 113.886719 C 476.046875 113.71875 475.371094 114.140625 475.199219 114.734375 C 474.859375 115.667969 474.605469 116.601562 474.4375 117.535156 C 474.265625 118.636719 475.878906 118.894531 476.386719 118.042969 C 476.898438 117.195312 477.152344 116.261719 477.492188 115.328125 C 477.660156 114.734375 477.152344 114.058594 476.640625 113.886719 Z M 311.015625 395.136719 C 310.082031 396.578125 309.316406 398.191406 308.554688 399.71875 C 307.960938 400.820312 309.65625 401.839844 310.25 400.738281 C 311.097656 399.125 311.949219 397.511719 312.542969 395.816406 C 312.964844 394.796875 311.523438 394.375 311.015625 395.136719 Z M 281.488281 248.105469 C 278.261719 233.003906 273.765625 218.242188 269.691406 203.394531 C 269.351562 202.207031 267.488281 202.714844 267.824219 203.902344 C 271.898438 218.75 275.632812 233.769531 280.636719 248.277344 C 280.808594 248.953125 281.570312 248.699219 281.488281 248.105469 Z M 184.671875 404.46875 C 172.539062 387.160156 164.902344 367.480469 163.460938 346.351562 C 163.375 345.503906 162.019531 345.417969 162.101562 346.351562 C 163.207031 367.734375 170.332031 388.519531 183.65625 405.316406 C 184.078125 405.910156 185.097656 405.0625 184.671875 404.46875 Z M 184.671875 404.46875 " fill-opacity="1" fill-rule="nonzero"/><path fill="#000000" d="M 332.480469 31.335938 C 331.71875 36.171875 328.664062 39.820312 326.964844 39.566406 C 325.269531 39.3125 324.503906 35.152344 325.269531 30.402344 C 326.03125 25.652344 327.984375 21.917969 329.679688 22.171875 C 331.378906 22.34375 333.246094 26.5 332.480469 31.335938 Z M 417.925781 24.292969 C 417.585938 29.128906 419.792969 33.371094 421.488281 33.542969 C 423.1875 33.625 424.882812 29.808594 425.222656 24.972656 C 425.5625 20.136719 424.460938 16.066406 422.761719 15.980469 C 421.066406 15.894531 418.265625 19.457031 417.925781 24.292969 Z M 143.179688 190.839844 C 131.640625 194.570312 127.992188 207.042969 128.839844 218.15625 C 129.605469 229.015625 135.207031 238.265625 146.234375 241.066406 C 163.375 245.390625 178.648438 231.222656 177.460938 214 C 176.78125 204.328125 171.097656 195.25 162.441406 190.753906 C 161.507812 190.328125 160.40625 191.515625 161.339844 192.195312 C 168.464844 198.136719 174.152344 205.175781 174.40625 214.847656 C 174.574219 222.824219 171.011719 230.882812 164.140625 235.296875 C 155.398438 240.894531 142.078125 239.453125 135.882812 230.714844 C 128.246094 219.9375 130.113281 197.878906 143.773438 192.789062 C 144.792969 192.367188 144.367188 190.5 143.179688 190.839844 Z M 298.796875 19.117188 C 299.21875 18.863281 299.558594 19.542969 299.21875 19.796875 C 292.773438 24.292969 292.855469 33.542969 299.21875 38.125 C 299.644531 38.378906 299.21875 39.058594 298.796875 38.800781 C 291.582031 34.050781 291.753906 23.871094 298.796875 19.117188 Z M 293.109375 32.355469 C 293.707031 32.355469 293.707031 33.289062 293.109375 33.289062 C 283.777344 33.371094 275.121094 37.953125 268.84375 44.65625 C 262.054688 51.953125 258.40625 61.539062 257.050781 71.210938 C 255.609375 81.394531 256.625 91.234375 258.066406 101.246094 C 259.59375 111.851562 261.292969 122.457031 263.074219 132.976562 C 266.128906 151.386719 269.269531 169.796875 272.324219 188.207031 C 272.40625 188.886719 271.390625 189.226562 271.21875 188.546875 C 269.777344 179.722656 268.25 170.902344 266.722656 162.160156 C 262.988281 140.1875 259.085938 118.214844 256.117188 96.070312 C 254.503906 83.9375 254.417969 71.382812 258.578125 59.671875 C 263.839844 44.996094 276.820312 32.269531 293.109375 32.355469 Z M 453.136719 19.117188 C 452.96875 18.695312 453.5625 18.269531 453.816406 18.695312 C 457.210938 26.074219 455.429688 35.070312 449.40625 40.5 C 448.980469 40.839844 448.386719 40.246094 448.8125 39.90625 C 454.328125 34.644531 456.191406 26.160156 453.136719 19.117188 Z M 453.222656 35.410156 C 452.628906 35.238281 452.882812 34.390625 453.476562 34.558594 C 462.980469 37.445312 470.703125 44.65625 475.371094 53.308594 C 485.042969 71.382812 476.980469 92.421875 470.789062 110.238281 C 466.800781 121.609375 462.894531 133.0625 458.910156 144.429688 C 454.75 156.394531 450.933594 168.609375 446.179688 180.402344 C 446.011719 180.910156 445.246094 180.742188 445.332031 180.148438 C 449.152344 167.335938 453.988281 154.695312 458.398438 142.054688 C 462.21875 131.109375 466.035156 120.164062 469.855469 109.222656 C 473.164062 99.71875 476.558594 90.132812 478.085938 80.203125 C 479.613281 70.617188 478.761719 61.285156 473.84375 52.714844 C 469.261719 44.742188 462.046875 38.207031 453.222656 35.410156 Z M 453.222656 35.410156 " fill-opacity="1" fill-rule="nonzero"/></svg>