<svg xmlns="http://www.w3.org/2000/svg" xmlns:xlink="http://www.w3.org/1999/xlink" width="800" zoomAndPan="magnify" viewBox="0 0 600 449.999984" height="600" preserveAspectRatio="xMidYMid meet" version="1.0"><defs><clipPath id="3b762dbfec"><path d="M 106.648438 306.191406 L 509.230469 306.191406 L 509.230469 343.980469 L 106.648438 343.980469 Z M 106.648438 306.191406 " clip-rule="nonzero"/></clipPath><clipPath id="10d65de547"><path d="M 215.71875 422.210938 L 397.269531 422.210938 L 397.269531 443 L 215.71875 443 Z M 215.71875 422.210938 " clip-rule="nonzero"/></clipPath><clipPath id="263b0aa9bb"><path d="M 106 7.25 L 224 7.25 L 224 125 L 106 125 Z M 106 7.25 " clip-rule="nonzero"/></clipPath></defs><path fill="#f2597e" d="M 316.863281 153.386719 C 321.382812 153.386719 325.054688 149.707031 325.054688 145.183594 C 325.054688 140.664062 321.382812 136.984375 316.863281 136.984375 C 312.347656 136.984375 308.671875 140.664062 308.671875 145.183594 C 308.671875 149.707031 312.347656 153.386719 316.863281 153.386719 " fill-opacity="1" fill-rule="nonzero"/><path fill="#85d2f4" d="M 460.726562 225.160156 C 463.363281 225.160156 465.503906 222.96875 465.503906 220.273438 L 465.503906 186.347656 C 465.453125 186.300781 465.386719 186.285156 465.339844 186.234375 L 431.660156 151.761719 C 429.796875 149.855469 426.773438 149.855469 424.90625 151.761719 L 385.847656 191.746094 C 382.417969 195.261719 376.800781 195.261719 373.371094 191.746094 L 356.355469 174.332031 C 354.496094 172.425781 351.472656 172.421875 349.609375 174.332031 C 337.53125 186.703125 312.101562 212.746094 309.984375 214.882812 C 309.828125 215.042969 309.144531 215.542969 308.152344 216.238281 C 304.28125 218.949219 306.15625 225.160156 310.847656 225.160156 L 460.726562 225.160156 " fill-opacity="1" fill-rule="nonzero"/><g clip-path="url(#3b762dbfec)"><path fill="#85d2f4" d="M 306.582031 306.273438 C 307.394531 307.894531 307.898438 309.703125 307.898438 311.640625 C 307.898438 318.292969 302.507812 323.6875 295.863281 323.6875 C 289.21875 323.6875 283.832031 318.292969 283.832031 311.640625 C 283.832031 309.703125 284.335938 307.894531 285.148438 306.273438 L 123.136719 306.273438 C 114.085938 306.273438 106.75 314.859375 106.75 325.453125 L 106.75 334.117188 C 106.75 339.484375 110.46875 343.839844 115.054688 343.839844 L 244.664062 343.839844 L 244.664062 333.683594 L 340.082031 333.683594 L 340.082031 343.839844 L 476.996094 343.839844 C 505.226562 345.179688 509.230469 306.273438 509.230469 306.273438 L 306.582031 306.273438 " fill-opacity="1" fill-rule="nonzero"/></g><path fill="#85d2f4" d="M 258.664062 413.589844 L 349.882812 413.589844 L 349.882812 350.960938 L 277.382812 350.960938 C 267.042969 350.960938 258.664062 359.351562 258.664062 369.703125 L 258.664062 413.589844 " fill-opacity="1" fill-rule="nonzero"/><g clip-path="url(#10d65de547)"><path fill="#85d2f4" d="M 233.042969 422.390625 C 245.394531 421.878906 371.71875 422.992188 380.140625 422.917969 C 388.207031 422.84375 397.605469 438.890625 397.171875 443 C 381.492188 443 226.558594 443.003906 216.605469 443.003906 C 214.355469 443 215.789062 423.105469 233.042969 422.390625 " fill-opacity="1" fill-rule="nonzero"/></g><path fill="#85d2f4" d="M 212.464844 23.949219 L 138.121094 23.949219 C 130.320312 23.949219 123.9375 30.339844 123.9375 38.148438 L 123.9375 69.078125 L 143.296875 69.078125 C 151.632812 69.078125 158.453125 75.902344 158.453125 84.246094 L 158.453125 128.175781 L 212.464844 128.175781 C 220.265625 128.175781 226.652344 121.785156 226.652344 113.972656 L 226.652344 38.148438 C 226.652344 30.339844 220.265625 23.949219 212.464844 23.949219 " fill-opacity="1" fill-rule="nonzero"/><path fill="#f2597e" d="M 151.050781 187.335938 L 76.527344 187.335938 C 68.707031 187.335938 62.308594 180.929688 62.308594 173.101562 L 62.308594 97.089844 C 62.308594 89.261719 68.707031 82.855469 76.527344 82.855469 L 151.050781 82.855469 C 158.871094 82.855469 165.269531 89.261719 165.269531 97.089844 L 165.269531 173.101562 C 165.269531 180.929688 158.871094 187.335938 151.050781 187.335938 " fill-opacity="1" fill-rule="nonzero"/><path fill="#2e2d2d" d="M 463.410156 338.238281 L 121.234375 338.238281 C 98.707031 338.238281 80.382812 319.890625 80.382812 297.339844 L 80.382812 182.203125 C 80.382812 180.003906 82.164062 178.214844 84.363281 178.214844 C 86.5625 178.214844 88.347656 180.003906 88.347656 182.203125 L 88.347656 297.339844 C 88.347656 315.496094 103.097656 330.265625 121.234375 330.265625 L 463.410156 330.265625 C 481.542969 330.265625 496.296875 315.496094 496.296875 297.339844 L 496.296875 104.167969 C 496.296875 86.011719 481.542969 71.242188 463.410156 71.242188 L 219.792969 71.242188 C 217.59375 71.242188 215.8125 69.457031 215.8125 67.253906 C 215.8125 65.050781 217.59375 63.265625 219.792969 63.265625 L 463.410156 63.265625 C 485.933594 63.265625 504.261719 81.617188 504.261719 104.167969 L 504.261719 297.339844 C 504.261719 319.890625 485.933594 338.238281 463.410156 338.238281 " fill-opacity="1" fill-rule="nonzero"/><path fill="#2e2d2d" d="M 500.277344 295.113281 L 84.363281 295.113281 C 82.164062 295.113281 80.382812 293.328125 80.382812 291.125 C 80.382812 288.925781 82.164062 287.140625 84.363281 287.140625 L 500.277344 287.140625 C 502.476562 287.140625 504.261719 288.925781 504.261719 291.125 C 504.261719 293.328125 502.476562 295.113281 500.277344 295.113281 " fill-opacity="1" fill-rule="nonzero"/><path fill="#2e2d2d" d="M 244.667969 411.179688 C 242.46875 411.179688 240.683594 409.390625 240.683594 407.191406 L 240.683594 334.246094 C 240.683594 332.046875 242.46875 330.261719 244.667969 330.261719 C 246.867188 330.261719 248.648438 332.046875 248.648438 334.246094 L 248.648438 407.191406 C 248.648438 409.390625 246.867188 411.179688 244.667969 411.179688 " fill-opacity="1" fill-rule="nonzero"/><path fill="#2e2d2d" d="M 340.085938 411.179688 C 337.882812 411.179688 336.101562 409.390625 336.101562 407.191406 L 336.101562 334.246094 C 336.101562 332.046875 337.882812 330.261719 340.085938 330.261719 C 342.28125 330.261719 344.066406 332.046875 344.066406 334.246094 L 344.066406 407.191406 C 344.066406 409.390625 342.28125 411.179688 340.085938 411.179688 " fill-opacity="1" fill-rule="nonzero"/><path fill="#2e2d2d" d="M 386.886719 437.925781 L 212.6875 437.925781 C 210.488281 437.925781 208.707031 436.140625 208.707031 433.941406 C 208.707031 431.738281 210.488281 429.953125 212.6875 429.953125 L 382.460938 429.953125 C 380.644531 421.90625 373.445312 415.882812 364.867188 415.882812 L 230.070312 415.882812 C 227.871094 415.882812 226.085938 414.09375 226.085938 411.894531 C 226.085938 409.691406 227.871094 407.90625 230.070312 407.90625 L 364.867188 407.90625 C 379.203125 407.90625 390.867188 419.585938 390.867188 433.941406 C 390.867188 436.140625 389.085938 437.925781 386.886719 437.925781 " fill-opacity="1" fill-rule="nonzero"/><path fill="#2e2d2d" d="M 194.246094 437.925781 C 192.046875 437.925781 190.265625 436.140625 190.265625 433.941406 C 190.265625 419.585938 201.929688 407.90625 216.265625 407.90625 C 218.464844 407.90625 220.246094 409.691406 220.246094 411.894531 C 220.246094 414.09375 218.464844 415.882812 216.265625 415.882812 C 206.320312 415.882812 198.226562 423.980469 198.226562 433.941406 C 198.226562 436.140625 196.445312 437.925781 194.246094 437.925781 " fill-opacity="1" fill-rule="nonzero"/><path fill="#2e2d2d" d="M 294.230469 308.035156 C 292.246094 308.035156 290.628906 309.65625 290.628906 311.644531 C 290.628906 313.632812 292.246094 315.246094 294.230469 315.246094 C 296.21875 315.246094 297.832031 313.632812 297.832031 311.644531 C 297.832031 309.65625 296.21875 308.035156 294.230469 308.035156 Z M 294.230469 323.222656 C 287.855469 323.222656 282.667969 318.027344 282.667969 311.644531 C 282.667969 305.257812 287.855469 300.0625 294.230469 300.0625 C 300.609375 300.0625 305.796875 305.257812 305.796875 311.644531 C 305.796875 318.027344 300.609375 323.222656 294.230469 323.222656 " fill-opacity="1" fill-rule="nonzero"/><path fill="#85d2f4" d="M 155.484375 206.929688 C 151.824219 206.929688 148.847656 209.910156 148.847656 213.574219 L 148.847656 266.152344 C 148.847656 269.816406 151.824219 272.796875 155.484375 272.796875 C 159.148438 272.796875 162.125 269.816406 162.125 266.152344 L 162.125 213.574219 C 162.125 209.910156 159.148438 206.929688 155.484375 206.929688 " fill-opacity="1" fill-rule="nonzero"/><path fill="#85d2f4" d="M 175.058594 183.347656 C 171.398438 183.347656 168.421875 186.328125 168.421875 189.992188 L 168.421875 266.152344 C 168.421875 269.816406 171.398438 272.796875 175.058594 272.796875 C 178.71875 272.796875 181.695312 269.816406 181.695312 266.152344 L 181.695312 189.992188 C 181.695312 186.328125 178.71875 183.347656 175.058594 183.347656 " fill-opacity="1" fill-rule="nonzero"/><path fill="#85d2f4" d="M 197.078125 163.828125 C 193.417969 163.828125 190.441406 166.804688 190.441406 170.46875 L 190.441406 266.152344 C 190.441406 269.816406 193.417969 272.796875 197.078125 272.796875 C 200.738281 272.796875 203.714844 269.816406 203.714844 266.152344 L 203.714844 170.46875 C 203.714844 166.804688 200.738281 163.828125 197.078125 163.828125 " fill-opacity="1" fill-rule="nonzero"/><path fill="#85d2f4" d="M 219.097656 147.566406 C 215.4375 147.566406 212.460938 150.546875 212.460938 154.210938 L 212.460938 266.152344 C 212.460938 269.816406 215.4375 272.796875 219.097656 272.796875 C 222.757812 272.796875 225.734375 269.816406 225.734375 266.152344 L 225.734375 154.210938 C 225.734375 150.546875 222.757812 147.566406 219.097656 147.566406 " fill-opacity="1" fill-rule="nonzero"/><path fill="#85d2f4" d="M 243.5625 130.417969 C 239.902344 130.417969 236.925781 133.398438 236.925781 137.0625 L 236.925781 266.152344 C 236.925781 269.816406 239.902344 272.796875 243.5625 272.796875 C 247.222656 272.796875 250.199219 269.816406 250.199219 266.152344 L 250.199219 137.0625 C 250.199219 133.398438 247.222656 130.417969 243.5625 130.417969 " fill-opacity="1" fill-rule="nonzero"/><path fill="#2e2d2d" d="M 150.175781 267.480469 C 147.976562 267.480469 146.195312 265.695312 146.195312 263.492188 L 146.195312 210.917969 C 146.195312 208.714844 147.976562 206.929688 150.175781 206.929688 C 152.378906 206.929688 154.160156 208.714844 154.160156 210.917969 L 154.160156 263.492188 C 154.160156 265.695312 152.378906 267.480469 150.175781 267.480469 " fill-opacity="1" fill-rule="nonzero"/><path fill="#2e2d2d" d="M 169.75 267.480469 C 167.550781 267.480469 165.769531 265.695312 165.769531 263.492188 L 165.769531 187.335938 C 165.769531 185.136719 167.550781 183.347656 169.75 183.347656 C 171.949219 183.347656 173.730469 185.136719 173.730469 187.335938 L 173.730469 263.492188 C 173.730469 265.695312 171.949219 267.480469 169.75 267.480469 " fill-opacity="1" fill-rule="nonzero"/><path fill="#2e2d2d" d="M 191.769531 267.480469 C 189.570312 267.480469 187.789062 265.695312 187.789062 263.492188 L 187.789062 167.8125 C 187.789062 165.609375 189.570312 163.828125 191.769531 163.828125 C 193.96875 163.828125 195.75 165.609375 195.75 167.8125 L 195.75 263.492188 C 195.75 265.695312 193.96875 267.480469 191.769531 267.480469 " fill-opacity="1" fill-rule="nonzero"/><path fill="#2e2d2d" d="M 213.789062 267.480469 C 211.589844 267.480469 209.808594 265.695312 209.808594 263.492188 L 209.808594 151.554688 C 209.808594 149.351562 211.589844 147.566406 213.789062 147.566406 C 215.988281 147.566406 217.769531 149.351562 217.769531 151.554688 L 217.769531 263.492188 C 217.769531 265.695312 215.988281 267.480469 213.789062 267.480469 " fill-opacity="1" fill-rule="nonzero"/><path fill="#2e2d2d" d="M 238.253906 267.480469 C 236.054688 267.480469 234.269531 265.695312 234.269531 263.496094 L 234.269531 134.410156 C 234.269531 132.207031 236.054688 130.421875 238.253906 130.421875 C 240.453125 130.421875 242.234375 132.207031 242.234375 134.410156 L 242.234375 263.496094 C 242.234375 265.695312 240.453125 267.480469 238.253906 267.480469 " fill-opacity="1" fill-rule="nonzero"/><path fill="#2e2d2d" d="M 285.523438 211.667969 L 457.539062 211.667969 L 457.539062 108.253906 L 285.523438 108.253906 Z M 461.519531 219.640625 L 281.539062 219.640625 C 279.339844 219.640625 277.558594 217.855469 277.558594 215.652344 L 277.558594 104.265625 C 277.558594 102.066406 279.339844 100.28125 281.539062 100.28125 L 461.519531 100.28125 C 463.722656 100.28125 465.503906 102.066406 465.503906 104.265625 L 465.503906 215.652344 C 465.503906 217.855469 463.722656 219.640625 461.519531 219.640625 " fill-opacity="1" fill-rule="nonzero"/><path fill="#2e2d2d" d="M 301.816406 202.9375 C 300.789062 202.9375 299.761719 202.539062 298.980469 201.75 C 297.4375 200.183594 297.453125 197.65625 299.019531 196.113281 C 301.679688 193.484375 343.652344 151.425781 344.074219 151.003906 C 345.566406 149.507812 348.210938 149.507812 349.707031 151.003906 L 373.078125 174.402344 L 418.125 129.296875 C 419.621094 127.800781 422.261719 127.800781 423.757812 129.296875 L 463.007812 168.59375 C 464.5625 170.152344 464.5625 172.675781 463.007812 174.230469 C 461.453125 175.789062 458.933594 175.789062 457.375 174.230469 L 420.941406 137.75 L 375.890625 182.855469 C 374.398438 184.351562 371.753906 184.351562 370.257812 182.855469 L 346.890625 159.460938 C 337.3125 169.058594 306.917969 199.507812 304.613281 201.785156 C 303.835938 202.554688 302.824219 202.9375 301.816406 202.9375 " fill-opacity="1" fill-rule="nonzero"/><path fill="#2e2d2d" d="M 313.304688 131.683594 C 309.164062 131.683594 305.796875 135.054688 305.796875 139.199219 C 305.796875 143.34375 309.164062 146.714844 313.304688 146.714844 C 317.441406 146.714844 320.8125 143.34375 320.8125 139.199219 C 320.8125 135.054688 317.441406 131.683594 313.304688 131.683594 Z M 313.304688 154.6875 C 304.773438 154.6875 297.832031 147.738281 297.832031 139.199219 C 297.832031 130.65625 304.773438 123.710938 313.304688 123.710938 C 321.835938 123.710938 328.773438 130.65625 328.773438 139.199219 C 328.773438 147.738281 321.835938 154.6875 313.304688 154.6875 " fill-opacity="1" fill-rule="nonzero"/><path fill="#f2597e" d="M 428.75 236.996094 L 353.863281 236.996094 C 350.570312 236.996094 347.734375 239.011719 346.523438 241.875 C 345.316406 239.011719 342.484375 236.996094 339.183594 236.996094 L 286.851562 236.996094 C 282.460938 236.996094 278.886719 240.570312 278.886719 244.96875 C 278.886719 249.367188 282.460938 252.941406 286.851562 252.941406 L 339.183594 252.941406 C 342.484375 252.941406 345.316406 250.925781 346.523438 248.0625 C 347.734375 250.925781 350.570312 252.941406 353.863281 252.941406 L 428.75 252.941406 C 433.140625 252.941406 436.714844 249.367188 436.714844 244.96875 C 436.714844 240.570312 433.140625 236.996094 428.75 236.996094 " fill-opacity="1" fill-rule="nonzero"/><path fill="#f2597e" d="M 445.128906 252.941406 L 465.5 252.941406 C 469.894531 252.941406 473.464844 249.367188 473.464844 244.96875 C 473.464844 240.574219 469.894531 236.996094 465.5 236.996094 L 445.128906 236.996094 C 440.738281 236.996094 437.164062 240.574219 437.164062 244.96875 C 437.164062 249.367188 440.738281 252.941406 445.128906 252.941406 " fill-opacity="1" fill-rule="nonzero"/><path fill="#f2597e" d="M 428.75 256.589844 L 353.863281 256.589844 C 350.570312 256.589844 347.734375 258.605469 346.523438 261.46875 C 345.316406 258.605469 342.484375 256.589844 339.183594 256.589844 L 286.851562 256.589844 C 282.460938 256.589844 278.886719 260.167969 278.886719 264.566406 C 278.886719 268.960938 282.460938 272.539062 286.851562 272.539062 L 339.183594 272.539062 C 342.484375 272.539062 345.316406 270.523438 346.523438 267.660156 C 347.734375 270.523438 350.570312 272.539062 353.863281 272.539062 L 428.75 272.539062 C 433.140625 272.539062 436.714844 268.960938 436.714844 264.566406 C 436.714844 260.167969 433.140625 256.589844 428.75 256.589844 " fill-opacity="1" fill-rule="nonzero"/><path fill="#f2597e" d="M 465.5 256.59375 L 445.128906 256.59375 C 440.738281 256.59375 437.164062 260.167969 437.164062 264.566406 C 437.164062 268.960938 440.738281 272.539062 445.128906 272.539062 L 465.5 272.539062 C 469.894531 272.539062 473.464844 268.960938 473.464844 264.566406 C 473.464844 260.167969 469.894531 256.59375 465.5 256.59375 " fill-opacity="1" fill-rule="nonzero"/><path fill="#2e2d2d" d="M 333.875 243.640625 L 281.539062 243.640625 C 279.339844 243.640625 277.558594 241.855469 277.558594 239.65625 C 277.558594 237.453125 279.339844 235.667969 281.539062 235.667969 L 333.875 235.667969 C 336.074219 235.667969 337.855469 237.453125 337.855469 239.65625 C 337.855469 241.855469 336.074219 243.640625 333.875 243.640625 " fill-opacity="1" fill-rule="nonzero"/><path fill="#2e2d2d" d="M 423.441406 243.640625 L 348.554688 243.640625 C 346.355469 243.640625 344.574219 241.855469 344.574219 239.65625 C 344.574219 237.453125 346.355469 235.667969 348.554688 235.667969 L 423.441406 235.667969 C 425.640625 235.667969 427.425781 237.453125 427.425781 239.65625 C 427.425781 241.855469 425.640625 243.640625 423.441406 243.640625 " fill-opacity="1" fill-rule="nonzero"/><path fill="#2e2d2d" d="M 460.191406 243.640625 L 439.820312 243.640625 C 437.621094 243.640625 435.839844 241.855469 435.839844 239.65625 C 435.839844 237.453125 437.621094 235.667969 439.820312 235.667969 L 460.191406 235.667969 C 462.390625 235.667969 464.171875 237.453125 464.171875 239.65625 C 464.171875 241.855469 462.390625 243.640625 460.191406 243.640625 " fill-opacity="1" fill-rule="nonzero"/><path fill="#2e2d2d" d="M 333.875 263.238281 L 281.539062 263.238281 C 279.339844 263.238281 277.558594 261.449219 277.558594 259.25 C 277.558594 257.050781 279.339844 255.265625 281.539062 255.265625 L 333.875 255.265625 C 336.074219 255.265625 337.855469 257.050781 337.855469 259.25 C 337.855469 261.449219 336.074219 263.238281 333.875 263.238281 " fill-opacity="1" fill-rule="nonzero"/><path fill="#2e2d2d" d="M 423.441406 263.238281 L 348.554688 263.238281 C 346.355469 263.238281 344.574219 261.449219 344.574219 259.25 C 344.574219 257.050781 346.355469 255.265625 348.554688 255.265625 L 423.441406 255.265625 C 425.640625 255.265625 427.425781 257.050781 427.425781 259.25 C 427.425781 261.449219 425.640625 263.238281 423.441406 263.238281 " fill-opacity="1" fill-rule="nonzero"/><path fill="#2e2d2d" d="M 460.191406 263.238281 L 439.820312 263.238281 C 437.621094 263.238281 435.839844 261.453125 435.839844 259.25 C 435.839844 257.050781 437.621094 255.265625 439.820312 255.265625 L 460.191406 255.265625 C 462.390625 255.265625 464.171875 257.050781 464.171875 259.25 C 464.171875 261.453125 462.390625 263.238281 460.191406 263.238281 " fill-opacity="1" fill-rule="nonzero"/><g clip-path="url(#263b0aa9bb)"><path fill="#2e2d2d" d="M 206.382812 124.941406 L 158.585938 124.941406 C 156.386719 124.941406 154.601562 123.15625 154.601562 120.953125 C 154.601562 118.753906 156.386719 116.96875 158.585938 116.96875 L 206.382812 116.96875 C 211.582031 116.96875 215.8125 112.734375 215.8125 107.527344 L 215.8125 24.660156 C 215.8125 19.457031 211.582031 15.222656 206.382812 15.222656 L 123.617188 15.222656 C 118.417969 15.222656 114.1875 19.457031 114.1875 24.660156 L 114.1875 67.742188 C 114.1875 69.945312 112.40625 71.730469 110.207031 71.730469 C 108.003906 71.730469 106.222656 69.945312 106.222656 67.742188 L 106.222656 24.660156 C 106.222656 15.058594 114.023438 7.25 123.617188 7.25 L 206.382812 7.25 C 215.972656 7.25 223.777344 15.058594 223.777344 24.660156 L 223.777344 107.527344 C 223.777344 117.128906 215.972656 124.941406 206.382812 124.941406 " fill-opacity="1" fill-rule="nonzero"/></g><path fill="#2e2d2d" d="M 165.035156 42.765625 L 153.773438 69.074219 C 153.8125 69.070312 153.855469 69.070312 153.894531 69.070312 L 176.257812 69.070312 Z M 190.625 96.574219 C 189.078125 96.574219 187.605469 95.671875 186.960938 94.152344 L 179.660156 77.046875 L 153.894531 77.046875 C 151.695312 77.046875 149.914062 75.261719 149.914062 73.0625 C 149.914062 72.617188 149.984375 72.191406 150.117188 71.789062 C 149.539062 71.824219 148.972656 71.707031 148.414062 71.472656 C 146.394531 70.605469 145.457031 68.261719 146.324219 66.234375 L 161.378906 31.0625 C 162.007812 29.59375 163.449219 28.644531 165.039062 28.644531 C 165.042969 28.644531 165.042969 28.644531 165.042969 28.644531 C 166.636719 28.644531 168.074219 29.597656 168.703125 31.066406 L 194.285156 91.023438 C 195.148438 93.046875 194.207031 95.386719 192.1875 96.253906 C 191.675781 96.472656 191.144531 96.574219 190.625 96.574219 " fill-opacity="1" fill-rule="nonzero"/><path fill="#2e2d2d" d="M 73.554688 59.328125 C 72.6875 59.328125 71.816406 59.046875 71.085938 58.46875 C 69.363281 57.101562 69.070312 54.59375 70.433594 52.867188 C 72.96875 49.664062 75.746094 46.59375 78.683594 43.75 C 83.570312 39.023438 88.984375 34.828125 94.777344 31.292969 C 96.652344 30.140625 99.105469 30.742188 100.25 32.621094 C 101.394531 34.503906 100.800781 36.953125 98.921875 38.101562 C 93.632812 41.332031 88.683594 45.160156 84.21875 49.480469 C 81.53125 52.082031 78.996094 54.886719 76.679688 57.8125 C 75.894531 58.808594 74.730469 59.328125 73.554688 59.328125 " fill-opacity="1" fill-rule="nonzero"/><path fill="#2e2d2d" d="M 54.871094 53.339844 C 54.007812 53.339844 53.132812 53.0625 52.402344 52.480469 C 50.679688 51.113281 50.386719 48.605469 51.753906 46.882812 L 52.828125 45.5 C 58.042969 38.75 70.257812 22.941406 92.535156 10.785156 C 94.472656 9.726562 96.886719 10.445312 97.9375 12.378906 C 98.988281 14.3125 98.277344 16.734375 96.347656 17.789062 C 75.535156 29.144531 64.035156 44.023438 59.125 50.378906 L 57.996094 51.828125 C 57.210938 52.820312 56.046875 53.339844 54.871094 53.339844 " fill-opacity="1" fill-rule="nonzero"/><path fill="#2e2d2d" d="M 62.40625 73.8125 C 57.207031 73.8125 52.976562 78.046875 52.976562 83.253906 L 52.976562 166.117188 C 52.976562 171.324219 57.207031 175.558594 62.40625 175.558594 L 145.171875 175.558594 C 150.371094 175.558594 154.601562 171.324219 154.601562 166.117188 L 154.601562 83.253906 C 154.601562 80.492188 153.398438 77.882812 151.304688 76.078125 C 149.601562 74.617188 147.421875 73.8125 145.171875 73.8125 Z M 145.171875 183.53125 L 62.40625 183.53125 C 52.816406 183.53125 45.015625 175.722656 45.015625 166.117188 L 45.015625 83.253906 C 45.015625 73.652344 52.816406 65.839844 62.40625 65.839844 L 145.171875 65.839844 C 149.320312 65.839844 153.339844 67.328125 156.484375 70.027344 C 160.347656 73.34375 162.566406 78.164062 162.566406 83.253906 L 162.566406 166.117188 C 162.566406 175.722656 154.761719 183.53125 145.171875 183.53125 " fill-opacity="1" fill-rule="nonzero"/><path fill="#2e2d2d" d="M 133.042969 113.496094 L 75.648438 113.496094 C 73.449219 113.496094 71.664062 111.710938 71.664062 109.511719 C 71.664062 107.308594 73.449219 105.523438 75.648438 105.523438 L 133.042969 105.523438 C 135.242188 105.523438 137.023438 107.308594 137.023438 109.511719 C 137.023438 111.710938 135.242188 113.496094 133.042969 113.496094 " fill-opacity="1" fill-rule="nonzero"/><path fill="#2e2d2d" d="M 104.34375 112.492188 C 102.144531 112.492188 100.363281 110.703125 100.363281 108.503906 L 100.363281 94.878906 C 100.363281 92.675781 102.144531 90.890625 104.34375 90.890625 C 106.542969 90.890625 108.328125 92.675781 108.328125 94.878906 L 108.328125 108.503906 C 108.328125 110.703125 106.542969 112.492188 104.34375 112.492188 " fill-opacity="1" fill-rule="nonzero"/><path fill="#2e2d2d" d="M 133.046875 158.480469 C 132.820312 158.480469 132.59375 158.464844 132.367188 158.421875 C 131.046875 158.195312 99.835938 152.414062 85.421875 114.644531 C 85.164062 113.96875 84.910156 113.277344 84.664062 112.574219 C 83.929688 110.503906 85.011719 108.222656 87.085938 107.488281 C 89.160156 106.753906 91.433594 107.835938 92.167969 109.914062 C 92.394531 110.550781 92.625 111.179688 92.863281 111.800781 C 105.597656 145.175781 132.585938 150.363281 133.730469 150.566406 C 135.890625 150.953125 137.335938 153.015625 136.957031 155.179688 C 136.617188 157.117188 134.941406 158.480469 133.046875 158.480469 " fill-opacity="1" fill-rule="nonzero"/><path fill="#2e2d2d" d="M 74.53125 158.480469 C 72.628906 158.480469 70.945312 157.109375 70.613281 155.167969 C 70.242188 153.003906 71.691406 150.945312 73.851562 150.566406 C 75.003906 150.359375 101.988281 145.167969 114.714844 111.800781 C 114.953125 111.179688 115.183594 110.554688 115.40625 109.917969 C 116.140625 107.84375 118.414062 106.757812 120.488281 107.484375 C 122.5625 108.21875 123.648438 110.496094 122.917969 112.570312 C 122.671875 113.273438 122.414062 113.972656 122.152344 114.652344 C 107.746094 152.414062 76.535156 158.195312 75.210938 158.425781 C 74.984375 158.464844 74.757812 158.480469 74.53125 158.480469 " fill-opacity="1" fill-rule="nonzero"/></svg>