<svg xmlns="http://www.w3.org/2000/svg" xmlns:xlink="http://www.w3.org/1999/xlink" width="800" zoomAndPan="magnify" viewBox="0 0 600 449.999984" height="600" preserveAspectRatio="xMidYMid meet" version="1.0"><defs><clipPath id="4eae9a5aa1"><path d="M 97.5 22.5 L 502.5 22.5 L 502.5 427.5 L 97.5 427.5 Z M 97.5 22.5 " clip-rule="nonzero"/></clipPath></defs><g clip-path="url(#4eae9a5aa1)"><path fill="#59c7b8" d="M 502.589844 225 C 502.589844 336.914062 411.914062 427.601562 300.0625 427.601562 C 188.210938 427.601562 97.5 336.914062 97.5 225 C 97.5 113.199219 188.210938 22.488281 300.0625 22.488281 C 411.914062 22.488281 502.589844 113.199219 502.589844 225 " fill-opacity="1" fill-rule="nonzero"/></g><path fill="#514f60" d="M 470.414062 225 C 470.414062 319.105469 394.144531 395.386719 300.0625 395.386719 C 205.945312 395.386719 129.703125 319.105469 129.703125 225 C 129.703125 130.972656 205.945312 54.675781 300.0625 54.675781 C 394.144531 54.675781 470.414062 130.972656 470.414062 225 " fill-opacity="1" fill-rule="nonzero"/><path fill="#83868b" d="M 433.246094 225 C 433.246094 298.5625 373.617188 358.171875 300.0625 358.171875 C 226.539062 358.171875 166.929688 298.5625 166.929688 225 C 166.929688 151.488281 226.539062 91.867188 300.0625 91.867188 C 373.617188 91.867188 433.246094 151.488281 433.246094 225 " fill-opacity="1" fill-rule="nonzero"/><path fill="#ebd6a5" d="M 392.039062 225 C 392.039062 275.84375 350.894531 317.011719 300.0625 317.011719 C 249.246094 317.011719 208.050781 275.84375 208.050781 225 C 208.050781 174.234375 249.246094 133.039062 300.0625 133.039062 C 350.894531 133.039062 392.039062 174.234375 392.039062 225 " fill-opacity="1" fill-rule="nonzero"/><path fill="#da2939" d="M 345.96875 225 C 345.96875 250.351562 325.425781 270.941406 300.0625 270.941406 C 274.738281 270.941406 254.183594 250.351562 254.183594 225 C 254.183594 199.6875 274.738281 179.132812 300.0625 179.132812 C 325.425781 179.132812 345.96875 199.6875 345.96875 225 " fill-opacity="1" fill-rule="nonzero"/><path fill="#fab816" d="M 401.554688 116.222656 L 395.40625 85.742188 L 441.644531 39.457031 L 447.84375 69.988281 L 401.554688 116.222656 " fill-opacity="1" fill-rule="nonzero"/><path fill="#fab816" d="M 407.847656 122.5 L 438.375 128.699219 L 484.585938 82.414062 L 454.121094 76.238281 L 407.847656 122.5 " fill-opacity="1" fill-rule="nonzero"/><path fill="#514f60" d="M 305.027344 227.730469 C 302.640625 230.128906 298.800781 230.128906 296.351562 227.730469 C 293.976562 225.304688 293.976562 221.425781 296.351562 219.042969 L 454.683594 60.722656 C 457.082031 58.324219 460.972656 58.324219 463.371094 60.722656 C 465.742188 63.109375 465.742188 67 463.371094 69.425781 L 305.027344 227.730469 " fill-opacity="1" fill-rule="nonzero"/></svg>