<svg xmlns="http://www.w3.org/2000/svg" xmlns:xlink="http://www.w3.org/1999/xlink" width="800" zoomAndPan="magnify" viewBox="0 0 600 449.999984" height="600" preserveAspectRatio="xMidYMid meet" version="1.0"><path fill="#1f2f3d" d="M 448.417969 421.25 C 440.691406 426.84375 431.902344 430.332031 423.046875 433.1875 C 400.757812 440.324219 377.628906 443.675781 354.523438 445.804688 C 304.507812 450.425781 253.902344 449.292969 204.5 439.53125 C 187.644531 436.199219 170.679688 431.761719 155.820312 422.246094 C 148.660156 417.648438 141.773438 408.382812 148.546875 400.046875 C 154.890625 392.1875 164.359375 387.972656 173.171875 384.78125 C 193.171875 377.484375 214.082031 373.75 234.988281 371.234375 C 239.042969 370.757812 243.074219 370.304688 247.105469 369.917969 L 265.703125 396.738281 C 263.191406 397.304688 260.675781 397.964844 258.183594 398.6875 C 250.6875 400.90625 239.429688 408.542969 251.820312 414.316406 C 259.792969 418.03125 268.421875 419.710938 277.007812 420.796875 C 281.605469 421.363281 286.25 421.769531 290.917969 422.019531 C 297.78125 422.382812 304.6875 422.359375 311.550781 421.996094 C 318.144531 421.65625 324.691406 420.957031 331.214844 419.9375 C 338.507812 418.804688 345.847656 417.195312 352.394531 413.503906 C 354.410156 412.347656 356.5625 410.671875 356.742188 408.15625 C 356.765625 408.042969 356.765625 407.90625 356.765625 407.773438 C 356.765625 404.757812 353.890625 402.652344 351.328125 401.453125 C 346.6875 399.277344 341.839844 397.738281 336.902344 396.625 L 355.859375 369.828125 C 357.378906 369.988281 358.894531 370.144531 360.4375 370.304688 C 382.566406 372.660156 404.699219 376.332031 425.992188 383.554688 C 434.507812 386.433594 443.003906 389.96875 450.160156 395.832031 C 453.492188 398.574219 456.707031 402.222656 457.09375 406.796875 C 457.589844 412.867188 453.015625 417.917969 448.417969 421.25 " fill-opacity="1" fill-rule="nonzero"/><path fill="#4377c3" d="M 301.425781 221.523438 C 263.871094 221.523438 233.425781 191.058594 233.425781 153.476562 C 233.425781 115.921875 263.871094 85.453125 301.425781 85.453125 C 339.007812 85.453125 369.472656 115.921875 369.472656 153.476562 C 369.472656 191.058594 339.007812 221.523438 301.425781 221.523438 Z M 446.855469 122.898438 C 433.625 51.816406 360.867188 0.234375 284.617188 9.636719 C 231.320312 16.207031 192.355469 42.890625 168.664062 88.125 C 152.648438 118.753906 149.203125 150.964844 162.070312 183.558594 C 168.527344 199.984375 175.546875 216.335938 183.726562 232.105469 C 188.390625 241.097656 193.285156 250 198.359375 258.789062 C 200.058594 261.800781 201.824219 264.789062 203.570312 267.757812 C 218.519531 292.949219 234.785156 317.367188 251.75 341.421875 C 253.949219 344.570312 256.191406 347.742188 258.457031 350.847656 C 261.195312 354.742188 263.984375 358.617188 266.769531 362.46875 C 268.445312 364.777344 270.121094 367.066406 271.820312 369.355469 C 278.003906 377.847656 284.300781 386.273438 290.710938 394.835938 C 294.246094 399.550781 297.800781 404.304688 301.40625 409.128906 C 303.082031 407.09375 304.167969 405.914062 305.097656 404.621094 C 307.40625 401.40625 309.71875 398.210938 312.074219 394.996094 C 318.28125 386.410156 324.554688 377.871094 330.785156 369.285156 C 344.035156 351.117188 357.195312 332.90625 369.90625 314.398438 C 388.003906 288.007812 404.992188 260.960938 419.582031 232.738281 C 423.160156 225.785156 426.625 218.761719 429.910156 211.648438 C 431.609375 208.023438 433.261719 204.378906 434.847656 200.683594 C 445.722656 175.699219 451.996094 150.351562 446.855469 122.898438 " fill-opacity="1" fill-rule="nonzero"/></svg>